<?xml version="1.0" encoding="UTF-8"?>
<svg version="1.1" xmlns="http://www.w3.org/2000/svg" viewBox="0 0 1082 588" width="100%" height="100%">
<path d="M0 0 C4.80986595 1.71504604 7.21094132 1.42526744 11.875 -0.625 C12.87015625 -1.11613281 13.8653125 -1.60726563 14.890625 -2.11328125 C29.97730313 -9.27340255 47.84283463 -5.58500499 62.92578125 -0.4375 C77.34726541 5.1827807 90.10666961 13.47295357 101.8125 23.5 C102.5852124 24.16104736 102.5852124 24.16104736 103.37353516 24.83544922 C133.50739756 50.92566652 151.28947115 82.3650447 161.01159668 120.72085571 C162.2731362 125.68249752 163.57883511 130.63243552 164.88671875 135.58203125 C165.14035187 136.54229721 165.39398499 137.50256317 165.65530396 138.4919281 C172.10959185 162.76715037 180.62873195 193.7108213 202.8125 208.5 C202.8125 209.16 202.8125 209.82 202.8125 210.5 C192.78502083 211.42847029 186.28125333 206.86778191 178.6875 200.6875 C177.0545006 199.30103375 175.42656128 197.90846792 173.8125 196.5 C174.49445809 200.40814446 175.60472677 204.00248689 176.921875 207.7421875 C183.94260204 228.00719709 190.84623463 248.63710475 191.05078125 270.30078125 C191.058853 271.13602829 191.06692474 271.97127533 191.07524109 272.83183289 C191.08901444 274.59758475 191.09976648 276.36336248 191.10766602 278.12915039 C191.11909531 279.89843806 191.13940042 281.66769378 191.16918945 283.43676758 C191.44119482 299.64615981 190.79119469 321.54890351 179.12890625 334.34765625 C178.69449219 334.72792969 178.26007813 335.10820312 177.8125 335.5 C176.8125 333.5 176.8125 333.5 177.73828125 330.23828125 C179.37740074 324.13535274 179.06364395 317.96145398 179 311.6875 C178.99935547 310.46095703 178.99871094 309.23441406 178.99804688 307.97070312 C179.08978441 301.63356246 179.08978441 301.63356246 177.8125 295.5 C176.97216018 299.48269682 176.1361533 303.46627739 175.30395508 307.45068359 C175.02093225 308.80281428 174.73677669 310.15470843 174.45141602 311.50634766 C168.85870383 338.01051435 166.92103912 368.49463957 181.8125 392.5 C182.36679687 393.42554688 182.92109375 394.35109375 183.4921875 395.3046875 C183.92789062 396.02914063 184.36359375 396.75359375 184.8125 397.5 C177.42824461 396.80337213 173.7396968 392.72251775 168.8125 387.5 C165.82744432 383.70671625 162.97594617 379.82689233 160.8125 375.5 C160.11263832 393.38535408 161.22131383 409.23035625 173.3125 423.4375 C177.45628008 426.85611857 181.50230553 428.71908905 186.8125 429.5 C186.8125 430.49 186.8125 431.48 186.8125 432.5 C180.44122034 435.7534194 175.05326296 436.79410102 168.0859375 434.66796875 C161.41334895 432.10084895 161.41334895 432.10084895 158.8125 429.5 C160.69051346 440.95588208 165.44465593 449.53355758 174.8125 456.5 C174.4825 457.16 174.1525 457.82 173.8125 458.5 C162.4188661 457.86702034 154.85151168 452.4414507 147.23828125 444.29296875 C143.54645187 440.04231173 140.60927315 435.89031945 138.8125 430.5 C138.22720237 444.07565332 138.61321536 456.60611029 147.8125 467.5 C148.4725 468.16 149.1325 468.82 149.8125 469.5 C146.75250785 470.48999746 145.1365622 470.61047575 142.0625 469.5625 C133.67614355 464.24038918 126.02369884 457.13359653 122.8125 447.5 C122.65394531 448.62535156 122.49539063 449.75070312 122.33203125 450.91015625 C119.62797047 469.11071872 114.86991409 486.55530998 100.8125 499.5 C100.1525 499.5 99.4925 499.5 98.8125 499.5 C98.8125 493.89 98.8125 488.28 98.8125 482.5 C96.98983489 485.23399766 95.79158571 487.86644884 94.55566406 490.89453125 C89.41897181 503.35202113 83.07376614 513.89234361 70.8125 520.5 C67.4765625 521.2109375 67.4765625 521.2109375 64.8125 521.5 C65.4725 518.2 66.1325 514.9 66.8125 511.5 C65.9875 512.5725 65.1625 513.645 64.3125 514.75 C58.98177803 520.8732733 52.26560346 525.31716188 45.74365234 530.07226562 C41.66584404 533.08705993 37.73857376 536.29118971 33.8125 539.5 C33.1525 539.17 32.4925 538.84 31.8125 538.5 C31.1875 535.9375 31.1875 535.9375 30.8125 533.5 C28.8325 535.81 26.8525 538.12 24.8125 540.5 C20.8125 539.5 20.8125 539.5 19.125 537.25 C15.96249622 533.48918469 12.42151492 531.2125963 7.8125 529.5 C6.719375 529.685625 5.62625 529.87125 4.5 530.0625 C-2.08810989 530.84414016 -7.61892566 527.21514798 -12.77392578 523.29296875 C-22.95917075 514.92482457 -30.74985414 504.96096043 -37.1875 493.5 C-37.14825586 502.19257675 -34.10825728 508.85032677 -30.1875 516.5 C-40.25600966 515.42386354 -47.7285004 507.65992035 -54.0703125 500.24609375 C-61.57065454 490.51779033 -66.87220458 479.51227428 -72.1875 468.5 C-72.26226562 469.44359375 -72.33703125 470.3871875 -72.4140625 471.359375 C-73.4886795 481.85269398 -75.5592641 491.75920882 -83.8125 499.125 C-87.85053669 502.25305659 -91.01562394 503.78732645 -96.1875 503.5 C-95.57996975 500.09783062 -94.23595528 498.23127371 -92.1875 495.5 C-89.09881996 486.36089192 -90.62112316 475.81137045 -94.63671875 467.31640625 C-96.69336268 463.58129221 -98.99418937 460.045562 -101.34765625 456.4921875 C-103.47779142 453.02789124 -105.26972113 449.4890002 -107 445.8125 C-107.28987793 445.20688232 -107.57975586 444.60126465 -107.87841797 443.97729492 C-109.91490097 439.54971447 -111.11850367 435.22965694 -112.1875 430.5 C-112.4741684 444.54675154 -112.42426835 457.94983556 -107.08984375 471.1953125 C-106.2705905 473.2877775 -105.67691684 475.31023807 -105.1875 477.5 C-108.1875 477.5 -108.1875 477.5 -109.65234375 476.06640625 C-117.07767909 465.96243534 -119.58098911 455.57590949 -122.1875 443.5 C-122.63480469 444.03109375 -123.08210938 444.5621875 -123.54296875 445.109375 C-132.56584523 455.65209634 -132.56584523 455.65209634 -139.1875 457.5 C-141.87921246 457.65065555 -144.48715381 457.59153716 -147.1875 457.5 C-147.1875 456.51 -147.1875 455.52 -147.1875 454.5 C-145.61328125 453.09765625 -145.61328125 453.09765625 -143.5 451.5625 C-136.20375993 445.45432026 -133.53459814 435.67333623 -132.1875 426.5 C-131.88221987 421.74707911 -131.85510212 417.01162185 -131.875 412.25 C-131.87582581 411.59336365 -131.87665161 410.93672729 -131.87750244 410.26019287 C-131.91959603 395.66346566 -133.48904697 381.61844243 -137.1875 367.5 C-137.33445313 368.44359375 -137.48140625 369.3871875 -137.6328125 370.359375 C-139.64339556 381.86822978 -143.0268847 393.51823064 -152.1875 401.5 C-155.0625 402.9375 -155.0625 402.9375 -157.1875 403.5 C-156.23842819 400.60617836 -155.27604723 397.73139881 -154.1875 394.88671875 C-149.67198368 382.69835245 -148.50597587 369.43346925 -149.1875 356.5 C-149.27257812 354.56060547 -149.27257812 354.56060547 -149.359375 352.58203125 C-150.14619064 340.26884214 -152.8769058 328.50544603 -155.6723938 316.53005981 C-158.75179354 303.2867602 -160.80808162 290.22732802 -161.92553711 276.65600586 C-162.1366034 274.32020319 -162.1366034 274.32020319 -163.1875 271.5 C-163.54069263 285.93561688 -163.12211303 299.80688133 -160.84375 314.078125 C-160.33646745 317.25656722 -160.02737932 320.27089956 -160.1875 323.5 C-169.32427617 315.80016489 -172.5586826 296.65833531 -174.1875 285.5 C-174.45651685 280.67031266 -174.4818254 275.8364551 -174.5 271 C-174.50295074 270.31214417 -174.50590149 269.62428833 -174.50894165 268.91558838 C-174.52108681 256.42637877 -173.04421348 244.65733774 -170.1875 232.5 C-169.87452639 231.08893434 -169.56321535 229.67749845 -169.25390625 228.265625 C-168.5966133 225.33453873 -167.91341934 222.41467616 -167.1875 219.5 C-167.73664063 220.15355469 -167.73664063 220.15355469 -168.296875 220.8203125 C-173.32315506 226.34922056 -179.14949994 229.96854543 -186.1875 232.5 C-189.55859375 232.66015625 -189.55859375 232.66015625 -192.1875 232.5 C-192.1875 231.51 -192.1875 230.52 -192.1875 229.5 C-190.68359375 228.02734375 -190.68359375 228.02734375 -188.625 226.4375 C-169.03440442 209.81308614 -164.87308956 180.58031384 -162.8125 156.5625 C-159.30902178 118.2652889 -147.32749288 78.80685033 -121.1875 49.5 C-120.52878906 48.73429687 -119.87007813 47.96859375 -119.19140625 47.1796875 C-108.56855916 35.05599779 -97.23223704 23.98188877 -84.1875 14.5 C-83.29659668 13.84257813 -83.29659668 13.84257813 -82.38769531 13.171875 C-58.28251641 -4.44394623 -28.4896756 -11.70707086 0 0 Z " fill="#100F09" transform="translate(228.1875,29.5)"/>
<path d="M0 0 C0.66 0 1.32 0 2 0 C2.58265625 1.15113281 3.1653125 2.30226563 3.765625 3.48828125 C12.60631696 20.74327701 22.40670714 37.20299401 35 52 C35.67844971 52.79809082 35.67844971 52.79809082 36.37060547 53.61230469 C47.24845859 66.25486455 59.55431315 74.88806096 74 83 C74 82.34 74 81.68 74 81 C73.44570313 80.77828125 72.89140625 80.5565625 72.3203125 80.328125 C55.39166287 70.63832555 44.2743837 45.73429171 36 29 C36.66 29 37.32 29 38 29 C39.33209492 30.7878116 40.65866237 32.57988799 41.96484375 34.38671875 C44.45915297 37.58958413 47.16701788 40.53598999 49.9375 43.5 C50.46706299 44.0667041 50.99662598 44.6334082 51.54223633 45.21728516 C52.57337042 46.32050753 53.60453776 47.42369884 54.63574219 48.52685547 C56.31538874 50.34056114 57.94609898 52.19231622 59.5625 54.0625 C70.6982384 66.86189089 82.27446878 78.92751714 96 89 C94.17405025 84.96046871 91.66417405 81.40787798 89.1875 77.75 C88.28702916 76.40804247 87.38728254 75.0655987 86.48828125 73.72265625 C86.05854004 73.08086426 85.62879883 72.43907227 85.18603516 71.77783203 C79 62.50514615 79 62.50514615 79 60 C94.67593113 66.82661517 105.32981028 85.60640339 111.375 100.8125 C113.25337186 105.76787327 114.96028584 110.73950595 116.359375 115.8515625 C116.96617673 118.0600126 116.96617673 118.0600126 118.02960205 120.28820801 C119.08915552 123.24914647 119.22030139 125.40295325 119.16699219 128.53710938 C119.15327576 129.62173462 119.13955933 130.70635986 119.12542725 131.82385254 C119.099505 132.9854187 119.07358276 134.14698486 119.046875 135.34375 C119.01645111 137.14652405 119.01645111 137.14652405 118.9854126 138.98571777 C118.93988271 141.5242667 118.8891179 144.06272637 118.83349609 146.60107422 C118.75031624 150.4852327 118.688442 154.36932146 118.62890625 158.25390625 C118.58200785 160.7213788 118.5338723 163.18882821 118.484375 165.65625 C118.46654968 166.81781616 118.44872437 167.97938232 118.43035889 169.17614746 C118.39087128 170.80308533 118.39087128 170.80308533 118.35058594 172.46289062 C118.32155182 173.88921814 118.32155182 173.88921814 118.29193115 175.34436035 C117.97746575 178.20498957 117.09389496 180.35284009 116 183 C115.82469236 185.93137366 115.73040893 188.81740631 115.6875 191.75 C114.7698271 219.37040771 106.66888426 249.30004833 89 271 C88.46761719 271.66 87.93523437 272.32 87.38671875 273 C86.27752649 274.34977762 85.14284051 275.67859065 84 277 C82.18359375 276.85546875 82.18359375 276.85546875 80 276 C78.47265625 273.48828125 78.47265625 273.48828125 77.0625 270.3125 C72.12618789 259.92285555 65.94328116 254.63513276 55.17895508 250.69848633 C51.59676576 249.55017892 47.94002565 248.89203569 44.25 248.1875 C38.49729621 247.02314283 33.6385201 245.58752701 28.4375 242.75 C23.41519106 240.02814343 19.66625317 238.7808062 14 240 C11.4257632 240.94267827 8.92947997 242.00350643 6.41796875 243.1015625 C1.84810993 244.79957143 -2.19569108 244.62801913 -6.828125 243.015625 C-13.77591926 240.79096181 -20.86218906 240.58059593 -27.56640625 243.61328125 C-29.94569317 244.96946485 -32.24651852 246.43711831 -34.5546875 247.91015625 C-37.78905314 249.95651802 -41.07994193 251.32440282 -44.6875 252.625 C-54.91136316 256.3812125 -63.91612338 260.58249235 -70 270 C-71.45701341 273.38930926 -72.69358837 276.75753007 -73.796875 280.27734375 C-75 283 -75 283 -77.140625 284.37890625 C-77.75421875 284.58386719 -78.3678125 284.78882813 -79 285 C-103.38303767 262.52106072 -115.21695763 231.88859199 -118.96142578 199.32421875 C-119.0695459 198.41800781 -119.17766602 197.51179687 -119.2890625 196.578125 C-119.37881348 195.76762695 -119.46856445 194.95712891 -119.56103516 194.12207031 C-119.92138956 191.7120414 -119.92138956 191.7120414 -122 189 C-124.61476422 179.65997824 -124.81758375 169.5663051 -125.5625 159.9375 C-125.74995741 157.53520564 -125.93907214 155.13309656 -126.13328552 152.7313385 C-126.25312085 151.2481304 -126.36905036 149.76460026 -126.48060608 148.28074646 C-126.74378107 144.51629024 -126.74378107 144.51629024 -128 141 C-128.12418035 138.77341752 -128.17565084 136.54251118 -128.1875 134.3125 C-128.20167969 133.11238281 -128.21585937 131.91226563 -128.23046875 130.67578125 C-127.98832702 126.81382589 -127.1737329 123.68014168 -126 120 C-125.65582031 118.74703125 -125.31164062 117.4940625 -124.95703125 116.203125 C-119.78775007 97.99082309 -109.2293139 84.99039951 -93.1796875 75.01171875 C-92.46039063 74.67785156 -91.74109375 74.34398437 -91 74 C-90.01 74.495 -90.01 74.495 -89 75 C-94.63038154 84.47408669 -100.18660292 93.14885704 -108 101 C-103.08039986 99.60836999 -99.07970111 97.40324778 -94.875 94.5625 C-94.22047852 94.12147949 -93.56595703 93.68045898 -92.89160156 93.22607422 C-79.40867985 83.92174394 -68.21707966 71.60724067 -58.1640625 58.76171875 C-56.48855769 56.62348427 -54.79626716 54.5046711 -53.0859375 52.39453125 C-43.6865808 41.27354922 -43.6865808 41.27354922 -36 29 C-35.34 29 -34.68 29 -34 29 C-40.84495296 50.56013713 -50.37496849 70.5158333 -65.62890625 87.33984375 C-67.98236646 89.74698977 -67.98236646 89.74698977 -69 92 C-58.50787309 86.65168943 -50.27054606 80.35615104 -42 72 C-40.74123047 70.77410156 -40.74123047 70.77410156 -39.45703125 69.5234375 C-20.78558145 50.33418241 -9.19097177 24.78646622 0 0 Z " fill="#1C1B1B" transform="translate(239,115)"/>
<path d="M0 0 C1.10579323 4.46067614 1.16134951 8.83903663 1.16796875 13.40625 C1.17129715 14.20857056 1.17462555 15.01089111 1.17805481 15.83752441 C1.18310209 17.52855865 1.18546382 19.21960277 1.18530273 20.91064453 C1.18749268 23.49137785 1.20568094 26.07168575 1.22460938 28.65234375 C1.2275431 30.29947771 1.22952804 31.94661369 1.23046875 33.59375 C1.23765427 34.36158813 1.24483978 35.12942627 1.25224304 35.92053223 C1.23443907 40.11166305 0.71229762 43.19433705 -1 47 C-1.17530764 49.93137366 -1.26959107 52.81740631 -1.3125 55.75 C-2.2301729 83.37040771 -10.33111574 113.30004833 -28 135 C-28.79857422 135.99 -28.79857422 135.99 -29.61328125 137 C-30.72247351 138.34977762 -31.85715949 139.67859065 -33 141 C-34.81640625 140.85546875 -34.81640625 140.85546875 -37 140 C-38.52734375 137.48828125 -38.52734375 137.48828125 -39.9375 134.3125 C-44.87381211 123.92285555 -51.05671884 118.63513276 -61.82104492 114.69848633 C-65.40323424 113.55017892 -69.05997435 112.89203569 -72.75 112.1875 C-78.50270379 111.02314283 -83.3614799 109.58752701 -88.5625 106.75 C-93.58480894 104.02814343 -97.33374683 102.7808062 -103 104 C-105.5742368 104.94267827 -108.07052003 106.00350643 -110.58203125 107.1015625 C-115.15189007 108.79957143 -119.19569108 108.62801913 -123.828125 107.015625 C-130.77591926 104.79096181 -137.86218906 104.58059593 -144.56640625 107.61328125 C-146.94569317 108.96946485 -149.24651852 110.43711831 -151.5546875 111.91015625 C-154.78905314 113.95651802 -158.07994193 115.32440282 -161.6875 116.625 C-171.91136316 120.3812125 -180.91612338 124.58249235 -187 134 C-188.45701341 137.38930926 -189.69358837 140.75753007 -190.796875 144.27734375 C-192 147 -192 147 -194.140625 148.37890625 C-194.75421875 148.58386719 -195.3678125 148.78882813 -196 149 C-220.38303767 126.52106072 -232.21695763 95.88859199 -235.96142578 63.32421875 C-236.0695459 62.41800781 -236.17766602 61.51179688 -236.2890625 60.578125 C-236.37881348 59.76762695 -236.46856445 58.95712891 -236.56103516 58.12207031 C-236.92138956 55.7120414 -236.92138956 55.7120414 -239 53 C-239.59765625 50.6875 -239.59765625 50.6875 -240.0625 48 C-240.29646484 46.700625 -240.29646484 46.700625 -240.53515625 45.375 C-241.75706488 36.50332729 -242.13712975 27.76232966 -242.0625 18.8125 C-242.05798828 17.76513672 -242.05347656 16.71777344 -242.04882812 15.63867188 C-242.03720124 13.09238464 -242.02086281 10.5462254 -242 8 C-235.47652287 11.934055 -235.47652287 11.934055 -233.73046875 15.83984375 C-233.55128906 16.86207031 -233.37210938 17.88429688 -233.1875 18.9375 C-232.97351563 20.07703125 -232.75953125 21.2165625 -232.5390625 22.390625 C-232.00224941 25.98493874 -231.52681272 29.5831741 -231.0625 33.1875 C-230.21279168 39.35298354 -228.77239118 44.43871532 -226 50 C-225.443125 51.13695312 -224.88625 52.27390625 -224.3125 53.4453125 C-220.22951875 61.3795039 -215.72507087 67.27152742 -208 72 C-207.18789062 72.52464844 -206.37578125 73.04929687 -205.5390625 73.58984375 C-195.14354802 79.09245479 -179.32135661 79.23401663 -168.0625 76.078125 C-162.62397288 73.94156077 -157.99475784 70.88168536 -153.5234375 67.13671875 C-152 66 -152 66 -150 66 C-149.7525 65.443125 -149.505 64.88625 -149.25 64.3125 C-148 62 -148 62 -146.140625 59.76953125 C-135.37368268 45.83930843 -132.6068634 27.25106112 -132.46875 10.125 C-132 7 -132 7 -130.37109375 5.08203125 C-127.29603015 3.67874852 -124.93617571 3.63679736 -121.5625 3.6875 C-120.45003906 3.69136719 -119.33757812 3.69523438 -118.19140625 3.69921875 C-115.07162522 3.99324952 -112.82065161 4.67666626 -110 6 C-109.98582031 6.8971875 -109.97164062 7.794375 -109.95703125 8.71875 C-109.28188745 26.38197161 -103.21299558 42.13548418 -93.35546875 56.78515625 C-92 59 -92 59 -92 61 C-91.44441406 61.26039063 -90.88882813 61.52078125 -90.31640625 61.7890625 C-87.71816128 63.14733559 -85.36792859 64.73562402 -82.9375 66.375 C-71.58326468 73.54058461 -60.20422141 76.12638691 -46.91601562 73.60449219 C-34.32864863 70.57599839 -24.83051773 64.02383318 -18 53 C-12.42874906 42.39495997 -9.60888813 31.42370629 -8.58984375 19.51953125 C-7.46048842 6.5895935 -7.46048842 6.5895935 -3.9375 2.4375 C-1 0 -1 0 0 0 Z " fill="#FAC626" transform="translate(356,251)"/>
<path d="M0 0 C0.66 0 1.32 0 2 0 C2.58265625 1.15113281 3.1653125 2.30226563 3.765625 3.48828125 C12.60631696 20.74327701 22.40670714 37.20299401 35 52 C35.67844971 52.79809082 35.67844971 52.79809082 36.37060547 53.61230469 C47.24845859 66.25486455 59.55431315 74.88806096 74 83 C74 82.34 74 81.68 74 81 C73.44570313 80.77828125 72.89140625 80.5565625 72.3203125 80.328125 C55.39166287 70.63832555 44.2743837 45.73429171 36 29 C36.66 29 37.32 29 38 29 C39.33209492 30.7878116 40.65866237 32.57988799 41.96484375 34.38671875 C44.45915297 37.58958413 47.16701788 40.53598999 49.9375 43.5 C50.46706299 44.0667041 50.99662598 44.6334082 51.54223633 45.21728516 C52.57337042 46.32050753 53.60453776 47.42369884 54.63574219 48.52685547 C56.31538874 50.34056114 57.94609898 52.19231622 59.5625 54.0625 C70.6982384 66.86189089 82.27446878 78.92751714 96 89 C94.17405025 84.96046871 91.66417405 81.40787798 89.1875 77.75 C88.28702916 76.40804247 87.38728254 75.0655987 86.48828125 73.72265625 C86.05854004 73.08086426 85.62879883 72.43907227 85.18603516 71.77783203 C79 62.50514615 79 62.50514615 79 60 C94.15466217 66.59961094 104.70506672 84.58416953 110.71679688 99.2578125 C113.28843072 105.79912552 115.13336743 110.93152603 115 118 C109.99852891 117.50612764 105.49450899 116.63922219 100.69903564 115.16197205 C89.81162288 111.86626007 79.48791505 111.25541325 68.16455078 111.40307617 C65.23763814 111.43764601 62.31372159 111.42358238 59.38671875 111.40429688 C44.92333065 111.41337095 32.17028393 113.05617967 19.3125 120.1875 C9.35753067 125.5284816 9.35753067 125.5284816 4 124 C2.66492328 123.91202404 1.32625159 123.86942037 -0.01171875 123.8671875 C-0.76517578 123.86565674 -1.51863281 123.86412598 -2.29492188 123.86254883 C-3.47924805 123.86871216 -3.47924805 123.86871216 -4.6875 123.875 C-5.49896484 123.87330811 -6.31042969 123.87161621 -7.14648438 123.86987305 C-11.19683265 123.88494373 -15.00896613 124.05743954 -19 124.8125 C-23.49129894 125.42691662 -26.26803835 123.57201781 -30.15234375 121.48046875 C-53.19562007 109.50049382 -86.68999555 112.96171736 -110.8125 120.5 C-113.22396369 121.29685743 -115.60948509 122.14008253 -118 123 C-118.91136719 123.32613281 -119.82273437 123.65226562 -120.76171875 123.98828125 C-122.5169292 124.63461529 -124.26086106 125.31159084 -126 126 C-124.76856451 107.83632654 -116.86229723 94.32113273 -103.57714844 82.33642578 C-99.7394622 79.08449166 -95.57023895 76.12131163 -91 74 C-90.01 74.495 -90.01 74.495 -89 75 C-94.63038154 84.47408669 -100.18660292 93.14885704 -108 101 C-103.08039986 99.60836999 -99.07970111 97.40324778 -94.875 94.5625 C-94.22047852 94.12147949 -93.56595703 93.68045898 -92.89160156 93.22607422 C-79.40867985 83.92174394 -68.21707966 71.60724067 -58.1640625 58.76171875 C-56.48855769 56.62348427 -54.79626716 54.5046711 -53.0859375 52.39453125 C-43.6865808 41.27354922 -43.6865808 41.27354922 -36 29 C-35.34 29 -34.68 29 -34 29 C-40.84495296 50.56013713 -50.37496849 70.5158333 -65.62890625 87.33984375 C-67.98236646 89.74698977 -67.98236646 89.74698977 -69 92 C-58.50787309 86.65168943 -50.27054606 80.35615104 -42 72 C-40.74123047 70.77410156 -40.74123047 70.77410156 -39.45703125 69.5234375 C-20.78558145 50.33418241 -9.19097177 24.78646622 0 0 Z " fill="#F9C625" transform="translate(239,115)"/>
<path d="M0 0 C0.8545021 0.00092179 1.70900419 0.00184359 2.58940029 0.00279331 C4.05552509 0.00073132 4.05552509 0.00073132 5.55126858 -0.00137234 C6.63235897 0.00222294 7.71344936 0.00581821 8.82730007 0.00952244 C10.52464039 0.0093034 10.52464039 0.0093034 12.25627041 0.00907993 C16.01686389 0.00977964 19.77740855 0.01757472 23.53799343 0.02539158 C26.13731261 0.02725555 28.73663215 0.02867955 31.33595181 0.0296793 C37.49122295 0.03311442 43.64647378 0.04100527 49.80173725 0.05102879 C56.80767064 0.06219089 63.81360485 0.06770062 70.81954491 0.07272422 C85.23481851 0.08318791 99.65007722 0.10078675 114.06533718 0.12304783 C114.23020453 4.5900511 114.32913582 9.05626099 114.41689968 13.52539158 C114.4875967 15.40840977 114.4875967 15.40840977 114.55972195 17.32946873 C114.73470296 29.22623321 110.75209091 35.40668453 102.96914577 43.95605564 C99.6130641 47.77608398 96.72133895 51.93747187 93.75283718 56.06054783 C92.57269147 57.66369228 91.39047848 59.26531747 90.20596218 60.86523533 C85.49093208 67.25307127 80.82665114 73.67680676 76.18643093 80.11914158 C66.27074111 93.88046593 56.24236339 107.55367955 46.06533718 121.12304783 C80.22033718 121.61804783 80.22033718 121.61804783 115.06533718 122.12304783 C115.06533718 133.34304783 115.06533718 144.56304783 115.06533718 156.12304783 C75.46533718 156.12304783 35.86533718 156.12304783 -4.93466282 156.12304783 C-4.93466282 122.39041864 -4.93466282 122.39041864 5.32900906 111.98339939 C8.41534726 108.67660846 10.91355687 104.94735746 13.50283718 101.24804783 C14.59333824 99.72841969 15.6857932 98.21019181 16.78018093 96.69336033 C17.32271511 95.93829197 17.86524929 95.18322361 18.4242239 94.40527439 C21.13173234 90.64005736 23.84891082 86.88183335 26.56533718 83.12304783 C29.80670522 78.63698279 33.0467568 74.14999942 36.28018093 69.65820408 C42.656037 60.8065499 49.08240936 51.99485415 55.57290554 43.22680759 C56.13115017 42.47198093 56.6893948 41.71715427 57.26455593 40.93945408 C57.75786404 40.27373386 58.25117214 39.60801365 58.75942898 38.92212009 C59.90052487 37.35009998 60.98782622 35.73931427 62.06533718 34.12304783 C61.26576092 34.12526844 60.46618465 34.12748905 59.64237881 34.12977695 C52.12274079 34.14977875 44.60311559 34.16502138 37.08345795 34.17486 C33.21713601 34.18008808 29.35083597 34.18718437 25.48452663 34.19848728 C21.75630317 34.20931883 18.02810084 34.21532523 14.29986286 34.21792507 C12.87444062 34.21977884 11.44901959 34.22339854 10.0236063 34.22877789 C8.0337031 34.23599176 6.04377884 34.23645591 4.05386257 34.23657322 C2.91913006 34.23879383 1.78439754 34.24101444 0.6152792 34.24330235 C-1.93466282 34.12304783 -1.93466282 34.12304783 -2.93466282 33.12304783 C-3.03544402 30.75906314 -3.07439497 28.42493472 -3.06747532 26.06054783 C-3.06843204 25.35406101 -3.06938877 24.6475742 -3.07037449 23.91967869 C-3.07105615 22.42333989 -3.06920286 20.92699816 -3.06503391 19.43066502 C-3.05968539 17.13274626 -3.06497933 14.83502297 -3.07138157 12.53711033 C-3.07072078 11.08658906 -3.06943962 9.63606792 -3.06747532 8.18554783 C-3.06949955 7.49388523 -3.07152378 6.80222263 -3.07360935 6.08960056 C-3.04444998 0.19363217 -3.04444998 0.19363217 0 0 Z " fill="#F7FAF8" transform="translate(493.9346628189087,116.87695217132568)"/>
<path d="M0 0 C11.27945769 8.69380128 16.43922121 21.37665686 19 35 C19 43.25 19 51.5 19 60 C-6.08 60 -31.16 60 -57 60 C-51.98628925 71.49943813 -51.98628925 71.49943813 -42 78 C-30.28533799 81.98749072 -17.37705302 80.66928769 -6.1640625 75.7578125 C-3.74248662 74.55767666 -1.36886181 73.30029914 1 72 C2.33168447 71.33004575 3.66478453 70.66288904 5 70 C6.90080954 73.73745674 8.76600325 77.49159352 10.625 81.25 C11.16640625 82.31347656 11.7078125 83.37695312 12.265625 84.47265625 C12.76835938 85.49746094 13.27109375 86.52226562 13.7890625 87.578125 C14.26037598 88.52075195 14.73168945 89.46337891 15.21728516 90.43457031 C16 93 16 93 15.25366211 95.24121094 C8.23167652 105.0925029 -6.91471447 108.16425952 -18.02734375 110.234375 C-35.45453195 113.13048743 -55.01367676 110.87437042 -70 101 C-73.57275824 98.21100924 -76.81689636 95.22303505 -80 92 C-80.86238281 91.17048828 -80.86238281 91.17048828 -81.7421875 90.32421875 C-88.60718223 83.15687969 -92.71513855 72.75844143 -94 63 C-94.13277344 62.0615625 -94.26554688 61.123125 -94.40234375 60.15625 C-96.59250941 40.27249885 -91.19694539 24.13849341 -79.8125 7.875 C-59.84471108 -14.57286461 -24.00196382 -15.62332553 0 0 Z M-53.7734375 26.73046875 C-55.63730586 29.93207802 -55.63730586 29.93207802 -57 38 C-43.47 38 -29.94 38 -16 38 C-16.66216227 29.30357036 -16.66216227 29.30357036 -21 23 C-32.25521072 14.50116741 -44.60070746 16.60971912 -53.7734375 26.73046875 Z " fill="#F7FAF8" transform="translate(713,165)"/>
<path d="M0 0 C12.7153125 -0.12375 12.7153125 -0.12375 25.6875 -0.25 C29.66043091 -0.30462402 29.66043091 -0.30462402 33.71362305 -0.36035156 C35.85464675 -0.37205331 37.99567948 -0.38224159 40.13671875 -0.390625 C41.75350525 -0.4213208 41.75350525 -0.4213208 43.4029541 -0.45263672 C54.7347028 -0.45773479 66.40968751 2.19062501 75 10 C81.28984074 17.32662767 84.64185001 25.71452477 84.28125 35.390625 C83.37674944 43.7823802 81.11719963 50.99631542 75 57 C71.77911761 59.52278382 68.45687903 61.81383144 65 64 C70.89659383 74.66817963 77.27913002 85.02664809 83.71484375 95.37451172 C84.73771484 97.02410889 84.73771484 97.02410889 85.78125 98.70703125 C86.40064453 99.7019458 87.02003906 100.69686035 87.65820312 101.72192383 C89 104 89 104 89 105 C84.46219335 105.43014719 79.92267193 105.75558815 75.375 106.0625 C73.44720703 106.2471582 73.44720703 106.2471582 71.48046875 106.43554688 C62.21212416 106.98780575 62.21212416 106.98780575 58.94067383 104.32177734 C57.32672783 101.95610565 56.15728443 99.61767888 55 97 C54.14101424 95.42330477 53.2751917 93.85031369 52.40234375 92.28125 C51.57555833 90.69017632 50.75393467 89.09640973 49.9375 87.5 C48.70652475 85.11583624 47.4740519 82.73579556 46.19873047 80.375 C45 78 45 78 44.07080078 75.4375 C43.02299092 72.5459933 43.02299092 72.5459933 40 69 C33.07 68.505 33.07 68.505 26 68 C26 80.21 26 92.42 26 105 C17.42 105 8.84 105 0 105 C0 70.35 0 35.7 0 0 Z M26 22 C26 30.25 26 38.5 26 47 C29.67125 47.0825 33.3425 47.165 37.125 47.25 C38.2711377 47.28641602 39.41727539 47.32283203 40.59814453 47.36035156 C46.72617886 47.42697231 50.39781897 47.19477484 55 43 C57.97307695 38.54038458 57.62015709 34.22922586 57 29 C54.68698123 24.80229928 52.4519957 23.47658195 48 22 C45.39509291 21.72834469 45.39509291 21.72834469 42.69921875 21.8046875 C41.81838623 21.80968262 40.93755371 21.81467773 40.0300293 21.81982422 C38.92699463 21.83803223 37.82395996 21.85624023 36.6875 21.875 C33.160625 21.91625 29.63375 21.9575 26 22 Z " fill="#000000" transform="translate(491,300)"/>
<path d="M0 0 C7.1128968 -0.34292349 13.76257061 1.03611506 19.46484375 5.53515625 C20.82421875 6.87890625 20.82421875 6.87890625 22.76171875 9.19140625 C23.25671875 9.68640625 23.25671875 9.68640625 23.76171875 10.19140625 C24.09171875 7.55140625 24.42171875 4.91140625 24.76171875 2.19140625 C32.35171875 2.19140625 39.94171875 2.19140625 47.76171875 2.19140625 C47.82970588 11.92786028 47.88465625 21.66415463 47.91715527 31.40079308 C47.93275927 35.92272186 47.95390042 40.44447872 47.98803711 44.96630859 C48.02081957 49.33648984 48.03861129 53.70650651 48.04635048 58.0768013 C48.05186029 59.73763237 48.06261896 61.39845523 48.07890892 63.05921555 C48.20071523 76.00122581 47.52331593 87.99333783 38.1640625 97.87890625 C26.63057534 108.38777838 12.99567842 108.89457027 -1.90234375 108.65234375 C-11.20635472 108.21565325 -19.48954912 105.35722767 -27.23828125 100.19140625 C-26.58324843 96.13321442 -25.29269004 92.65169343 -23.67578125 88.87890625 C-23.22074219 87.81027344 -22.76570312 86.74164063 -22.296875 85.640625 C-21.94753906 84.83238281 -21.59820313 84.02414062 -21.23828125 83.19140625 C-17.36982283 83.19140625 -15.6887962 83.65086555 -12.23828125 85.12890625 C-4.21849047 88.53976239 5.43262464 90.29804389 13.82421875 86.94140625 C18.33739196 84.25270731 20.6379021 82.29821436 22.01171875 77.19140625 C22.65551036 74.34984327 22.76171875 72.1847071 22.76171875 69.19140625 C22.26542969 69.60132813 21.76914062 70.01125 21.2578125 70.43359375 C13.22483632 76.80510048 5.89831218 78.04932106 -4.23828125 77.19140625 C-13.30567268 75.29775896 -20.35162154 70.23821058 -26.23828125 63.19140625 C-30.93580574 55.80334915 -32.61411414 48.04174372 -32.55078125 39.37890625 C-32.5458667 38.58500488 -32.54095215 37.79110352 -32.53588867 36.97314453 C-32.3086086 25.5765057 -28.69589493 16.84484616 -20.98828125 8.44140625 C-15.04191084 2.767092 -8.03346512 0.68698044 0 0 Z M-1.23828125 23.19140625 C-5.90657465 27.85969965 -7.52558181 32.60225149 -7.55078125 39.12890625 C-7.41370914 45.70836755 -6.13606925 49.15806196 -1.61328125 54.00390625 C2.16897694 56.90395037 6.07360906 57.4614021 10.76171875 57.19140625 C16.63578238 55.52708822 19.42361186 53.10038698 22.76171875 48.19140625 C23.69462591 45.86281088 23.69462591 45.86281088 23.76171875 43.19140625 C23.81199219 42.50949219 23.86226562 41.82757813 23.9140625 41.125 C24.19673806 34.44254975 22.72694217 29.79243724 18.63671875 24.37890625 C12.33081095 19.58093292 5.57472659 19.03562596 -1.23828125 23.19140625 Z " fill="#000000" transform="translate(912.23828125,326.80859375)"/>
<path d="M0 0 C0.66 0 1.32 0 2 0 C3.0209375 1.11375 3.0209375 1.11375 4.0625 2.25 C10.91770113 9.24822331 20.15874509 9.77245544 29.4375 10.5 C50.00784807 12.11827669 50.00784807 12.11827669 56.0625 19.0625 C59.47108181 24.23034985 59.24769253 28.70361036 59.3125 34.6875 C59.35600586 35.99750977 59.35600586 35.99750977 59.40039062 37.33398438 C59.47068492 44.57429704 57.77339508 49.57867201 53.2109375 55.20703125 C47.12339031 60.53039699 40.84826691 62.9886323 32.75 63.375 C27.37104683 62.83710468 24.31427261 61.45635613 20.6875 57.4375 C17.32502448 52.58059092 17.70199069 47.84909514 17.5703125 42.12109375 C17.48602568 40.0736263 17.25213715 38.03363076 17 36 C12.77583243 33.18388829 9.21576375 33.6696632 4.25 33.6875 C3.36828125 33.67138672 2.4865625 33.65527344 1.578125 33.63867188 C-4.05978715 33.634477 -7.98489381 34.40338081 -13 37 C-12.90460938 38.16917969 -12.80921875 39.33835937 -12.7109375 40.54296875 C-12.59834603 42.09110142 -12.48640086 43.6392812 -12.375 45.1875 C-12.31054688 45.95642578 -12.24609375 46.72535156 -12.1796875 47.51757812 C-11.8821348 51.85068936 -11.8167045 55.08765168 -14 59 C-18.87376856 63.7383861 -23.65178966 65.09630919 -30.3125 65.375 C-36.72319908 65.22692679 -41.8036771 63.6897628 -46.75 59.52734375 C-52.85782601 53.06831774 -55.21851081 45.64807973 -55.5 36.875 C-55.30214701 30.99685159 -54.61603419 26.68210817 -51 22 C-45.59648416 17.40909515 -41.10938457 15.98661961 -34.1875 14.875 C-32.40049688 14.54985505 -30.61402673 14.22176606 -28.828125 13.890625 C-27.56452148 13.66149414 -27.56452148 13.66149414 -26.27539062 13.42773438 C-16.56968118 11.60322762 -5.96801127 8.24832602 0 0 Z " fill="#F8C322" transform="translate(240,380)"/>
<path d="M0 0 C6.98258402 5.91056905 10.91413195 11.91260476 11.8609314 21.07571411 C12.00266113 24.34596063 12.05578636 27.6056536 12.07421875 30.87890625 C12.09216995 32.06475815 12.11012115 33.25061005 12.12861633 34.47239685 C12.18246769 38.23156256 12.21653499 41.99060311 12.25 45.75 C12.2831952 48.31056419 12.31768687 50.87111193 12.35351562 53.43164062 C12.44060168 59.68360928 12.50088876 65.93502165 12.5625 72.1875 C4.9725 72.1875 -2.6175 72.1875 -10.4375 72.1875 C-10.9325 68.7225 -10.9325 68.7225 -11.4375 65.1875 C-12.076875 65.93 -12.71625 66.6725 -13.375 67.4375 C-19.08676119 72.99104066 -25.07121295 74.45892052 -32.9375 74.6875 C-41.43695322 74.44903839 -48.3249456 72.3000544 -54.4375 66.1875 C-59.5318374 58.50282155 -60.32372339 52.36192625 -59.4375 43.1875 C-56.92282123 36.17458118 -51.41376371 31.64952428 -44.875 28.4375 C-40.03432321 26.67725389 -35.84104451 26.06234736 -30.69921875 26.08984375 C-29.63251953 26.09306641 -28.56582031 26.09628906 -27.46679688 26.09960938 C-25.81260742 26.11217773 -25.81260742 26.11217773 -24.125 26.125 C-23.00287109 26.12951172 -21.88074219 26.13402344 -20.72460938 26.13867188 C-17.9621849 26.15042687 -15.19987002 26.16685923 -12.4375 26.1875 C-14.06515795 20.557436 -14.06515795 20.557436 -17.7109375 16.21484375 C-26.07905725 13.06181296 -35.17829449 14.83088725 -43.1328125 18.3125 C-45.4375 19.1875 -45.4375 19.1875 -49.4375 19.1875 C-50.47508749 17.13337752 -51.4920034 15.06880395 -52.5 13 C-53.06847656 11.85144531 -53.63695312 10.70289063 -54.22265625 9.51953125 C-55.48787319 6.04933817 -55.79141531 4.58733179 -54.4375 1.1875 C-40.4885746 -8.29776927 -14.00080126 -9.95206209 0 0 Z M-34.375 43.375 C-36.14204606 46.3893727 -35.85506009 48.78736784 -35.4375 52.1875 C-33.7790525 54.92754369 -32.46365311 55.90516186 -29.37890625 56.75390625 C-24.22224713 57.58001522 -20.84600771 57.26320305 -16.4375 54.1875 C-13.85508419 51.87691743 -12.55914799 50.35492832 -12.1953125 46.86328125 C-12.18827808 44.62281931 -12.26235831 42.42055659 -12.4375 40.1875 C-23.85631985 39.59933686 -23.85631985 39.59933686 -34.375 43.375 Z " fill="#000000" transform="translate(1031.4375,332.8125)"/>
<path d="M0 0 C7.31267926 6.29230541 12.0546394 12.3255877 12.94935608 22.20344543 C13.032745 25.47439585 13.02511235 28.73220559 12.98046875 32.00390625 C12.97622391 33.18975815 12.97197906 34.37561005 12.96760559 35.59739685 C12.95091433 39.35683626 12.91327888 43.11572467 12.875 46.875 C12.85994086 49.43553909 12.84625462 51.99608665 12.83398438 54.55664062 C12.80104195 60.8088036 12.74932507 67.06055862 12.6875 73.3125 C5.7575 73.3125 -1.1725 73.3125 -8.3125 73.3125 C-8.9725 71.6625 -9.6325 70.0125 -10.3125 68.3125 C-11.07433594 68.81910156 -11.07433594 68.81910156 -11.8515625 69.3359375 C-12.53992188 69.78195312 -13.22828125 70.22796875 -13.9375 70.6875 C-14.61039063 71.12835938 -15.28328125 71.56921875 -15.9765625 72.0234375 C-23.81116362 76.34687959 -33.51718725 76.88054836 -42.11328125 74.5546875 C-44.31130469 73.61637161 -46.28731751 72.57713361 -48.3125 71.3125 C-49.22 70.77625 -50.1275 70.24 -51.0625 69.6875 C-56.14724848 64.32026549 -58.61757095 58.5230214 -58.8125 51.125 C-58.45673835 44.16985965 -56.85294792 39.52084491 -51.8125 34.625 C-43.10560052 27.71212439 -33.93551383 26.73318148 -23.125 27.0625 C-21.41086914 27.08957031 -21.41086914 27.08957031 -19.66210938 27.1171875 C-16.87798953 27.16378365 -14.09572111 27.22917962 -11.3125 27.3125 C-11.71003821 25.84883658 -12.13131384 24.3916065 -12.5625 22.9375 C-12.91054688 21.71933594 -12.91054688 21.71933594 -13.265625 20.4765625 C-14.55987795 17.80112917 -15.54420582 17.27922638 -18.3125 16.3125 C-27.75206884 15.3472171 -35.63686096 16.42718683 -44.3125 20.3125 C-45.3025 20.6425 -46.2925 20.9725 -47.3125 21.3125 C-48.48624173 18.87818361 -49.65165763 16.44045818 -50.8125 14 C-51.14636719 13.30970703 -51.48023438 12.61941406 -51.82421875 11.90820312 C-54.3125 6.65234375 -54.3125 6.65234375 -54.3125 3.3125 C-38.51913794 -6.08919553 -16.70293521 -8.50904246 0 0 Z M-34.3125 46.3125 C-34.73399456 50.10595105 -34.87916117 52.41528648 -32.8125 55.6875 C-29.39849158 57.90660547 -26.32016729 58.61687979 -22.3125 58.3125 C-18.14903581 57.05084418 -15.16045758 55.29295095 -12.3125 52 C-11.06636649 48.65101618 -11.10403855 45.85634464 -11.3125 42.3125 C-19.06661935 39.72779355 -28.33625819 40.33625819 -34.3125 46.3125 Z " fill="#000000" transform="translate(796.3125,331.6875)"/>
<path d="M0 0 C7.46911704 5.72589892 11.56958252 14.31546139 12.79296875 23.51953125 C13.31636733 29.50384372 13.28852169 34.78449487 12.29296875 40.7578125 C-3.54703125 41.0878125 -19.38703125 41.4178125 -35.70703125 41.7578125 C-33.58509802 48.37261314 -33.58509802 48.37261314 -28.44140625 51.83984375 C-20.72054598 54.43184684 -11.41366522 53.84446069 -3.95703125 50.7578125 C-3.2196875 50.3865625 -2.48234375 50.0153125 -1.72265625 49.6328125 C0.29296875 48.7578125 0.29296875 48.7578125 4.29296875 48.7578125 C5.32810122 50.8340782 6.34563086 52.91912729 7.35546875 55.0078125 C7.92394531 56.16796875 8.49242187 57.328125 9.078125 58.5234375 C10.29296875 61.7578125 10.29296875 61.7578125 10.328125 63.984375 C8.71445671 66.7489237 6.52455639 67.5289459 3.66796875 68.8828125 C2.64445313 69.38039063 1.6209375 69.87796875 0.56640625 70.390625 C-10.83330655 75.15184156 -25.38511054 75.79778689 -37.21875 71.859375 C-47.77494116 67.18614752 -54.5274428 61.25771675 -59.01953125 50.6328125 C-63.42069486 38.57983331 -62.89021935 25.78116375 -57.48828125 14.12890625 C-52.07525588 4.28020732 -44.50119767 -2.07899635 -33.70703125 -5.2421875 C-21.90438622 -8.07936179 -10.18420974 -6.5368416 0 0 Z M-34.51953125 17.5703125 C-36.12250477 20.23959322 -36.12250477 20.23959322 -36.70703125 25.7578125 C-28.12703125 25.7578125 -19.54703125 25.7578125 -10.70703125 25.7578125 C-11.58133983 18.65848942 -11.58133983 18.65848942 -15.70703125 13.7578125 C-22.72999822 11.41682351 -29.17487269 12.22565394 -34.51953125 17.5703125 Z " fill="#000000" transform="translate(643.70703125,333.2421875)"/>
<path d="M0 0 C-1.54385129 4.14032846 -3.51028938 7.93553053 -5.625 11.8125 C-5.94984375 12.40998047 -6.2746875 13.00746094 -6.609375 13.62304688 C-7.40379151 15.08337135 -8.20155376 16.54187491 -9 18 C-11.50975193 16.99609923 -14.00969178 15.99569593 -16.48046875 14.8984375 C-22.25183105 12.84043234 -28.82523314 13.11370191 -34.4375 15.5625 C-38.34841372 17.89941148 -40.79670827 20.56800002 -42 25 C-42.91864329 32.35789533 -43.21862544 39.40737268 -38.5390625 45.51171875 C-34.5982118 49.32254138 -30.35050142 50.16412878 -25.0625 50.375 C-18.66591034 50.18027885 -13.65518304 47.86496057 -8 45 C-6.65929682 47.60060504 -5.32726646 50.20504916 -4 52.8125 C-3.6184375 53.55048828 -3.236875 54.28847656 -2.84375 55.04882812 C-2.4828125 55.76103516 -2.121875 56.47324219 -1.75 57.20703125 C-1.24726562 58.18893433 -1.24726562 58.18893433 -0.734375 59.19067383 C0 61 0 61 0 64 C-8.66139353 71.93557843 -20.46181108 72.7034912 -31.5859375 72.34375 C-41.68857087 71.73906053 -50.51086854 67.79495171 -58 61 C-67.21694205 49.9903335 -68.95448606 37.92842619 -68 24 C-66.37077337 13.56190396 -60.43416367 5.46258488 -52.50390625 -1.2734375 C-37.21915904 -11.81299798 -14.74631283 -10.49256874 0 0 Z " fill="#000000" transform="translate(732,335)"/>
<path d="M0 0 C-0.33 7.26 -0.66 14.52 -1 22 C-1.99 22.495 -1.99 22.495 -3 23 C-3.99 22.67 -4.98 22.34 -6 22 C-12.36443245 21.46064132 -16.66908785 22.40102014 -22 26 C-25.25676892 29.46688304 -26.1115084 32.70234717 -26.20532227 37.37963867 C-26.22526749 38.26032516 -26.24521271 39.14101166 -26.26576233 40.04838562 C-26.29083107 41.46882927 -26.29083107 41.46882927 -26.31640625 42.91796875 C-26.33718735 43.89034988 -26.35796844 44.86273102 -26.37937927 45.86457825 C-26.44478748 48.97214665 -26.50371929 52.07979985 -26.5625 55.1875 C-26.60569351 57.29362858 -26.64930807 59.39974856 -26.69335938 61.50585938 C-26.80125267 66.67048724 -26.90039123 71.83517907 -27 77 C-34.92 77 -42.84 77 -51 77 C-51 51.92 -51 26.84 -51 1 C-43.74 1 -36.48 1 -29 1 C-28.34 3.64 -27.68 6.28 -27 9 C-26.5153125 8.52949219 -26.030625 8.05898438 -25.53125 7.57421875 C-17.67888002 0.2805751 -10.79030619 -2.69757655 0 0 Z " fill="#000000" transform="translate(876,328)"/>
<path d="M0 0 C1.50261357 0.0009452 3.00544592 0.0345811 4.50683594 0.09521484 C5.30023376 0.10370453 6.09363159 0.11219421 6.91107178 0.12094116 C9.43918074 0.15446542 11.96407056 0.22973254 14.49121094 0.30615234 C16.20731062 0.33625368 17.92346043 0.36362921 19.63964844 0.38818359 C23.84140503 0.45425221 28.04076275 0.55775864 32.24121094 0.68115234 C32.73621094 1.67115234 32.73621094 1.67115234 33.24121094 2.68115234 C28.74161608 7.86075028 24.18564202 12.98607948 19.58886719 18.07958984 C16.41507872 21.5966333 13.25243642 25.12366644 10.08886719 28.64990234 C6.43639022 32.66531042 6.43639022 32.66531042 3.44384766 32.90820312 C2.28127441 32.89772949 1.11870117 32.88725586 -0.07910156 32.87646484 C-1.96435547 32.86679688 -1.96435547 32.86679688 -3.88769531 32.85693359 C-5.86576172 32.83179688 -5.86576172 32.83179688 -7.88378906 32.80615234 C-9.22362627 32.79612217 -10.56347058 32.78699638 -11.90332031 32.77880859 C-15.18865479 32.75517309 -18.47363371 32.72222468 -21.75878906 32.68115234 C-20.44298241 29.21104993 -18.92219166 26.02958135 -17.07910156 22.81005859 C-16.5621875 21.90578125 -16.04527344 21.00150391 -15.51269531 20.06982422 C-14.97515625 19.1371875 -14.43761719 18.20455078 -13.88378906 17.24365234 C-13.35398437 16.31488281 -12.82417969 15.38611328 -12.27832031 14.42919922 C-10.78964435 11.83417474 -9.30264786 9.24377987 -7.75878906 6.68115234 C-6.93338623 5.05947144 -6.93338623 5.05947144 -6.09130859 3.4050293 C-3.75878906 0.68115234 -3.75878906 0.68115234 0 0 Z " fill="#F1F7F2" transform="translate(682.7587890625,114.31884765625)"/>
<path d="M0 0 C0.33 0 0.66 0 1 0 C1.33 6.93 1.66 13.86 2 21 C2.66 21.33 3.32 21.66 4 22 C2.88059018 26.85077588 1.8665284 29.777893 -2 33 C-3.41590908 30.16818184 -2.30767229 28.39124345 -1.52050781 25.46484375 C-0.51513507 20.70394169 -0.52068412 15.85006731 -0.375 11 C-0.33632813 9.93910156 -0.29765625 8.87820313 -0.2578125 7.78515625 C-0.16430306 5.19026933 -0.07855098 2.59537551 0 0 Z " fill="#1A341A" transform="translate(408,332)"/>
<path d="M0 0 C0 4.24164786 -2.42939027 6.06840198 -5.1875 9 C-5.91163086 9.80050781 -5.91163086 9.80050781 -6.65039062 10.6171875 C-9.52341672 13.71774183 -12.24314226 15.97361269 -16 18 C-17.34631825 18.98244845 -18.68441297 19.97676564 -20 21 C-20 20.01 -20 19.02 -20 18 C-18.1640625 16.30859375 -18.1640625 16.30859375 -15.625 14.4375 C-9.93147494 10.06975292 -4.97127648 5.16166579 0 0 Z " fill="#E5B61E" transform="translate(169,188)"/>
<path d="M0 0 C3.94139078 1.66751148 6.7892812 4.22710649 10 7 C8.68 8.65 7.36 10.3 6 12 C4.99466333 10.37829621 3.99588093 8.75252763 3 7.125 C2.443125 6.22007812 1.88625 5.31515625 1.3125 4.3828125 C0 2 0 2 0 0 Z " fill="#EAB41D" transform="translate(318,175)"/>
<path d="M0 0 C0.66 0 1.32 0 2 0 C3.40234375 1.609375 3.40234375 1.609375 4.9375 3.75 C5.69353516 4.79414063 5.69353516 4.79414063 6.46484375 5.859375 C6.97144531 6.56578125 7.47804688 7.2721875 8 8 C8.99705016 9.33554063 9.9961686 10.66954883 11 12 C10.34 13.32 9.68 14.64 9 16 C6.40962402 12.79509037 4.62056844 9.44649547 2.8125 5.75 C2.01779297 4.13351563 2.01779297 4.13351563 1.20703125 2.484375 C0.80871094 1.66453125 0.41039062 0.8446875 0 0 Z " fill="#C89E22" transform="translate(275,144)"/>
<path d="M0 0 C0.66 0 1.32 0 2 0 C1.54738642 1.43931117 1.08767021 2.87638999 0.625 4.3125 C0.36976563 5.11300781 0.11453125 5.91351563 -0.1484375 6.73828125 C-1 9 -1 9 -3 12 C-4.140625 10.265625 -4.140625 10.265625 -5 8 C-4.171875 5.859375 -4.171875 5.859375 -2.75 3.75 C-2.29109375 3.04359375 -1.8321875 2.3371875 -1.359375 1.609375 C-0.91078125 1.07828125 -0.4621875 0.5471875 0 0 Z " fill="#CEA10C" transform="translate(203,144)"/>
<path d="M0 0 C2.15377564 2.62198774 3.40072174 4.64404172 4 8 C3.01 8 2.02 8 1 8 C-0.38671875 6.46875 -0.38671875 6.46875 -1.6875 4.5 C-2.12449219 3.8503125 -2.56148438 3.200625 -3.01171875 2.53125 C-3.50091797 1.77328125 -3.50091797 1.77328125 -4 1 C-2.68 0.67 -1.36 0.34 0 0 Z " fill="#172C18" transform="translate(119,499)"/>
<path d="M0 0 C0.66 0.33 1.32 0.66 2 1 C-1.63 4.63 -5.26 8.26 -9 12 C-9.66 11.67 -10.32 11.34 -11 11 C-7.6381774 6.74828319 -4.25171681 3.3618226 0 0 Z " fill="#C5E0C9" transform="translate(642,165)"/>
<path d="M0 0 C0.66 0 1.32 0 2 0 C2.33 1.65 2.66 3.3 3 5 C-0.75 8 -0.75 8 -3 8 C-1.125 2.25 -1.125 2.25 0 0 Z " fill="#152914" transform="translate(74,425)"/>
<path d="M0 0 C0.33 0 0.66 0 1 0 C1.33 3.63 1.66 7.26 2 11 C-1.08669204 7.91330796 -1.44855089 7.08072342 -2 3 C-1.34 3 -0.68 3 0 3 C0 2.01 0 1.02 0 0 Z " fill="#173017" transform="translate(66,342)"/>
<path d="M0 0 C1.17219543 0.78345715 2.33763668 1.57702836 3.5 2.375 C4.47453125 3.03628906 4.47453125 3.03628906 5.46875 3.7109375 C6.22671875 4.34902344 6.22671875 4.34902344 7 5 C7 5.66 7 6.32 7 7 C3.54074837 5.7508258 0.85306797 4.32472205 -2 2 C-1.34 2 -0.68 2 0 2 C0 1.34 0 0.68 0 0 Z " fill="#292108" transform="translate(306,191)"/>
<path d="M0 0 C2.88437779 1.29299694 4.87219421 2.65941363 7 5 C5.02 5.99 5.02 5.99 3 7 C0 2.25 0 2.25 0 0 Z " fill="#DCB01A" transform="translate(318,175)"/>
<path d="M0 0 C1.65 1.65 3.3 3.3 5 5 C4.34 6.32 3.68 7.64 3 9 C0.87491756 5.81237635 0.4979837 3.73487777 0 0 Z " fill="#DCAA1D" transform="translate(281,151)"/>
<path d="M0 0 C0.33 1.32 0.66 2.64 1 4 C-0.9375 6.25 -0.9375 6.25 -3 8 C-3.66 7.67 -4.32 7.34 -5 7 C-3.35 4.69 -1.7 2.38 0 0 Z " fill="#DBAD1D" transform="translate(197,153)"/>
<path d="" fill="#000000" transform="translate(0,0)"/>
</svg>
