<svg width="25" height="24" viewBox="0 0 25 24" fill="none" xmlns="http://www.w3.org/2000/svg">
<g clip-path="url(#clip0_1634_1475)">
<path d="M1.10119 11.8564C1.10063 13.8729 1.62751 15.8418 2.62937 17.5772L1.00537 23.5067L7.07346 21.9156C8.75183 22.8293 10.6323 23.3081 12.5432 23.3082H12.5483C18.8566 23.3082 23.9918 18.1749 23.9945 11.8654C23.9957 8.80801 22.8061 5.93304 20.6448 3.77006C18.4839 1.60727 15.6099 0.415549 12.5478 0.414154C6.23867 0.414154 1.10388 5.54718 1.10128 11.8564" fill="url(#paint0_linear_1634_1475)"/>
<path d="M0.692308 11.8527C0.691657 13.9417 1.23742 15.981 2.27501 17.7786L0.592773 23.9207L6.87845 22.2726C8.61035 23.2168 10.5603 23.7147 12.5445 23.7154H12.5496C19.0843 23.7154 24.4039 18.3975 24.4067 11.8621C24.4078 8.69488 23.1755 5.71656 20.937 3.47609C18.6982 1.23591 15.7214 0.00130233 12.5496 0C6.0138 0 0.694913 5.31721 0.692308 11.8527ZM4.43566 17.469L4.20096 17.0965C3.21435 15.5277 2.69361 13.7149 2.69435 11.8534C2.6964 6.4213 7.11724 2.00186 12.5533 2.00186C15.1859 2.00298 17.6599 3.02921 19.5208 4.89116C21.3815 6.7533 22.4054 9.22865 22.4048 11.8614C22.4024 17.2935 17.9814 21.7135 12.5496 21.7135H12.5457C10.7771 21.7126 9.04245 21.2376 7.5297 20.34L7.1697 20.1265L3.43966 21.1045L4.43566 17.469Z" fill="url(#paint1_linear_1634_1475)"/>
<path d="M9.5863 6.89749C9.36434 6.40419 9.13076 6.39424 8.91969 6.38559C8.74686 6.37814 8.54927 6.3787 8.35188 6.3787C8.1543 6.3787 7.83327 6.45303 7.56193 6.74931C7.2903 7.04587 6.5249 7.76252 6.5249 9.2201C6.5249 10.6777 7.58658 12.0864 7.73458 12.2843C7.88276 12.4818 9.78416 15.5687 12.7955 16.7562C15.2982 17.7431 15.8075 17.5468 16.3507 17.4973C16.8939 17.448 18.1036 16.7808 18.3504 16.089C18.5974 15.3973 18.5974 14.8044 18.5233 14.6805C18.4493 14.557 18.2517 14.4829 17.9554 14.3348C17.6591 14.1867 16.2025 13.4699 15.9309 13.371C15.6593 13.2722 15.4618 13.2229 15.2643 13.5195C15.0667 13.8157 14.4993 14.4829 14.3264 14.6805C14.1536 14.8785 13.9807 14.9032 13.6845 14.755C13.3881 14.6063 12.4339 14.2939 11.3019 13.2847C10.4212 12.4994 9.82658 11.5296 9.65374 11.2329C9.4809 10.9367 9.63523 10.7762 9.78379 10.6286C9.9169 10.4958 10.0802 10.2826 10.2284 10.1097C10.3762 9.93666 10.4255 9.81321 10.5243 9.61563C10.6231 9.41786 10.5736 9.24484 10.4997 9.09666C10.4255 8.94847 9.84974 7.48326 9.5863 6.89749Z" fill="white"/>
</g>
<defs>
<linearGradient id="paint0_linear_1634_1475" x1="1150.46" y1="2309.67" x2="1150.46" y2="0.414154" gradientUnits="userSpaceOnUse">
<stop stop-color="#1FAF38"/>
<stop offset="1" stop-color="#60D669"/>
</linearGradient>
<linearGradient id="paint1_linear_1634_1475" x1="1191.29" y1="2392.07" x2="1191.29" y2="0" gradientUnits="userSpaceOnUse">
<stop stop-color="#F9F9F9"/>
<stop offset="1" stop-color="white"/>
</linearGradient>
<clipPath id="clip0_1634_1475">
<rect width="23.82" height="24" fill="white" transform="translate(0.589844)"/>
</clipPath>
</defs>
</svg>
