<svg width="24" height="24" viewBox="0 0 24 24" fill="none" xmlns="http://www.w3.org/2000/svg">
<path d="M16.0605 2.45407C16.3417 2.73536 16.4997 3.11683 16.4997 3.51457C16.4997 3.91232 16.3417 4.29378 16.0605 4.57507L8.63551 12.0001L16.0605 19.4251C16.3337 19.708 16.4849 20.0869 16.4815 20.4802C16.4781 20.8735 16.3204 21.2497 16.0422 21.5278C15.7641 21.8059 15.3879 21.9637 14.9946 21.9671C14.6013 21.9705 14.2224 21.8193 13.9395 21.5461L5.45401 13.0606C5.1728 12.7793 5.01483 12.3978 5.01483 12.0001C5.01483 11.6023 5.1728 11.2209 5.45401 10.9396L13.9395 2.45407C14.2208 2.17287 14.6023 2.01489 15 2.01489C15.3978 2.01489 15.7792 2.17287 16.0605 2.45407Z" fill="white"/>
</svg>
