<svg width="24" height="24" viewBox="0 0 24 24" fill="none" xmlns="http://www.w3.org/2000/svg">
<path d="M16.9204 20.5264C17.0724 20.3773 17.1931 20.2001 17.2754 20.0051C17.3577 19.8101 17.4 19.6011 17.4 19.3899C17.4 19.1788 17.3577 18.9697 17.2754 18.7747C17.1931 18.5797 17.0724 18.4026 16.9204 18.2534L10.5567 11.9986L16.9204 5.74377C17.227 5.44235 17.3993 5.03354 17.3993 4.60727C17.3993 4.18099 17.227 3.77218 16.9204 3.47076C16.6137 3.16933 16.1978 3 15.7641 3C15.3304 3 14.9145 3.16933 14.6078 3.47076L7.07967 10.8701C6.92762 11.0193 6.807 11.1964 6.72469 11.3915C6.64239 11.5865 6.60003 11.7955 6.60003 12.0067C6.60003 12.2178 6.64239 12.4268 6.72469 12.6219C6.807 12.8169 6.92762 12.994 7.07967 13.1432L14.6078 20.5426C15.2311 21.1551 16.2807 21.1551 16.9204 20.5264Z" fill="#525F63"/>
</svg>
