<svg width="24" height="24" viewBox="0 0 24 24" fill="none" xmlns="http://www.w3.org/2000/svg">
<path d="M17.44 9.13H16.54V6.4C16.54 5.19591 16.0617 4.04115 15.2103 3.18973C14.3588 2.33832 13.2041 1.86 12 1.86C10.7959 1.86 9.64115 2.33832 8.78973 3.18973C7.93832 4.04115 7.46 5.19591 7.46 6.4V9.13H6.56C5.84391 9.13 5.15716 9.41446 4.65081 9.92081C4.14446 10.4272 3.86 11.1139 3.86 11.83L3.86 19.44L3.86 19.4406C3.86199 20.1559 4.14704 20.8413 4.65285 21.3471C5.15866 21.853 5.84412 22.138 6.55944 22.14H6.56H17.44L17.4406 22.14C18.1559 22.138 18.8413 21.853 19.3471 21.3471C19.853 20.8413 20.138 20.1559 20.14 19.4406V19.44V11.83C20.14 11.1139 19.8555 10.4272 19.3492 9.92081C18.8428 9.41446 18.1561 9.13 17.44 9.13ZM8.86 6.4C8.86 5.56722 9.19082 4.76855 9.77968 4.17968C10.3685 3.59082 11.1672 3.26 12 3.26C12.8328 3.26 13.6314 3.59082 14.2203 4.17968C14.8092 4.76855 15.14 5.56722 15.14 6.4V9.13H8.86V6.4ZM18.74 19.4392C18.7373 19.7833 18.5994 20.1127 18.3561 20.3561C18.1127 20.5994 17.7834 20.7373 17.4393 20.74H6.56069C6.21657 20.7373 5.88729 20.5994 5.64394 20.3561C5.40058 20.1127 5.26268 19.7834 5.26 19.4393V11.83C5.26 11.4852 5.39696 11.1546 5.64076 10.9108C5.88456 10.667 6.21522 10.53 6.56 10.53H17.44C17.7848 10.53 18.1154 10.667 18.3592 10.9108C18.603 11.1546 18.74 11.4852 18.74 11.83V19.4392Z" fill="#525F63" stroke="#525F63" stroke-width="0.4"/>
<path d="M13 14.95C13.0006 15.1249 12.9546 15.2967 12.8667 15.4479C12.7788 15.599 12.6522 15.724 12.5 15.81V17.31C12.5 17.4426 12.4473 17.5698 12.3536 17.6636C12.2598 17.7573 12.1326 17.81 12 17.81C11.8674 17.81 11.7402 17.7573 11.6465 17.6636C11.5527 17.5698 11.5 17.4426 11.5 17.31V15.81C11.3478 15.724 11.2212 15.599 11.1333 15.4479C11.0454 15.2967 10.9994 15.1249 11 14.95C11 14.6848 11.1054 14.4304 11.2929 14.2429C11.4804 14.0554 11.7348 13.95 12 13.95C12.2652 13.95 12.5196 14.0554 12.7071 14.2429C12.8946 14.4304 13 14.6848 13 14.95Z" fill="#525F63"/>
</svg>
