<?xml version="1.0" encoding="UTF-8"?>
<svg version="1.1" xmlns="http://www.w3.org/2000/svg" width="2048" height="1800" viewBox="-500 0 2500 1500">
<path d="M0 0 C1.21310852 0.00215515 2.42621704 0.0043103 3.67608643 0.00653076 C21.26307708 0.05664935 38.48872238 0.44314546 55.875 3.3125 C57.14214844 3.51117676 58.40929687 3.70985352 59.71484375 3.91455078 C97.26695828 9.84430816 133.2941785 20.44376571 167.875 36.3125 C169.22634033 36.92544922 169.22634033 36.92544922 170.60498047 37.55078125 C188.55702008 45.72111533 205.46668455 55.37641855 221.875 66.3125 C222.61250488 66.79976563 223.35000977 67.28703125 224.10986328 67.7890625 C233.51274128 74.0180137 242.55618834 80.38976047 251.03515625 87.8359375 C253.59099699 90.0648275 256.19874971 92.16894777 258.875 94.25 C264.60412273 98.79250831 269.8907838 103.7831221 275.22265625 108.77783203 C276.84322182 110.28298499 278.47991798 111.7678103 280.125 113.24609375 C285.01914671 117.64900921 289.74931768 122.05197645 293.984375 127.109375 C295.94981542 129.39968161 298.00337156 131.59395013 300.07421875 133.78881836 C306.81710911 140.95738551 312.92402653 148.48086236 318.875 156.3125 C319.61000732 157.2701123 319.61000732 157.2701123 320.35986328 158.24707031 C348.23346545 194.56966215 369.25587789 234.92210203 383.875 278.3125 C384.16068848 279.15184082 384.44637695 279.99118164 384.74072266 280.85595703 C394.49737157 309.73775499 400.3930294 339.93006326 402.875 370.3125 C402.95721764 371.18589287 403.03943529 372.05928575 403.12414438 372.95914507 C404.21507795 386.32410116 404.01933072 399.72449854 404.00966892 413.12371684 C404.00802287 416.94369188 404.01218739 420.76366157 404.01557809 424.58363485 C404.02071288 431.26827835 404.02215264 437.95291461 404.02112198 444.63755989 C404.01959296 454.57892772 404.02376793 464.52028758 404.0289966 474.46165386 C404.03865566 493.25609005 404.04148034 512.0505235 404.04205366 530.84496188 C404.04251377 545.36760425 404.04457504 559.89024555 404.04775429 574.41288757 C404.04865189 578.59816853 404.0495417 582.78344949 404.05042917 586.96873045 C404.05065021 588.00932042 404.05087126 589.04991038 404.05109901 590.12203338 C404.0572516 619.38492655 404.06119975 648.64781935 404.06075573 677.9107132 C404.06074015 679.01350352 404.06072457 680.11629384 404.06070852 681.25250205 C404.06062542 686.84144823 404.06052638 692.4303944 404.06042381 698.01934057 C404.0603939 699.68420497 404.0603939 699.68420497 404.06036337 701.38270298 C404.06032294 703.62721305 404.06028114 705.87172312 404.06023798 708.11623319 C404.05962574 743.00766875 404.06712297 777.89909457 404.08081055 812.79052734 C404.09619647 852.02706205 404.1047752 891.26359036 404.10384732 930.50012827 C404.1037727 934.69043891 404.10372399 938.88074954 404.10369301 943.07106018 C404.10367553 944.61859832 404.10367553 944.61859832 404.10365769 946.19739985 C404.10362701 962.74799539 404.10999329 979.29858243 404.11862527 995.84917545 C404.12713383 1012.50873038 404.12806682 1029.16827298 404.12151595 1045.82782888 C404.11784112 1055.70390076 404.1195902 1065.579935 404.12945829 1075.45600282 C404.13551146 1082.07815108 404.13410443 1088.70027244 404.12698779 1095.32241953 C404.12315057 1099.07901861 404.12219909 1102.83554554 404.13044515 1106.59213918 C404.18214779 1131.81136177 403.69685579 1157.24428605 399.625 1182.1875 C399.5192868 1182.85809448 399.41357361 1183.52868896 399.30465698 1184.21960449 C397.21815623 1197.43455911 394.31944247 1210.3873149 390.875 1223.3125 C390.44390321 1225.00648314 390.01290989 1226.70049261 389.58203125 1228.39453125 C382.87697177 1253.93892795 372.51738338 1278.66535721 360.875 1302.3125 C360.48779785 1303.10076172 360.1005957 1303.88902344 359.70166016 1304.70117188 C345.27047269 1333.73187828 326.51244426 1362.10562721 304.25390625 1385.7578125 C302.39743909 1387.75145703 300.62407016 1389.77057474 298.85546875 1391.83984375 C294.22458829 1397.15146178 289.25072347 1402.12282066 284.27001953 1407.1027832 C282.63672552 1408.73825882 281.0116153 1410.38157708 279.38671875 1412.02539062 C272.87089672 1418.57577575 266.11737568 1424.55981143 258.875 1430.3125 C257.72653702 1431.28268008 256.58349328 1432.25936284 255.44921875 1433.24609375 C248.47942492 1439.29161181 241.28939727 1444.80046672 233.70068359 1450.04443359 C231.85880309 1451.3237499 230.03227421 1452.62286384 228.20703125 1453.92578125 C153.61060131 1506.74967899 60.79968979 1530.73993487 -70.26171875 1519.2890625 C-102.74442963 1513.53559375 -134.11655622 1503.98060268 -164.125 1490.3125 C-165.10194824 1489.86922363 -166.07889648 1489.42594727 -167.08544922 1488.96923828 C-201.90349374 1473.04307335 -234.84048963 1452.45319341 -263.39501953 1426.85546875 C-265.27230254 1425.18112094 -267.16833744 1423.52964117 -269.06640625 1421.87890625 C-280.40173058 1411.96916933 -291.14285068 1401.5830927 -301.125 1390.3125 C-301.64658691 1389.73032715 -302.16817383 1389.1481543 -302.70556641 1388.54833984 C-311.0731696 1379.19601721 -318.76529442 1369.4731434 -326.125 1359.3125 C-326.62386719 1358.62929687 -327.12273437 1357.94609375 -327.63671875 1357.2421875 C-368.90584227 1300.58997166 -393.78014045 1234.03445154 -401.875 1164.5625 C-401.99061279 1163.59666992 -402.10622559 1162.63083984 -402.2253418 1161.63574219 C-404.49652264 1140.47944262 -404.27458698 1119.07061702 -404.25346755 1097.82297686 C-404.25088698 1094.08123018 -404.25420777 1090.33948735 -404.25671089 1086.59774125 C-404.2602925 1080.06619197 -404.26023175 1073.53465099 -404.25766373 1067.00310135 C-404.25385531 1057.28997224 -404.25582832 1047.57685003 -404.25887203 1037.86372095 C-404.26411857 1020.50891463 -404.2636891 1003.15411201 -404.26079312 985.79930535 C-404.25827154 970.61251182 -404.25762367 955.42571963 -404.25881577 940.23892593 C-404.25889215 939.22917645 -404.25896854 938.21942697 -404.25904724 937.17907902 C-404.2593586 933.07957499 -404.25967701 928.98007097 -404.260007 924.88056694 C-404.26306167 886.47388112 -404.26029933 848.06719765 -404.2549101 809.66051219 C-404.25016426 775.57982588 -404.25059023 741.49914331 -404.25537109 707.41845703 C-404.26073186 669.07627083 -404.2628457 630.7340867 -404.25975883 592.39190018 C-404.25943814 588.30074763 -404.2591253 584.20959508 -404.25881577 580.11844254 C-404.25873669 579.11118962 -404.25865761 578.10393671 -404.25857614 577.06616098 C-404.25744127 561.89196518 -404.25876406 546.71777088 -404.26129532 531.54357529 C-404.26416052 514.28202012 -404.26342706 497.02046921 -404.25801457 479.75891457 C-404.25508911 470.1121857 -404.2548709 460.46546605 -404.25866075 450.81873742 C-404.26091717 444.36002769 -404.25948245 437.9013253 -404.25515598 431.44261665 C-404.25279707 427.77299666 -404.25192172 424.10339489 -404.25556196 420.43377553 C-404.29429096 378.26404928 -404.29429096 378.26404928 -401.875 358.625 C-401.74641602 357.56015381 -401.61783203 356.49530762 -401.48535156 355.39819336 C-396.43452649 315.36778006 -386.09221856 275.98380272 -369.125 239.3125 C-368.68462402 238.34570312 -368.24424805 237.37890625 -367.79052734 236.3828125 C-351.50590611 200.76622178 -330.34314266 167.45276076 -304.125 138.3125 C-303.33609375 137.42433594 -302.5471875 136.53617188 -301.734375 135.62109375 C-299.546994 133.17012548 -297.3381055 130.74025452 -295.125 128.3125 C-294.07545738 127.14589041 -293.02598285 125.97921957 -291.9765625 124.8125 C-290.88058368 123.60382621 -289.78423224 122.39549019 -288.6875 121.1875 C-287.90620728 120.31520752 -287.90620728 120.31520752 -287.10913086 119.42529297 C-285.82189339 118.01597706 -284.47781968 116.65898823 -283.125 115.3125 C-282.465 115.3125 -281.805 115.3125 -281.125 115.3125 C-281.125 114.6525 -281.125 113.9925 -281.125 113.3125 C-279.83203125 112.0078125 -279.83203125 112.0078125 -277.9375 110.4375 C-274.74748874 107.7352409 -271.66316921 104.95953384 -268.62426758 102.09106445 C-261.4682202 95.35665702 -253.96977548 89.22413648 -246.125 83.3125 C-245.51897949 82.85488281 -244.91295898 82.39726563 -244.28857422 81.92578125 C-230.44226849 71.51645007 -216.10156839 62.01338627 -201.125 53.3125 C-200.47821289 52.93158203 -199.83142578 52.55066406 -199.16503906 52.15820312 C-157.89431394 27.94765574 -111.55643531 12.30509623 -64.4375 4.5625 C-63.24036377 4.36374268 -62.04322754 4.16498535 -60.80981445 3.96020508 C-40.57468357 0.78865249 -20.46192773 -0.06559547 0 0 Z M-121.64404297 29.45507812 C-124.09975691 30.30377596 -126.56507224 31.11608089 -129.03515625 31.921875 C-176.63508122 47.68570221 -222.20432756 74.35579079 -259.125 108.3125 C-263.49425463 112.18832332 -267.91173284 116.00459851 -272.38671875 119.7578125 C-279.196062 125.84796669 -285.25103568 132.81325841 -291.45361328 139.50878906 C-292.8504509 141.01621476 -294.25095208 142.52024458 -295.65234375 144.0234375 C-363.21962864 217.577697 -393.5632701 316.39565104 -393.38193511 416.87658411 C-393.3767568 420.705279 -393.38342201 424.53395922 -393.38842177 428.36265188 C-393.39557314 435.04086834 -393.39547105 441.71905234 -393.39032745 448.3972702 C-393.38269928 458.32879651 -393.38666243 468.26029591 -393.39274407 478.1918221 C-393.40322895 495.93941554 -393.40238142 513.6869945 -393.39658624 531.4345893 C-393.39153973 546.96715758 -393.39024887 562.49972057 -393.39263153 578.03228951 C-393.3927843 579.0657024 -393.39293707 580.09911529 -393.39309447 581.16384373 C-393.39371723 585.35962887 -393.39435404 589.55541401 -393.395014 593.75119915 C-393.40112154 633.04996566 -393.39560178 672.348723 -393.3848202 711.6474881 C-393.37533087 746.50091821 -393.37617887 781.35433369 -393.38574219 816.20776367 C-393.3964703 855.43670089 -393.40068756 894.66563002 -393.39451766 933.8945685 C-393.3938763 938.08267724 -393.39325062 942.27078599 -393.39263153 946.45889473 C-393.39247338 947.48998639 -393.39231522 948.52107805 -393.39215227 949.58341491 C-393.38988503 965.09896176 -393.39252347 980.61450272 -393.39759064 996.13004875 C-393.40332866 1013.78693367 -393.40183815 1031.44380195 -393.39102915 1049.10068481 C-393.38519047 1058.96148463 -393.38472373 1068.82224835 -393.3923215 1078.68304717 C-393.39684947 1085.29324544 -393.39393836 1091.90341515 -393.38531196 1098.51360923 C-393.38061447 1102.26395416 -393.37879886 1106.0142281 -393.38612393 1109.76457047 C-393.43207178 1135.19294671 -392.82865221 1160.69786963 -388.5 1185.8125 C-388.37217133 1186.57589691 -388.24434265 1187.33929382 -388.11264038 1188.12582397 C-382.13763 1223.57342916 -370.94335474 1258.05336719 -355.125 1290.3125 C-354.44159109 1291.74295635 -353.75920979 1293.17390435 -353.078125 1294.60546875 C-339.77689815 1322.23371525 -322.74705404 1347.7984683 -303.125 1371.3125 C-302.29355469 1372.31925781 -301.46210938 1373.32601563 -300.60546875 1374.36328125 C-288.78958225 1388.58087749 -276.18277324 1402.28606345 -262.125 1414.3125 C-261.07112512 1415.22990678 -260.01778238 1416.14792505 -258.96484375 1417.06640625 C-241.83804504 1431.95423409 -223.51785989 1445.50562793 -204.125 1457.3125 C-203.06079834 1457.9607373 -203.06079834 1457.9607373 -201.97509766 1458.62207031 C-177.65278164 1473.28053981 -152.03203119 1485.25678014 -125.125 1494.3125 C-124.08666016 1494.66892578 -123.04832031 1495.02535156 -121.97851562 1495.39257812 C-90.74248871 1506.01321846 -58.12103248 1511.57196212 -25.25 1513.5 C-24.51709747 1513.54315338 -23.78419495 1513.58630676 -23.02908325 1513.63076782 C39.4061063 1517.20327716 103.03220027 1506.81310715 159.875 1480.3125 C160.8640332 1479.85762207 161.85306641 1479.40274414 162.87207031 1478.93408203 C197.27287003 1463.05964577 229.64577705 1442.69691753 257.875 1417.3125 C258.38047363 1416.85810547 258.88594727 1416.40371094 259.40673828 1415.93554688 C262.39088206 1413.24119166 265.34621859 1410.51720642 268.29052734 1407.77929688 C270.01525246 1406.18266383 271.75115802 1404.5987561 273.48828125 1403.015625 C281.69737856 1395.51679768 281.69737856 1395.51679768 289.1875 1387.3125 C291.25540027 1384.86165524 293.44095124 1382.53535241 295.625 1380.1875 C301.4059018 1373.83812828 306.68739112 1367.15137593 311.875 1360.3125 C312.32488281 1359.71953125 312.77476562 1359.1265625 313.23828125 1358.515625 C325.22994992 1342.61888843 335.91832869 1326.09082 345.56445312 1308.67089844 C346.6883788 1306.64833472 347.83133439 1304.63883345 348.984375 1302.6328125 C376.42179807 1253.5402332 393.08908589 1192.16275703 393.00642776 1135.96775246 C393.0084804 1134.65863561 393.01053303 1133.34951876 393.01264787 1132.00073171 C393.01817763 1128.38028223 393.01754892 1124.75985657 393.01587028 1121.13940424 C393.01513586 1117.19522871 393.02016989 1113.25105973 393.0244453 1109.30688703 C393.03200753 1101.4897505 393.03421745 1093.6726208 393.03477435 1085.85548099 C393.03568978 1076.48904653 393.04236274 1067.12261835 393.04912117 1057.75618661 C393.06516702 1035.11702885 393.07108333 1012.47787178 393.07586992 989.83870936 C393.07820779 979.12119916 393.08181071 968.40368949 393.0855653 957.6861797 C393.098401 920.97463834 393.10911902 884.26309728 393.1125679 847.55155373 C393.11278953 845.24773366 393.11301132 842.94391359 393.11323325 840.64009353 C393.11345389 838.33080325 393.11367437 836.02151297 393.1138947 833.7122227 C393.11433724 829.07963284 393.11478436 824.44704298 393.11523438 819.81445312 C393.11534377 818.66584349 393.11545316 817.51723385 393.11556586 816.33381785 C393.11919379 779.11812732 393.13510375 741.9024563 393.15842474 704.68677324 C393.18305473 665.30990342 393.19674226 625.93304475 393.19793582 586.55616701 C393.19810726 582.22821386 393.19832269 577.90026073 393.19857025 573.57230759 C393.1986539 571.97389476 393.1986539 571.97389476 393.19873925 570.34319077 C393.19988709 553.23779457 393.21088654 536.13241848 393.22545731 519.02702905 C393.23986761 501.81139434 393.24303384 484.59578525 393.23501733 467.38014616 C393.230582 457.17038903 393.23433702 446.96071493 393.25025584 436.75096882 C393.26008215 429.90880802 393.2587555 423.0667047 393.24881961 416.2245443 C393.24348198 412.34054734 393.24253746 408.45670854 393.25532833 404.57272537 C393.33103925 380.03929931 392.09780146 355.72067013 387.125 331.625 C386.86895996 330.34939209 386.61291992 329.07378418 386.34912109 327.75952148 C380.70620055 300.10998226 372.40382629 273.07559691 360.875 247.3125 C360.44251953 246.33684082 360.01003906 245.36118164 359.56445312 244.35595703 C352.65023091 228.59430627 352.65023091 228.59430627 344.1171875 213.6796875 C342.65878269 210.90046325 342.24341364 208.41256604 341.875 205.3125 C340.885 204.9825 339.895 204.6525 338.875 204.3125 C337.35086388 202.02334207 335.9732718 199.76399249 334.625 197.375 C333.81777612 195.98932542 333.00787126 194.60520921 332.1953125 193.22265625 C331.79860352 192.54734863 331.40189453 191.87204102 330.99316406 191.17626953 C328.52062502 187.05501122 325.70772264 183.19036023 322.875 179.3125 C322.02059732 178.12647207 321.16645006 176.94026011 320.3125 175.75390625 C314.74647066 168.05628947 308.98917881 160.58680504 302.875 153.3125 C302.06933594 152.3328125 301.26367188 151.353125 300.43359375 150.34375 C285.00642947 131.68492382 267.928426 114.27918264 248.875 99.3125 C247.8118222 98.45787377 246.74935797 97.60235929 245.6875 96.74609375 C199.14151121 59.41533822 143.42408366 31.57550596 84.875 19.3125 C83.81442383 19.09013672 82.75384766 18.86777344 81.66113281 18.63867188 C58.64773273 13.91624952 35.37714506 10.83169319 11.875 10.3125 C10.90691406 10.29058594 9.93882812 10.26867188 8.94140625 10.24609375 C-35.05740418 9.41383378 -79.94663257 14.96145531 -121.64404297 29.45507812 Z " fill="#1C1913" transform="translate(512.125,5.6875)"/>



<path d="M0 0 C39.27 0 78.54 0 119 0 C119 0.99 119 1.98 119 3 C117.49609375 4.2890625 117.49609375 4.2890625 115.4375 5.625 C96.59884209 19.21408481 91.89735918 47.99514978 88.38623047 69.4921875 C85.34664735 89.22834289 84.84778594 109.11160619 84.86628723 129.04660034 C84.86441378 130.99336132 84.86211098 132.94012192 84.85942191 134.88688195 C84.85336334 140.18091525 84.85343041 145.47493262 84.85461628 150.76896858 C84.85482181 156.50066999 84.8492871 162.23236648 84.84455872 167.96406555 C84.83628408 179.17340636 84.83350531 190.38274191 84.83294634 201.59208553 C84.83246962 210.71323767 84.83040712 219.8343881 84.82724571 228.9555397 C84.81987671 250.66121612 84.81371996 272.36689108 84.81424427 294.07256889 C84.81425985 294.76527616 84.81427543 295.45798342 84.81429148 296.17168181 C84.81437457 299.68179301 84.81447361 303.1919042 84.81457619 306.70201539 C84.81459613 307.39900667 84.81461608 308.09599795 84.81463663 308.81411018 C84.81467706 310.22359475 84.81471886 311.63307932 84.81476202 313.04256389 C84.81537419 334.95123414 84.80787547 356.85988888 84.79418945 378.76855469 C84.77878172 403.44289901 84.77023871 428.11723276 84.77115268 452.79158223 C84.77148339 465.83336093 84.76879191 478.87512215 84.75797462 491.91689682 C84.74882055 503.02377965 84.7467343 514.13063706 84.75348405 525.23752205 C84.75672479 530.89175854 84.75689572 536.54594643 84.7481308 542.20017815 C81.72588936 613.71087066 81.72588936 613.71087066 108.29296875 676.8203125 C114.1210359 681.62230684 120.67311512 680.94980886 127.875 680.875 C129.46486809 680.88448833 131.05471765 680.89759212 132.64453125 680.91381836 C136.42685782 680.94788677 140.20873909 680.96183593 143.99121094 680.96728516 C152.39365765 680.99202626 160.79401115 681.12994883 169.1953125 681.26171875 C172.47932462 681.31232748 175.76334322 681.36250707 179.04736328 681.41259766 C179.87002371 681.42517105 180.69268414 681.43774445 181.54027367 681.45069885 C266.40824853 686.79476797 266.40824853 686.79476797 342 655 C342.90105469 654.30970703 342.90105469 654.30970703 343.8203125 653.60546875 C360.53684034 640.52106607 370.5311454 618.54968005 377 599 C377.54639246 597.37223378 378.0932957 595.74463895 378.640625 594.1171875 C380.10597083 589.748782 381.55634364 585.37561826 383 581 C383.99 581.33 384.98 581.66 386 582 C387.19650491 592.78847443 387.18150629 603.55592567 387.203125 614.39453125 C387.20595238 615.35668737 387.20877975 616.3188435 387.21169281 617.31015587 C387.22658393 622.38865805 387.23588052 627.46713249 387.24023438 632.5456543 C387.24574596 637.77533186 387.26985896 643.00475263 387.29820633 648.23434925 C387.31684347 652.27588146 387.32203859 656.31735141 387.32357025 660.35892296 C387.32658804 662.287375 387.33458694 664.21582617 387.34775543 666.14423561 C387.36486041 668.838301 387.36292642 671.53173204 387.35644531 674.22583008 C387.3656601 675.01402634 387.37487488 675.8022226 387.3843689 676.61430359 C387.34551396 681.78510181 386.5504547 685.45831745 384 690 C380.93386359 692.01770709 378.404549 692.26566988 374.77986145 692.31686401 C373.72468889 692.33632961 372.66951633 692.35579521 371.58236885 692.37585068 C370.43217199 692.38701038 369.28197514 692.39817009 368.09692383 692.40966797 C366.88635252 692.42874332 365.67578121 692.44781868 364.42852592 692.46747208 C361.11233434 692.51710702 357.79627953 692.55772763 354.47992682 692.59363031 C351.67353167 692.6253321 348.86724377 692.66381594 346.06093079 692.70201528 C318.57321507 693.07327391 291.08507129 693.15793388 263.5950737 693.12877274 C259.60074623 693.12491624 255.60641988 693.12287998 251.61209106 693.12130737 C201.06310361 693.0989152 150.51468173 692.87686526 99.96646589 692.60972524 C93.94837999 692.57798115 87.93028957 692.54744316 81.91219246 692.51790267 C72.32087068 692.47081254 62.72957851 692.42040369 53.13831055 692.36332208 C48.70853013 692.33697366 44.27875442 692.31199477 39.84894562 692.29089165 C35.75638762 692.27128198 31.66388114 692.2471471 27.57136977 692.21950126 C26.08874605 692.21022786 24.60611148 692.20252403 23.12347066 692.19658303 C15.3573971 692.16445201 7.709039 691.98863411 0 691 C1 688 1 688 4.125 685.9375 C18.56439226 675.94779801 24.518464 653.3328779 28 637 C29.66299195 627.71818446 30.92915892 618.36765536 32 609 C32.08100848 608.35769949 32.16201696 607.71539898 32.24548024 607.05363482 C33.17585389 598.9768009 33.22409467 590.89272882 33.3105011 582.77351379 C33.3308027 581.14587726 33.3513827 579.51824419 33.37221706 577.89061439 C33.42726753 573.46490219 33.47579845 569.03914169 33.52236246 564.61333285 C33.55228798 561.79261943 33.58367513 558.97192536 33.61537993 556.15123141 C34.10128246 512.52128337 34.16455743 468.89204839 34.16725707 425.25983024 C34.1677628 418.77465295 34.17008075 412.28947702 34.17275429 405.80430031 C34.1814653 384.22290673 34.18618593 362.64151798 34.18542381 341.06012263 C34.18538386 339.91581683 34.1853439 338.77151103 34.18530273 337.5925293 C34.18524141 335.87388093 34.18524141 335.87388093 34.18517885 334.1205124 C34.18476928 315.40753215 34.19444149 296.69457171 34.2084411 277.98159721 C34.22285527 258.55609717 34.22970935 239.13060682 34.22884732 219.70510131 C34.22851836 208.88141738 34.23113528 198.05775455 34.24202538 187.23407555 C34.25119493 178.06709638 34.25325117 168.90014804 34.24651595 159.73316624 C34.24329047 155.08060233 34.24304819 150.42809739 34.2518692 145.7755394 C36.48458481 71.79632714 36.48458481 71.79632714 7 7 C5.07880879 5.53114737 5.07880879 5.53114737 3.1875 4.625 C2.135625 4.08875 1.08375 3.5525 0 3 C0 2.01 0 1.02 0 0 Z " fill="#1C1913" transform="translate(185,360)"/>
<path d="M0 0 C2.70057066 2.43031153 4.32877168 5.05677674 6.1171875 8.20703125 C7.01727539 9.78194336 7.01727539 9.78194336 7.93554688 11.38867188 C8.57556641 12.51853516 9.21558594 13.64839844 9.875 14.8125 C11.23468085 17.19532665 12.5978816 19.57613404 13.9609375 21.95703125 C14.303526 22.55645538 14.6461145 23.15587952 14.99908447 23.77346802 C18.11237701 29.21456222 21.29614725 34.61190677 24.5 40 C29.85338509 49.01956783 35.10940564 58.09276143 40.34155273 67.18310547 C44.55986926 74.51002597 48.79956641 81.82394876 53.0625 89.125 C53.92391602 90.60033203 53.92391602 90.60033203 54.80273438 92.10546875 C56.53466654 95.07059896 58.26720896 98.03537163 60 101 C62.31332038 104.95785474 64.62591693 108.91613031 66.9375 112.875 C67.51322754 113.86072998 68.08895508 114.84645996 68.68212891 115.86206055 C72.33067059 122.11634097 75.9506465 128.3864254 79.55712891 134.66503906 C85.74078843 145.42662985 92.03082446 156.11437442 98.44287109 166.74145508 C102.71587853 173.83170129 106.90943073 180.96393444 111.0625 188.125 C145.28110521 247.03505303 145.28110521 247.03505303 186.5234375 301.12109375 C188.75172796 303.71139354 190.8436538 306.36385758 192.9375 309.0625 C204.86625749 323.67308247 218.89344762 336.88146109 234.375 347.65234375 C234.91125 348.09707031 235.4475 348.54179688 236 349 C236 349.66 236 350.32 236 351 C190.46 351 144.92 351 98 351 C98 347.61398915 98.44005842 347.16292727 100.375 344.5625 C108.41607827 331.96557002 106.05485653 311.65094687 103.08984375 297.5859375 C94.68848193 261.11329524 75.41360886 228.95162382 56.9140625 196.8203125 C53.16436708 190.30320497 49.47770162 183.75242206 45.8125 177.1875 C36.98246951 161.38195616 28.07840828 145.62022715 19.08312988 129.90811157 C13.48230488 120.12307975 7.90145535 110.32728851 2.375 100.5 C1.81949463 99.51660645 1.26398926 98.53321289 0.69165039 97.52001953 C-11.527201 75.72784578 -18.67182249 54.00081294 -12.3125 28.875 C-11.58490488 26.5692408 -10.81521724 24.27625592 -10 22 C-9.60296875 20.85015625 -9.2059375 19.7003125 -8.796875 18.515625 C-6.42262681 11.99395592 -3.60220195 5.93213682 0 0 Z " fill="#1C1913" transform="translate(624,822)"/>
<path d="M0 0 C37.95 0 75.9 0 115 0 C114.67 3.3 114.34 6.6 114 10 C112.01834006 40.06787869 123.22245593 68.48671492 136.78515625 94.65283203 C138.17892445 97.34569527 139.55770153 100.04604693 140.9375 102.74609375 C146.76739055 114.10372947 152.79056551 125.31975051 159.1237793 136.40454102 C163.01309984 143.21917246 166.78357551 150.0896947 170.5 157 C176.30196796 167.77520771 182.29676092 178.43198109 188.34082031 189.07275391 C198.44729755 206.90333986 208.3916679 224.82666013 218.2421875 242.79980469 C219.78789066 245.61384317 221.34544759 248.42088715 222.90625 251.2265625 C233.92993446 271.24353452 235.35034169 291.3646359 229.76708984 313.38769531 C227.37201312 321.54406736 223.79747064 329.40505873 220 337 C216.1609581 335.72031937 215.70846765 334.37105816 213.62890625 330.953125 C212.97833252 329.8914209 212.32775879 328.8297168 211.6574707 327.73583984 C210.95866084 326.57418563 210.26034926 325.41223154 209.5625 324.25 C208.83915372 323.05788215 208.1154359 321.86598967 207.39135742 320.67431641 C198.15551299 305.42665322 189.44324101 289.91813858 180.99536133 274.22216797 C177.07052178 266.93909277 173.05825063 259.70948841 169 252.5 C163.77768815 243.21935067 158.65989912 233.88786033 153.60668945 224.51416016 C150.51100763 218.77547808 147.3762018 213.06243105 144.1875 207.375 C139.72038681 199.39349752 135.41949785 191.32512309 131.125 183.25 C121.88213597 165.87568744 112.51345593 148.58475987 102.78881836 131.47412109 C99.72202078 126.07240148 96.70309559 120.64894143 93.73681641 115.19140625 C78.64310107 87.43931868 61.27157831 61.3573531 40.39941406 37.60717773 C38.368542 35.27479274 36.38302131 32.9041869 34.39770508 30.53295898 C32.47558644 28.4248397 30.22929415 26.77032182 28 25 C28 24.34 28 23.68 28 23 C27.44183594 22.76410156 26.88367188 22.52820313 26.30859375 22.28515625 C23.4508389 20.69429103 21.42115192 18.70393395 19.0625 16.4375 C14.35052902 12.05027297 9.4664447 8.36467744 4.06469727 4.86889648 C2.67874365 3.9581871 1.33456345 2.98447924 0 2 C0 1.34 0 0.68 0 0 Z " fill="#1C1913" transform="translate(347,475)"/>
<path d="M0 0 C11.18435754 8.36871508 11.18435754 8.36871508 13 12 C13.94746094 11.05640625 13.94746094 11.05640625 14.9140625 10.09375 C31.92156508 -6.17855794 51.21630608 -12.75869474 74.5859375 -12.3046875 C81.56127099 -12.01274168 87.50430721 -10.6662553 94 -8 C94.64130859 -7.73687012 95.28261719 -7.47374023 95.94335938 -7.20263672 C114.65233234 0.7061564 127.1300536 14.23090573 135.16943359 32.79296875 C138.43964409 41.48276972 139.84873944 51.77188752 139 61 C138.87818359 62.62035156 138.87818359 62.62035156 138.75390625 64.2734375 C135.26857479 98.55185203 111.67009748 123.29943167 88.5 146.6875 C87.63391113 147.56672119 86.76782227 148.44594238 85.87548828 149.35180664 C79.89779742 155.33681069 73.62238854 160.74331055 67 166 C65.75757173 167.01373703 64.51647186 168.02910671 63.27734375 169.046875 C54.48998734 176.18466598 45.45603875 182.93009929 36.20019531 189.44824219 C34.75271829 190.46912145 33.30922328 191.49567426 31.87011719 192.52832031 C29.88270573 193.9519271 27.88171353 195.35378104 25.875 196.75 C25.29621094 197.16846191 24.71742188 197.58692383 24.12109375 198.01806641 C19.88836417 200.90546248 16.09363424 202.28193316 11 202 C6.01788399 200.38054329 2.09076298 197.8818713 -2.125 194.8125 C-2.70483643 194.39105713 -3.28467285 193.96961426 -3.88208008 193.53540039 C-103.53725528 120.60727334 -103.53725528 120.60727334 -112.59375 67.51953125 C-114.9136524 47.42114606 -110.20602935 28.22711895 -98 12 C-91.88119988 4.8666296 -85.15182393 -0.37898127 -77 -5 C-76.35804688 -5.38800781 -75.71609375 -5.77601563 -75.0546875 -6.17578125 C-51.66648273 -19.28735059 -21.33779634 -14.72536839 0 0 Z M-81.8203125 26.0078125 C-90.60271425 36.90858252 -92.9162261 50.70270427 -91.59375 64.36328125 C-86.34226946 96.52859954 -58.18831675 124.69874302 -33.640625 143.91796875 C-31.22593881 145.82185594 -28.8984535 147.80202207 -26.57861328 149.81958008 C-18.4688696 156.84693762 -9.84773417 163.13306888 -1.15869141 169.41992188 C0.75624085 170.82157779 2.64356735 172.24998341 4.51953125 173.703125 C5.48246094 174.44046875 6.44539063 175.1778125 7.4375 175.9375 C8.24058594 176.56527344 9.04367187 177.19304687 9.87109375 177.83984375 C11.87155353 179.15688505 11.87155353 179.15688505 13.8828125 178.96875 C17.00232896 177.54136977 19.68778475 175.58722824 22.4375 173.5625 C23.05367187 173.11511475 23.66984375 172.66772949 24.3046875 172.20678711 C30.05837601 168.0069769 35.71769001 163.68739778 41.33056641 159.30175781 C43.07379314 157.94245905 44.8237042 156.59208443 46.57421875 155.2421875 C52.85122184 150.38161632 58.93548106 145.41592084 64.78125 140.03515625 C66.77699099 138.2045558 68.81230611 136.44163517 70.875 134.6875 C80.13890007 126.58392681 88.49022522 117.75002654 96 108 C96.67675781 107.12859375 97.35351562 106.2571875 98.05078125 105.359375 C110.52046117 88.79770304 118.24034699 72.15355413 117 51 C114.95722918 37.71394726 109.1633442 26.20992949 98.35546875 17.98828125 C85.39479519 9.34178994 70.60708593 6.84826267 55.3125 9.68359375 C48.34834141 11.66279448 42.65512773 14.50302574 37 19 C36.23945312 19.58652344 35.47890625 20.17304688 34.6953125 20.77734375 C30.30920089 24.3881326 27.24158775 27.93283294 24.3125 32.8125 C21.75557751 37.06029059 20.03265091 39.71506785 15 41 C11.16733326 41 9.52989796 40.43478807 6.5625 38 C4.53493824 35.62626916 2.63757892 33.2320578 0.75 30.75 C-8.35732855 19.00993194 -18.99825469 10.58161318 -34 8 C-36.82046457 7.74894657 -39.60729886 7.71234123 -42.4375 7.75 C-43.55717163 7.76123901 -43.55717163 7.76123901 -44.69946289 7.77270508 C-60.33657455 8.07804412 -71.3404668 14.44849772 -81.8203125 26.0078125 Z " fill="#1C1913" transform="translate(602,358)"/>
<path d="M0 0 C18.15 0 36.3 0 55 0 C53.64666004 4.06001987 50.90804429 5.34754482 47.5 7.625 C24.89013438 23.29075447 9.92601838 48.52024105 -2.5390625 72.53515625 C-3.31987183 74.03574585 -3.31987183 74.03574585 -4.11645508 75.56665039 C-9.80315204 86.51437543 -15.40513685 97.50514686 -21 108.5 C-27.55255982 121.37688921 -34.13256621 134.23672306 -40.84936523 147.02893066 C-44.18752943 153.39720601 -47.4287011 159.80944403 -50.625 166.25 C-53.89878673 172.83715286 -57.22897589 179.38290949 -60.6875 185.875 C-65.96587982 195.79169391 -70.95564993 205.85086264 -75.94018555 215.91748047 C-79.92193557 223.94250102 -84.02403277 231.89507088 -88.21139526 239.8147583 C-92.5855069 248.09111947 -96.86110968 256.41645818 -101.125 264.75 C-101.97600952 266.41116596 -102.82708577 268.07229773 -103.67822266 269.73339844 C-108.5075916 279.16164295 -113.32618473 288.59537493 -118.140625 298.03125 C-118.65498611 299.03934723 -119.16934723 300.04744446 -119.69929504 301.08609009 C-120.21400864 302.09489227 -120.72872223 303.10369446 -121.2590332 304.14306641 C-122.29768055 306.17871515 -123.33633614 308.21435969 -124.375 310.25 C-124.88960785 311.2585907 -125.4042157 312.2671814 -125.93441772 313.30633545 C-132.79743515 326.75506025 -139.69608813 340.18346027 -146.6640625 353.578125 C-150.56736189 361.08320155 -154.44026577 368.60386466 -158.3125 376.125 C-158.66841217 376.81619934 -159.02432434 377.50739868 -159.39102173 378.21954346 C-161.56423629 382.44008534 -163.73699233 386.66086312 -165.90960693 390.88171387 C-169.1473083 397.17153551 -172.38595365 403.46087089 -175.625 409.75 C-175.97990509 410.43918518 -176.33481018 411.12837036 -176.70046997 411.83843994 C-181.53810615 421.23198571 -186.38964567 430.61818572 -191.25 440 C-196.96902484 451.0405825 -202.64277413 462.10397424 -208.30551147 473.17352295 C-221.00904063 498.00606813 -221.00904063 498.00606813 -226.9375 509.375 C-227.37860107 510.22175293 -227.81970215 511.06850586 -228.27416992 511.94091797 C-229.50774398 514.29847913 -230.75229785 516.64988923 -232 519 C-232.50950195 519.97146973 -233.01900391 520.94293945 -233.54394531 521.94384766 C-234.33236816 523.42570557 -234.33236816 523.42570557 -235.13671875 524.9375 C-235.61455811 525.84113281 -236.09239746 526.74476563 -236.5847168 527.67578125 C-238.58068271 530.95361383 -240.49783657 532.45904809 -244 534 C-246.70176196 534.55797258 -249.23436471 534.80926653 -252 535 C-252.33 534.34 -252.66 533.68 -253 533 C-252.23171997 530.97569275 -252.23171997 530.97569275 -250.96142578 528.45288086 C-250.48988068 527.50686508 -250.01833557 526.5608493 -249.53250122 525.58616638 C-248.7468428 524.04111168 -248.7468428 524.04111168 -247.9453125 522.46484375 C-247.41034149 521.39818985 -246.87537048 520.33153595 -246.32418823 519.2325592 C-244.59854411 515.79708318 -242.86170469 512.36739559 -241.125 508.9375 C-239.99149825 506.68198688 -238.85867772 504.42613126 -237.7265625 502.16992188 C-232.22118843 491.22008651 -226.64805701 480.31278343 -220.86132812 469.50878906 C-218.29717184 464.67509886 -215.84937275 459.78646315 -213.421875 454.8828125 C-210.16439048 448.31364714 -206.89841846 441.74873819 -203.625 435.1875 C-203.29636963 434.52871857 -202.96773926 433.86993713 -202.62915039 433.19119263 C-198.420101 424.76056383 -194.13941351 416.37538319 -189.70751953 408.05932617 C-185.65743376 400.42762846 -181.81765868 392.69233972 -177.99169922 384.94628906 C-174.40571727 377.71453964 -170.68184354 370.56535952 -166.91046143 363.42895508 C-162.70711848 355.46696128 -158.59560413 347.45936248 -154.49829102 339.44241333 C-152.32936156 335.19867357 -150.15714923 330.95661604 -147.984375 326.71484375 C-147.55527832 325.87710922 -147.12618164 325.03937469 -146.68408203 324.17625427 C-142.98362307 316.95720751 -139.24674676 309.75761777 -135.5 302.5625 C-130.65588736 293.2559661 -125.92806657 283.89727822 -121.26025391 274.5012207 C-117.82046652 267.59337529 -114.26788102 260.75402267 -110.64746094 253.93945312 C-107.67838639 248.33464038 -104.81891337 242.68166677 -102 237 C-98.87551009 230.70272821 -95.67969443 224.45450909 -92.375 218.25 C-87.7612151 209.57668358 -83.37607713 200.7946896 -79 192 C-74.34379871 182.64246462 -69.64724394 173.3197497 -64.7265625 164.09765625 C-60.4430751 156.03042165 -56.39528552 147.84434998 -52.34716797 139.65722656 C-48.65159042 132.20953425 -44.82774116 124.8409812 -40.94166565 117.49136353 C-35.5596215 107.29861185 -30.33824874 97.02391838 -25.10180664 86.75585938 C-23.77594218 84.15701947 -22.44881681 81.5588283 -21.12109375 78.9609375 C-20.69243515 78.12118378 -20.26377655 77.28143005 -19.8221283 76.41622925 C-17.73703213 72.34347062 -15.62896345 68.28591545 -13.46508789 64.25439453 C-13.06020645 63.49913483 -12.65532501 62.74387512 -12.23817444 61.96572876 C-11.48720759 60.57038404 -10.73188681 59.17736805 -9.97093201 57.78744507 C0.0947178 39.10311884 2.09802932 20.98029322 0 0 Z " fill="#1C1913" transform="translate(744,475)"/>
<path d="M0 0 C0.99 0.495 0.99 0.495 2 1 C0.4121998 6.84425255 -2.56727451 11.64750574 -5.625 16.8125 C-17.36143846 37.06678223 -31.43891309 62.83526538 -25.41015625 87.05859375 C-25.27480469 87.69925781 -25.13945312 88.33992188 -25 89 C-26 90 -26 90 -28.17030334 90.12025452 C-29.12738693 90.11803391 -30.08447052 90.11581329 -31.07055664 90.11352539 C-32.15160172 90.11344986 -33.23264679 90.11337433 -34.34645081 90.11329651 C-36.110485 90.10555458 -36.110485 90.10555458 -37.91015625 90.09765625 C-39.10732773 90.0962413 -40.30449921 90.09482635 -41.53794861 90.09336853 C-45.37949066 90.08774979 -49.22097543 90.07519411 -53.0625 90.0625 C-55.65950437 90.05748741 -58.25650965 90.05292409 -60.85351562 90.04882812 C-67.23569679 90.03777427 -73.6178443 90.02101792 -80 90 C-80 89.01 -80 88.02 -80 87 C-78.3828125 85.7109375 -78.3828125 85.7109375 -76.125 84.375 C-52.13047902 69.1296549 -36.42398995 43.79369092 -22.30249023 19.86889648 C-9.1252283 -2.43339421 -9.1252283 -2.43339421 0 0 Z " fill="#1C1913" transform="translate(449,1083)"/>



<path d="M0 0 C0.66 0.33 1.32 0.66 2 1 C-8.56 11.56 -19.12 22.12 -30 33 C-30.66 32.67 -31.32 32.34 -32 32 C-31.25556641 31.27296875 -31.25556641 31.27296875 -30.49609375 30.53125 C-26.31497843 26.40567132 -22.36796813 22.20563107 -18.640625 17.6640625 C-16.88705151 15.88543796 -15.28118411 14.98190099 -13 14 C-13 13.34 -13 12.68 -13 12 C-11.42578125 10.44921875 -11.42578125 10.44921875 -9.3125 8.6875 C-6.04699036 5.91500692 -2.98084015 3.07399141 0 0 Z " fill="#1C1913" transform="translate(244,107)"/>
<path d="" fill="#1C1913" transform="translate(0,0)"/>
<path d="" fill="#1C1913" transform="translate(0,0)"/>
<path d="" fill="#1C1913" transform="translate(0,0)"/>
</svg>
