<svg width="32" height="32" viewBox="0 0 32 32" fill="none" xmlns="http://www.w3.org/2000/svg">
<path d="M25.4048 18.3833C25.8336 18.4908 26.2021 18.7641 26.4294 19.1432C26.6566 19.5224 26.7239 19.9762 26.6165 20.405L25.4665 25H26.6665V23.3333C26.6665 22.8913 26.8421 22.4674 27.1547 22.1548C27.4672 21.8423 27.8911 21.6667 28.3332 21.6667C28.7752 21.6667 29.1991 21.8423 29.5117 22.1548C29.8242 22.4674 29.9998 22.8913 29.9998 23.3333V25C30.4419 25 30.8658 25.1756 31.1783 25.4882C31.4909 25.8007 31.6665 26.2246 31.6665 26.6667C31.6665 27.1087 31.4909 27.5326 31.1783 27.8452C30.8658 28.1577 30.4419 28.3333 29.9998 28.3333V30C29.9998 30.442 29.8242 30.866 29.5117 31.1785C29.1991 31.4911 28.7752 31.6667 28.3332 31.6667C27.8911 31.6667 27.4672 31.4911 27.1547 31.1785C26.8421 30.866 26.6665 30.442 26.6665 30V28.3333H23.3332C23.08 28.3333 22.8302 28.2755 22.6027 28.1645C22.3752 28.0535 22.1759 27.8921 22.0201 27.6925C21.8643 27.493 21.7559 27.2606 21.7033 27.013C21.6507 26.7653 21.6552 26.509 21.7165 26.2633L23.3832 19.5967C23.4902 19.168 23.7632 18.7993 24.142 18.5718C24.5208 18.3443 24.9761 18.2765 25.4048 18.3833ZM17.4998 18.3333C18.5577 18.3332 19.576 18.7354 20.3482 19.4584C21.1205 20.1814 21.5888 21.1711 21.6582 22.2267L21.6665 22.5V23.0417C21.6665 24.0417 21.3498 25.01 20.7648 25.8133L20.5315 26.105L18.6248 28.3333H19.9998C20.4246 28.3338 20.8332 28.4965 21.1421 28.7881C21.451 29.0797 21.6369 29.4783 21.6618 29.9023C21.6867 30.3264 21.5487 30.744 21.2761 31.0697C21.0034 31.3955 20.6167 31.6048 20.1948 31.655L19.9998 31.6667H14.9998C14.6992 31.6668 14.4042 31.5857 14.1459 31.4318C13.8877 31.278 13.6759 31.0571 13.5329 30.7927C13.3899 30.5283 13.3211 30.2301 13.3338 29.9298C13.3464 29.6294 13.4401 29.3381 13.6048 29.0867L13.7348 28.915L18.0015 23.9367C18.171 23.7379 18.2808 23.4952 18.3182 23.2367L18.3332 23.0417V22.5C18.3332 22.279 18.2454 22.067 18.0891 21.9107C17.9328 21.7545 17.7208 21.6667 17.4998 21.6667C17.2788 21.6667 17.0669 21.7545 16.9106 21.9107C16.7543 22.067 16.6665 22.279 16.6665 22.5C16.6665 22.942 16.4909 23.366 16.1783 23.6785C15.8658 23.9911 15.4419 24.1667 14.9998 24.1667C14.5578 24.1667 14.1339 23.9911 13.8213 23.6785C13.5088 23.366 13.3332 22.942 13.3332 22.5C13.3332 21.3949 13.7722 20.3351 14.5536 19.5537C15.335 18.7723 16.3948 18.3333 17.4998 18.3333ZM14.9998 0C21.9915 0 27.8615 4.78333 29.5265 11.25C29.637 11.6781 29.5729 12.1326 29.3483 12.5134C29.1238 12.8943 28.7571 13.1703 28.329 13.2808C27.9009 13.3913 27.4464 13.3273 27.0656 13.1027C26.6847 12.8781 26.4087 12.5114 26.2982 12.0833C25.8167 10.2219 24.8826 8.50831 23.579 7.095C22.2754 5.68169 20.6427 4.61248 18.8261 3.98246C17.0096 3.35243 15.0655 3.18114 13.1667 3.48381C11.268 3.78648 9.47348 4.55373 7.94283 5.71731C6.41219 6.8809 5.19284 8.40474 4.39327 10.1533C3.59369 11.9019 3.23866 13.8209 3.35976 15.7398C3.48086 17.6587 4.07434 19.518 5.0874 21.1521C6.10047 22.7863 7.50171 24.1447 9.1665 25.1067C9.52927 25.3373 9.78891 25.6991 9.89119 26.1167C9.99346 26.5342 9.93045 26.9751 9.71532 27.3473C9.5002 27.7194 9.14959 27.9941 8.73674 28.1139C8.32389 28.2336 7.88073 28.1893 7.49983 27.99C4.6404 26.3389 2.40564 23.7905 1.14215 20.7399C-0.121351 17.6893 -0.342984 14.307 0.511619 11.1177C1.36622 7.92829 3.2493 5.11 5.86883 3.09988C8.48836 1.08977 11.6979 0.000145271 14.9998 0ZM14.9998 6.66667C15.4081 6.66672 15.8021 6.81659 16.1071 7.08786C16.4122 7.35912 16.6071 7.73291 16.6548 8.13833L16.6665 8.33333V15C16.6664 15.4082 16.5166 15.8022 16.2453 16.1073C15.974 16.4123 15.6003 16.6072 15.1948 16.655L14.9998 16.6667H11.6665C11.2417 16.6662 10.8331 16.5035 10.5242 16.2119C10.2153 15.9203 10.0294 15.5217 10.0045 15.0977C9.97965 14.6736 10.1176 14.256 10.3903 13.9303C10.6629 13.6045 11.0497 13.3952 11.4715 13.345L11.6665 13.3333H13.3332V8.33333C13.3332 7.89131 13.5088 7.46738 13.8213 7.15482C14.1339 6.84226 14.5578 6.66667 14.9998 6.66667Z" fill="white"/>
</svg>
