<svg width="16" height="16" viewBox="0 0 16 16" fill="none" xmlns="http://www.w3.org/2000/svg">
<rect x="0.35" y="0.35" width="15.3" height="15.3" rx="1.65" stroke="#00C8FF" stroke-width="0.7"/>
<path d="M6.25003 10.0083L4.43789 8.1962C4.27256 8.03087 4.04832 7.93799 3.81451 7.93799C3.58069 7.93799 3.35645 8.03087 3.19112 8.1962C3.02579 8.36153 2.93291 8.58577 2.93291 8.81958C2.93291 8.93536 2.95571 9.04999 3.00002 9.15695C3.04432 9.26391 3.10926 9.3611 3.19112 9.44296L5.62946 11.8813C5.97411 12.226 6.53156 12.226 6.87622 11.8813L13.0479 5.70963C13.2132 5.5443 13.3061 5.32006 13.3061 5.08625C13.3061 4.85244 13.2132 4.6282 13.0479 4.46287C12.8826 4.29754 12.6583 4.20465 12.4245 4.20465C12.1907 4.20465 11.9666 4.2975 11.8012 4.46276C11.8012 4.4628 11.8012 4.46283 11.8011 4.46287L6.25003 10.0083Z" fill="#00C8FF" stroke="#00C8FF" stroke-width="0.6"/>
</svg>
