<svg width="24" height="24" viewBox="0 0 24 24" fill="none" xmlns="http://www.w3.org/2000/svg">
<path d="M2.454 7.93943C2.73529 7.65822 3.11675 7.50025 3.5145 7.50025C3.91224 7.50025 4.2937 7.65822 4.575 7.93943L12 15.3644L19.425 7.93943C19.7079 7.66619 20.0868 7.515 20.4801 7.51842C20.8734 7.52183 21.2496 7.67959 21.5277 7.9577C21.8058 8.23581 21.9636 8.61203 21.967 9.00533C21.9704 9.39862 21.8192 9.77752 21.546 10.0604L13.0605 18.5459C12.7792 18.8271 12.3977 18.9851 12 18.9851C11.6023 18.9851 11.2208 18.8271 10.9395 18.5459L2.454 10.0604C2.17279 9.77914 2.01482 9.39767 2.01482 8.99993C2.01482 8.60218 2.17279 8.22072 2.454 7.93943Z" fill="white"/>
</svg>
