<svg width="24" height="24" viewBox="0 0 24 24" fill="none" xmlns="http://www.w3.org/2000/svg">
<path d="M21.546 16.0606C21.2647 16.3418 20.8832 16.4998 20.4855 16.4998C20.0877 16.4998 19.7063 16.3418 19.425 16.0606L12 8.63557L4.57499 16.0606C4.29209 16.3338 3.91318 16.485 3.51989 16.4816C3.12659 16.4782 2.75037 16.3204 2.47226 16.0423C2.19415 15.7642 2.0364 15.388 2.03298 14.9947C2.02956 14.6014 2.18075 14.2225 2.45399 13.9396L10.9395 5.45407C11.2208 5.17287 11.6022 5.01489 12 5.01489C12.3977 5.01489 12.7792 5.17287 13.0605 5.45407L21.546 13.9396C21.8272 14.2209 21.9852 14.6023 21.9852 15.0001C21.9852 15.3978 21.8272 15.7793 21.546 16.0606Z" fill="white"/>
</svg>
