<svg width="25" height="24" viewBox="0 0 25 24" fill="none" xmlns="http://www.w3.org/2000/svg">
<path d="M11.8359 19.5C17.773 19.5 22.5859 16.0302 22.5859 11.75C22.5859 7.46979 17.773 4 11.8359 4C5.89888 4 1.08594 7.46979 1.08594 11.75C1.08594 16.0302 5.89888 19.5 11.8359 19.5Z" fill="#4FC3F7"/>
<path d="M11.3212 12.473C10.3322 9.70448 8.87925 7.03248 8.27875 5.97548C8.10275 5.66598 7.88525 5.38248 7.63375 5.13048L6.35725 3.85398C6.16175 3.65848 5.65025 3.85398 5.65025 3.85398L4.83425 4.36698L4.75325 5.52648L4.47225 5.49998C4.21325 5.49998 4.00325 5.70998 4.00325 5.96898C4.00325 6.22898 4.20975 6.45348 4.46975 6.44948C5.42375 6.43448 6.25325 7.24998 6.25325 7.24998H7.25325C7.41325 7.40998 7.82275 7.93298 7.91725 8.46948C7.97075 8.77498 7.99425 9.08398 7.97675 9.39348C7.81475 12.311 8.50325 13 8.50325 13C5.75325 11.25 1.09375 11.518 1.09375 11.518L1.19025 13.026L2.58575 15.5C3.04525 15.606 2.95775 15.187 3.46825 15.248C6.56775 15.6185 10.2532 15.25 10.2532 15.25C11.0032 15.25 11.2322 14.8535 11.5857 14.5C12.0857 14 11.5103 13.002 11.3212 12.473Z" fill="white"/>
<path d="M12.5424 12.473C13.5314 9.70448 14.9844 7.03248 15.5849 5.97548C15.7609 5.66598 15.9784 5.38248 16.2299 5.13048L17.5064 3.85398C17.7019 3.65848 18.2134 3.85398 18.2134 3.85398L18.9929 4.49998L19.1104 5.52648L19.3914 5.49998C19.6504 5.49998 19.8604 5.70998 19.8604 5.96898C19.8604 6.22898 19.6539 6.45348 19.3939 6.44948C18.4399 6.43448 17.6104 7.24998 17.6104 7.24998H16.6104C16.4504 7.40998 16.0409 7.93298 15.9464 8.46948C15.8929 8.77498 15.8694 9.08398 15.8869 9.39348C16.0489 12.311 15.3604 13 15.3604 13C18.1104 11.25 22.8604 11.5 22.8604 11.5L22.7779 13L21.2779 15.5C20.8184 15.606 20.9059 15.187 20.3954 15.248C17.2959 15.6185 13.6104 15.25 13.6104 15.25C12.8604 15.25 12.6314 14.8535 12.2779 14.5C11.7779 14 12.3534 13.002 12.5424 12.473Z" fill="white"/>
<path d="M22.0018 8.16298C21.8463 7.95548 21.6798 7.75898 21.5058 7.56948C21.4763 7.53748 21.4443 7.50798 21.4143 7.47648C21.2598 7.31348 21.1003 7.15698 20.9343 7.00748C20.9213 6.99598 20.9078 6.98498 20.8948 6.97348C20.6013 6.71248 20.2943 6.46748 19.9723 6.24648C20.0078 6.15898 20.0273 6.06448 20.0273 5.96898C20.0273 5.57298 19.7058 5.25048 19.2868 5.25048H19.2848L19.2773 5.25148V4.65998C19.2773 4.39298 19.1333 4.14398 18.9023 4.01048L18.2203 3.61998C18.1098 3.57748 17.5423 3.38098 17.2473 3.67648L16.3288 4.59548C16.1383 4.54248 15.8838 4.47048 15.7233 4.43248C14.5323 4.14398 13.3088 4.00698 12.0858 3.99998C10.5703 3.99798 9.03833 4.19498 7.57683 4.63748L6.61633 3.67698C6.32133 3.38198 5.75383 3.57748 5.60733 3.63748L4.96083 4.01048C4.72983 4.14398 4.58583 4.39298 4.58583 4.65998V5.25298L4.55483 5.24998C4.15833 5.24998 3.83583 5.57298 3.83583 5.96898C3.83583 6.12448 3.88733 6.27598 3.97733 6.40148C3.48833 6.75898 3.02583 7.15748 2.61633 7.61248C2.45883 7.78748 2.30833 7.96997 2.16633 8.16047C1.40483 9.17297 1.11633 10.435 1.08583 11.75C1.06833 13.064 1.31333 14.3615 2.05183 15.4215C2.79083 16.4875 3.77733 17.3485 4.86383 18.003C7.05283 19.3075 9.58183 19.8775 12.0858 19.926C13.3413 19.913 14.5973 19.7665 15.8213 19.464C17.0423 19.152 18.2263 18.673 19.3143 18.014C20.3958 17.35 21.3858 16.4935 22.1228 15.424C22.8608 14.363 23.0888 13.0645 23.0698 11.7505C23.0383 10.435 22.7643 9.17398 22.0018 8.16298ZM20.4823 7.56948C20.5968 7.68198 20.7063 7.79898 20.8133 7.91798C20.8613 7.97148 20.9108 8.02348 20.9573 8.07798C21.1038 8.25148 21.2438 8.42948 21.3713 8.61598C21.9153 9.40548 22.2638 10.311 22.3498 11.237C21.2128 11.2215 18.1278 11.294 15.8288 12.408C15.9963 11.8415 16.1383 10.9 16.0533 9.37897C16.0383 9.10297 16.0573 8.81147 16.1098 8.51248C16.1793 8.11748 16.4608 7.70347 16.6368 7.49948H17.0003C17.3658 7.49948 17.7163 7.38748 18.0128 7.17598C18.3248 6.95398 18.7923 6.68548 19.3068 6.69898C19.3428 6.69898 19.3763 6.68398 19.4118 6.67898C19.5453 6.77498 19.6798 6.87048 19.8078 6.97248C19.8458 7.00298 19.8828 7.03448 19.9203 7.06548C20.0568 7.17748 20.1893 7.29398 20.3178 7.41348C20.3738 7.46498 20.4288 7.51698 20.4823 7.56948ZM12.0858 4.49998C13.2703 4.51298 14.4528 4.65148 15.5993 4.93498C15.7033 4.96148 15.8053 4.99398 15.9078 5.02548C15.6668 5.27698 15.4548 5.55248 15.2848 5.85148C14.6973 6.88548 13.2228 9.59298 12.2243 12.389C12.1868 12.493 12.1428 12.604 12.0968 12.719C12.0408 12.8595 11.9838 13.005 11.9313 13.153C11.8793 13.005 11.8218 12.859 11.7658 12.719C11.7198 12.604 11.6758 12.493 11.6383 12.389C10.6383 9.58948 9.16483 6.88448 8.57783 5.85148C8.42933 5.58998 8.24433 5.34948 8.04083 5.12348C9.34683 4.73048 10.7178 4.52698 12.0858 4.49998ZM2.80333 8.61898C2.92883 8.43698 3.06533 8.26248 3.20883 8.09298C3.25583 8.03698 3.30683 7.98398 3.35583 7.92948C3.45683 7.81698 3.55983 7.70547 3.66833 7.59847C3.72583 7.54147 3.78483 7.48648 3.84383 7.43098C3.95833 7.32448 4.07533 7.22048 4.19583 7.11998C4.24533 7.07848 4.29483 7.03698 4.34533 6.99648C4.46683 6.89998 4.59283 6.80848 4.71933 6.71748C5.16233 6.76198 5.57283 6.97848 5.85033 7.17648C6.14733 7.38798 6.49733 7.49998 6.86333 7.49998H7.22683C7.40283 7.70348 7.68433 8.11747 7.75383 8.51297C7.80633 8.81147 7.82533 9.10298 7.81033 9.37948C7.72533 10.9005 7.86733 11.843 8.03483 12.409C5.93833 11.3945 3.16783 11.2425 1.82233 11.237C1.90983 10.3115 2.25883 9.40698 2.80333 8.61898ZM3.20383 15.1355C3.10783 15.0235 3.00583 14.917 2.91783 14.799C2.25033 13.913 1.83083 12.8525 1.79883 11.75C1.79883 11.746 1.79933 11.7415 1.79933 11.7375C3.23833 11.7405 6.41233 11.913 8.45183 13.211C8.55733 13.278 8.69383 13.255 8.77483 13.159C8.85583 13.064 8.85133 12.9205 8.76783 12.828C8.76183 12.821 8.15883 12.117 8.30983 9.40697C8.32733 9.09197 8.30633 8.76197 8.24683 8.42597C8.13783 7.80848 7.68033 7.23998 7.51333 7.07298C7.46583 7.02648 7.40183 6.99998 7.33583 6.99998H6.86333C6.60233 6.99998 6.35283 6.92048 6.14083 6.76898C5.76833 6.50348 5.17833 6.19548 4.54833 6.19898C4.48283 6.20098 4.43533 6.16748 4.40783 6.14048C4.36183 6.09598 4.33583 6.03348 4.33583 5.96898C4.33583 5.84798 4.43383 5.74998 4.53133 5.74898L4.81233 5.77598C4.86783 5.77948 4.92033 5.76248 4.96633 5.73398L5.15933 5.92698C5.20683 5.97448 5.27083 5.99998 5.33583 5.99998C5.36233 5.99998 5.38883 5.99548 5.41483 5.98748L6.01833 5.78648L6.65883 6.42698C6.70783 6.47548 6.77183 6.49998 6.83583 6.49998C6.89983 6.49998 6.96383 6.47548 7.01283 6.42698C7.11033 6.32948 7.11033 6.17098 7.01283 6.07348L6.43933 5.49998L6.51233 5.42698C6.56133 5.37798 6.58583 5.31398 6.58583 5.24998C6.58583 5.18598 6.56133 5.12198 6.51283 5.07298L6.01283 4.57298C5.91533 4.47548 5.75683 4.47548 5.65933 4.57298C5.61033 4.62198 5.58583 4.68598 5.58583 4.74998C5.58583 4.81398 5.61033 4.87798 5.65883 4.92698L5.98183 5.24998L5.95033 5.28148L5.40283 5.46398L5.08583 5.14648V4.65998C5.08583 4.57098 5.13383 4.48798 5.21083 4.44298L5.82083 4.08698C6.00333 4.01748 6.21683 3.99748 6.26233 4.02998L7.53933 5.30698C7.77683 5.54448 7.98033 5.81048 8.14383 6.09848C8.72433 7.11998 10.1818 9.79498 11.1683 12.557C11.2073 12.6665 11.2538 12.783 11.3018 12.904C11.4753 13.3395 11.6723 13.833 11.5918 14.1955C11.4898 14.6545 10.9498 15 10.3308 15C10.2958 15.001 6.76933 15.0695 3.61833 15.0055C3.48483 15.001 3.34033 15.057 3.20383 15.1355ZM18.6943 16.959C17.7043 17.5185 16.6163 17.908 15.5018 18.1685C14.3878 18.438 13.2378 18.5675 12.0858 18.5745C9.78983 18.5795 7.45633 18.099 5.47083 16.9705C4.77033 16.571 4.11633 16.0885 3.55483 15.525C3.57283 15.518 3.59633 15.506 3.60833 15.5055C6.76933 15.569 10.3053 15.5005 10.3358 15.5C11.0338 15.5 11.6438 15.1635 11.9318 14.665C12.2193 15.1635 12.8288 15.5 13.5228 15.5C13.5583 15.501 17.0958 15.5695 20.2538 15.5055C20.2983 15.507 20.3898 15.5565 20.4953 15.63C19.9598 16.1445 19.3513 16.5925 18.6943 16.959ZM21.2503 14.7965C21.1268 14.961 20.9873 15.114 20.8488 15.267C20.6638 15.1305 20.4438 15.005 20.2528 15.005C20.2503 15.005 20.2473 15.005 20.2443 15.005C17.0943 15.0675 13.5673 15 13.5273 14.9995C12.9133 14.9995 12.3733 14.654 12.2713 14.1955C12.1908 13.833 12.3873 13.3395 12.5613 12.904C12.6093 12.783 12.6558 12.666 12.6948 12.557C13.6803 9.79798 15.1383 7.12148 15.7193 6.09848C15.8828 5.81048 16.0863 5.54448 16.3238 5.30698L17.5988 4.03148C17.6468 3.99998 17.8598 4.01848 18.0063 4.06998L18.6528 4.44348C18.7298 4.48848 18.7778 4.57148 18.7778 4.66048V5.14698L18.4603 5.46448L17.9128 5.28198L17.8813 5.24998L18.2043 4.92698C18.2533 4.87798 18.2773 4.81398 18.2773 4.74998C18.2773 4.68598 18.2528 4.62198 18.2043 4.57298C18.1068 4.47548 17.9483 4.47548 17.8508 4.57298L17.3508 5.07298C17.3018 5.12198 17.2778 5.18598 17.2778 5.24998C17.2778 5.31398 17.3023 5.37798 17.3508 5.42698L17.4243 5.49998L16.8513 6.07298C16.7538 6.17048 16.7538 6.32898 16.8513 6.42648C16.8998 6.47548 16.9638 6.49998 17.0278 6.49998C17.0918 6.49998 17.1558 6.47548 17.2048 6.42698L17.8453 5.78648L18.4488 5.98748C18.4743 5.99548 18.5013 5.99998 18.5278 5.99998C18.5928 5.99998 18.6568 5.97448 18.7048 5.92698L18.8978 5.73398C18.9438 5.76248 18.9963 5.77998 19.0518 5.77598L19.3093 5.74998C19.4303 5.74998 19.5283 5.84798 19.5283 5.96898C19.5283 6.03348 19.5023 6.09598 19.4568 6.14048C19.4288 6.16798 19.3783 6.19498 19.3158 6.19898C18.6763 6.20448 18.0963 6.50298 17.7233 6.76898C17.5113 6.92048 17.2618 6.99998 17.0008 6.99998H16.5278C16.4613 6.99998 16.3978 7.02648 16.3508 7.07298C16.1838 7.23998 15.7258 7.80947 15.6173 8.42597C15.5583 8.76297 15.5368 9.09298 15.5543 9.40748C15.7053 12.117 15.1023 12.821 15.1008 12.823C15.0108 12.9135 15.0028 13.057 15.0823 13.156C15.1618 13.2555 15.3033 13.279 15.4118 13.2105C17.6158 11.808 21.1998 11.726 22.3728 11.7395C22.3728 11.743 22.3733 11.746 22.3733 11.7495C22.3393 12.8525 21.9188 13.912 21.2503 14.7965Z" fill="#1A237E"/>
</svg>
