<svg width="21" height="24" viewBox="0 0 21 24" fill="none" xmlns="http://www.w3.org/2000/svg">
<g clip-path="url(#clip0_1667_891)">
<path d="M17.8269 1.86808C16.7196 0.605932 14.7179 0.0648193 12.1571 0.0648193H4.72504C4.47167 0.0647803 4.22659 0.155154 4.0339 0.319684C3.84121 0.484215 3.71355 0.712103 3.67389 0.962356L0.57932 20.5889C0.51781 20.9759 0.817492 21.3264 1.20976 21.3264H5.79805L6.95037 14.0174L6.9146 14.2463C6.9967 13.7296 7.43855 13.3486 7.96178 13.3486H10.1421C14.4254 13.3486 17.7793 11.6088 18.759 6.57605C18.7881 6.4272 18.8133 6.28233 18.8351 6.14079C18.7114 6.07531 18.7114 6.07531 18.8351 6.14079C19.1268 4.28063 18.8331 3.01444 17.8269 1.86808Z" fill="#27346A"/>
<path d="M8.70602 5.4707C8.83143 5.41088 8.96864 5.37992 9.10758 5.3801H14.9342C15.6241 5.3801 16.2677 5.425 16.8558 5.51965C17.0203 5.54591 17.184 5.57724 17.3467 5.61359C17.5771 5.66446 17.805 5.72671 18.0293 5.8001C18.3184 5.89666 18.5877 6.00911 18.8351 6.14079C19.1268 4.27992 18.8331 3.01444 17.8269 1.86808C16.7189 0.605932 14.7179 0.0648193 12.1571 0.0648193H4.72441C4.20109 0.0648193 3.7559 0.445799 3.67389 0.962356L0.57932 20.5882C0.51781 20.9758 0.817492 21.3258 1.20912 21.3258H5.79805L8.18875 6.16527C8.21228 6.01626 8.27164 5.8752 8.36175 5.75421C8.45185 5.63322 8.57 5.53593 8.70602 5.4707Z" fill="#27346A"/>
<path d="M18.759 6.57607C17.7793 11.6081 14.4255 13.3486 10.1421 13.3486H7.96112C7.43789 13.3486 6.99595 13.7297 6.91466 14.2463L5.48109 23.3341C5.42753 23.6728 5.68946 23.9797 6.03214 23.9797H9.89995C10.1215 23.9797 10.3358 23.9006 10.5042 23.7566C10.6727 23.6127 10.7842 23.4134 10.8189 23.1946L10.8565 22.9975L11.5855 18.3774L11.6325 18.1221C11.6671 17.9032 11.7787 17.7039 11.9471 17.56C12.1155 17.4161 12.3298 17.337 12.5513 17.3369H13.1302C16.877 17.3369 19.8108 15.8147 20.6681 11.4124C21.0259 9.57265 20.8408 8.03665 19.8941 6.95776C19.607 6.63098 19.2504 6.3611 18.835 6.14081C18.8125 6.28306 18.7881 6.42722 18.759 6.57607Z" fill="#009CDE"/>
<path d="M17.8095 5.73204C17.6568 5.68744 17.5026 5.64795 17.3472 5.61363C17.1845 5.57786 17.0208 5.54675 16.8563 5.52033C16.2676 5.42505 15.6245 5.38007 14.9339 5.38007H9.10802C8.96899 5.37983 8.83171 5.41105 8.70646 5.47138C8.57026 5.53637 8.45196 5.6336 8.36181 5.75463C8.27166 5.87566 8.21238 6.01684 8.18911 6.16595L6.9508 14.0174L6.91504 14.2463C6.9965 13.7297 7.43835 13.3486 7.96166 13.3486H10.1426C14.4259 13.3486 17.7797 11.6089 18.7594 6.57609C18.7886 6.42725 18.8131 6.28301 18.8356 6.14084C18.5875 6.00997 18.3189 5.89662 18.0297 5.80078C17.9568 5.77659 17.8834 5.75367 17.8096 5.73204" fill="#1F264F"/>
</g>
<defs>
<clipPath id="clip0_1667_891">
<rect width="20.3475" height="24" fill="white" transform="translate(0.566895)"/>
</clipPath>
</defs>
</svg>
