<svg width="42" height="10" viewBox="0 0 42 10" fill="none" xmlns="http://www.w3.org/2000/svg">
<path d="M31.25 4.25H0.75C0.335786 4.25 0 4.58579 0 5C0 5.41421 0.335786 5.75 0.75 5.75H31.25C31.6642 5.75 32 5.41421 32 5C32 4.58579 31.6642 4.25 31.25 4.25Z" fill="#8A979B"/>
<path d="M34.9499 1.44732C34.8865 1.50946 34.8362 1.58327 34.8019 1.66453C34.7677 1.74579 34.75 1.83289 34.75 1.92086C34.75 2.00883 34.7677 2.09594 34.8019 2.1772C34.8362 2.25846 34.8865 2.33227 34.9499 2.39441L37.6014 5.00059L34.9499 7.60676C34.8221 7.73235 34.7503 7.90269 34.7503 8.08031C34.7503 8.25792 34.8221 8.42826 34.9499 8.55385C35.0776 8.67944 35.2509 8.75 35.4316 8.75C35.6123 8.75 35.7856 8.67944 35.9134 8.55385L39.0501 5.47077C39.1135 5.40863 39.1638 5.33482 39.1981 5.25356C39.2323 5.1723 39.25 5.0852 39.25 4.99723C39.25 4.90926 39.2323 4.82215 39.1981 4.74089C39.1638 4.65963 39.1135 4.58582 39.0501 4.52368L35.9134 1.4406C35.6537 1.18536 35.2164 1.18536 34.9499 1.44732Z" fill="#8A979B"/>
</svg>
