<svg width="38" height="32" viewBox="0 0 38 32" fill="none" xmlns="http://www.w3.org/2000/svg">
<g clip-path="url(#clip0_2163_4989)">
<path d="M-11.333 32V0H-8.66634V32H-11.333ZM-7.33301 32V0H-4.66634V32H-7.33301ZM-3.33301 32V0H-1.99967V32H-3.33301ZM0.666992 32V0H3.33366V32H0.666992ZM4.66699 32V0H8.66699V32H4.66699ZM10.0003 32V0H11.3337V32H10.0003ZM14.0003 32V0H18.0003V32H14.0003Z" fill="white"/>
<path d="M19 32V0H20.3333V32H19ZM23 32V0H25.6667V32H23ZM27 32V0H31V32H27ZM32.3333 32V0H33.6667V32H32.3333Z" fill="white"/>
<path d="M34.667 32V0H36.0003V32H34.667ZM38.667 32V0H41.3337V32H38.667ZM42.667 32V0H46.667V32H42.667ZM48.0003 32V0H49.3337V32H48.0003Z" fill="white"/>
</g>
<defs>
<clipPath id="clip0_2163_4989">
<rect width="38" height="32" fill="white"/>
</clipPath>
</defs>
</svg>
