<svg width="32" height="32" viewBox="0 0 32 32" fill="none" xmlns="http://www.w3.org/2000/svg">
<path d="M15.6663 26C23.5824 26 29.9997 21.3736 29.9997 15.6667C29.9997 9.95973 23.5824 5.33334 15.6663 5.33334C7.75026 5.33334 1.33301 9.95973 1.33301 15.6667C1.33301 21.3736 7.75026 26 15.6663 26Z" fill="#4FC3F7"/>
<path d="M14.9804 16.6307C13.6618 12.9393 11.7244 9.37668 10.9238 7.96735C10.6891 7.55468 10.3991 7.17668 10.0638 6.84068L8.36175 5.13868C8.10108 4.87801 7.41908 5.13868 7.41908 5.13868L6.33108 5.82268L6.22308 7.36868L5.84842 7.33335C5.50308 7.33335 5.22308 7.61335 5.22308 7.95868C5.22308 8.30535 5.49842 8.60468 5.84508 8.59935C7.11708 8.57935 8.22308 9.66668 8.22308 9.66668H9.55642C9.76975 9.88001 10.3158 10.5773 10.4418 11.2927C10.5131 11.7 10.5444 12.112 10.5211 12.5247C10.3051 16.4147 11.2231 17.3333 11.2231 17.3333C7.55642 15 1.34375 15.3573 1.34375 15.3573L1.47242 17.368L3.33308 20.6667C3.94575 20.808 3.82908 20.2493 4.50975 20.3307C8.64242 20.8247 13.5564 20.3333 13.5564 20.3333C14.5564 20.3333 14.8617 19.8047 15.3331 19.3333C15.9997 18.6667 15.2324 17.336 14.9804 16.6307Z" fill="white"/>
<path d="M16.6086 16.6307C17.9273 12.9393 19.8646 9.37668 20.6653 7.96735C20.9 7.55468 21.19 7.17668 21.5253 6.84068L23.2273 5.13868C23.488 4.87801 24.17 5.13868 24.17 5.13868L25.2093 6.00001L25.366 7.36868L25.7406 7.33335C26.086 7.33335 26.366 7.61335 26.366 7.95868C26.366 8.30535 26.0906 8.60468 25.744 8.59935C24.472 8.57935 23.366 9.66668 23.366 9.66668H22.0326C21.8193 9.88001 21.2733 10.5773 21.1473 11.2927C21.076 11.7 21.0446 12.112 21.068 12.5247C21.284 16.4147 20.366 17.3333 20.366 17.3333C24.0326 15 30.366 15.3333 30.366 15.3333L30.256 17.3333L28.256 20.6667C27.6433 20.808 27.76 20.2493 27.0793 20.3307C22.9466 20.8247 18.0326 20.3333 18.0326 20.3333C17.0326 20.3333 16.7273 19.8047 16.256 19.3333C15.5893 18.6667 16.3566 17.336 16.6086 16.6307Z" fill="white"/>
<path d="M29.2212 10.884C29.0139 10.6073 28.7919 10.3453 28.5599 10.0927C28.5205 10.05 28.4779 10.0107 28.4379 9.96867C28.2319 9.75134 28.0192 9.54267 27.7979 9.34334C27.7805 9.32801 27.7625 9.31334 27.7452 9.29801C27.3539 8.95001 26.9445 8.62334 26.5152 8.32867C26.5625 8.21201 26.5885 8.08601 26.5885 7.95867C26.5885 7.43067 26.1599 7.00067 25.6012 7.00067H25.5985L25.5885 7.00201V6.21334C25.5885 5.85734 25.3965 5.52534 25.0885 5.34734L24.1792 4.82667C24.0319 4.77001 23.2752 4.50801 22.8819 4.90201L21.6572 6.12734C21.4032 6.05667 21.0639 5.96067 20.8499 5.91001C19.2619 5.52534 17.6305 5.34267 15.9999 5.33334C13.9792 5.33067 11.9365 5.59334 9.98785 6.18334L8.70719 4.90267C8.31385 4.50934 7.55719 4.77001 7.36185 4.85001L6.49985 5.34734C6.19185 5.52534 5.99985 5.85734 5.99985 6.21334V7.00401L5.95852 7.00001C5.42985 7.00001 4.99985 7.43067 4.99985 7.95867C4.99985 8.16601 5.06852 8.36801 5.18852 8.53534C4.53652 9.01201 3.91985 9.54334 3.37385 10.15C3.16385 10.3833 2.96319 10.6267 2.77385 10.8807C1.75852 12.2307 1.37385 13.9133 1.33319 15.6667C1.30985 17.4187 1.63652 19.1487 2.62119 20.562C3.60652 21.9833 4.92185 23.1313 6.37052 24.004C9.28919 25.7433 12.6612 26.5033 15.9999 26.568C17.6739 26.5507 19.3485 26.3553 20.9805 25.952C22.6085 25.536 24.1872 24.8973 25.6379 24.0187C27.0799 23.1333 28.3999 21.9913 29.3825 20.5653C30.3665 19.1507 30.6705 17.4193 30.6452 15.6673C30.6032 13.9133 30.2379 12.232 29.2212 10.884ZM27.1952 10.0927C27.3479 10.2427 27.4939 10.3987 27.6365 10.5573C27.7005 10.6287 27.7665 10.698 27.8285 10.7707C28.0239 11.002 28.2105 11.2393 28.3805 11.488C29.1059 12.5407 29.5705 13.748 29.6852 14.9827C28.1692 14.962 24.0559 15.0587 20.9905 16.544C21.2139 15.7887 21.4032 14.5333 21.2899 12.5053C21.2699 12.1373 21.2952 11.7487 21.3652 11.35C21.4579 10.8233 21.8332 10.2713 22.0679 9.99934H22.5525C23.0399 9.99934 23.5072 9.85001 23.9025 9.56801C24.3185 9.27201 24.9419 8.91401 25.6279 8.93201C25.6759 8.93201 25.7205 8.91201 25.7679 8.90534C25.9459 9.03334 26.1252 9.16067 26.2959 9.29667C26.3465 9.33734 26.3959 9.37934 26.4459 9.42067C26.6279 9.57001 26.8045 9.72534 26.9759 9.88467C27.0505 9.95334 27.1239 10.0227 27.1952 10.0927ZM15.9999 6.00001C17.5792 6.01734 19.1559 6.20201 20.6845 6.58001C20.8232 6.61534 20.9592 6.65867 21.0959 6.70067C20.7745 7.03601 20.4919 7.40334 20.2652 7.80201C19.4819 9.18067 17.5159 12.7907 16.1845 16.5187C16.1345 16.6573 16.0759 16.8053 16.0145 16.9587C15.9399 17.146 15.8639 17.34 15.7939 17.5373C15.7245 17.34 15.6479 17.1453 15.5732 16.9587C15.5119 16.8053 15.4532 16.6573 15.4032 16.5187C14.0699 12.786 12.1052 9.17934 11.3225 7.80201C11.1245 7.45334 10.8779 7.13267 10.6065 6.83134C12.3479 6.30734 14.1759 6.03601 15.9999 6.00001ZM3.62319 11.492C3.79052 11.2493 3.97252 11.0167 4.16385 10.7907C4.22652 10.716 4.29452 10.6453 4.35985 10.5727C4.49452 10.4227 4.63185 10.274 4.77652 10.1313C4.85319 10.0553 4.93185 9.98201 5.01052 9.90801C5.16319 9.76601 5.31919 9.62734 5.47985 9.49334C5.54585 9.43801 5.61185 9.38267 5.67919 9.32867C5.84119 9.20001 6.00919 9.07801 6.17785 8.95668C6.76852 9.01601 7.31585 9.30467 7.68585 9.56867C8.08185 9.85067 8.54852 10 9.03652 10H9.52119C9.75585 10.2713 10.1312 10.8233 10.2239 11.3507C10.2939 11.7487 10.3192 12.1373 10.2992 12.506C10.1859 14.534 10.3752 15.7907 10.5985 16.5453C7.80319 15.1927 4.10919 14.99 2.31519 14.9827C2.43185 13.7487 2.89719 12.5427 3.62319 11.492ZM4.15719 20.1807C4.02919 20.0313 3.89319 19.8893 3.77585 19.732C2.88585 18.5507 2.32652 17.1367 2.28385 15.6667C2.28385 15.6613 2.28452 15.6553 2.28452 15.65C4.20319 15.654 8.43519 15.884 11.1545 17.6147C11.2952 17.704 11.4772 17.6733 11.5852 17.5453C11.6932 17.4187 11.6872 17.2273 11.5759 17.104C11.5679 17.0947 10.7639 16.156 10.9652 12.5427C10.9885 12.1227 10.9605 11.6827 10.8812 11.2347C10.7359 10.4113 10.1259 9.65334 9.90319 9.43067C9.83985 9.36867 9.75452 9.33334 9.66652 9.33334H9.03652C8.68852 9.33334 8.35585 9.22734 8.07319 9.02534C7.57652 8.67134 6.78985 8.26067 5.94985 8.26534C5.86252 8.26801 5.79919 8.22334 5.76252 8.18734C5.70119 8.12801 5.66652 8.04467 5.66652 7.95867C5.66652 7.79734 5.79719 7.66667 5.92719 7.66534L6.30185 7.70134C6.37585 7.70601 6.44585 7.68334 6.50719 7.64534L6.76452 7.90267C6.82785 7.96601 6.91319 8.00001 6.99985 8.00001C7.03519 8.00001 7.07052 7.99401 7.10519 7.98334L7.90985 7.71534L8.76385 8.56934C8.82919 8.63401 8.91452 8.66667 8.99985 8.66667C9.08519 8.66667 9.17052 8.63401 9.23585 8.56934C9.36585 8.43934 9.36585 8.22801 9.23585 8.09801L8.47119 7.33334L8.56852 7.23601C8.63385 7.17067 8.66652 7.08534 8.66652 7.00001C8.66652 6.91467 8.63385 6.82934 8.56919 6.76401L7.90252 6.09734C7.77252 5.96734 7.56119 5.96734 7.43119 6.09734C7.36585 6.16267 7.33319 6.24801 7.33319 6.33334C7.33319 6.41867 7.36585 6.50401 7.43052 6.56934L7.86119 7.00001L7.81919 7.04201L7.08919 7.28534L6.66652 6.86201V6.21334C6.66652 6.09467 6.73052 5.98401 6.83319 5.92401L7.64652 5.44934C7.88985 5.35667 8.17452 5.33001 8.23519 5.37334L9.93785 7.07601C10.2545 7.39267 10.5259 7.74734 10.7439 8.13134C11.5179 9.49334 13.4612 13.06 14.7765 16.7427C14.8285 16.8887 14.8905 17.044 14.9545 17.2053C15.1859 17.786 15.4485 18.444 15.3412 18.9273C15.2052 19.5393 14.4852 20 13.6599 20C13.6132 20.0013 8.91119 20.0927 4.70985 20.0073C4.53185 20.0013 4.33919 20.076 4.15719 20.1807ZM24.8112 22.612C23.4912 23.358 22.0405 23.8773 20.5545 24.2247C19.0692 24.584 17.5359 24.7567 15.9999 24.766C12.9385 24.7727 9.82719 24.132 7.17985 22.6273C6.24585 22.0947 5.37385 21.4513 4.62519 20.7C4.64919 20.6907 4.68052 20.6747 4.69652 20.674C8.91119 20.7587 13.6259 20.6673 13.6665 20.6667C14.5972 20.6667 15.4105 20.218 15.7945 19.5533C16.1779 20.218 16.9905 20.6667 17.9159 20.6667C17.9632 20.668 22.6799 20.7593 26.8905 20.674C26.9499 20.676 27.0719 20.742 27.2125 20.84C26.4985 21.526 25.6872 22.1233 24.8112 22.612ZM28.2192 19.7287C28.0545 19.948 27.8685 20.152 27.6839 20.356C27.4372 20.174 27.1439 20.0067 26.8892 20.0067C26.8859 20.0067 26.8819 20.0067 26.8779 20.0067C22.6779 20.09 17.9752 20 17.9219 19.9993C17.1032 19.9993 16.3832 19.5387 16.2472 18.9273C16.1399 18.444 16.4019 17.786 16.6339 17.2053C16.6979 17.044 16.7599 16.888 16.8119 16.7427C18.1259 13.064 20.0699 9.49534 20.8445 8.13134C21.0625 7.74734 21.3339 7.39267 21.6505 7.07601L23.3505 5.37534C23.4145 5.33334 23.6985 5.35801 23.8939 5.42667L24.7559 5.92467C24.8585 5.98467 24.9225 6.09534 24.9225 6.21401V6.86267L24.4992 7.28601L23.7692 7.04267L23.7272 7.00001L24.1579 6.56934C24.2232 6.50401 24.2552 6.41867 24.2552 6.33334C24.2552 6.24801 24.2225 6.16267 24.1579 6.09734C24.0279 5.96734 23.8165 5.96734 23.6865 6.09734L23.0199 6.76401C22.9545 6.82934 22.9225 6.91467 22.9225 7.00001C22.9225 7.08534 22.9552 7.17067 23.0199 7.23601L23.1179 7.33334L22.3539 8.09734C22.2239 8.22734 22.2239 8.43867 22.3539 8.56867C22.4185 8.63401 22.5039 8.66667 22.5892 8.66667C22.6745 8.66667 22.7599 8.63401 22.8252 8.56934L23.6792 7.71534L24.4839 7.98334C24.5179 7.99401 24.5539 8.00001 24.5892 8.00001C24.6759 8.00001 24.7612 7.96601 24.8252 7.90267L25.0825 7.64534C25.1439 7.68334 25.2139 7.70667 25.2879 7.70134L25.6312 7.66667C25.7925 7.66667 25.9232 7.79734 25.9232 7.95867C25.9232 8.04467 25.8885 8.12801 25.8279 8.18734C25.7905 8.22401 25.7232 8.26001 25.6399 8.26534C24.7872 8.27267 24.0139 8.67067 23.5165 9.02534C23.2339 9.22734 22.9012 9.33334 22.5532 9.33334H21.9225C21.8339 9.33334 21.7492 9.36867 21.6865 9.43067C21.4639 9.65334 20.8532 10.4127 20.7085 11.2347C20.6299 11.684 20.6012 12.124 20.6245 12.5433C20.8259 16.156 20.0219 17.0947 20.0199 17.0973C19.8999 17.218 19.8892 17.4093 19.9952 17.5413C20.1012 17.674 20.2899 17.7053 20.4345 17.614C23.3732 15.744 28.1519 15.6347 29.7159 15.6527C29.7159 15.6573 29.7165 15.6613 29.7165 15.666C29.6712 17.1367 29.1105 18.5493 28.2192 19.7287Z" fill="#1A237E"/>
</svg>
