<svg width="32" height="32" viewBox="0 0 32 32" fill="none" xmlns="http://www.w3.org/2000/svg">
<path d="M7.9338 8.00001H7.48047L12.8405 2.64001C14.5871 0.900007 17.4138 0.900007 19.1605 2.64001L24.5205 8.00001H24.0671C23.0005 8.00001 21.9938 8.41334 21.2405 9.17334L16.7071 13.6867C16.3138 14.08 15.6871 14.08 15.2938 13.6867L10.7605 9.17334C10.0071 8.41334 9.00047 8.00001 7.9338 8.00001Z" fill="#4DB6AC"/>
<path d="M24.0671 24H24.5205L19.1605 29.36C17.4138 31.1 14.5871 31.1 12.8405 29.36L7.48047 24H7.9338C9.00047 24 10.0071 23.5867 10.7605 22.8267L15.2938 18.3133C15.6871 17.92 16.3138 17.92 16.7071 18.3133L21.2405 22.8267C21.9938 23.5867 23.0005 24 24.0671 24Z" fill="#4DB6AC"/>
<path d="M29.36 19.16L25.8533 22.6667H24.0666C23.3533 22.6667 22.6866 22.3867 22.18 21.8867L17.6466 17.3667C16.74 16.46 15.26 16.46 14.3533 17.3667L9.81996 21.8867C9.31329 22.3867 8.64663 22.6667 7.93329 22.6667H6.14663L2.63996 19.16C0.899961 17.4133 0.899961 14.5867 2.63996 12.84L6.14663 9.33334H7.93329C8.64663 9.33334 9.31329 9.61334 9.81996 10.1133L14.3533 14.6333C14.8066 15.0867 15.4066 15.3133 16 15.3133C16.5933 15.3133 17.1933 15.0867 17.6466 14.6333L22.18 10.1133C22.6866 9.61334 23.3533 9.33334 24.0666 9.33334H25.8533L29.36 12.84C31.1 14.5867 31.1 17.4133 29.36 19.16Z" fill="#4DB6AC"/>
</svg>
