<svg width="16" height="16" viewBox="0 0 16 16" fill="none" xmlns="http://www.w3.org/2000/svg">
<path d="M14.364 10.707C14.1764 10.8945 13.9221 10.9998 13.657 10.9998C13.3918 10.9998 13.1375 10.8945 12.95 10.707L7.99995 5.75699L3.04995 10.707C2.86135 10.8891 2.60875 10.9899 2.34655 10.9877C2.08435 10.9854 1.83354 10.8802 1.64813 10.6948C1.46272 10.5094 1.35756 10.2586 1.35528 9.99639C1.353 9.73419 1.45379 9.48159 1.63595 9.29299L7.29295 3.63599C7.48048 3.44852 7.73479 3.3432 7.99995 3.3432C8.26512 3.3432 8.51942 3.44852 8.70695 3.63599L14.364 9.29299C14.5514 9.48052 14.6567 9.73482 14.6567 9.99999C14.6567 10.2652 14.5514 10.5195 14.364 10.707Z" fill="white"/>
</svg>
