<svg width="16" height="17" viewBox="0 0 16 17" fill="none" xmlns="http://www.w3.org/2000/svg">
<g clip-path="url(#clip0_685_4804)">
<path d="M0.340808 8.40452C0.340436 9.74883 0.691691 11.0615 1.3596 12.2184L0.276932 16.1714L4.32233 15.1107C5.44123 15.7198 6.69488 16.039 7.96884 16.0391H7.97219C12.1778 16.0391 15.6012 12.6169 15.603 8.41054C15.6038 6.37227 14.8108 4.45562 13.3699 3.01364C11.9293 1.57178 10.0133 0.777297 7.97188 0.776367C3.7658 0.776367 0.342606 4.19838 0.34087 8.40452" fill="url(#paint0_linear_685_4804)"/>
<path d="M0.0683708 8.40177C0.0679366 9.79445 0.431782 11.154 1.1235 12.3524L0.00201416 16.4471L4.19246 15.3484C5.34707 15.9779 6.64704 16.3098 7.96983 16.3103H7.97324C12.3297 16.3103 15.8761 12.765 15.878 8.40809C15.8787 6.29659 15.0571 4.31104 13.5648 2.8174C12.0723 1.32394 10.0878 0.500868 7.97324 0.5C3.61603 0.5 0.0701072 4.04481 0.0683708 8.40177ZM2.56394 12.146L2.40747 11.8976C1.74974 10.8518 1.40257 9.64326 1.40307 8.40226C1.40443 4.78087 4.35166 1.83457 7.97572 1.83457C9.73076 1.83532 11.3801 2.51947 12.6207 3.76078C13.8612 5.0022 14.5438 6.65243 14.5433 8.4076C14.5417 12.029 11.5944 14.9757 7.97324 14.9757H7.97063C6.79153 14.975 5.63513 14.6584 4.62663 14.06L4.38663 13.9177L1.89994 14.5696L2.56394 12.146Z" fill="url(#paint1_linear_685_4804)"/>
<path d="M5.99755 5.0988C5.84958 4.76993 5.69386 4.76329 5.55315 4.75753C5.43792 4.75256 5.3062 4.75294 5.1746 4.75294C5.04288 4.75294 4.82887 4.80249 4.64797 5.00001C4.46688 5.19771 3.95662 5.67548 3.95662 6.6472C3.95662 7.61892 4.6644 8.55808 4.76307 8.68999C4.86186 8.82165 6.12946 10.8796 8.13702 11.6713C9.80549 12.3292 10.145 12.1983 10.5071 12.1653C10.8693 12.1325 11.6758 11.6877 11.8403 11.2265C12.0049 10.7653 12.0049 10.3701 11.9556 10.2874C11.9062 10.2052 11.7745 10.1557 11.577 10.057C11.3794 9.95827 10.4083 9.48038 10.2273 9.41446C10.0462 9.3486 9.91457 9.31573 9.78285 9.51349C9.65113 9.71095 9.2729 10.1557 9.15761 10.2874C9.04245 10.4195 8.92716 10.4359 8.7297 10.3371C8.53206 10.238 7.89597 10.0297 7.1413 9.3569C6.55414 8.83337 6.15774 8.18686 6.04251 7.98909C5.92729 7.79163 6.03017 7.6846 6.12921 7.58618C6.21795 7.49768 6.32679 7.35554 6.42564 7.24025C6.52412 7.12491 6.55699 7.04261 6.62285 6.91089C6.68877 6.77904 6.65578 6.6637 6.60648 6.56491C6.55699 6.46611 6.17318 5.48931 5.99755 5.0988Z" fill="white"/>
</g>
<defs>
<linearGradient id="paint0_linear_685_4804" x1="766.581" y1="1540.28" x2="766.581" y2="0.776367" gradientUnits="userSpaceOnUse">
<stop stop-color="#1FAF38"/>
<stop offset="1" stop-color="#60D669"/>
</linearGradient>
<linearGradient id="paint1_linear_685_4804" x1="793.801" y1="1595.21" x2="793.801" y2="0.5" gradientUnits="userSpaceOnUse">
<stop stop-color="#F9F9F9"/>
<stop offset="1" stop-color="white"/>
</linearGradient>
<clipPath id="clip0_685_4804">
<rect width="15.88" height="16" fill="white" transform="translate(0 0.5)"/>
</clipPath>
</defs>
</svg>
