<svg width="18" height="18" viewBox="0 0 18 18" fill="none" xmlns="http://www.w3.org/2000/svg">
<path fill-rule="evenodd" clip-rule="evenodd" d="M9 10.5912L12.9773 14.5685C13.1883 14.7795 13.4745 14.8981 13.773 14.8981C14.0715 14.8981 14.3577 14.7795 14.5688 14.5685C14.7798 14.3574 14.8984 14.0712 14.8984 13.7727C14.8984 13.4743 14.7798 13.188 14.5688 12.977L10.59 8.99972L14.568 5.02247C14.6725 4.91797 14.7553 4.79392 14.8118 4.6574C14.8683 4.52089 14.8974 4.37458 14.8973 4.22683C14.8973 4.07908 14.8682 3.93278 14.8116 3.79629C14.755 3.6598 14.6721 3.53579 14.5676 3.43134C14.4631 3.32689 14.3391 3.24405 14.2026 3.18754C14.066 3.13103 13.9197 3.10196 13.772 3.102C13.6242 3.10203 13.4779 3.13117 13.3415 3.18774C13.205 3.24431 13.081 3.32722 12.9765 3.43172L9 7.40897L5.02275 3.43172C4.91902 3.32422 4.79493 3.23846 4.6577 3.17943C4.52047 3.12041 4.37287 3.08931 4.22349 3.08794C4.07412 3.08657 3.92596 3.11496 3.78768 3.17147C3.64939 3.22797 3.52375 3.31144 3.41807 3.41702C3.31239 3.5226 3.2288 3.64817 3.17216 3.7864C3.11553 3.92463 3.087 4.07276 3.08823 4.22213C3.08945 4.37151 3.12042 4.51915 3.17931 4.65643C3.23821 4.79371 3.32385 4.91789 3.43125 5.02172L7.41 8.99972L3.432 12.9777C3.3246 13.0815 3.23896 13.2057 3.18006 13.343C3.12117 13.4803 3.0902 13.6279 3.08898 13.7773C3.08775 13.9267 3.11628 14.0748 3.17291 14.213C3.22955 14.3513 3.31314 14.4768 3.41882 14.5824C3.5245 14.688 3.65014 14.7715 3.78843 14.828C3.92671 14.8845 4.07486 14.9129 4.22424 14.9115C4.37362 14.9101 4.52122 14.879 4.65845 14.82C4.79568 14.761 4.91977 14.6752 5.0235 14.5677L9 10.5912Z" fill="white"/>
</svg>
