<svg width="24" height="24" viewBox="0 0 24 24" fill="none" xmlns="http://www.w3.org/2000/svg">
<g clip-path="url(#clip0_2013_5084)">
<path d="M22.5879 5.84934H22.5801H22.5704L16.5342 8.86746L16.5298 8.85882V8.87445V11.9184L15.0329 12.6668V8.87445H15.0426L15.0286 8.86746L8.97836 5.84235L8.97487 5.84934L8.97137 5.85632L8.96706 5.86496V8.51912L7.47013 7.77065V4.16436L15.7814 0.00873484L24.0926 4.16436V13.4231L22.5957 12.6746V5.84934H22.5879ZM15.7779 7.56977L15.7755 7.57445L15.7849 7.56976L17.8765 6.51806L17.8729 6.51108L17.8694 6.5041L17.8666 6.49844L12.4056 3.37284L12.4088 3.36734L12.3982 3.37263L9.90489 4.62522L9.9084 4.6322L9.91191 4.63918L9.91425 4.64385L15.7779 7.56977ZM19.4998 5.71432L19.4967 5.71976L19.5072 5.71452L21.6578 4.63919L21.6543 4.6322L21.6508 4.62521L21.6485 4.62054L15.7849 1.68282L15.7872 1.67811L15.7779 1.68283L14.0171 2.56909L14.0207 2.57607L14.0242 2.58305L14.027 2.5887L19.4998 5.71432ZM13.5047 13.4309L12.0061 14.1802H12H11.9922H11.9825L7.45882 16.4421L7.4545 16.4334V16.449V21.8257H7.46231H7.47013H7.47971L11.9922 19.5577V21.2418L6.70604 23.8849L-0.0926514 20.4738V12.4952L6.70604 9.09588L13.5047 12.4952V13.4309ZM5.94976 21.8257L5.95327 21.8187L5.95757 21.8102V16.449H5.96723L5.95325 16.4421L1.41559 14.1732L1.41209 14.1802L1.4086 14.1872L1.40428 14.1958V19.5451H1.39469L1.40858 19.552L5.94625 21.8327L5.94976 21.8257ZM6.70255 15.1444L6.70024 15.149L6.70952 15.1444L11.0699 12.9701L11.0664 12.9631L11.063 12.9561L11.0606 12.9514L6.70954 10.77L6.71189 10.7653L6.70253 10.77L2.34212 12.9561L2.34562 12.9631L2.34912 12.9701L2.35146 12.9747L6.70255 15.1444ZM18.0502 21.9321L18.0537 21.9251L18.058 21.9164V18.3279H18.0677L18.0537 18.3209L15.0286 16.8084L15.0251 16.8154L15.0216 16.8223L15.0173 16.831V20.4195H15.0076L15.0216 20.4265L18.0467 21.939L18.0502 21.9321ZM22.5914 20.4265L22.5957 20.4351V20.4195V16.8154H22.5879H22.5801H22.5704L19.5593 18.3209L19.5549 18.3123V18.3279V21.9321H19.5628H19.5706H19.5802L22.5914 20.4265ZM18.803 17.0232L18.8006 17.0279L18.81 17.0232L21.6578 15.5934L21.6543 15.5864L21.6508 15.5794L21.6485 15.5748L18.81 14.1614L18.8123 14.1568L18.803 14.1614L15.9551 15.5794L15.9586 15.5864L15.9621 15.5934L15.9644 15.5981L18.803 17.0232ZM13.5203 21.3482V15.1304L18.8065 12.4873L24.0926 15.1304V21.3482L18.8065 23.9913L13.5203 21.3482Z" fill="white" stroke="white" stroke-width="0.015625"/>
</g>
<defs>
<clipPath id="clip0_2013_5084">
<rect width="24" height="24" fill="white"/>
</clipPath>
</defs>
</svg>
