<svg width="32" height="24" viewBox="0 0 32 24" fill="none" xmlns="http://www.w3.org/2000/svg">
<path d="M0 22V2H0.909091V22H0ZM1.36364 22V2H2.27273V22H1.36364ZM2.72727 22V2H3.18182V22H2.72727ZM4.09091 22V2H5V22H4.09091ZM5.45455 22V2H6.81818V22H5.45455ZM7.27273 22V2H7.72727V22H7.27273ZM8.63636 22V2H10V22H8.63636Z" fill="white"/>
<path d="M11 22V2H11.9091V22H11ZM13.7273 22V2H15.5455V22H13.7273ZM16.4545 22V2H19.1818V22H16.4545ZM20.0909 22V2H21V22H20.0909Z" fill="white"/>
<path d="M22 22V2H22.9091V22H22ZM24.7273 22V2H26.5455V22H24.7273ZM27.4545 22V2H30.1818V22H27.4545ZM31.0909 22V2H32V22H31.0909Z" fill="white"/>
</svg>
