<svg width="25" height="24" viewBox="0 0 25 24" fill="none" xmlns="http://www.w3.org/2000/svg">
<path d="M6.0358 5.99997H5.6958L9.7158 1.97997C11.0258 0.674971 13.1458 0.674971 14.4558 1.97997L18.4758 5.99997H18.1358C17.3358 5.99997 16.5808 6.30997 16.0158 6.87997L12.6158 10.265C12.3208 10.56 11.8508 10.56 11.5558 10.265L8.1558 6.87997C7.5908 6.30997 6.8358 5.99997 6.0358 5.99997Z" fill="#4DB6AC"/>
<path d="M18.1358 18H18.4758L14.4558 22.02C13.1458 23.325 11.0258 23.325 9.7158 22.02L5.6958 18H6.0358C6.8358 18 7.5908 17.69 8.1558 17.12L11.5558 13.735C11.8508 13.44 12.3208 13.44 12.6158 13.735L16.0158 17.12C16.5808 17.69 17.3358 18 18.1358 18Z" fill="#4DB6AC"/>
<path d="M22.1062 14.37L19.4762 17H18.1362C17.6012 17 17.1012 16.79 16.7212 16.415L13.3212 13.025C12.6412 12.345 11.5312 12.345 10.8512 13.025L7.45115 16.415C7.07115 16.79 6.57115 17 6.03615 17H4.69615L2.06615 14.37C0.761152 13.06 0.761152 10.94 2.06615 9.63L4.69615 7H6.03615C6.57115 7 7.07115 7.21 7.45115 7.585L10.8512 10.975C11.1912 11.315 11.6412 11.485 12.0862 11.485C12.5312 11.485 12.9812 11.315 13.3212 10.975L16.7212 7.585C17.1012 7.21 17.6012 7 18.1362 7H19.4762L22.1062 9.63C23.4112 10.94 23.4112 13.06 22.1062 14.37Z" fill="#4DB6AC"/>
</svg>
