<svg width="32" height="32" viewBox="0 0 32 32" fill="none" xmlns="http://www.w3.org/2000/svg">
<path d="M19.7815 4L28.1005 8.15953V17.4357L26.588 16.6795V9.84934L20.5378 12.8744V15.9232L19.0252 16.6795V12.8744L12.975 9.84934V12.5318L11.4624 11.7755V8.15953L19.7815 4ZM19.7815 11.5628L21.8731 10.5111L16.4019 7.37962L13.9085 8.6322L19.7815 11.5628ZM23.5038 9.70753L25.6545 8.6322L19.7815 5.68981L18.0208 6.57607L23.5038 9.70753ZM17.5127 17.4357L16.0001 18.192V18.1802L11.4624 20.449V25.8257L16.0001 23.5451V25.2467L10.7062 27.8936L3.89966 24.4786V16.4904L10.7062 13.0871L17.5127 16.4904V17.4357ZM9.94988 25.8257V20.449L5.41221 18.1802V23.5451L9.94988 25.8257ZM10.7062 19.1374L15.0666 16.9631L10.7062 14.777L6.34574 16.9631L10.7062 19.1374ZM17.5127 19.1256L22.8066 16.4786L28.1005 19.1256V25.353L22.8066 28L17.5127 25.353V19.1256ZM22.0503 25.9321V22.3279L19.0252 20.8154V24.4195L22.0503 25.9321ZM26.588 24.4195V20.8154L23.5629 22.3279V25.9321L26.588 24.4195ZM22.8066 21.0162L25.6545 19.5864L22.8066 18.1684L19.9587 19.5864L22.8066 21.0162Z" fill="white"/>
</svg>
