<svg width="15" height="17" viewBox="0 0 15 17" fill="none" xmlns="http://www.w3.org/2000/svg">
<g clip-path="url(#clip0_685_4797)">
<path d="M10.4677 6.26143C11.4983 6.99771 12.7607 7.43092 14.1242 7.43092V4.80858C13.8661 4.80868 13.6088 4.78175 13.3563 4.72824V6.79241C11.9929 6.79241 10.7306 6.35925 9.69991 5.62303V10.9745C9.69991 13.6517 7.52855 15.8217 4.85026 15.8217C3.85092 15.8217 2.92204 15.5197 2.15045 15.0018C3.03111 15.9019 4.25925 16.4602 5.61793 16.4602C8.29644 16.4602 10.4679 14.2901 10.4679 11.6129V6.26143H10.4677ZM11.4151 3.6158C10.8884 3.04074 10.5426 2.29757 10.4677 1.47594V1.13867H9.74008C9.92325 2.18292 10.5481 3.07506 11.4151 3.6158ZM3.84447 12.9476C3.5502 12.562 3.39114 12.0902 3.39189 11.6052C3.39189 10.3808 4.38504 9.38805 5.61037 9.38805C5.83868 9.38793 6.06566 9.42297 6.28331 9.49194V6.81095C6.02896 6.77613 5.7723 6.76129 5.51575 6.76675V8.85349C5.29799 8.7845 5.0709 8.74947 4.84248 8.74965C3.61721 8.74965 2.62411 9.74231 2.62411 10.9669C2.62411 11.8327 3.12049 12.5824 3.84447 12.9476Z" fill="#FF004F"/>
<path d="M9.69992 5.62298C10.7307 6.3592 11.9929 6.79235 13.3563 6.79235V4.72819C12.5953 4.56615 11.9215 4.16869 11.415 3.6158C10.548 3.075 9.92326 2.18287 9.74009 1.13867H7.82875V11.6128C7.82439 12.8338 6.83294 13.8225 5.61027 13.8225C4.88982 13.8225 4.24971 13.4793 3.84436 12.9475C3.1205 12.5824 2.62406 11.8327 2.62406 10.9669C2.62406 9.74248 3.61716 8.74971 4.84243 8.74971C5.07719 8.74971 5.30345 8.78623 5.5157 8.85354V6.76681C2.88442 6.82115 0.76828 8.97001 0.76828 11.6128C0.76828 12.9321 1.29523 14.1281 2.15051 15.002C2.9221 15.5197 3.85093 15.8218 4.85032 15.8218C7.52867 15.8218 9.69998 13.6516 9.69998 10.9745L9.69992 5.62298Z" fill="black"/>
<path d="M13.3563 4.72786V4.16985C12.67 4.17084 11.9973 3.97875 11.415 3.61553C11.9304 4.17951 12.6091 4.56843 13.3563 4.72797M9.74001 1.13834C9.72257 1.03857 9.70917 0.938129 9.69985 0.837269V0.5H7.06073V10.9742C7.05654 12.1952 6.06509 13.1839 4.84236 13.1839C4.49572 13.1844 4.15383 13.1034 3.84429 12.9473C4.24964 13.479 4.88975 13.8222 5.61019 13.8222C6.83281 13.8222 7.82437 12.8336 7.82868 11.6126V1.1384L9.74001 1.13834ZM5.51579 6.76648V6.17233C5.29526 6.14222 5.07294 6.12714 4.85036 6.1272C2.17174 6.1272 0.000427246 8.29735 0.000427246 10.9742C0.000427246 12.6525 0.853779 14.1316 2.15055 15.0016C1.29527 14.1278 0.768317 12.9317 0.768317 11.6125C0.768317 8.96974 2.8844 6.82083 5.51579 6.76648Z" fill="#00F2EA"/>
</g>
<defs>
<clipPath id="clip0_685_4797">
<rect width="14.125" height="16" fill="white" transform="translate(0 0.5)"/>
</clipPath>
</defs>
</svg>
