<svg width="25" height="24" viewBox="0 0 25 24" fill="none" xmlns="http://www.w3.org/2000/svg">
<g clip-path="url(#clip0_1634_1492)">
<path d="M24.4062 12C24.4062 5.37262 19.0336 0 12.4062 0C5.77887 0 0.40625 5.37262 0.40625 12C0.40625 17.9895 4.7945 22.954 10.5312 23.8542V15.4688H7.48438V12H10.5312V9.35625C10.5312 6.34875 12.3228 4.6875 15.0639 4.6875C16.3768 4.6875 17.75 4.92188 17.75 4.92188V7.875H16.2369C14.7462 7.875 14.2812 8.80003 14.2812 9.74906V12H17.6094L17.0773 15.4688H14.2812V23.8542C20.018 22.954 24.4062 17.9896 24.4062 12Z" fill="#1877F2"/>
<path d="M17.0773 15.4688L17.6094 12H14.2812V9.74906C14.2812 8.79994 14.7462 7.875 16.2369 7.875H17.75V4.92188C17.75 4.92188 16.3767 4.6875 15.0638 4.6875C12.3228 4.6875 10.5312 6.34875 10.5312 9.35625V12H7.48438V15.4688H10.5312V23.8542C11.1515 23.9514 11.7784 24.0001 12.4062 24C13.0341 24.0001 13.661 23.9514 14.2812 23.8542V15.4688H17.0773Z" fill="white"/>
</g>
<defs>
<clipPath id="clip0_1634_1492">
<rect width="24" height="24" fill="white" transform="translate(0.40625)"/>
</clipPath>
</defs>
</svg>
