<svg width="92" height="92" viewBox="0 0 92 92" fill="none" xmlns="http://www.w3.org/2000/svg">
<path d="M30.784 70.903C33.3116 70.903 35.3605 68.854 35.3605 66.3265C35.3605 63.799 33.3116 61.75 30.784 61.75C28.2565 61.75 26.2075 63.799 26.2075 66.3265C26.2075 68.854 28.2565 70.903 30.784 70.903Z" stroke="white" stroke-width="2.6" stroke-linecap="round" stroke-linejoin="round"/>
<path d="M57.6327 70.903C60.1602 70.903 62.2092 68.854 62.2092 66.3265C62.2092 63.799 60.1602 61.75 57.6327 61.75C55.1051 61.75 53.0562 63.799 53.0562 66.3265C53.0562 68.854 55.1051 70.903 57.6327 70.903Z" stroke="white" stroke-width="2.6" stroke-linecap="round" stroke-linejoin="round"/>
<path d="M16.75 26.3605H23.767L30.784 61.903H57.6325" stroke="white" stroke-width="2.6" stroke-linecap="round" stroke-linejoin="round"/>
<path d="M66.25 44.0545C71.2206 44.0545 75.25 40.0251 75.25 35.0545C75.25 30.0839 71.2206 26.0545 66.25 26.0545C61.2794 26.0545 57.25 30.0839 57.25 35.0545C57.25 40.0251 61.2794 44.0545 66.25 44.0545Z" stroke="white" stroke-width="2.6" stroke-linecap="round" stroke-linejoin="round"/>
<path d="M71.7413 24.073L70.1498 27.1015M58.7753 23.539L64.8008 21.25M66.2498 35.2075L64.3433 29.716M25.1108 33.169L52.2158 34.522M29.5463 55.6375H60.9113C65.7923 55.6375 66.2513 49.0135 66.2513 49.0135M26.7338 41.3875L53.7413 42.1495M28.0943 48.2845L62.7068 48.946M55.8008 55.6375L57.2498 45.733M47.1053 55.6375L46.8758 34.255M36.4283 33.7345L38.6633 55.6375" stroke="white" stroke-width="2.6" stroke-linecap="round" stroke-linejoin="round"/>
</svg>
