<svg width="32" height="32" viewBox="0 0 32 32" fill="none" xmlns="http://www.w3.org/2000/svg">
<g clip-path="url(#clip0_278_571)">
<path fill-rule="evenodd" clip-rule="evenodd" d="M16 12.25C15.0054 12.25 14.0516 12.6451 13.3483 13.3483C12.6451 14.0516 12.25 15.0054 12.25 16C12.25 16.9946 12.6451 17.9484 13.3483 18.6517C14.0516 19.3549 15.0054 19.75 16 19.75C16.9946 19.75 17.9484 19.3549 18.6517 18.6517C19.3549 17.9484 19.75 16.9946 19.75 16C19.75 15.0054 19.3549 14.0516 18.6517 13.3483C17.9484 12.6451 16.9946 12.25 16 12.25ZM13.75 16C13.75 15.4033 13.9871 14.831 14.409 14.409C14.831 13.9871 15.4033 13.75 16 13.75C16.5967 13.75 17.169 13.9871 17.591 14.409C18.0129 14.831 18.25 15.4033 18.25 16C18.25 16.5967 18.0129 17.169 17.591 17.591C17.169 18.0129 16.5967 18.25 16 18.25C15.4033 18.25 14.831 18.0129 14.409 17.591C13.9871 17.169 13.75 16.5967 13.75 16Z" fill="white"/>
<path fill-rule="evenodd" clip-rule="evenodd" d="M15.975 5.25C15.53 5.25 15.159 5.25 14.855 5.27C14.5443 5.28294 14.2378 5.34714 13.948 5.46C13.6143 5.59809 13.311 5.80057 13.0555 6.05589C12.8 6.3112 12.5973 6.61434 12.459 6.948C12.314 7.298 12.275 7.668 12.259 8.07C12.2574 8.21702 12.2185 8.36123 12.1459 8.48909C12.0733 8.61695 11.9694 8.72428 11.844 8.801C11.7149 8.8715 11.57 8.90803 11.4229 8.90716C11.2758 8.90628 11.1313 8.86803 11.003 8.796C10.647 8.608 10.307 8.457 9.93102 8.407C9.57296 8.3599 9.20914 8.38379 8.86031 8.4773C8.51149 8.57081 8.1845 8.73212 7.89802 8.952C7.65579 9.14688 7.44733 9.38034 7.28102 9.643C7.11102 9.897 6.92502 10.218 6.70302 10.603L6.67802 10.647C6.45502 11.032 6.27002 11.353 6.13602 11.627C5.99602 11.913 5.88602 12.195 5.84602 12.507C5.75062 13.23 5.9463 13.9613 6.39002 14.54C6.62102 14.841 6.92202 15.06 7.26202 15.274C7.38878 15.3489 7.49439 15.4549 7.56891 15.5819C7.64344 15.7089 7.68442 15.8528 7.68802 16C7.68442 16.1472 7.64344 16.2911 7.56891 16.4181C7.49439 16.5451 7.38878 16.6511 7.26202 16.726C6.92202 16.94 6.62202 17.159 6.39002 17.46C6.17014 17.7465 6.00883 18.0735 5.91532 18.4223C5.82181 18.7711 5.79792 19.1349 5.84502 19.493C5.88602 19.805 5.99502 20.087 6.13502 20.373C6.27002 20.647 6.45502 20.968 6.67802 21.353L6.70302 21.397C6.92502 21.782 7.11102 22.103 7.28102 22.357C7.45802 22.62 7.64802 22.857 7.89802 23.047C8.18443 23.2671 8.51138 23.4285 8.86021 23.5222C9.20903 23.6159 9.5729 23.64 9.93102 23.593C10.307 23.543 10.647 23.393 11.003 23.204C11.1311 23.1321 11.2754 23.0939 11.4224 23.093C11.5693 23.0921 11.7141 23.1286 11.843 23.199C11.9691 23.2751 12.0737 23.3823 12.1467 23.5102C12.2197 23.6382 12.2587 23.7827 12.26 23.93C12.275 24.332 12.314 24.702 12.46 25.052C12.5981 25.3857 12.8006 25.689 13.0559 25.9445C13.3112 26.2 13.6144 26.4027 13.948 26.541C14.238 26.661 14.538 26.708 14.855 26.729C15.159 26.75 15.53 26.75 15.975 26.75H16.025C16.47 26.75 16.841 26.75 17.145 26.73C17.463 26.708 17.762 26.661 18.052 26.54C18.3858 26.4019 18.689 26.1994 18.9445 25.9441C19.2 25.6888 19.4027 25.3857 19.541 25.052C19.686 24.702 19.725 24.332 19.741 23.93C19.7425 23.7828 19.7813 23.6384 19.8539 23.5103C19.9265 23.3823 20.0305 23.2748 20.156 23.198C20.2852 23.1276 20.4302 23.0913 20.5773 23.0923C20.7244 23.0934 20.8688 23.1318 20.997 23.204C21.353 23.392 21.693 23.543 22.069 23.592C22.792 23.6874 23.5233 23.4917 24.102 23.048C24.352 22.856 24.542 22.62 24.719 22.357C24.889 22.103 25.075 21.782 25.297 21.397L25.322 21.353C25.545 20.968 25.73 20.647 25.864 20.373C26.004 20.087 26.114 19.804 26.154 19.493C26.2494 18.77 26.0537 18.0387 25.61 17.46C25.379 17.159 25.078 16.94 24.738 16.726C24.6113 16.6511 24.5056 16.5451 24.4311 16.4181C24.3566 16.2911 24.3156 16.1472 24.312 16C24.312 15.722 24.464 15.446 24.738 15.274C25.078 15.06 25.378 14.841 25.61 14.54C25.8299 14.2535 25.9912 13.9265 26.0847 13.5777C26.1782 13.2289 26.2021 12.8651 26.155 12.507C26.1074 12.1997 26.0094 11.9024 25.865 11.627C25.6943 11.2947 25.5132 10.9679 25.322 10.647L25.297 10.603C25.1143 10.2771 24.9216 9.95693 24.719 9.643C24.5527 9.38062 24.3442 9.14749 24.102 8.953C23.8156 8.73294 23.4887 8.57146 23.1398 8.47778C22.791 8.38409 22.4271 8.36004 22.069 8.407C21.693 8.457 21.353 8.607 20.997 8.796C20.8689 8.86786 20.7246 8.90601 20.5777 8.90688C20.4307 8.90776 20.286 8.87132 20.157 8.801C20.0312 8.72452 19.9269 8.6173 19.854 8.48942C19.7811 8.36154 19.7418 8.21721 19.74 8.07C19.725 7.668 19.686 7.298 19.54 6.948C19.4019 6.61425 19.1994 6.31097 18.9441 6.05549C18.6888 5.8 18.3857 5.59731 18.052 5.459C17.762 5.339 17.462 5.292 17.145 5.271C16.841 5.25 16.47 5.25 16.025 5.25H15.975ZM14.522 6.845C14.599 6.813 14.716 6.784 14.957 6.767C15.204 6.75 15.524 6.75 16 6.75C16.476 6.75 16.796 6.75 17.043 6.767C17.284 6.784 17.401 6.813 17.478 6.845C17.785 6.972 18.028 7.215 18.155 7.522C18.195 7.618 18.228 7.769 18.241 8.126C18.271 8.918 18.68 9.681 19.406 10.1C20.132 10.52 20.997 10.492 21.698 10.122C22.014 9.955 22.161 9.908 22.265 9.895C22.5936 9.85158 22.9259 9.94043 23.189 10.142C23.255 10.193 23.339 10.28 23.474 10.48C23.613 10.686 23.773 10.963 24.011 11.375C24.249 11.787 24.408 12.065 24.517 12.287C24.624 12.504 24.657 12.62 24.667 12.703C24.7104 13.0316 24.6216 13.3639 24.42 13.627C24.356 13.71 24.242 13.814 23.94 14.004C23.268 14.426 22.812 15.162 22.812 16C22.812 16.838 23.268 17.574 23.94 17.996C24.242 18.186 24.356 18.29 24.42 18.373C24.622 18.636 24.71 18.968 24.667 19.297C24.657 19.38 24.623 19.497 24.517 19.713C24.408 19.936 24.249 20.213 24.011 20.625C23.773 21.037 23.612 21.314 23.474 21.52C23.339 21.72 23.255 21.807 23.189 21.858C22.9259 22.0596 22.5936 22.1484 22.265 22.105C22.161 22.092 22.015 22.045 21.698 21.878C20.998 21.508 20.132 21.48 19.406 21.899C18.68 22.319 18.271 23.082 18.241 23.874C18.228 24.231 18.195 24.382 18.155 24.478C18.0922 24.6298 18.0001 24.7677 17.8839 24.8839C17.7677 25.0001 17.6298 25.0922 17.478 25.155C17.401 25.187 17.284 25.216 17.043 25.233C16.796 25.25 16.476 25.25 16 25.25C15.524 25.25 15.204 25.25 14.957 25.233C14.716 25.216 14.599 25.187 14.522 25.155C14.3702 25.0922 14.2323 25.0001 14.1161 24.8839C14 24.7677 13.9078 24.6298 13.845 24.478C13.805 24.382 13.772 24.231 13.759 23.874C13.729 23.082 13.32 22.319 12.594 21.9C11.868 21.48 11.003 21.508 10.302 21.878C9.98602 22.045 9.83902 22.092 9.73502 22.105C9.40645 22.1484 9.0741 22.0596 8.81102 21.858C8.74502 21.807 8.66102 21.72 8.52602 21.52C8.33793 21.2272 8.15885 20.9287 7.98902 20.625C7.75102 20.213 7.59202 19.935 7.48302 19.713C7.37602 19.496 7.34302 19.38 7.33302 19.297C7.2896 18.9684 7.37845 18.6361 7.58002 18.373C7.64402 18.29 7.75802 18.186 8.06002 17.996C8.73202 17.574 9.18802 16.838 9.18802 16C9.18802 15.162 8.73202 14.426 8.06002 14.004C7.75802 13.814 7.64402 13.71 7.58002 13.627C7.37845 13.3639 7.2896 13.0316 7.33302 12.703C7.34302 12.62 7.37702 12.503 7.48302 12.287C7.59202 12.064 7.75102 11.787 7.98902 11.375C8.22702 10.963 8.38802 10.686 8.52602 10.48C8.66102 10.28 8.74502 10.193 8.81102 10.142C9.0741 9.94043 9.40645 9.85158 9.73502 9.895C9.83902 9.908 9.98502 9.955 10.302 10.122C11.002 10.492 11.868 10.52 12.594 10.1C13.32 9.681 13.729 8.918 13.759 8.126C13.772 7.769 13.805 7.618 13.845 7.522C13.972 7.215 14.215 6.972 14.522 6.845Z" fill="white"/>
</g>
<defs>
<clipPath id="clip0_278_571">
<rect width="24" height="24" fill="white" transform="translate(4 4)"/>
</clipPath>
</defs>
</svg>
