<svg width="24" height="24" viewBox="0 0 24 24" fill="none" xmlns="http://www.w3.org/2000/svg">
<g clip-path="url(#clip0_2079_5010)">
<path d="M10 8H20M4 16H14" stroke="white" stroke-width="1.33333" stroke-linecap="round"/>
<path d="M4 8C4 9.65685 5.34315 11 7 11C8.65685 11 10 9.65685 10 8C10 6.34315 8.65685 5 7 5C5.34315 5 4 6.34315 4 8Z" stroke="white" stroke-width="1.33333" stroke-linecap="round"/>
<path d="M14 16C14 17.6569 15.3431 19 17 19C18.6569 19 20 17.6569 20 16C20 14.3431 18.6569 13 17 13C15.3431 13 14 14.3431 14 16Z" fill="white" stroke="white" stroke-width="1.33333" stroke-linecap="round"/>
</g>
<defs>
<clipPath id="clip0_2079_5010">
<rect width="24" height="24" fill="white"/>
</clipPath>
</defs>
</svg>
