<svg width="61" height="32" viewBox="0 0 61 32" fill="none" xmlns="http://www.w3.org/2000/svg">
<g clip-path="url(#clip0_1720_1379)">
<path d="M0 32V0H2.66667V32H0ZM4 32V0H6.66667V32H4ZM8 32V0H9.33333V32H8ZM12 32V0H14.6667V32H12ZM16 32V0H20V32H16ZM21.3333 32V0H22.6667V32H21.3333ZM25.3333 32V0H29.3333V32H25.3333Z" fill="#212F33"/>
<path d="M30.3335 32V0H31.6668V32H30.3335ZM34.3335 32V0H37.0002V32H34.3335ZM38.3335 32V0H42.3335V32H38.3335ZM43.6668 32V0H45.0002V32H43.6668Z" fill="#212F33"/>
<path d="M46 32V0H47.3333V32H46ZM50 32V0H52.6667V32H50ZM54 32V0H58V32H54ZM59.3333 32V0H60.6667V32H59.3333Z" fill="#212F33"/>
</g>
<defs>
<clipPath id="clip0_1720_1379">
<rect width="60.6667" height="32" fill="white"/>
</clipPath>
</defs>
</svg>
