<svg width="40" height="40" viewBox="0 0 40 40" fill="none" xmlns="http://www.w3.org/2000/svg">
<path d="M9.91628 10H9.34961L16.0496 3.3C18.2329 1.125 21.7663 1.125 23.9496 3.3L30.6496 10H30.0829C28.7496 10 27.4913 10.5167 26.5496 11.4667L20.8829 17.1083C20.3913 17.6 19.6079 17.6 19.1163 17.1083L13.4496 11.4667C12.5079 10.5167 11.2496 10 9.91628 10Z" fill="#4DB6AC"/>
<path d="M30.0829 30H30.6496L23.9496 36.7C21.7663 38.875 18.2329 38.875 16.0496 36.7L9.34961 30H9.91628C11.2496 30 12.5079 29.4833 13.4496 28.5333L19.1163 22.8917C19.6079 22.4 20.3913 22.4 20.8829 22.8917L26.5496 28.5333C27.4913 29.4833 28.7496 30 30.0829 30Z" fill="#4DB6AC"/>
<path d="M36.7002 23.95L32.3169 28.3333H30.0835C29.1919 28.3333 28.3585 27.9833 27.7252 27.3583L22.0585 21.7083C20.9252 20.575 19.0752 20.575 17.9419 21.7083L12.2752 27.3583C11.6419 27.9833 10.8085 28.3333 9.91686 28.3333H7.68353L3.3002 23.95C1.1252 21.7667 1.1252 18.2333 3.3002 16.05L7.68353 11.6667H9.91686C10.8085 11.6667 11.6419 12.0167 12.2752 12.6417L17.9419 18.2917C18.5085 18.8583 19.2585 19.1417 20.0002 19.1417C20.7419 19.1417 21.4919 18.8583 22.0585 18.2917L27.7252 12.6417C28.3585 12.0167 29.1919 11.6667 30.0835 11.6667H32.3169L36.7002 16.05C38.8752 18.2333 38.8752 21.7667 36.7002 23.95Z" fill="#4DB6AC"/>
</svg>
