<svg width="25" height="24" viewBox="0 0 25 24" fill="none" xmlns="http://www.w3.org/2000/svg">
<g clip-path="url(#clip0_1634_1487)">
<path d="M18.7812 0H6.03125C2.92465 0 0.40625 2.5184 0.40625 5.625V18.375C0.40625 21.4816 2.92465 24 6.03125 24H18.7812C21.8879 24 24.4062 21.4816 24.4062 18.375V5.625C24.4062 2.5184 21.8879 0 18.7812 0Z" fill="url(#paint0_radial_1634_1487)"/>
<path d="M18.7812 0H6.03125C2.92465 0 0.40625 2.5184 0.40625 5.625V18.375C0.40625 21.4816 2.92465 24 6.03125 24H18.7812C21.8879 24 24.4062 21.4816 24.4062 18.375V5.625C24.4062 2.5184 21.8879 0 18.7812 0Z" fill="url(#paint1_radial_1634_1487)"/>
<path d="M12.4071 2.625C9.86103 2.625 9.54144 2.63616 8.5415 2.68163C7.54344 2.72738 6.86216 2.88534 6.26609 3.11719C5.64941 3.35662 5.12638 3.67697 4.60531 4.19822C4.08378 4.71937 3.76344 5.24241 3.52325 5.85881C3.29075 6.45506 3.13259 7.13662 3.08769 8.13422C3.04297 9.13425 3.03125 9.45394 3.03125 12.0001C3.03125 14.5463 3.0425 14.8648 3.08788 15.8647C3.13381 16.8628 3.29178 17.5441 3.52344 18.1402C3.76306 18.7568 4.08341 19.2799 4.60466 19.8009C5.12563 20.3225 5.64866 20.6436 6.26487 20.883C6.86141 21.1148 7.54278 21.2728 8.54066 21.3186C9.54069 21.364 9.86 21.3752 12.406 21.3752C14.9523 21.3752 15.2709 21.364 16.2708 21.3186C17.2689 21.2728 17.9509 21.1148 18.5474 20.883C19.1638 20.6436 19.6861 20.3225 20.207 19.8009C20.7285 19.2799 21.0488 18.7568 21.2891 18.1404C21.5195 17.5441 21.6777 16.8626 21.7246 15.8649C21.7695 14.865 21.7812 14.5463 21.7812 12.0001C21.7812 9.45394 21.7695 9.13444 21.7246 8.13441C21.6777 7.13634 21.5195 6.45516 21.2891 5.85909C21.0488 5.24241 20.7285 4.71937 20.207 4.19822C19.6856 3.67678 19.164 3.35644 18.5469 3.11728C17.9492 2.88534 17.2676 2.72728 16.2695 2.68163C15.2695 2.63616 14.9511 2.625 12.4042 2.625H12.4071ZM11.5661 4.31447C11.8157 4.31409 12.0943 4.31447 12.4071 4.31447C14.9103 4.31447 15.2069 4.32347 16.1954 4.36838C17.1095 4.41019 17.6056 4.56291 17.9361 4.69125C18.3736 4.86112 18.6855 5.06428 19.0135 5.3925C19.3416 5.72062 19.5447 6.03309 19.715 6.47062C19.8433 6.80062 19.9963 7.29675 20.0379 8.21081C20.0828 9.19913 20.0925 9.49594 20.0925 11.9979C20.0925 14.4999 20.0828 14.7968 20.0379 15.7851C19.9961 16.6991 19.8433 17.1952 19.715 17.5253C19.5451 17.9629 19.3416 18.2744 19.0135 18.6023C18.6853 18.9305 18.3738 19.1335 17.9361 19.3035C17.606 19.4324 17.1095 19.5848 16.1954 19.6266C15.2071 19.6715 14.9103 19.6812 12.4071 19.6812C9.90378 19.6812 9.60706 19.6715 8.61884 19.6266C7.70478 19.5844 7.20866 19.4317 6.87791 19.3033C6.44047 19.1333 6.12791 18.9303 5.79978 18.6022C5.47166 18.274 5.26859 17.9623 5.09825 17.5246C4.96991 17.1945 4.817 16.6984 4.77538 15.7843C4.73047 14.796 4.72147 14.4992 4.72147 11.9956C4.72147 9.492 4.73047 9.19678 4.77538 8.20847C4.81719 7.29441 4.96991 6.79828 5.09825 6.46781C5.26822 6.03028 5.47166 5.71781 5.79988 5.38969C6.12809 5.06156 6.44047 4.85841 6.878 4.68816C7.20847 4.55925 7.70478 4.40691 8.61884 4.36491C9.48369 4.32581 9.81884 4.31409 11.5661 4.31212V4.31447ZM17.4115 5.87109C16.7904 5.87109 16.2865 6.37453 16.2865 6.99572C16.2865 7.61681 16.7904 8.12072 17.4115 8.12072C18.0326 8.12072 18.5365 7.61681 18.5365 6.99572C18.5365 6.37463 18.0326 5.87072 17.4115 5.87072V5.87109ZM12.4071 7.18556C9.74834 7.18556 7.59266 9.34125 7.59266 12.0001C7.59266 14.6589 9.74834 16.8136 12.4071 16.8136C15.0659 16.8136 17.2209 14.6589 17.2209 12.0001C17.2209 9.34134 15.0658 7.18556 12.4069 7.18556H12.4071ZM12.4071 8.87503C14.1329 8.87503 15.5322 10.2741 15.5322 12.0001C15.5322 13.7259 14.1329 15.1252 12.4071 15.1252C10.6813 15.1252 9.28213 13.7259 9.28213 12.0001C9.28213 10.2741 10.6812 8.87503 12.4071 8.87503Z" fill="white"/>
</g>
<defs>
<radialGradient id="paint0_radial_1634_1487" cx="0" cy="0" r="1" gradientUnits="userSpaceOnUse" gradientTransform="translate(6.78125 25.8485) rotate(-90) scale(23.7858 22.1227)">
<stop stop-color="#FFDD55"/>
<stop offset="0.1" stop-color="#FFDD55"/>
<stop offset="0.5" stop-color="#FF543E"/>
<stop offset="1" stop-color="#C837AB"/>
</radialGradient>
<radialGradient id="paint1_radial_1634_1487" cx="0" cy="0" r="1" gradientUnits="userSpaceOnUse" gradientTransform="translate(-3.61384 1.72884) rotate(78.681) scale(10.6324 43.827)">
<stop stop-color="#3771C8"/>
<stop offset="0.128" stop-color="#3771C8"/>
<stop offset="1" stop-color="#6600FF" stop-opacity="0"/>
</radialGradient>
<clipPath id="clip0_1634_1487">
<rect width="24" height="24" fill="white" transform="translate(0.40625)"/>
</clipPath>
</defs>
</svg>
