<svg width="92" height="92" viewBox="0 0 92 92" fill="none" xmlns="http://www.w3.org/2000/svg">
<path d="M63.0001 38.7143V31.4286C63.0001 26.9199 61.209 22.5959 58.0209 19.4078C54.8328 16.2196 50.5087 14.4286 46.0001 14.4286C41.4914 14.4286 37.1674 16.2196 33.9793 19.4078C30.7911 22.5959 29.0001 26.9199 29.0001 31.4286V38.7143M65.4286 38.7143H26.5715C25.2833 38.7143 24.0479 39.226 23.137 40.1369C22.2261 41.0478 21.7144 42.2832 21.7144 43.5714V72.7143C21.7144 74.0025 22.2261 75.2379 23.137 76.1488C24.0479 77.0597 25.2833 77.5714 26.5715 77.5714H65.4286C66.7168 77.5714 67.9523 77.0597 68.8632 76.1488C69.774 75.2379 70.2858 74.0025 70.2858 72.7143V43.5714C70.2858 42.2832 69.774 41.0478 68.8632 40.1369C67.9523 39.226 66.7168 38.7143 65.4286 38.7143Z" stroke="white" stroke-width="4" stroke-linecap="round" stroke-linejoin="round"/>
<path d="M45.9999 60.5714C46.644 60.5714 47.2617 60.3156 47.7171 59.8601C48.1726 59.4047 48.4284 58.787 48.4284 58.1429C48.4284 57.4988 48.1726 56.881 47.7171 56.4256C47.2617 55.9702 46.644 55.7143 45.9999 55.7143C45.3558 55.7143 44.738 55.9702 44.2826 56.4256C43.8272 56.881 43.5713 57.4988 43.5713 58.1429C43.5713 58.787 43.8272 59.4047 44.2826 59.8601C44.738 60.3156 45.3558 60.5714 45.9999 60.5714Z" stroke="white" stroke-width="4" stroke-linecap="round" stroke-linejoin="round"/>
</svg>
