<svg width="40" height="40" viewBox="0 0 40 40" fill="none" xmlns="http://www.w3.org/2000/svg">
<path d="M9.91676 10H9.3501L16.0501 3.30001C18.2334 1.12501 21.7668 1.12501 23.9501 3.30001L30.6501 10H30.0834C28.7501 10 27.4918 10.5167 26.5501 11.4667L20.8834 17.1083C20.3918 17.6 19.6084 17.6 19.1168 17.1083L13.4501 11.4667C12.5084 10.5167 11.2501 10 9.91676 10Z" fill="#4DB6AC"/>
<path d="M30.0834 30H30.6501L23.9501 36.7C21.7668 38.875 18.2334 38.875 16.0501 36.7L9.3501 30H9.91676C11.2501 30 12.5084 29.4833 13.4501 28.5333L19.1168 22.8916C19.6084 22.4 20.3918 22.4 20.8834 22.8916L26.5501 28.5333C27.4918 29.4833 28.7501 30 30.0834 30Z" fill="#4DB6AC"/>
<path d="M36.7 23.95L32.3166 28.3334H30.0833C29.1916 28.3334 28.3583 27.9834 27.725 27.3584L22.0583 21.7084C20.9249 20.575 19.075 20.575 17.9416 21.7084L12.275 27.3584C11.6416 27.9834 10.8083 28.3334 9.91662 28.3334H7.68328L3.29995 23.95C1.12495 21.7667 1.12495 18.2334 3.29995 16.05L7.68328 11.6667H9.91662C10.8083 11.6667 11.6416 12.0167 12.275 12.6417L17.9416 18.2917C18.5083 18.8584 19.2583 19.1417 20 19.1417C20.7416 19.1417 21.4916 18.8584 22.0583 18.2917L27.725 12.6417C28.3583 12.0167 29.1916 11.6667 30.0833 11.6667H32.3166L36.7 16.05C38.875 18.2334 38.875 21.7667 36.7 23.95Z" fill="#4DB6AC"/>
</svg>
