<svg width="32" height="32" viewBox="0 0 32 32" fill="none" xmlns="http://www.w3.org/2000/svg">
<path fill-rule="evenodd" clip-rule="evenodd" d="M16.0001 18.8292L23.0708 25.8999C23.446 26.2751 23.9549 26.4859 24.4855 26.4859C25.0161 26.4859 25.5249 26.2751 25.9001 25.8999C26.2753 25.5247 26.4861 25.0158 26.4861 24.4852C26.4861 23.9546 26.2753 23.4458 25.9001 23.0706L18.8268 15.9999L25.8988 8.92924C26.0845 8.74346 26.2318 8.52293 26.3322 8.28023C26.4327 8.03754 26.4844 7.77743 26.4843 7.51476C26.4842 7.2521 26.4324 6.99202 26.3319 6.74937C26.2313 6.50672 26.0839 6.28626 25.8981 6.10057C25.7123 5.91488 25.4918 5.7676 25.2491 5.66714C25.0064 5.56668 24.7463 5.515 24.4837 5.51507C24.221 5.51513 23.9609 5.56693 23.7183 5.6675C23.4756 5.76808 23.2551 5.91546 23.0695 6.10124L16.0001 13.1719L8.92946 6.10124C8.74505 5.91013 8.52444 5.75766 8.28048 5.65273C8.03652 5.5478 7.77411 5.49251 7.50855 5.49007C7.24299 5.48764 6.97961 5.53812 6.73377 5.63857C6.48793 5.73901 6.26456 5.88741 6.07669 6.07511C5.88881 6.26281 5.7402 6.48604 5.63953 6.73178C5.53885 6.97753 5.48812 7.24086 5.4903 7.50642C5.49248 7.77198 5.54753 8.03444 5.65223 8.2785C5.75693 8.52256 5.90919 8.74332 6.10012 8.9279L13.1735 15.9999L6.10146 23.0719C5.91053 23.2565 5.75827 23.4772 5.65357 23.7213C5.54886 23.9654 5.49382 24.2278 5.49164 24.4934C5.48945 24.7589 5.54018 25.0223 5.64086 25.268C5.74154 25.5138 5.89015 25.737 6.07802 25.9247C6.26589 26.1124 6.48927 26.2608 6.73511 26.3612C6.98094 26.4617 7.24433 26.5122 7.50988 26.5097C7.77544 26.5073 8.03785 26.452 8.28181 26.3471C8.52577 26.2421 8.74639 26.0897 8.93079 25.8986L16.0001 18.8292Z" fill="white"/>
</svg>
