<svg width="48" height="48" viewBox="0 0 48 48" fill="none" xmlns="http://www.w3.org/2000/svg">
<g clip-path="url(#clip0_1026_5541)">
<path d="M28.6323 18.1954C28.3553 17.4163 27.8442 16.7418 27.1691 16.2644C26.494 15.7869 25.6878 15.5297 24.8609 15.528H21.7649C20.8816 15.5234 20.028 15.8464 19.3691 16.4347C18.7102 17.023 18.2929 17.8346 18.1978 18.7128C18.1027 19.5909 18.3366 20.4731 18.8542 21.1888C19.3719 21.9045 20.1365 22.4028 21.0003 22.5874L25.7146 23.616C26.6785 23.827 27.5305 24.3868 28.1068 25.1879C28.6831 25.9889 28.9431 26.9746 28.8367 27.9556C28.7304 28.9367 28.2653 29.8438 27.5308 30.5028C26.7963 31.1618 25.8442 31.5261 24.8574 31.5257H22.1934C20.4517 31.5257 18.9706 30.4149 18.422 28.8617M23.5272 15.528V11.5269M23.5272 35.5269V31.5291M6.85059 46.2789V37.7074H15.422" stroke="white" stroke-width="3.2" stroke-linecap="round" stroke-linejoin="round"/>
<path d="M45.9018 19.8995C46.812 24.7516 46.0853 29.7687 43.8358 34.1632C41.5863 38.5577 37.9413 42.0808 33.4728 44.1797C29.0044 46.2785 23.9656 46.8343 19.1472 45.7597C14.3288 44.6851 10.0035 42.041 6.85039 38.2423M2.09839 28.1006C1.18819 23.2485 1.91488 18.2314 4.16441 13.8369C6.41393 9.44246 10.059 5.9193 14.5274 3.82044C18.9958 1.72158 24.0346 1.16584 28.853 2.24044C33.6715 3.31504 37.9967 5.95916 41.1498 9.75777" stroke="white" stroke-width="3.2" stroke-linecap="round" stroke-linejoin="round"/>
<path d="M41.15 1.72119V10.2926H32.5786" stroke="white" stroke-width="3.2" stroke-linecap="round" stroke-linejoin="round"/>
</g>
<defs>
<clipPath id="clip0_1026_5541">
<rect width="48" height="48" fill="white"/>
</clipPath>
</defs>
</svg>
