<svg width="32" height="32" viewBox="0 0 32 32" fill="none" xmlns="http://www.w3.org/2000/svg">
<path d="M24.0413 22.156L29.752 27.8653L27.8653 29.752L22.156 24.0413C20.0316 25.7443 17.3893 26.6705 14.6666 26.6667C8.04263 26.6667 2.66663 21.2907 2.66663 14.6667C2.66663 8.04266 8.04263 2.66666 14.6666 2.66666C21.2906 2.66666 26.6666 8.04266 26.6666 14.6667C26.6705 17.3893 25.7443 20.0316 24.0413 22.156ZM21.3666 21.1667C23.0584 19.4263 24.0034 17.0938 24 14.6667C24 9.51066 19.8226 5.33332 14.6666 5.33332C9.51063 5.33332 5.33329 9.51066 5.33329 14.6667C5.33329 19.8227 9.51063 24 14.6666 24C17.0938 24.0034 19.4262 23.0584 21.1666 21.3667L21.3666 21.1667Z" fill="#071116"/>
</svg>
