<svg width="32" height="32" viewBox="0 0 32 32" fill="none" xmlns="http://www.w3.org/2000/svg">
<path d="M20.0606 6.45395C20.3418 6.73524 20.4998 7.1167 20.4998 7.51445C20.4998 7.9122 20.3418 8.29366 20.0606 8.57495L12.6356 16L20.0606 23.4249C20.3338 23.7079 20.485 24.0868 20.4816 24.4801C20.4782 24.8733 20.3204 25.2496 20.0423 25.5277C19.7642 25.8058 19.388 25.9635 18.9947 25.967C18.6014 25.9704 18.2225 25.8192 17.9396 25.5459L9.45407 17.0604C9.17287 16.7792 9.01489 16.3977 9.01489 16C9.01489 15.6022 9.17287 15.2207 9.45407 14.9395L17.9396 6.45395C18.2209 6.17274 18.6023 6.01477 19.0001 6.01477C19.3978 6.01477 19.7793 6.17274 20.0606 6.45395Z" fill="white"/>
</svg>
