<?xml version="1.0" standalone="no"?>
<!DOCTYPE svg PUBLIC "-//W3C//DTD SVG 20010904//EN"
 "http://www.w3.org/TR/2001/REC-SVG-20010904/DTD/svg10.dtd">
<svg version="1.0" xmlns="http://www.w3.org/2000/svg"
 width="1082.000000pt" height="588.000000pt" viewBox="0 0 1082.000000 588.000000"
 preserveAspectRatio="xMidYMid meet">

<g transform="translate(0.000000,588.000000) scale(0.100000,-0.100000)"
fill="#000000" stroke="none">
<path d="M1850 5614 c-136 -29 -218 -63 -330 -137 -211 -140 -408 -331 -527
-510 -65 -98 -154 -272 -203 -395 -74 -188 -101 -316 -125 -592 -18 -201 -46
-321 -105 -447 -45 -96 -114 -198 -162 -238 l-33 -28 35 7 c54 10 115 44 170
93 28 25 53 43 56 40 3 -3 -8 -61 -24 -129 -17 -68 -36 -158 -41 -201 -15
-111 -14 -298 3 -392 16 -84 63 -232 90 -281 15 -27 16 -28 11 -4 -22 117 -27
164 -32 295 -2 83 -1 168 4 189 17 79 29 49 46 -116 10 -103 30 -225 55 -333
22 -93 45 -201 50 -240 35 -231 17 -468 -43 -585 -23 -45 -14 -46 28 -3 61 61
117 196 117 286 0 52 26 50 40 -4 30 -111 41 -199 47 -369 5 -166 4 -193 -15
-267 -26 -101 -62 -166 -115 -204 l-40 -29 34 0 c53 0 131 42 172 92 20 25 37
50 37 57 0 6 7 11 15 11 8 0 15 -9 15 -20 0 -43 32 -174 55 -224 13 -28 35
-64 49 -81 l25 -30 -24 70 c-42 122 -64 415 -31 415 9 0 18 -19 25 -51 14 -66
69 -184 130 -279 68 -105 85 -161 79 -260 -4 -65 -10 -86 -32 -121 l-28 -42
28 7 c105 26 184 158 184 308 0 45 3 58 15 58 8 0 15 -5 15 -11 0 -20 103
-215 145 -274 52 -73 155 -171 214 -203 l42 -24 -29 49 c-44 72 -69 213 -38
213 7 0 19 -14 26 -31 40 -97 164 -240 260 -301 66 -42 123 -63 128 -48 9 27
91 -10 158 -72 42 -39 45 -40 63 -24 11 10 25 31 31 47 18 43 38 37 42 -12 l3
-42 55 47 c30 26 94 76 141 112 48 35 99 80 113 99 15 19 31 35 37 35 13 0 11
-36 -5 -75 -19 -44 -7 -46 55 -7 97 63 173 171 219 315 13 40 27 67 35 67 18
0 29 -57 23 -126 l-5 -55 34 33 c85 81 173 311 173 449 0 58 19 49 64 -32 42
-73 100 -129 160 -154 49 -21 51 -19 21 16 -60 72 -85 158 -85 294 0 106 12
109 60 19 60 -113 170 -200 275 -219 l40 -7 -48 42 c-26 23 -58 61 -72 83 -26
46 -62 163 -52 173 3 4 18 -3 33 -15 29 -22 113 -51 151 -51 12 0 41 7 64 17
l41 16 -43 15 c-61 20 -100 52 -141 114 -60 91 -79 165 -85 321 -3 77 -2 137
3 137 5 0 33 -36 62 -79 47 -70 154 -173 167 -160 2 3 -10 26 -26 51 -17 26
-42 79 -55 119 -74 219 -71 448 12 792 18 75 38 87 48 30 9 -57 7 -263 -4
-308 -20 -89 13 -34 54 88 38 113 50 210 49 392 -2 219 -31 371 -125 652 -40
117 -69 215 -65 219 3 4 35 -20 70 -53 66 -61 135 -101 195 -110 l35 -6 -64
64 c-143 144 -235 360 -353 827 -41 160 -74 259 -122 365 -96 210 -261 426
-446 582 -332 281 -630 366 -899 257 l-77 -30 -68 25 c-139 51 -289 64 -414
37z m620 -1011 c207 -364 373 -550 604 -677 26 -15 51 -24 54 -21 3 3 -24 35
-61 73 -85 88 -102 109 -177 222 -56 85 -120 200 -120 215 0 3 15 -11 32 -32
94 -109 336 -368 390 -418 77 -70 167 -139 173 -134 2 3 -39 69 -92 147 -52
79 -93 145 -90 148 10 10 132 -103 180 -166 63 -85 139 -237 161 -325 10 -38
24 -81 31 -95 19 -38 20 -566 1 -606 -8 -16 -16 -79 -20 -144 -17 -324 -124
-625 -279 -787 -23 -24 -45 -43 -49 -43 -5 0 -20 26 -33 57 -34 76 -87 138
-148 173 -48 27 -82 38 -234 75 -35 8 -80 26 -101 40 -59 39 -123 42 -206 11
-83 -31 -89 -32 -178 -5 -88 27 -129 21 -215 -31 -36 -21 -97 -51 -137 -66
-189 -72 -269 -142 -307 -272 -21 -71 -31 -72 -97 -6 -69 70 -151 184 -197
274 -50 99 -112 293 -130 405 -27 169 -33 199 -48 240 -17 44 -37 243 -37 359
0 41 -4 78 -10 81 -19 12 -11 157 14 257 34 133 75 207 166 298 73 74 180 150
180 129 0 -20 -107 -174 -153 -220 -26 -26 -44 -49 -40 -52 7 -8 94 36 168 86
33 22 93 72 134 111 78 75 283 315 366 429 86 117 86 117 51 21 -68 -184 -165
-354 -275 -482 -34 -40 -59 -72 -56 -72 14 0 95 46 150 85 90 64 233 219 315
341 75 113 167 294 216 426 16 43 30 78 30 78 1 0 34 -57 74 -127z m-22 -2562
c47 -37 105 -56 212 -71 197 -26 226 -32 256 -51 51 -31 74 -90 74 -190 0 -92
-25 -163 -71 -206 -43 -39 -118 -66 -182 -65 -113 2 -162 58 -153 174 4 56 2
71 -14 90 -16 21 -28 23 -116 27 -100 3 -162 -8 -183 -33 -9 -11 -10 -34 -2
-92 10 -67 9 -81 -6 -113 -23 -45 -67 -71 -135 -78 -105 -11 -197 38 -245 129
-24 46 -28 64 -28 138 1 159 39 194 264 240 144 29 218 59 262 106 12 13 24
24 26 24 2 0 21 -13 41 -29z"/>
</g>
</svg>
