<?xml version="1.0" encoding="UTF-8"?>
<svg version="1.1" xmlns="http://www.w3.org/2000/svg" width="512" height="512" viewBox="0 80 1024 1300" preserveAspectRatio="xMidYMid meet">
<path d="M0 0 C0.78697266 0.04253906 1.57394531 0.08507812 2.38476562 0.12890625 C25.14037509 1.46244309 49.03287321 5.80393123 69.71875 15.7734375 C76.44724299 18.28861226 82.38647476 14.78823445 88.6875 12.25 C102.71247338 6.76335572 116.99549926 2.67582736 132 1 C133.45792969 0.83371094 133.45792969 0.83371094 134.9453125 0.6640625 C195.41947124 -5.0585561 254.5727017 17.96457638 303 53 C304.14879639 53.82419434 304.14879639 53.82419434 305.32080078 54.66503906 C315.57613039 62.03702193 325.56927898 69.59329095 335 78 C335.49564453 78.43924805 335.99128906 78.87849609 336.50195312 79.33105469 C343.86531069 85.89156875 350.88855397 92.7918065 357.875 99.75 C358.67180176 100.54212891 359.46860352 101.33425781 360.28955078 102.15039062 C365.06525774 106.93912132 369.60704721 111.8593991 374 117 C374.845625 117.96421875 375.69125 118.9284375 376.5625 119.921875 C394.08894453 140.25704462 409.23844077 162.30527768 421.90185547 185.96826172 C422.90085634 187.81656881 423.93491421 189.64581928 424.97265625 191.47265625 C443.19294231 224.05965658 453.14597869 259.99790769 462 296 C464.63658069 306.71063061 467.27958166 317.41964298 469.9375 328.125 C470.11190235 328.82761208 470.2863047 329.53022415 470.46599197 330.2541275 C475.70998075 351.36511444 481.1587051 372.34008568 488 393 C488.30131836 393.93247559 488.60263672 394.86495117 488.91308594 395.82568359 C498.25624839 424.65586195 510.74218097 453.02554885 528 478 C528.67546875 479.00160156 529.3509375 480.00320313 530.046875 481.03515625 C535.34884663 488.64852461 541.58355318 495.32836666 548 502 C548.72058594 502.75023437 549.44117188 503.50046875 550.18359375 504.2734375 C552.51733248 506.65234537 554.75978796 508.82138079 557.4375 510.8125 C557.953125 511.204375 558.46875 511.59625 559 512 C559 512.66 559 513.32 559 514 C548.48379327 513.06018492 539.53682339 510.46236457 530 506 C529.38511719 505.71382812 528.77023437 505.42765625 528.13671875 505.1328125 C513.64662509 498.23857846 501.05344852 488.71202494 490.0390625 477.08203125 C488.17366371 474.95095622 488.17366371 474.95095622 486 474 C486.31638428 474.94391602 486.63276855 475.88783203 486.95874023 476.86035156 C489.85418521 485.50368074 492.73740141 494.15098412 495.60722351 502.80285645 C496.8326947 506.49554643 498.06033528 510.18732975 499.30664062 513.87304688 C525.37749899 591.04797587 541.97634668 690.93163595 504.83203125 767.5859375 C500.69461101 775.78284865 496.17697803 784.14162871 490 791 C489.34 791 488.68 791 488 791 C488.53677423 787.98810016 489.24298191 785.06654293 490.0859375 782.12890625 C495.26162966 763.99085097 497.26605601 746.3764206 497.3125 727.5625 C497.31617584 726.85060516 497.31985168 726.13871033 497.32363892 725.40524292 C497.3776783 708.97079557 497.3776783 708.97079557 494 693 C489.70118693 702.66879807 486.40396518 712.53779635 483.25 722.625 C482.99121063 723.44991943 482.73242126 724.27483887 482.46578979 725.12475586 C474.02095012 752.1228633 466.86143518 778.93877503 463 807 C462.8249292 808.26851807 462.6498584 809.53703613 462.46948242 810.84399414 C461.94482723 815.10741067 461.74442877 819.35303386 461.61328125 823.64453125 C461.58775681 824.45379562 461.56223236 825.26306 461.53593445 826.09684753 C461.48421341 827.8053031 461.43475487 829.51382853 461.38745117 831.22241211 C461.31378904 833.76795476 461.22255361 836.31247439 461.13085938 838.85742188 C460.66795348 853.73794393 461.70555103 868.46342593 464.75 883.0625 C465.00378418 884.29081543 465.00378418 884.29081543 465.26269531 885.54394531 C469.33765608 904.35535388 476.51865021 925.96944388 490.73046875 939.66796875 C492 941 492 941 492 943 C473.59426063 940.73964604 458.59520949 925.01445533 447.4921875 911.30859375 C443.98153673 906.74361253 440.75874016 901.96540226 437.57763672 897.16699219 C435.33560137 893.51438245 435.33560137 893.51438245 432 891 C432.19494785 912.2812468 432.49451472 933.10868959 437 954 C437.15339844 954.73637695 437.30679688 955.47275391 437.46484375 956.23144531 C442.47271364 979.57565294 455.3742743 1004.71240745 475.75 1018.125 C482.55237988 1022.05021048 489.39244888 1025.05764652 497 1027 C497 1027.66 497 1028.32 497 1029 C495.46163292 1029.65365399 493.91911234 1030.29753603 492.375 1030.9375 C491.51648438 1031.29714844 490.65796875 1031.65679688 489.7734375 1032.02734375 C476.56095058 1036.66101874 460.26969246 1034.76168726 447.75585938 1028.95947266 C443.35218018 1026.77329468 439.04285144 1024.43237769 434.77661133 1021.98974609 C432.87866675 1020.93240553 430.94934459 1019.9587292 429 1019 C427.52990526 1039.21380261 437.33042745 1059.80313879 450 1075 C455.46628365 1081.17747941 460.92827507 1085.80934819 468 1090 C468 1090.66 468 1091.32 468 1092 C461.70994271 1095.14502864 451.13650706 1093.3748829 444.5625 1091.5625 C430.38996446 1086.57168074 419.50571779 1078.53552124 409 1068 C408.34902344 1067.40832031 407.69804688 1066.81664062 407.02734375 1066.20703125 C397.72272345 1057.65030005 390.83392208 1046.12446785 384.4609375 1035.31640625 C383.97882812 1034.55199219 383.49671875 1033.78757812 383 1033 C382.67 1033 382.34 1033 382 1033 C378.44498717 1061.18207752 382.1379552 1089.4021453 399.703125 1112.5390625 C400.9561958 1114.13310095 400.9561958 1114.13310095 403 1115 C402.67 1115.99 402.34 1116.98 402 1118 C392.43403302 1115.75164864 384.99540493 1112.90264794 377 1107 C376.41734375 1106.5771875 375.8346875 1106.154375 375.234375 1105.71875 C362.24229711 1095.59860511 353.65334207 1080.25728972 346 1066 C345.07456267 1068.77631199 344.72978546 1070.98964104 344.45703125 1073.8828125 C340.71914497 1110.53676998 330.81365606 1154.82774855 300.87109375 1179.6484375 C297.99977924 1181.9244113 295.17015349 1184.1483638 292 1186 C291.01 1185.67 290.02 1185.34 289 1185 C289.26554688 1184.40574219 289.53109375 1183.81148437 289.8046875 1183.19921875 C295.6648348 1169.44712124 297.06938785 1154.49719422 293 1140 C290.66568421 1142.33431579 289.88299899 1144.32204173 288.6015625 1147.36328125 C287.89169189 1149.02012939 287.89169189 1149.02012939 287.16748047 1150.71044922 C286.65846191 1151.89912598 286.14944336 1153.08780273 285.625 1154.3125 C271.91367567 1185.82765831 254.33267543 1214.69445375 221.42578125 1228.3203125 C219 1229 219 1229 216 1228 C216.58007812 1227.19949219 216.58007812 1227.19949219 217.171875 1226.3828125 C222.18303677 1219.21337809 226.0712959 1211.82268892 227 1203 C224.26133009 1205.72841272 221.53747382 1208.4691771 218.8359375 1211.234375 C211.89797099 1218.30551362 204.87383027 1224.96599114 197 1231 C196.25331055 1231.57476074 195.50662109 1232.14952148 194.73730469 1232.74169922 C187.03398039 1238.66286673 179.30466523 1244.55004153 171.5078125 1250.34765625 C164.4360582 1255.60611888 157.56365268 1260.97303371 150.83203125 1266.6640625 C138.30100334 1277 138.30100334 1277 135 1277 C135.33 1270.4 135.66 1263.8 136 1257 C135.34 1257 134.68 1257 134 1257 C132.57006945 1258.44773051 131.20574425 1259.96060247 129.875 1261.5 C126.88369539 1264.88565666 123.89075362 1268.25176811 120.75 1271.5 C120.14671875 1272.1290625 119.5434375 1272.758125 118.921875 1273.40625 C116.73989758 1275.21569469 114.66654811 1276.08050065 112 1277 C111.53851562 1276.50371094 111.07703125 1276.00742188 110.6015625 1275.49609375 C98.35082685 1262.73692836 82.4457541 1254.19786055 65 1251 C64.67 1252.65 64.34 1254.3 64 1256 C36.2778818 1253.42730342 10.74145535 1232.22307646 -6.64208984 1211.65136719 C-19.56229533 1195.93898497 -30.27988679 1178.83220769 -40 1161 C-40.33 1161 -40.66 1161 -41 1161 C-44.54290054 1180.2002352 -39.38262435 1196.969228 -29 1213 C-28.01360032 1214.34342601 -27.01778936 1215.680196 -26 1217 C-26.33 1217.66 -26.66 1218.32 -27 1219 C-39.69224884 1214.11663475 -50.70618258 1207.90871661 -61 1199 C-61.94617188 1198.18789062 -62.89234375 1197.37578125 -63.8671875 1196.5390625 C-92.8635125 1171.13642087 -110.99015049 1135.31244301 -125 1100 C-125.03440186 1100.62753174 -125.06880371 1101.25506348 -125.10424805 1101.90161133 C-126.57691531 1126.96891965 -130.2486695 1149.81286883 -149 1168 C-149.63550781 1168.64453125 -150.27101563 1169.2890625 -150.92578125 1169.953125 C-158.51603806 1177.18194101 -167.49307986 1181.64976933 -178 1182 C-176.71300648 1179.17593366 -175.34014601 1177.15830367 -173.1875 1174.9375 C-161.71238212 1161.86316031 -161.95356619 1144.34847378 -163 1128 C-164.31811548 1116.32121335 -169.37985288 1106.14329976 -175 1096 C-175.48774902 1095.10716309 -175.48774902 1095.10716309 -175.98535156 1094.19628906 C-179.29400512 1088.16127805 -182.79540247 1082.28736617 -186.51269531 1076.49731445 C-216.69432287 1029.30130056 -216.69432287 1029.30130056 -216 1005 C-216.66 1005 -217.32 1005 -218 1005 C-218.07347656 1005.89525391 -218.07347656 1005.89525391 -218.1484375 1006.80859375 C-218.51739135 1011.08973072 -218.90706899 1015.34593596 -219.51171875 1019.6015625 C-223.91482069 1051.26642328 -222.21441041 1087.96684543 -206.3203125 1116.41796875 C-205 1119 -205 1119 -205 1122 C-228.28618944 1102.99086577 -236.75257717 1075.05361685 -239.703125 1046.12109375 C-239.80109375 1045.09113281 -239.8990625 1044.06117187 -240 1043 C-240.37769531 1043.52207031 -240.75539062 1044.04414062 -241.14453125 1044.58203125 C-252.82953044 1060.20763906 -266.6825935 1071.55177558 -286 1076 C-289.71982951 1076.32960515 -293.28360379 1076.3476878 -297 1076 C-297 1075.34 -297 1074.68 -297 1074 C-295.57811345 1073.03590185 -294.15168327 1072.07776789 -292.70214844 1071.15576172 C-272.91644852 1057.72123742 -263.62114014 1032.4580409 -259 1010 C-257.77134069 1003.3662306 -256.78975502 996.69960719 -256 990 C-255.85534302 988.85349976 -255.85534302 988.85349976 -255.70776367 987.68383789 C-254.63951545 977.97257693 -254.80118193 968.19419791 -254.8125 958.4375 C-254.81340637 957.00245621 -254.81340637 957.00245621 -254.81433105 955.53842163 C-254.8655012 925.67908313 -258.09804908 897.07630386 -265 868 C-266.1867695 871.3616186 -267.20663958 874.71701875 -268.04296875 878.1796875 C-274.40797575 904.50409915 -286.89796682 929.50116761 -310 945 C-313.26734981 946.83115209 -316.57548139 948.48446836 -320 950 C-318.69095982 946.39696223 -317.08502357 943.55723094 -314.875 940.4375 C-287.28534501 897.27118564 -292.63002113 831.57430742 -302.88671875 783.79882812 C-307.02440898 765.0076351 -311.8993314 746.38307413 -316.6875 727.75 C-325.5420447 693.28557977 -331.61374781 659.43861165 -335 624 C-335.65621352 626.28911694 -336.29994323 628.58067807 -336.9375 630.875 C-337.11990234 631.50664063 -337.30230469 632.13828125 -337.49023438 632.7890625 C-339.80395382 641.20258774 -340.15571892 649.78199237 -340.203125 658.46875 C-340.21018463 659.33871109 -340.21724426 660.20867218 -340.22451782 661.10499573 C-340.40708176 690.25021005 -340.2712928 721.0390281 -329.25 748.5546875 C-328 752 -328 752 -329 755 C-361.58013768 715.13834158 -367.79112534 658.6444496 -363.3125 609.0625 C-359.84551545 576.81693698 -350.44711328 546.51947919 -340 516 C-340.72082764 516.59095459 -341.44165527 517.18190918 -342.18432617 517.79077148 C-369.9539343 540.53794485 -369.9539343 540.53794485 -387.4375 546.5 C-388.18281982 546.75555664 -388.92813965 547.01111328 -389.69604492 547.27441406 C-394.30277065 548.74500874 -398.16800712 549.25465048 -403 549 C-403 548.34 -403 547.68 -403 547 C-401.63671875 545.87890625 -401.63671875 545.87890625 -399.6875 544.5625 C-360.65090962 515.97232113 -341.59530369 457.59068955 -334.46557617 412.01123047 C-332.58520695 399.09219663 -331.23890387 386.11494437 -329.84008789 373.13696289 C-325.24046806 330.50192761 -325.24046806 330.50192761 -321 312 C-320.75701172 310.90896973 -320.51402344 309.81793945 -320.26367188 308.69384766 C-308.4754723 256.422489 -286.77256631 205.01865218 -256 161 C-255.34547852 160.05229736 -255.34547852 160.05229736 -254.67773438 159.08544922 C-235.70379484 131.61945217 -213.81292527 104.69889171 -188.32421875 82.984375 C-186.4543397 81.38790684 -184.60850147 79.77221637 -182.76953125 78.140625 C-170.4930186 67.29584802 -157.63465808 57.096378 -144 48 C-143.41347656 47.60635254 -142.82695312 47.21270508 -142.22265625 46.80712891 C-100.63077779 19.00028145 -51.13188243 -2.94586977 0 0 Z M86 209 C85.52711548 210.16511108 85.52711548 210.16511108 85.04467773 211.35375977 C73.23471836 240.31411036 60.34575688 268.27949205 44 295 C43.10795275 296.4790942 42.21601688 297.95825558 41.32421875 299.4375 C25.30691502 325.75726447 6.10872933 350.52902247 -16 372 C-18.34997683 374.33209269 -20.68574425 376.66887565 -22.96484375 379.0703125 C-40.98143474 397.83610826 -65.49919973 413.46666343 -90 422 C-89.34 421.34 -88.68 420.68 -88 420 C-87.54367187 419.54238281 -87.08734375 419.08476562 -86.6171875 418.61328125 C-85.46082551 417.4597124 -84.29870256 416.31190691 -83.1328125 415.16796875 C-79.27071229 411.35846523 -75.5559147 407.483948 -72.02734375 403.36328125 C-70.47349396 401.55195346 -68.90308184 399.7626484 -67.31640625 397.98046875 C-51.28393352 379.82909684 -38.67004511 359.33841428 -27.15087891 338.109375 C-26.1088662 336.19953415 -25.04867991 334.30151475 -23.98046875 332.40625 C-15.87230524 317.74219869 -9.23791523 302.20167628 -3.25 286.5625 C-2.99782715 285.91289307 -2.7456543 285.26328613 -2.48583984 284.59399414 C-1.92734646 283.08456936 -1.45401215 281.54406962 -1 280 C-1.33 279.34 -1.66 278.68 -2 278 C-7.1753454 284.08465843 -12.34709707 290.16736565 -17.375 296.375 C-21.54247358 301.49845319 -25.86183883 306.47837419 -30.20483398 311.45263672 C-33.36111835 315.07704726 -36.4365908 318.74467229 -39.4375 322.5 C-44.26006211 328.46357496 -49.52364495 333.98961751 -54.78125 339.56640625 C-57.62354875 342.58472635 -60.37096262 345.66937194 -63.0769043 348.81030273 C-71.32493298 358.20176767 -80.0000519 367.18660788 -88.83666992 376.02197266 C-90.57044943 377.75795956 -92.29601538 379.5018511 -94.02148438 381.24609375 C-100.70228447 387.96048628 -107.52722421 394.16293611 -115 400 C-116.09535162 400.8811382 -117.19046006 401.76257891 -118.28515625 402.64453125 C-136.69932898 417.01846355 -156.06547676 428.85836474 -178 437 C-174.51563093 432.90586634 -170.98575658 428.93196873 -167.125 425.1875 C-153.61927863 411.78507287 -141.69694346 395.40908665 -134 378 C-134.66 377.67 -135.32 377.34 -136 377 C-138.56023794 378.06097228 -140.97486533 379.1803745 -143.4375 380.4375 C-144.52067505 380.98676147 -144.52067505 380.98676147 -145.62573242 381.54711914 C-151.88458255 384.79943741 -157.48560061 388.59852188 -163 393 C-163.90105469 393.69867188 -164.80210937 394.39734375 -165.73046875 395.1171875 C-193.64845809 417.2468208 -209.33204954 446.33494076 -216 481 C-210.10221119 481.62447176 -205.32246471 480.95545764 -199.75 478.9375 C-149.15268732 460.65955543 -91.02840398 458.10493373 -38 463 C-37.1941748 463.06944824 -36.38834961 463.13889648 -35.55810547 463.21044922 C-8.98943888 465.54165841 17.93609774 472.45038173 42.55078125 482.6171875 C47.70245054 484.68252264 51.12337419 485.07796514 56.6875 484.625 C57.94433594 484.52574219 59.20117188 484.42648437 60.49609375 484.32421875 C63.09713273 484.0835429 65.66403829 483.79223431 68.25 483.4375 C79.51129228 482.14453681 90.97140273 482.70689015 102.16601562 484.28833008 C112.39952732 485.71487348 118.61380122 484.38521099 128.24908447 480.69827271 C205.87176452 451.18517459 294.74543265 456.18717502 373 481 C372.44242375 474.52303863 371.28328 468.64507664 369.375 462.4375 C368.97631714 461.13268677 368.97631714 461.13268677 368.56958008 459.80151367 C365.98021423 451.56632073 362.77735287 443.75554659 359 436 C358.68224609 435.34 358.36449219 434.68 358.03710938 434 C349.17675253 415.82490904 337.86281888 398.73796482 324 384 C323.42137207 383.37899414 322.84274414 382.75798828 322.24658203 382.11816406 C312.50332597 371.75057279 302.11225367 361.94472333 289 356 C288.34 356 287.68 356 287 356 C288.57235441 362.12711008 291.91851088 366.99990174 295.3125 372.25 C295.93697021 373.22291992 296.56144043 374.19583984 297.20483398 375.19824219 C303.1477141 384.3752663 309.50706717 393.20827969 316 402 C318.4454491 405.32758549 320.88071303 408.66242327 323.3125 412 C323.88234619 412.7724707 324.45219238 413.54494141 325.03930664 414.34082031 C325.55871826 415.05334961 326.07812988 415.76587891 326.61328125 416.5 C327.07516846 417.1290625 327.53705566 417.758125 328.01293945 418.40625 C329 420 329 420 329 422 C312.56571105 411.17443261 297.5092425 399.28908682 283 386 C279.32002693 382.73112302 275.62003445 379.49465927 271.8125 376.375 C269.0434366 374.03667979 266.55167181 371.57338817 264 369 C262.89934203 367.90924275 261.797726 366.81945167 260.6953125 365.73046875 C255.27241386 360.35582727 249.89897255 355.02327363 244.96875 349.1875 C241.51371232 345.34856925 237.78994538 341.77135096 234.11987305 338.1394043 C230.50272868 334.54546224 227.06354965 330.88272832 223.76953125 326.98828125 C221.00344336 323.88024871 218.01553613 320.99505245 215.05493164 318.07446289 C211.73545987 314.7824958 208.63277781 311.37197871 205.6015625 307.81640625 C204.01409739 306.0159885 202.35112406 304.35451023 200.625 302.6875 C196.83199607 298.96253201 193.55378942 294.87115101 190.22265625 290.734375 C187.2442126 287.07020882 184.14108353 283.52488152 181 280 C180.67 280.66 180.34 281.32 180 282 C180.73781983 283.91237278 180.73781983 283.91237278 181.95703125 286.0078125 C182.40506104 286.8215332 182.85309082 287.63525391 183.31469727 288.47363281 C183.80897217 289.34858398 184.30324707 290.22353516 184.8125 291.125 C185.31515381 292.02573242 185.81780762 292.92646484 186.33569336 293.85449219 C190.58750846 301.40882405 195.10208877 308.7697758 199.77490234 316.06884766 C201.01120254 318.01765885 202.22189658 319.98023944 203.42578125 321.94921875 C211.77439233 335.57476637 220.80725968 348.6811666 231 361 C231.68191406 361.85464844 232.36382813 362.70929688 233.06640625 363.58984375 C244.66647403 378.05361341 257.83951485 390.97393212 271 404 C246.08959856 398.05134684 222.80568706 379.66007175 204 363 C202.72962891 361.87851562 202.72962891 361.87851562 201.43359375 360.734375 C198.93863718 358.50773639 196.46800452 356.25646128 194 354 C192.93639569 353.04144717 191.872582 352.08312664 190.80859375 351.125 C184.12024093 345.06876324 177.93975218 338.80352225 172 332 C170.33592191 330.1851231 168.66917218 328.37269288 167 326.5625 C162.12847219 321.19784208 157.50538677 315.67369622 153 310 C152.49484863 309.36739258 151.98969727 308.73478516 151.46923828 308.08300781 C142.15344568 296.38666555 133.43301903 284.34562411 125 272 C124.5467334 271.33935547 124.0934668 270.67871094 123.62646484 269.99804688 C112.60557274 253.89221762 102.44908831 237.24162874 93.140625 220.09179688 C91.11742357 216.38143945 89.05729359 212.69153202 87 209 C86.67 209 86.34 209 86 209 Z M-217 515 C-216.91426171 523.90418271 -216.81891703 532.8082027 -216.71247292 541.71216202 C-216.66328253 545.85006873 -216.61697229 549.9879588 -216.578125 554.12597656 C-216.42381985 570.31980416 -216.22120768 586.50509565 -215.2109375 602.671875 C-215.15161041 603.76969299 -215.09228333 604.86751099 -215.03115845 605.99859619 C-214.34246168 615.5768335 -211.35291228 623.50145697 -207 632 C-206.16899428 634.80265019 -205.82168556 637.45460983 -205.640625 640.3671875 C-202.67738779 682.73559236 -192.76208553 724.78174867 -174 763 C-173.54753906 763.92409668 -173.09507812 764.84819336 -172.62890625 765.80029297 C-166.00111574 779.20181111 -158.68498228 791.82978212 -150 804 C-149.60216309 804.56219238 -149.20432617 805.12438477 -148.79443359 805.70361328 C-139.7105081 818.45733442 -129.34599212 830.22314341 -118 841 C-117.36835938 841.60199219 -116.73671875 842.20398438 -116.0859375 842.82421875 C-114.41295503 844.38620473 -114.41295503 844.38620473 -112 846 C-108.95524574 845.3551355 -108.95524574 845.3551355 -108.03613281 843.31689453 C-107.76124023 842.59614746 -107.48634766 841.87540039 -107.203125 841.1328125 C-106.88802979 840.33488281 -106.57293457 839.53695313 -106.24829102 838.71484375 C-105.91885498 837.86019531 -105.58941895 837.00554687 -105.25 836.125 C-94.96822553 810.69101252 -76.78309087 793.009855 -51.8125 782.1875 C-43.14986977 778.54602639 -34.21104977 775.74024092 -25.28121948 772.84320068 C-24.48716705 772.58556946 -23.69311462 772.32793823 -22.875 772.0625 C-22.08296173 771.80567444 -21.29092346 771.54884888 -20.47488403 771.28424072 C-8.19466687 767.28207707 3.09744867 762.81583163 13.96313477 755.7175293 C26.34117929 747.73050899 40.74033839 745.98321609 55.07421875 748.6953125 C62.87479903 750.41134509 70.33478924 753.05108597 77.68579102 756.15673828 C85.62810872 759.3911663 91.59156212 755.6827054 99.0546875 752.61523438 C113.85534358 746.68242901 130.74403953 745.16894129 145.73828125 751.31640625 C149.19659832 753.10147769 152.36441195 755.17292371 155.5625 757.375 C168.6012568 766.32215089 184.99000809 769.30882535 200.0300293 773.44799805 C218.24824115 778.51247101 235.76532111 785.14445954 250 798 C250.74507812 798.65226562 251.49015625 799.30453125 252.2578125 799.9765625 C265.49737158 812.29350422 272.47333558 828.48753902 279 845 C282.42856619 843.49017269 284.95678216 841.48286031 287.75 839 C288.94882812 837.948125 288.94882812 837.948125 290.171875 836.875 C292.23270005 835.19778572 292.23270005 835.19778572 292 833 C292.99 832.67 293.98 832.34 295 832 C297.5804567 829.57048923 299.74582737 826.72978707 302 824 C302.42990234 823.49162598 302.85980469 822.98325195 303.30273438 822.45947266 C323.6810627 798.32238015 338.60978729 769.74443204 349 740 C349.52134521 738.51234131 349.52134521 738.51234131 350.05322266 736.99462891 C359.39293873 709.95634446 365.37958098 682.12488774 367.734375 653.60546875 C367.794543 652.89400696 367.854711 652.18254517 367.91670227 651.44952393 C368.20686407 647.98762904 368.474168 644.52688145 368.69799805 641.06005859 C369.28191205 633.54330155 370.57624703 627.49218292 373.86352539 620.68139648 C376.20007768 615.16853852 376.25573805 609.21552693 376.54272461 603.30737305 C376.58454581 602.47535968 376.62636702 601.64334631 376.66945553 600.78612041 C377.09150721 591.88693943 377.2242852 582.9896796 377.31640625 574.08203125 C377.33706191 572.36040346 377.35806 570.63877974 377.37937927 568.91716003 C377.43371361 564.4573199 377.48350094 559.99744108 377.53222656 555.53753662 C377.58310306 550.95793348 377.63843828 546.37838423 377.69335938 541.79882812 C377.79985099 532.8659318 377.90152233 523.93298802 378 515 C372.26304548 517.19775633 369.31078124 519.78092124 366 525 C362.4527424 533.28749171 360.70297248 542.21103624 358.66821289 550.95947266 C353.47382978 573.21010548 347.62319634 596.13989288 336 616 C335.48469727 616.89428711 335.48469727 616.89428711 334.95898438 617.80664062 C322.50334508 639.1884419 303.90482075 655.87178079 279.74853516 662.62988281 C245.19943642 671.50501392 207.20481879 668.85006591 176 651 C168.60710348 646.48993133 162.28752479 640.92457769 156 635 C155.39542969 634.45988281 154.79085938 633.91976562 154.16796875 633.36328125 C126.16776061 607.33030085 114.80728387 563.71374791 109.56201172 527.47314453 C109.14354939 524.7946806 109.14354939 524.7946806 106.9375 522.4375 C95.02886687 516.60987102 80.27744342 514.59198831 67.375 518.25 C60.08859939 520.76624913 60.08859939 520.76624913 55 526 C54.82412723 527.66549391 54.65290293 529.33162785 54.50683594 531 C51.69289265 561.76955071 40.09918076 593.90761651 22 619 C21.58137695 619.58330078 21.16275391 620.16660156 20.73144531 620.76757812 C2.32540516 646.06394466 -22.41758115 659.87052822 -52.88671875 665.75 C-84.7015124 670.53717898 -119.10050265 666.82091306 -145.5625 647.4375 C-174.3252102 624.6444089 -185.71061688 587.83969949 -193.80859375 553.3984375 C-193.96098007 552.75181152 -194.11336639 552.10518555 -194.27037048 551.43896484 C-195.01082437 548.28677851 -195.73331198 545.13224797 -196.4284668 541.96972656 C-198.69930566 532.03055177 -201.27494027 522.9404662 -210 517 C-212.76359714 515.34184172 -213.71603784 515 -217 515 Z M84 809 C82.57190555 810.48912413 81.1581075 811.99196229 79.75 813.5 C60.83314631 832.55158912 33.74822499 836.49635856 8.36010742 840.62600708 C-22.02600086 845.14694943 -22.02600086 845.14694943 -46 863 C-55.07378276 877.74489698 -55.25337289 897.02738139 -52.3125 913.74609375 C-51.42428768 917.30264393 -50.36872363 920.60164257 -49 924 C-48.57589844 925.05832031 -48.15179688 926.11664062 -47.71484375 927.20703125 C-44.35309374 934.65157515 -39.77697225 940.28278953 -34 946 C-33.39671875 946.63679688 -32.7934375 947.27359375 -32.171875 947.9296875 C-24.49178566 955.44281837 -12.63445721 960.80907498 -2 962 C-0.83210938 962.14308594 0.33578125 962.28617188 1.5390625 962.43359375 C14.03587702 963.71868877 27.10435842 962.78407872 38 956 C39.3303125 955.2265625 39.3303125 955.2265625 40.6875 954.4375 C47.80508194 946.93518391 49.2355016 937.04663448 49.16796875 927.1328125 C48.98207532 923.6656838 48.52260457 920.30714064 48 916.875 C45.91712693 902.97904389 45.91712693 902.97904389 48.8125 897.6875 C57.20455115 889.31863131 72.61319882 889.0827888 83.77001953 888.97265625 C111.1757507 889.23477768 111.1757507 889.23477768 122 897 C125.52163842 902.54746386 124.21164455 909.49990441 123.5 915.75 C122.31261293 926.87302295 121.24908518 939.17297403 127.921875 948.76171875 C135.02334699 957.14880205 142.16460066 960.75331343 153 962 C169.44425087 963.22047174 186.99094941 959.72192558 199.84375 948.94140625 C200.91109375 947.98041016 200.91109375 947.98041016 202 947 C203.16015625 945.96166016 203.16015625 945.96166016 204.34375 944.90234375 C218.77284718 931.26684692 223.07381368 913.06046493 224.18359375 893.81640625 C224.48976004 879.96688416 221.94060821 867.01815623 212.25 856.5625 C199.51158864 844.97341899 180.45911065 842.41716903 164.04147339 839.91772461 C159.3948474 839.20646446 154.75614487 838.44693893 150.1171875 837.6875 C149.22118332 837.54115112 148.32517914 837.39480225 147.40202332 837.24401855 C124.77008578 833.51342866 99.53224518 828.54336421 85 809 C84.67 809 84.34 809 84 809 Z " fill="#000000" transform="translate(432,91)"/>
</svg>
