<?xml version="1.0" encoding="UTF-8"?>
<svg version="1.1" xmlns="http://www.w3.org/2000/svg" width="400" height="400">
<path d="M0 0 C1.14947585 0.00092179 2.2989517 0.00184359 3.48326015 0.00279331 C4.79724285 0.00141865 6.11122555 0.00004398 7.4650259 -0.00137234 C8.93484424 0.00216728 10.40466235 0.0058021 11.87448025 0.00952244 C13.411554 0.0098043 14.94862789 0.0096466 16.48570156 0.00907993 C20.67147095 0.00879192 24.85721194 0.01468931 29.04297471 0.02165389 C33.41254392 0.02788674 37.7821137 0.02849117 42.15168667 0.0296793 C50.43191283 0.03279282 58.71212586 0.04100648 66.99234623 0.05102879 C76.41661395 0.06218929 85.84088228 0.06770021 95.26515496 0.07272422 C114.65699155 0.08318908 134.0488159 0.10078892 153.44064236 0.12304783 C155.58108475 4.00849738 155.75817639 7.34791822 155.73361111 11.71289158 C155.72808979 12.82344662 155.72808979 12.82344662 155.72245693 13.95643711 C155.70757281 15.52580077 155.68615016 17.09511413 155.65865993 18.66430759 C155.63852173 20.24555971 155.63746923 21.82718489 155.65670681 23.40844822 C155.8067075 35.83502747 153.47828459 42.56875981 145.44064236 52.12304783 C143.90948506 54.16445777 142.42735301 56.23613688 140.94064236 58.31054783 C140.29095486 59.19097752 139.64126736 60.0714072 138.97189236 60.97851658 C137.42048853 63.03352851 137.42048853 63.03352851 136.44064236 65.12304783 C135.78064236 65.12304783 135.12064236 65.12304783 134.44064236 65.12304783 C134.23439236 65.78304783 134.02814236 66.44304783 133.81564236 67.12304783 C132.27056867 70.49411768 130.2970182 73.07533097 128.03048611 75.99023533 C125.98750367 78.73094396 124.24812867 81.6109628 122.51876736 84.55664158 C121.44064236 86.12304783 121.44064236 86.12304783 119.44064236 87.12304783 C118.39256195 89.09827629 117.38860125 91.09786292 116.44064236 93.12304783 C115.78064236 93.12304783 115.12064236 93.12304783 114.44064236 93.12304783 C114.07325954 94.18652439 114.07325954 94.18652439 113.69845486 95.27148533 C112.27093995 98.50777689 110.47928151 100.95114844 108.31564236 103.74804783 C107.49723103 104.81652015 106.67953629 105.88554168 105.86251736 106.95507908 C105.06329861 108.00050877 104.26407986 109.04593845 103.44064236 110.12304783 C102.14235136 111.88903026 100.85040945 113.6597024 99.56564236 115.43554783 C96.49436346 119.67367087 93.41095592 123.90246925 90.31564236 128.12304783 C89.86108669 128.74308689 89.40653103 129.36312595 88.93820095 130.00195408 C86.25575709 133.6580801 83.56597129 137.30867178 80.87032986 140.95507908 C79.95404812 142.19547947 79.95404812 142.19547947 79.01925564 143.46093845 C77.83903256 145.05810015 76.65779119 146.65451012 75.47531033 148.25000095 C72.5070075 152.26772125 69.59042993 156.31501503 66.73068142 160.41088963 C66.11130703 161.29745747 65.49193264 162.18402531 64.85378933 163.09745884 C64.15428158 164.10012539 64.15428158 164.10012539 63.44064236 165.12304783 C64.57625607 165.13335529 65.71186977 165.14366276 66.88189602 165.15428257 C77.5652492 165.25188673 88.24854245 165.35460829 98.93179798 165.46238708 C104.42463424 165.5176362 109.91747581 165.57105938 115.41036892 165.62036228 C120.70773601 165.66797649 126.00503691 165.72031822 131.30232525 165.77598858 C133.32698457 165.79642549 135.35166205 165.81513633 137.37635326 165.83212185 C140.20432785 165.8561363 143.03217662 165.88619487 145.86007595 165.91772556 C146.7038026 165.92348103 147.54752926 165.92923649 148.41682339 165.93516636 C154.21253803 166.00899567 154.21253803 166.00899567 156.44064236 167.12304783 C156.49123866 173.49508376 156.52633193 179.86706813 156.55050564 186.23925877 C156.56058024 188.40822377 156.57424033 190.57717514 156.59152126 192.7460947 C156.61570558 195.85875909 156.62711068 198.97124434 156.63595486 202.08398533 C156.64627743 203.05798283 156.6566 204.03198032 156.66723537 205.0354929 C156.66738644 205.93627567 156.6675375 206.83705845 156.66769314 207.76513767 C156.67213436 208.56011662 156.67657558 209.35509556 156.68115139 210.17416477 C156.44064236 212.12304783 156.44064236 212.12304783 154.44064236 214.12304783 C151.68015003 214.36914349 151.68015003 214.36914349 148.08795071 214.36355686 C147.42878993 214.36526571 146.76962915 214.36697456 146.0904938 214.36873519 C143.87165176 214.37204146 141.65310909 214.361008 139.4342947 214.35009861 C137.84781304 214.34953474 136.26133086 214.34985058 134.67484951 214.35098362 C130.35894448 214.35155908 126.04314989 214.33977358 121.7272706 214.3258357 C117.22024465 214.31336048 112.71321636 214.31216039 108.2061758 214.30978489 C99.66742819 214.30356066 91.12873159 214.28713713 82.59000647 214.26708591 C72.87068421 214.24475619 63.15135955 214.23374086 53.43201804 214.22369504 C33.4348643 214.20277169 13.43775654 214.16757745 -6.55935764 214.12304783 C-6.70833093 208.14578103 -6.81686877 202.16960841 -6.88894749 196.19091892 C-6.91901176 194.15980281 -6.95987547 192.12881536 -7.01199436 190.09814548 C-7.08526835 187.16862254 -7.1189174 184.24082398 -7.14529514 181.31054783 C-7.17626286 180.4112656 -7.20723057 179.51198338 -7.2391367 178.58545017 C-7.24231587 172.55039258 -5.85217428 169.20054329 -2.04657078 164.51489353 C-0.55935764 163.12304783 -0.55935764 163.12304783 1.44064236 163.12304783 C2.10064236 161.47304783 2.76064236 159.82304783 3.44064236 158.12304783 C4.10064236 158.12304783 4.76064236 158.12304783 5.44064236 158.12304783 C6.10064236 156.14304783 6.76064236 154.16304783 7.44064236 152.12304783 C8.10064236 152.12304783 8.76064236 152.12304783 9.44064236 152.12304783 C9.65204861 151.46562595 9.86345486 150.80820408 10.08126736 150.13086033 C11.94035481 146.01736223 14.51538313 142.61864917 17.19064236 138.99804783 C17.75831326 138.22050144 18.32598415 137.44295506 18.9108572 136.64184666 C22.02714137 132.38025783 25.16852241 128.13722068 28.30782986 123.89257908 C28.93592556 123.04260349 29.56402126 122.19262791 30.21115017 121.31689548 C31.42392222 119.6778331 32.63931271 118.04070409 33.85763454 116.40576267 C36.12567708 113.34817838 38.29516765 110.37266192 40.21407986 107.08007908 C40.61884548 106.43425877 41.02361111 105.78843845 41.44064236 105.12304783 C42.10064236 105.12304783 42.76064236 105.12304783 43.44064236 105.12304783 C43.68814236 104.42179783 43.93564236 103.72054783 44.19064236 102.99804783 C45.61244474 99.72790235 47.31310524 96.98192583 49.44064236 94.12304783 C50.10064236 94.12304783 50.76064236 94.12304783 51.44064236 94.12304783 C51.70876736 93.40117283 51.97689236 92.67929783 52.25314236 91.93554783 C55.31388179 84.68642811 55.31388179 84.68642811 58.44064236 83.12304783 C59.37959956 81.47987273 60.31528535 79.83469097 61.22970486 78.17773533 C63.31930195 74.6321609 65.6692609 71.17156743 68.44064236 68.12304783 C69.10064236 68.12304783 69.76064236 68.12304783 70.44064236 68.12304783 C70.55399929 67.53878025 70.66735622 66.95451267 70.78414822 66.35254002 C71.49718849 63.93101389 72.4354332 62.46332671 73.94454861 60.45117283 C74.43761501 59.78730564 74.93068142 59.12343845 75.43868923 58.43945408 C76.21309353 57.41658298 76.21309353 57.41658298 77.00314236 56.37304783 C77.52327908 55.67566502 78.04341579 54.9782822 78.57931423 54.25976658 C79.86078417 52.54330226 81.14997034 50.83260352 82.44064236 49.12304783 C81.37797649 49.11274036 80.31531063 49.1024329 79.22044277 49.09181309 C69.22843287 48.99425304 59.23648767 48.89153593 49.24458313 48.78370857 C44.10707767 48.72843474 38.96956656 48.67500776 33.83199978 48.62573338 C28.87827774 48.57815543 23.92462723 48.52581527 18.97099018 48.47010708 C17.07668675 48.44965365 15.18236368 48.43094563 13.28802586 48.41397381 C10.64424535 48.38999567 8.00060138 48.35993253 5.35690212 48.32837009 C4.56568462 48.32261463 3.77446712 48.31685917 2.95927334 48.3109293 C-2.44530548 48.23709999 -2.44530548 48.23709999 -3.55935764 47.12304783 C-3.65749751 45.6856443 -3.68734045 44.24348456 -3.68875217 42.80273533 C-3.69348042 41.42625828 -3.69348042 41.42625828 -3.69830418 40.02197361 C-3.69627995 39.0240781 -3.69425571 38.02618259 -3.69217014 36.99804783 C-3.69312687 35.98081638 -3.6940836 34.96358494 -3.69506931 33.9155283 C-3.69575126 31.76009147 -3.69389599 29.60465261 -3.68972874 27.4492197 C-3.6843807 24.13732412 -3.68967327 20.82556416 -3.69607639 17.51367283 C-3.69541561 15.42513086 -3.69413446 13.33658898 -3.69217014 11.24804783 C-3.69419437 10.25015232 -3.69621861 9.25225681 -3.69830418 8.22412205 C-3.69515202 7.30647068 -3.69199986 6.38881931 -3.68875217 5.44336033 C-3.68755878 4.22543797 -3.68755878 4.22543797 -3.68634129 2.98291111 C-3.48521198 0.03707495 -2.96384438 0.14249459 0 0 Z " fill="#FCCC08" transform="translate(43.55935764312744,85.87695217132568)"/>
<path d="M0 0 C0 0.66 0 1.32 0 2 C1.6396875 2.2165625 1.6396875 2.2165625 3.3125 2.4375 C7 3 7 3 10 4 C10 4.66 10 5.32 10 6 C10.71414063 6.09152344 11.42828125 6.18304688 12.1640625 6.27734375 C21.6546303 8.69573913 29.81671041 17.84087549 34.8125 25.9375 C35.4003125 26.9584375 35.4003125 26.9584375 36 28 C36.66 28.33 37.32 28.66 38 29 C41.38173468 35.08712242 43.74490995 41.42423321 46 48 C46.34442139 48.85859619 46.68884277 49.71719238 47.04370117 50.60180664 C48.24045882 54.85446675 48.26901136 58.68911927 48.23046875 63.08203125 C48.23001053 63.93681564 48.22955231 64.79160004 48.2290802 65.67228699 C48.22607227 67.46830647 48.21822998 69.26432368 48.20581055 71.06030273 C48.18744416 73.82089369 48.18530181 76.58115092 48.18554688 79.34179688 C48.18063531 81.08854459 48.17480857 82.83529002 48.16796875 84.58203125 C48.16685593 85.41112503 48.1657431 86.24021881 48.16459656 87.09443665 C48.11608383 92.88391617 48.11608383 92.88391617 47 94 C43.86440114 94.09534958 40.75086387 94.12550879 37.61499023 94.11352539 C36.13710526 94.11374443 36.13710526 94.11374443 34.62936401 94.1139679 C31.35575193 94.11326832 28.08219596 94.10547385 24.80859375 94.09765625 C22.54557832 94.09579223 20.28256249 94.09436825 18.01954651 94.09336853 C12.05021052 94.0895421 6.08089868 94.07971075 0.11157227 94.06866455 C-5.97444329 94.05845312 -12.06046273 94.05387149 -18.14648438 94.04882812 C-30.09766689 94.03808859 -42.04883144 94.02101068 -54 94 C-53.505 97.465 -53.505 97.465 -53 101 C-52.34 101 -51.68 101 -51 101 C-50.6596875 102.3303125 -50.6596875 102.3303125 -50.3125 103.6875 C-48.62186475 107.95434135 -46.15012391 110.92493804 -42 113 C-42 113.66 -42 114.32 -42 115 C-39.69 115.66 -37.38 116.32 -35 117 C-35 117.66 -35 118.32 -35 119 C-28.16579243 119.80467135 -21.44199471 120.16052999 -14.5625 120.125 C-13.64960205 120.12306641 -12.7367041 120.12113281 -11.79614258 120.11914062 C-5.49231384 120.07872067 0.74320703 119.82056301 7 119 C7 118.34 7 117.68 7 117 C11.95 116.01 11.95 116.01 17 115 C17 114.34 17 113.68 17 113 C18.11375 112.62875 18.11375 112.62875 19.25 112.25 C22.11078977 111.15896235 22.11078977 111.15896235 24.0625 108.8125 C26 107 26 107 27.9453125 106.96484375 C31.16256147 108.58570112 31.70510568 111.52412945 32.8125 114.75 C35.2489582 121.3731721 38.18763872 127.34318242 41.6796875 133.48828125 C43 136 43 136 43 138 C43.66 138 44.32 138 45 138 C45 139.32 45 140.64 45 142 C43.68 142.33 42.36 142.66 41 143 C41 143.66 41 144.32 41 145 C38.59004706 146.64220655 36.19685209 148.15026599 33.6875 149.625 C32.99720703 150.04523438 32.30691406 150.46546875 31.59570312 150.8984375 C26.38447392 154 26.38447392 154 23 154 C23 154.66 23 155.32 23 156 C18.73383684 157.13764351 15.43513689 158 11 158 C11 158.66 11 159.32 11 160 C7.04 160.33 3.08 160.66 -1 161 C-1 161.66 -1 162.32 -1 163 C-13.21 163 -25.42 163 -38 163 C-38 162.34 -38 161.68 -38 161 C-39.134375 161.061875 -40.26875 161.12375 -41.4375 161.1875 C-45.59855206 161.19485168 -48.93011328 160.222975 -52.8125 158.80078125 C-55.83286871 157.69511056 -58.90114198 156.85713094 -62 156 C-62 155.34 -62 154.68 -62 154 C-62.86625 153.731875 -63.7325 153.46375 -64.625 153.1875 C-67.91791964 152.02888013 -70.91127875 150.61790161 -74 149 C-74 148.34 -74 147.68 -74 147 C-75.0828125 146.62875 -75.0828125 146.62875 -76.1875 146.25 C-81.57944489 143.85358005 -85.11511029 139.94426856 -88.8125 135.4375 C-89.60269531 134.48746094 -90.39289063 133.53742188 -91.20703125 132.55859375 C-93 130 -93 130 -93 127 C-93.66 127 -94.32 127 -95 127 C-95.495 124.525 -95.495 124.525 -96 122 C-96.66 122 -97.32 122 -98 122 C-100.76602365 114.67320453 -103.37494564 107.55158325 -104.640625 99.79296875 C-104.83081574 97.9844004 -104.83081574 97.9844004 -106 97 C-106.24569602 92.80232071 -106.22868732 88.59813176 -106.24023438 84.39404297 C-106.24977215 82.30002473 -106.28069323 80.20706152 -106.3125 78.11328125 C-106.38042944 69.39186758 -105.35902704 61.43128014 -103 53 C-102.66290337 51.66761314 -102.32791285 50.33467676 -102 49 C-101.34 49 -100.68 49 -100 49 C-99.34 46.03 -98.68 43.06 -98 40 C-97.34 40 -96.68 40 -96 40 C-95.9175 39.29875 -95.835 38.5975 -95.75 37.875 C-94.81990995 34.3096548 -93.23313631 31.90984428 -91 29 C-90.34 29 -89.68 29 -89 29 C-88.9071875 28.1646875 -88.9071875 28.1646875 -88.8125 27.3125 C-87.65848693 24.02800125 -85.52599863 22.34557016 -83 20 C-82.443125 19.401875 -81.88625 18.80375 -81.3125 18.1875 C-80 17 -80 17 -78 17 C-78 16.34 -78 15.68 -78 15 C-76.35 14.34 -74.7 13.68 -73 13 C-73 12.34 -73 11.68 -73 11 C-71.56705502 10.15885829 -70.12845595 9.32734313 -68.6875 8.5 C-67.88699219 8.0359375 -67.08648437 7.571875 -66.26171875 7.09375 C-64 6 -64 6 -61 6 C-61 5.34 -61 4.68 -61 4 C-57.12315913 2.80712589 -54.08378077 2 -50 2 C-50 1.34 -50 0.68 -50 0 C-33.54498207 -2.87065733 -16.40908973 -3.46758123 0 0 Z M-43 41 C-43 41.66 -43 42.32 -43 43 C-44.98 43.99 -44.98 43.99 -47 45 C-47 45.66 -47 46.32 -47 47 C-47.66 47 -48.32 47 -49 47 C-52.95010923 54.61089814 -52.95010923 54.61089814 -54 63 C-35.85 63 -17.7 63 1 63 C-0.21843809 53.86593497 -0.21843809 53.86593497 -4 46.8125 C-4.515625 46.07644531 -5.03125 45.34039062 -5.5625 44.58203125 C-6.036875 44.05996094 -6.51125 43.53789062 -7 43 C-7.66 43 -8.32 43 -9 43 C-9.495 41.515 -9.495 41.515 -10 40 C-15.18066611 37.16994461 -19.52886441 36.48356039 -25.375 36.5625 C-26.1187085 36.56572266 -26.86241699 36.56894531 -27.62866211 36.57226562 C-33.5575678 36.72254489 -37.82812848 37.99091111 -43 41 Z " fill="#FDCD08" transform="translate(318,140)"/>
<path d="M0 0 C17.16 0 34.32 0 52 0 C50.1907319 7.23707238 45.3607873 11.91171838 39.671875 16.48046875 C37.8538687 18.1328156 36.56870491 19.84787867 35.1875 21.875 C34.465625 22.90625 33.74375 23.9375 33 25 C32.34 25 31.68 25 31 25 C30.75378906 25.57492188 30.50757813 26.14984375 30.25390625 26.7421875 C28.80206947 29.35639827 27.09712451 31.06336208 24.9375 33.125 C22.08428067 35.77905 22.08428067 35.77905 20 39 C19.34 39 18.68 39 18 39 C17.814375 39.9590625 17.814375 39.9590625 17.625 40.9375 C17.41875 41.618125 17.2125 42.29875 17 43 C13.66844749 44.66577625 9.93463941 44.12007856 6.2734375 44.09765625 C4.97921371 44.09553383 4.97921371 44.09553383 3.65884399 44.09336853 C0.8975277 44.08776188 -1.86370812 44.07520827 -4.625 44.0625 C-6.4947905 44.05748586 -8.36458226 44.0529228 -10.234375 44.04882812 C-14.82294777 44.03779029 -19.41146023 44.0205212 -24 44 C-24 42.68 -24 41.36 -24 40 C-23.01 39.505 -23.01 39.505 -22 39 C-20.78607468 37.16375545 -20.78607468 37.16375545 -19.625 34.9375 C-19.19058594 34.133125 -18.75617188 33.32875 -18.30859375 32.5 C-16.48876753 29.02331708 -14.72928875 25.52262524 -13 22 C-12.34 22 -11.68 22 -11 22 C-10.690625 20.824375 -10.690625 20.824375 -10.375 19.625 C-8.84560091 15.59294787 -6.81830219 12.20619071 -4.53515625 8.5625 C-2.87530531 5.79185823 -1.44440721 2.88881442 0 0 Z " fill="#F6C707" transform="translate(293,84)"/>
<path d="M0 0 C1.14947585 0.00092179 2.2989517 0.00184359 3.48326015 0.00279331 C4.79724285 0.00141865 6.11122555 0.00004398 7.4650259 -0.00137234 C8.93484424 0.00216728 10.40466235 0.0058021 11.87448025 0.00952244 C13.411554 0.0098043 14.94862789 0.0096466 16.48570156 0.00907993 C20.67147095 0.00879192 24.85721194 0.01468931 29.04297471 0.02165389 C33.41254392 0.02788674 37.7821137 0.02849117 42.15168667 0.0296793 C50.43191283 0.03279282 58.71212586 0.04100648 66.99234623 0.05102879 C76.41661395 0.06218929 85.84088228 0.06770021 95.26515496 0.07272422 C114.65699155 0.08318908 134.0488159 0.10078892 153.44064236 0.12304783 C155.7097706 4.17550652 155.61345729 7.62916831 155.41720486 12.16992283 C155.39217892 12.94112461 155.36715298 13.71232639 155.34136868 14.50689793 C155.25939516 16.96274353 155.1627198 19.41775745 155.06564236 21.87304783 C155.00737954 23.54098294 154.95007675 25.20895188 154.89376736 26.87695408 C154.75385045 30.95946106 154.60074872 35.04128479 154.44064236 39.12304783 C154.11064236 39.12304783 153.78064236 39.12304783 153.44064236 39.12304783 C153.44064236 26.91304783 153.44064236 14.70304783 153.44064236 2.12304783 C101.96064236 2.12304783 50.48064236 2.12304783 -2.55935764 2.12304783 C-2.55935764 16.64304783 -2.55935764 31.16304783 -2.55935764 46.12304783 C26.48064236 46.12304783 55.52064236 46.12304783 85.44064236 46.12304783 C85.44064236 47.11304783 85.44064236 48.10304783 85.44064236 49.12304783 C73.98407636 49.01571937 62.52757563 48.90312177 51.07112885 48.78370857 C45.75202015 48.72843376 40.43290601 48.67500661 35.11373806 48.62573338 C29.98495369 48.57815689 24.85623845 48.52581678 19.7275362 48.47010708 C17.76624608 48.44965299 15.80493698 48.43094508 13.84361362 48.41397381 C11.10643652 48.38999714 8.36939135 48.35993379 5.63229275 48.32837009 C4.81302303 48.32261463 3.99375332 48.31685917 3.14965725 48.3109293 C-2.44530548 48.23709999 -2.44530548 48.23709999 -3.55935764 47.12304783 C-3.65749751 45.6856443 -3.68734045 44.24348456 -3.68875217 42.80273533 C-3.69190434 41.88508396 -3.6950565 40.96743259 -3.69830418 40.02197361 C-3.69627995 39.0240781 -3.69425571 38.02618259 -3.69217014 36.99804783 C-3.69312687 35.98081638 -3.6940836 34.96358494 -3.69506931 33.9155283 C-3.69575126 31.76009147 -3.69389599 29.60465261 -3.68972874 27.4492197 C-3.6843807 24.13732412 -3.68967327 20.82556416 -3.69607639 17.51367283 C-3.69541561 15.42513086 -3.69413446 13.33658898 -3.69217014 11.24804783 C-3.69419437 10.25015232 -3.69621861 9.25225681 -3.69830418 8.22412205 C-3.69515202 7.30647068 -3.69199986 6.38881931 -3.68875217 5.44336033 C-3.68795658 4.63141209 -3.68716099 3.81946384 -3.68634129 2.98291111 C-3.48521198 0.03707495 -2.96384438 0.14249459 0 0 Z " fill="#B69200" transform="translate(43.55935764312744,85.87695217132568)"/>
<path d="M0 0 C4.32306476 12.96919427 1 27.3292689 1 41 C53.8 41.33 106.6 41.66 161 42 C160.67 42.66 160.34 43.32 160 44 C106.87 44 53.74 44 -1 44 C-1 1 -1 1 0 0 Z " fill="#B39000" transform="translate(38,256)"/>
<path d="M0 0 C3.82315871 2.54877247 4.11321771 4.44304197 5.5625 8.75 C5.97628906 9.96171875 6.39007813 11.1734375 6.81640625 12.421875 C7.20699219 13.60265625 7.59757812 14.7834375 8 16 C8.5244873 17.3147229 8.5244873 17.3147229 9.05957031 18.65600586 C10.24844751 22.88343344 10.26878621 26.71478115 10.23046875 31.08203125 C10.23001053 31.93681564 10.22955231 32.79160004 10.2290802 33.67228699 C10.22607227 35.46830647 10.21822998 37.26432368 10.20581055 39.06030273 C10.18744416 41.82089369 10.18530181 44.58115092 10.18554688 47.34179688 C10.18063531 49.08854459 10.17480857 50.83529002 10.16796875 52.58203125 C10.16685593 53.41112503 10.1657431 54.24021881 10.16459656 55.09443665 C10.11608383 60.88391617 10.11608383 60.88391617 9 62 C5.86440114 62.09534958 2.75086387 62.12550879 -0.38500977 62.11352539 C-1.86289474 62.11374443 -1.86289474 62.11374443 -3.37063599 62.1139679 C-6.64424807 62.11326832 -9.91780404 62.10547385 -13.19140625 62.09765625 C-15.45442168 62.09579223 -17.71743751 62.09436825 -19.98045349 62.09336853 C-25.94978948 62.0895421 -31.91910132 62.07971075 -37.88842773 62.06866455 C-43.97444329 62.05845312 -50.06046273 62.05387149 -56.14648438 62.04882812 C-68.09766689 62.03808859 -80.04883144 62.02101068 -92 62 C-91.67 64.31 -91.34 66.62 -91 69 C-90.34 69 -89.68 69 -89 69 C-89 69.66 -89 70.32 -89 71 C-89.99 71 -90.98 71 -92 71 C-92.33 67.37 -92.66 63.74 -93 60 C-59.67 60 -26.34 60 8 60 C8.85618346 33.56417024 8.85618346 33.56417024 2.375 6.8125 C0 2.12427746 0 2.12427746 0 0 Z " fill="#B28F00" transform="translate(356,172)"/>
<path d="M0 0 C0.33 0 0.66 0 1 0 C1 14.85 1 29.7 1 45 C30.04 45 59.08 45 89 45 C89 45.99 89 46.98 89 48 C77.54343401 47.89267154 66.08693327 47.78007394 54.63048649 47.66066074 C49.31137779 47.60538593 43.99226365 47.55195878 38.6730957 47.50268555 C33.54431133 47.45510906 28.4155961 47.40276896 23.28689384 47.34705925 C21.32560372 47.32660516 19.36429462 47.30789725 17.40297127 47.29092598 C14.66579416 47.26694931 11.928749 47.23688596 9.19165039 47.20532227 C8.37238068 47.1995668 7.55311096 47.19381134 6.70901489 47.18788147 C1.11405216 47.11405216 1.11405216 47.11405216 0 46 C-0.09295815 44.55710213 -0.11746513 43.10970215 -0.11352539 41.66381836 C-0.11344986 40.7429393 -0.11337433 39.82206024 -0.11329651 38.87327576 C-0.10813522 37.87224319 -0.10297394 36.87121063 -0.09765625 35.83984375 C-0.0962413 34.82024063 -0.09482635 33.80063751 -0.09336853 32.75013733 C-0.08775097 29.47922893 -0.0751955 26.20838787 -0.0625 22.9375 C-0.05748726 20.72591244 -0.05292396 18.51432382 -0.04882812 16.30273438 C-0.03777584 10.86846643 -0.02102063 5.43423803 0 0 Z " fill="#A48400" transform="translate(40,87)"/>
<path d="M0 0 C0.33 0.66 0.66 1.32 1 2 C0.2578125 3.98828125 0.2578125 3.98828125 -0.875 6.3125 C-2.53745506 9.73622737 -3.22415193 12.12075964 -4 16 C22.73 15.505 22.73 15.505 50 15 C50 14.01 50 13.02 50 12 C50.66 12 51.32 12 52 12 C52.042721 13.66611905 52.04063832 15.33382885 52 17 C51 18 51 18 48.75376892 18.12025452 C47.76115555 18.11803391 46.76854218 18.11581329 45.74584961 18.11352539 C44.62476303 18.11344986 43.50367645 18.11337433 42.34861755 18.11329651 C40.51896202 18.10555458 40.51896202 18.10555458 38.65234375 18.09765625 C37.41078018 18.0962413 36.16921661 18.09482635 34.89002991 18.09336853 C31.58394509 18.08870591 28.27792854 18.07971497 24.97186279 18.06866455 C21.6003885 18.05844827 18.22890717 18.05387045 14.85742188 18.04882812 C8.23826225 18.03777395 1.61913507 18.02101736 -5 18 C-6.1811027 14.45669189 -5.73184189 13.10964447 -4.75 9.5625 C-4.49734375 8.61503906 -4.2446875 7.66757813 -3.984375 6.69140625 C-2.9995673 3.99881694 -1.83595984 2.18149161 0 0 Z " fill="#DCB100" transform="translate(268,187)"/>
<path d="M0 0 C1 3 1 3 -0.21484375 5.48046875 C-0.78332031 6.37378906 -1.35179687 7.26710938 -1.9375 8.1875 C-2.50339844 9.08855469 -3.06929688 9.98960938 -3.65234375 10.91796875 C-4.09707031 11.60503906 -4.54179687 12.29210937 -5 13 C0.07234884 12.90646894 5.14422013 12.80037625 10.21606445 12.68261719 C11.94157708 12.64432655 13.66716956 12.60947379 15.39282227 12.578125 C17.87284895 12.53247596 20.35232591 12.47448219 22.83203125 12.4140625 C23.98998955 12.39673569 23.98998955 12.39673569 25.17134094 12.37905884 C28.95246674 12.27478727 30.78018835 12.1465411 34 10 C33.625 11.9375 33.625 11.9375 33 14 C29.66844749 15.66577625 25.93463941 15.12007856 22.2734375 15.09765625 C20.97921371 15.09553383 20.97921371 15.09553383 19.65884399 15.09336853 C16.8975277 15.08776188 14.13629188 15.07520827 11.375 15.0625 C9.5052095 15.05748586 7.63541774 15.0529228 5.765625 15.04882812 C1.17705223 15.03779029 -3.41146023 15.0205212 -8 15 C-8 13.68 -8 12.36 -8 11 C-7.34 10.67 -6.68 10.34 -6 10 C-5.09328027 8.53117053 -4.24592135 7.02514118 -3.4375 5.5 C-1.08135593 1.08135593 -1.08135593 1.08135593 0 0 Z " fill="#D3AA00" transform="translate(277,113)"/>
<path d="M0 0 C1.32 0.33 2.64 0.66 4 1 C4 1.66 4 2.32 4 3 C11.72785134 3.96953382 19.34333901 4.12131488 27.125 4.0625 C28.27226562 4.05798828 29.41953125 4.05347656 30.6015625 4.04882812 C33.40109813 4.03716339 36.20051986 4.02079614 39 4 C39 4.99 39 5.98 39 7 C34.11551686 7.79309907 29.46449764 8.13525723 24.5 8.125 C22.62828125 8.12886719 22.62828125 8.12886719 20.71875 8.1328125 C14.92516265 7.92589867 9.91024244 7.20845912 4.5625 4.9375 C3.69753906 4.57527344 2.83257812 4.21304687 1.94140625 3.83984375 C0.98041016 3.42412109 0.98041016 3.42412109 0 3 C0 2.01 0 1.02 0 0 Z " fill="#D0A700" transform="translate(279,256)"/>
<path d="M0 0 C1.29487016 3.88461047 1.1232604 7.55883956 1.09765625 11.60546875 C1.0962413 12.44467361 1.09482635 13.28387848 1.09336853 14.14851379 C1.08777215 16.82821216 1.07522035 19.5078269 1.0625 22.1875 C1.05748453 24.00455608 1.05292171 25.82161348 1.04882812 27.63867188 C1.03780391 32.09248013 1.02054178 36.54622589 1 41 C1.64549805 41.01981934 2.29099609 41.03963867 2.95605469 41.06005859 C5.88777221 41.15546328 8.81879232 41.26507971 11.75 41.375 C12.76578125 41.4059375 13.7815625 41.436875 14.828125 41.46875 C15.8078125 41.50742187 16.7875 41.54609375 17.796875 41.5859375 C19.14797363 41.63306885 19.14797363 41.63306885 20.52636719 41.68115234 C23 42 23 42 27 44 C17.76 44 8.52 44 -1 44 C-1.02290553 37.89440345 -1.04283367 31.78895484 -1.05493164 25.68334961 C-1.05997288 23.60456844 -1.06680574 21.52579084 -1.07543945 19.44702148 C-1.08751422 16.46597414 -1.09323024 13.48497351 -1.09765625 10.50390625 C-1.10539818 9.10078941 -1.10539818 9.10078941 -1.11329651 7.66932678 C-1.11337204 6.80850998 -1.11344757 5.94769318 -1.11352539 5.06079102 C-1.115746 4.29912125 -1.11796661 3.53745148 -1.12025452 2.75270081 C-1 1 -1 1 0 0 Z " fill="#BD9800" transform="translate(38,256)"/>
<path d="M0 0 C0.91442871 -0.00386719 1.82885742 -0.00773438 2.77099609 -0.01171875 C4.21659912 0.00181641 4.21659912 0.00181641 5.69140625 0.015625 C6.67318848 0.01949219 7.6549707 0.02335938 8.66650391 0.02734375 C16.02389004 0.1145424 23.04134729 0.7414616 30.25390625 2.265625 C30.25390625 2.925625 30.25390625 3.585625 30.25390625 4.265625 C31.89359375 4.4821875 31.89359375 4.4821875 33.56640625 4.703125 C37.25390625 5.265625 37.25390625 5.265625 40.25390625 6.265625 C40.25390625 7.255625 40.25390625 8.245625 40.25390625 9.265625 C39.59390625 9.265625 38.93390625 9.265625 38.25390625 9.265625 C38.25390625 8.605625 38.25390625 7.945625 38.25390625 7.265625 C37.48046875 7.14445313 36.70703125 7.02328125 35.91015625 6.8984375 C34.86859375 6.73085937 33.82703125 6.56328125 32.75390625 6.390625 C31.2225 6.14699219 31.2225 6.14699219 29.66015625 5.8984375 C26.25390625 5.265625 26.25390625 5.265625 22.72265625 4.234375 C16.68340732 2.6840309 10.45335944 2.79773891 4.25390625 2.640625 C3.00222656 2.60195312 1.75054687 2.56328125 0.4609375 2.5234375 C-2.60793095 2.42973159 -5.67680228 2.3440143 -8.74609375 2.265625 C-5.7044875 0.50962816 -3.4993438 0.00965051 0 0 Z " fill="#C8A000" transform="translate(287.74609375,137.734375)"/>
<path d="M0 0 C12.87 0 25.74 0 39 0 C39 0.99 39 1.98 39 3 C26.79 3 14.58 3 2 3 C2 2.34 2 1.68 2 1 C1.34 0.67 0.68 0.34 0 0 Z " fill="#C8A100" transform="translate(278,300)"/>
<path d="M0 0 C3.82315871 2.54877247 4.11321771 4.44304197 5.5625 8.75 C5.97628906 9.96171875 6.39007813 11.1734375 6.81640625 12.421875 C7.40228516 14.19304687 7.40228516 14.19304687 8 16 C8.35489502 16.88026855 8.70979004 17.76053711 9.07543945 18.66748047 C10.24207347 22.87253837 10.1508194 26.56730601 9.9765625 30.8984375 C9.95153656 31.73339752 9.92651062 32.56835754 9.90072632 33.42861938 C9.8189952 36.07785513 9.72222678 38.72629223 9.625 41.375 C9.5667124 43.1783535 9.5094102 44.98173914 9.453125 46.78515625 C9.3134868 51.19055793 9.16036661 55.59530615 9 60 C8.67 60 8.34 60 8 60 C7.98018066 59.03811768 7.96036133 58.07623535 7.93994141 57.08520508 C7.86279157 53.45249004 7.77426228 49.82011995 7.68261719 46.18774414 C7.64477202 44.627593 7.60984958 43.06736768 7.578125 41.50708008 C7.56829925 23.62984839 7.56829925 23.62984839 2.375 6.8125 C0 2.12427746 0 2.12427746 0 0 Z " fill="#D0A700" transform="translate(356,172)"/>
<path d="M0 0 C1.11503906 -0.00257813 2.23007812 -0.00515625 3.37890625 -0.0078125 C5.92943728 0.10293853 8.01340829 0.3782138 10.4375 1.125 C10.4375 1.785 10.4375 2.445 10.4375 3.125 C11.324375 3.186875 12.21125 3.24875 13.125 3.3125 C17.17831992 4.30671055 18.73581749 6.02601124 21.4375 9.125 C21.1075 10.115 20.7775 11.105 20.4375 12.125 C19.36328125 10.66015625 18.2890625 9.1953125 17.21484375 7.73046875 C12.16517167 3.16911661 6.49260636 2.62792301 0 2.75 C-1.11942993 2.75870117 -1.11942993 2.75870117 -2.26147461 2.76757812 C-7.58402668 2.89340402 -11.77322733 3.67941395 -16.5625 6.125 C-16.5625 5.465 -16.5625 4.805 -16.5625 4.125 C-11.24926611 0.32983293 -6.39459921 -0.01481947 0 0 Z " fill="#C69F00" transform="translate(292.5625,174.875)"/>
<path d="M0 0 C0.66 0.33 1.32 0.66 2 1 C0.02 4.96 -1.96 8.92 -4 13 C-4.66 13 -5.32 13 -6 13 C-6.66 15.97 -7.32 18.94 -8 22 C-8.66 22 -9.32 22 -10 22 C-10.66 27.61 -11.32 33.22 -12 39 C-12.99 39 -13.98 39 -15 39 C-13.68 32.73 -12.36 26.46 -11 20 C-10.34 20 -9.68 20 -9 20 C-8.34 17.03 -7.68 14.06 -7 11 C-6.34 11 -5.68 11 -5 11 C-4.9175 10.29875 -4.835 9.5975 -4.75 8.875 C-3.82972275 5.34727053 -2.11873023 2.93888386 0 0 Z " fill="#B79300" transform="translate(227,169)"/>
<path d="M0 0 C0.99 0.33 1.98 0.66 3 1 C3.08636719 1.93199219 3.17273438 2.86398438 3.26171875 3.82421875 C4.26253662 12.9050341 6.30410192 20.57381727 10 29 C10.32742187 29.77988281 10.65484375 30.55976563 10.9921875 31.36328125 C11.64549675 32.91566848 12.31928452 34.45943338 13 36 C12.34 36 11.68 36 11 36 C10.67 34.35 10.34 32.7 10 31 C9.34 31 8.68 31 8 31 C5.23397635 23.67320453 2.62505436 16.55158325 1.359375 8.79296875 C1.16918426 6.9844004 1.16918426 6.9844004 0 6 C-0.04080783 4.00041636 -0.04254356 1.99954746 0 0 Z " fill="#AA8800" transform="translate(212,231)"/>
<path d="M0 0 C0.66 0 1.32 0 2 0 C3.20568053 4.67201205 3.09382426 9.21496292 3 14 C2.01 13.67 1.02 13.34 0 13 C0 8.71 0 4.42 0 0 Z " fill="#EABC00" transform="translate(212,218)"/>
<path d="M0 0 C1.2065625 0.0309375 1.2065625 0.0309375 2.4375 0.0625 C2.4375 0.7225 2.4375 1.3825 2.4375 2.0625 C4.0771875 2.2790625 4.0771875 2.2790625 5.75 2.5 C9.4375 3.0625 9.4375 3.0625 12.4375 4.0625 C12.4375 5.0525 12.4375 6.0425 12.4375 7.0625 C11.7775 7.0625 11.1175 7.0625 10.4375 7.0625 C10.4375 6.4025 10.4375 5.7425 10.4375 5.0625 C9.59445312 4.94132813 8.75140625 4.82015625 7.8828125 4.6953125 C6.23925781 4.44394531 6.23925781 4.44394531 4.5625 4.1875 C2.92667969 3.94386719 2.92667969 3.94386719 1.2578125 3.6953125 C-1.5625 3.0625 -1.5625 3.0625 -3.5625 1.0625 C-2.5625 0.0625 -2.5625 0.0625 0 0 Z " fill="#D6AC00" transform="translate(315.5625,139.9375)"/>
<path d="M0 0 C2.29236186 0.47582968 4.58387209 0.95576385 6.875 1.4375 C8.15117187 1.70433594 9.42734375 1.97117187 10.7421875 2.24609375 C14 3 14 3 16 4 C16 4.66 16 5.32 16 6 C9.79011871 5.55643705 5.39459439 4.08467498 0 1 C0 0.67 0 0.34 0 0 Z " fill="#CBA300" transform="translate(259,295)"/>
<path d="M0 0 C0.66 0.33 1.32 0.66 2 1 C-2.95 7.435 -2.95 7.435 -8 14 C-8.33 13.01 -8.66 12.02 -9 11 C-7.12890625 8.30078125 -7.12890625 8.30078125 -4.5625 5.3125 C-3.71816406 4.31863281 -2.87382812 3.32476562 -2.00390625 2.30078125 C-1.01197266 1.16189453 -1.01197266 1.16189453 0 0 Z " fill="#B69200" transform="translate(155,182)"/>
<path d="M0 0 C-0.33 0.99 -0.66 1.98 -1 3 C-4.3 3.33 -7.6 3.66 -11 4 C-11 3.34 -11 2.68 -11 2 C-7.17679443 0.57741188 -4.08718695 -0.24042276 0 0 Z " fill="#DBB000" transform="translate(330,297)"/>
<path d="M0 0 C0.66 0.33 1.32 0.66 2 1 C0.90833564 2.6748823 -0.19873637 4.33973123 -1.3125 6 C-1.92738281 6.928125 -2.54226562 7.85625 -3.17578125 8.8125 C-3.77777344 9.534375 -4.37976563 10.25625 -5 11 C-5.99 11 -6.98 11 -8 11 C-5.36 7.37 -2.72 3.74 0 0 Z " fill="#AD8B00" transform="translate(112,154)"/>
<path d="M0 0 C0.99 0.33 1.98 0.66 3 1 C3.33 4.63 3.66 8.26 4 12 C2 11 2 11 0.875 8.8125 C-0.08328236 5.73230669 -0.14915816 3.20690052 0 0 Z " fill="#C59E00" transform="translate(212,231)"/>
<path d="M0 0 C0.90492187 0.02320313 1.80984375 0.04640625 2.7421875 0.0703125 C4.10730469 0.09738281 4.10730469 0.09738281 5.5 0.125 C6.19867188 0.14820313 6.89734375 0.17140625 7.6171875 0.1953125 C7.6171875 1.1853125 7.6171875 2.1753125 7.6171875 3.1953125 C3.6571875 2.8653125 -0.3028125 2.5353125 -4.3828125 2.1953125 C-2.3828125 0.1953125 -2.3828125 0.1953125 0 0 Z " fill="#AF8D00" transform="translate(121.3828125,131.8046875)"/>
<path d="M0 0 C0.33 0.66 0.66 1.32 1 2 C0.29296875 4.05859375 0.29296875 4.05859375 -0.8125 6.4375 C-1.16957031 7.21996094 -1.52664063 8.00242188 -1.89453125 8.80859375 C-3 11 -3 11 -5 14 C-4.58669586 8.00708997 -3.68096635 4.74963401 0 0 Z " fill="#B89300" transform="translate(268,187)"/>
<path d="M0 0 C0.33 0.66 0.66 1.32 1 2 C-1.90092502 3.93395001 -2.89674737 4.30131941 -6.1875 4.625 C-7.445625 4.74875 -8.70375 4.8725 -10 5 C-9.67 4.34 -9.34 3.68 -9 3 C-7.68 3 -6.36 3 -5 3 C-5 2.34 -5 1.68 -5 1 C-3.35 0.67 -1.7 0.34 0 0 Z " fill="#C09A00" transform="translate(330,256)"/>
<path d="M0 0 C0.33 0.99 0.66 1.98 1 3 C-3.455 3.495 -3.455 3.495 -8 4 C-7.67 3.01 -7.34 2.02 -7 1 C-3.535 0.505 -3.535 0.505 0 0 Z " fill="#C49E00" transform="translate(275,139)"/>
<path d="M0 0 C0.66 0.33 1.32 0.66 2 1 C-0.31 3.97 -2.62 6.94 -5 10 C-5.33 9.01 -5.66 8.02 -6 7 C-4.78515625 5.17578125 -4.78515625 5.17578125 -3.0625 3.3125 C-2.49660156 2.68988281 -1.93070313 2.06726563 -1.34765625 1.42578125 C-0.90292969 0.95527344 -0.45820313 0.48476562 0 0 Z " fill="#B99500" transform="translate(144,197)"/>
</svg>
