<svg width="24" height="24" viewBox="0 0 14 15" fill="none" xmlns="http://www.w3.org/2000/svg">
<g clip-path="url(#clip0_2800_9705)">
<path d="M3.47177 3.99992H3.27344L5.61844 1.65492C6.3826 0.893672 7.61927 0.893672 8.38344 1.65492L10.7284 3.99992H10.5301C10.0634 3.99992 9.62302 4.18075 9.29344 4.51326L7.3101 6.48784C7.13802 6.65992 6.86385 6.65992 6.69177 6.48784L4.70844 4.51326C4.37885 4.18075 3.93844 3.99992 3.47177 3.99992Z" fill="#4DB6AC"/>
<path d="M10.5301 11H10.7284L8.38344 13.345C7.61927 14.1063 6.3826 14.1063 5.61844 13.345L3.27344 11H3.47177C3.93844 11 4.37885 10.8192 4.70844 10.4867L6.69177 8.51212C6.86385 8.34004 7.13802 8.34004 7.3101 8.51212L9.29344 10.4867C9.62302 10.8192 10.0634 11 10.5301 11Z" fill="#4DB6AC"/>
<path d="M12.8449 8.88242L11.3108 10.4166H10.5291C10.217 10.4166 9.92534 10.2941 9.70367 10.0753L7.72034 8.09784C7.32367 7.70117 6.67617 7.70117 6.27951 8.09784L4.29617 10.0753C4.0745 10.2941 3.78284 10.4166 3.47075 10.4166H2.68909L1.15492 8.88242C0.393672 8.11825 0.393672 6.88159 1.15492 6.11742L2.68909 4.58325H3.47075C3.78284 4.58325 4.0745 4.70575 4.29617 4.9245L6.27951 6.902C6.47784 7.10034 6.74034 7.1995 6.99992 7.1995C7.2595 7.1995 7.522 7.10034 7.72034 6.902L9.70367 4.9245C9.92534 4.70575 10.217 4.58325 10.5291 4.58325H11.3108L12.8449 6.11742C13.6062 6.88159 13.6062 8.11825 12.8449 8.88242Z" fill="#4DB6AC"/>
</g>
<defs>
<clipPath id="clip0_2800_9705">
<rect width="14" height="14" fill="white" transform="translate(0 0.5)"/>
</clipPath>
</defs>
</svg>
