<svg width="24" height="24" viewBox="0 0 24 24" fill="none" xmlns="http://www.w3.org/2000/svg">
<path d="M16.0603 2.45401C16.3415 2.7353 16.4995 3.11676 16.4995 3.51451C16.4995 3.91226 16.3415 4.29372 16.0603 4.57501L8.63533 12L16.0603 19.425C16.3336 19.7079 16.4848 20.0868 16.4813 20.4801C16.4779 20.8734 16.3202 21.2496 16.0421 21.5277C15.7639 21.8059 15.3877 21.9636 14.9944 21.967C14.6011 21.9704 14.2222 21.8192 13.9393 21.546L5.45383 13.0605C5.17262 12.7792 5.01465 12.3978 5.01465 12C5.01465 11.6023 5.17262 11.2208 5.45383 10.9395L13.9393 2.45401C14.2206 2.1728 14.6021 2.01483 14.9998 2.01483C15.3976 2.01483 15.779 2.1728 16.0603 2.45401Z" fill="white"/>
</svg>
