<svg width="16" height="16" viewBox="0 0 16 16" fill="none" xmlns="http://www.w3.org/2000/svg">
<path d="M1.63605 5.29301C1.82358 5.10554 2.07788 5.00023 2.34305 5.00023C2.60821 5.00023 2.86252 5.10554 3.05005 5.29301L8.00005 10.243L12.95 5.29301C13.1387 5.11085 13.3913 5.01006 13.6535 5.01234C13.9156 5.01462 14.1665 5.11979 14.3519 5.30519C14.5373 5.4906 14.6424 5.74141 14.6447 6.00361C14.647 6.26581 14.5462 6.51841 14.364 6.70701L8.70705 12.364C8.51952 12.5515 8.26521 12.6568 8.00005 12.6568C7.73488 12.6568 7.48058 12.5515 7.29305 12.364L1.63605 6.70701C1.44858 6.51948 1.34326 6.26518 1.34326 6.00001C1.34326 5.73485 1.44858 5.48054 1.63605 5.29301Z" fill="white"/>
</svg>
