<svg width="24" height="24" viewBox="0 0 24 24" fill="none" xmlns="http://www.w3.org/2000/svg">
<g clip-path="url(#clip0_2468_5156)">
<path d="M11.2071 21.4395L14.824 17.8233L14.8241 17.8232C14.8709 17.7764 14.9344 17.7501 15.0006 17.75H15.0009C15.0671 17.7501 15.1306 17.7764 15.1774 17.8232C15.1774 17.8232 15.1774 17.8232 15.1774 17.8232L16.8964 19.543L17.2499 19.8967L17.6036 19.5431L20.2931 16.8536L21.1466 16H19.9395H18.5V15.5H22V19H21.5V17.5605V16.3534L20.6464 17.2069L17.4268 20.4266C17.4267 20.4267 17.4267 20.4267 17.4267 20.4267C17.3798 20.4735 17.3163 20.4998 17.25 20.4998C17.1838 20.4998 17.1202 20.4736 17.0734 20.4268L11.2071 21.4395ZM11.2071 21.4395L11.5605 21.7929L14.6472 18.7069L15.0009 18.3534L15.3544 18.707L17.0732 20.4266L11.2071 21.4395ZM19.75 3V3.5H20.25H22V4H18H17.5V4.5V6V6.5H18H21C21.5509 6.5 22 6.94948 22 7.5V9C22 9.55111 21.5511 10 21 10H20.25H19.75V10.5V11.5H19.25V10.5V10H18.75H17V9.5H21H21.5V9V7.5V7H21H18C17.4489 7 17 6.55111 17 6V4.5C17 3.94948 17.4491 3.5 18 3.5H18.75H19.25V3V2H19.75V3ZM2.5 22H2V18.75C2 16.1311 4.13114 14 6.75 14H11.25C12.4318 14 13.5682 14.4424 14.4371 15.2283L14.0625 15.5637C13.7412 15.2802 13.3781 15.0461 12.9852 14.8704C12.4393 14.6262 11.848 14.5 11.25 14.5H6.75C4.40611 14.5 2.5 16.4061 2.5 18.75V22ZM12.3588 10.1088C11.468 10.9996 10.2598 11.5 9 11.5C7.74022 11.5 6.53204 10.9996 5.64124 10.1088C4.75044 9.21796 4.25 8.00978 4.25 6.75C4.25 5.49022 4.75045 4.28204 5.64124 3.39124C6.53204 2.50044 7.74022 2 9 2C10.2598 2 11.468 2.50044 12.3588 3.39124C13.2496 4.28204 13.75 5.49022 13.75 6.75C13.75 8.00978 13.2496 9.21796 12.3588 10.1088ZM12.0052 3.7448C11.2082 2.94777 10.1272 2.5 9 2.5C7.87283 2.5 6.79183 2.94777 5.9948 3.7448C5.19777 4.54183 4.75 5.62283 4.75 6.75C4.75 7.87717 5.19777 8.95817 5.9948 9.7552C6.79183 10.5522 7.87283 11 9 11C10.1272 11 11.2082 10.5522 12.0052 9.7552C12.8022 8.95817 13.25 7.87717 13.25 6.75C13.25 5.62283 12.8022 4.54183 12.0052 3.7448Z" fill="white" stroke="white"/>
</g>
<defs>
<clipPath id="clip0_2468_5156">
<rect width="24" height="24" fill="white"/>
</clipPath>
</defs>
</svg>
