<svg width="40" height="40" viewBox="0 0 40 40" fill="none" xmlns="http://www.w3.org/2000/svg">
<path d="M9.91676 10.0002H9.3501L16.0501 3.3002C18.2334 1.1252 21.7668 1.1252 23.9501 3.3002L30.6501 10.0002H30.0834C28.7501 10.0002 27.4918 10.5169 26.5501 11.4669L20.8834 17.1085C20.3918 17.6002 19.6084 17.6002 19.1168 17.1085L13.4501 11.4669C12.5084 10.5169 11.2501 10.0002 9.91676 10.0002Z" fill="#4DB6AC"/>
<path d="M30.0834 30H30.6501L23.9501 36.7C21.7668 38.875 18.2334 38.875 16.0501 36.7L9.3501 30H9.91676C11.2501 30 12.5084 29.4834 13.4501 28.5334L19.1168 22.8917C19.6084 22.4 20.3918 22.4 20.8834 22.8917L26.5501 28.5334C27.4918 29.4834 28.7501 30 30.0834 30Z" fill="#4DB6AC"/>
<path d="M36.7002 23.9498L32.3169 28.3332H30.0835C29.1919 28.3332 28.3585 27.9832 27.7252 27.3582L22.0585 21.7082C20.9252 20.5748 19.0752 20.5748 17.9419 21.7082L12.2752 27.3582C11.6419 27.9832 10.8085 28.3332 9.91686 28.3332H7.68353L3.3002 23.9498C1.1252 21.7665 1.1252 18.2332 3.3002 16.0498L7.68353 11.6665H9.91686C10.8085 11.6665 11.6419 12.0165 12.2752 12.6415L17.9419 18.2915C18.5085 18.8582 19.2585 19.1415 20.0002 19.1415C20.7419 19.1415 21.4919 18.8582 22.0585 18.2915L27.7252 12.6415C28.3585 12.0165 29.1919 11.6665 30.0835 11.6665H32.3169L36.7002 16.0498C38.8752 18.2332 38.8752 21.7665 36.7002 23.9498Z" fill="#4DB6AC"/>
</svg>
