<svg width="24" height="24" viewBox="0 0 24 24" fill="none" xmlns="http://www.w3.org/2000/svg">
<mask id="path-1-outside-1_1861_1831" maskUnits="userSpaceOnUse" x="0" y="3" width="24" height="19" fill="black">
<rect fill="white" y="3" width="24" height="19"/>
<path d="M14.6327 13.061H19.6157V11.8467H14.6327V13.061ZM14.6327 9.69743H19.6157V8.48314H14.6327V9.69743ZM4.38433 16.5169H12.4706V16.3153C12.4706 15.607 12.112 15.0585 11.395 14.6699C10.678 14.2814 9.68878 14.0871 8.42744 14.0871C7.16611 14.0871 6.17652 14.2814 5.45867 14.6699C4.74081 15.0585 4.3827 15.607 4.38433 16.3153V16.5169ZM8.42744 12.126C8.94322 12.126 9.37752 11.9507 9.73033 11.6002C10.084 11.2489 10.2608 10.817 10.2608 10.3046C10.2608 9.79214 10.084 9.36067 9.73033 9.01014C9.3767 8.65962 8.94241 8.48395 8.42744 8.48314C7.91248 8.48233 7.47818 8.658 7.12456 9.01014C6.77093 9.36229 6.59411 9.79376 6.59411 10.3046C6.59411 10.8154 6.77093 11.2473 7.12456 11.6002C7.47818 11.9532 7.91248 12.1284 8.42744 12.126ZM2.97511 21C2.41207 21 1.94233 20.813 1.56589 20.439C1.18944 20.065 1.00081 19.5979 1 19.0377V5.96229C1 5.4029 1.18863 4.93621 1.56589 4.56221C1.94315 4.18821 2.41248 4.00081 2.97389 4H21.0261C21.5883 4 22.0577 4.1874 22.4341 4.56221C22.8106 4.93702 22.9992 5.40371 23 5.96229V19.0389C23 19.5975 22.8114 20.0642 22.4341 20.439C22.0569 20.8138 21.5875 21.0008 21.0261 21H2.97511ZM2.97511 19.7857H21.0261C21.2135 19.7857 21.3859 19.708 21.5431 19.5526C21.7004 19.3971 21.7786 19.2255 21.7778 19.0377V5.96229C21.7778 5.77529 21.6996 5.60367 21.5431 5.44743C21.3867 5.29119 21.2143 5.21348 21.0261 5.21429H2.97389C2.78648 5.21429 2.61415 5.292 2.45689 5.44743C2.29963 5.60286 2.22141 5.77448 2.22222 5.96229V19.0389C2.22222 19.2251 2.30044 19.3963 2.45689 19.5526C2.61333 19.7088 2.78567 19.7865 2.97389 19.7857"/>
</mask>
<path d="M14.6327 13.061H19.6157V11.8467H14.6327V13.061ZM14.6327 9.69743H19.6157V8.48314H14.6327V9.69743ZM4.38433 16.5169H12.4706V16.3153C12.4706 15.607 12.112 15.0585 11.395 14.6699C10.678 14.2814 9.68878 14.0871 8.42744 14.0871C7.16611 14.0871 6.17652 14.2814 5.45867 14.6699C4.74081 15.0585 4.3827 15.607 4.38433 16.3153V16.5169ZM8.42744 12.126C8.94322 12.126 9.37752 11.9507 9.73033 11.6002C10.084 11.2489 10.2608 10.817 10.2608 10.3046C10.2608 9.79214 10.084 9.36067 9.73033 9.01014C9.3767 8.65962 8.94241 8.48395 8.42744 8.48314C7.91248 8.48233 7.47818 8.658 7.12456 9.01014C6.77093 9.36229 6.59411 9.79376 6.59411 10.3046C6.59411 10.8154 6.77093 11.2473 7.12456 11.6002C7.47818 11.9532 7.91248 12.1284 8.42744 12.126ZM2.97511 21C2.41207 21 1.94233 20.813 1.56589 20.439C1.18944 20.065 1.00081 19.5979 1 19.0377V5.96229C1 5.4029 1.18863 4.93621 1.56589 4.56221C1.94315 4.18821 2.41248 4.00081 2.97389 4H21.0261C21.5883 4 22.0577 4.1874 22.4341 4.56221C22.8106 4.93702 22.9992 5.40371 23 5.96229V19.0389C23 19.5975 22.8114 20.0642 22.4341 20.439C22.0569 20.8138 21.5875 21.0008 21.0261 21H2.97511ZM2.97511 19.7857H21.0261C21.2135 19.7857 21.3859 19.708 21.5431 19.5526C21.7004 19.3971 21.7786 19.2255 21.7778 19.0377V5.96229C21.7778 5.77529 21.6996 5.60367 21.5431 5.44743C21.3867 5.29119 21.2143 5.21348 21.0261 5.21429H2.97389C2.78648 5.21429 2.61415 5.292 2.45689 5.44743C2.29963 5.60286 2.22141 5.77448 2.22222 5.96229V19.0389C2.22222 19.2251 2.30044 19.3963 2.45689 19.5526C2.61333 19.7088 2.78567 19.7865 2.97389 19.7857" fill="#525F63"/>
<path d="M2.37222 19.7857V5.21429H2.07222V19.7857H2.37222ZM14.6327 13.061H14.3327V13.361H14.6327V13.061ZM19.6157 13.061V13.361H19.9157V13.061H19.6157ZM19.6157 11.8467H19.9157V11.5467H19.6157V11.8467ZM14.6327 11.8467V11.5467H14.3327V11.8467H14.6327ZM14.6327 9.69743H14.3327V9.99743H14.6327V9.69743ZM19.6157 9.69743V9.99743H19.9157V9.69743H19.6157ZM19.6157 8.48314H19.9157V8.18314H19.6157V8.48314ZM14.6327 8.48314V8.18314H14.3327V8.48314H14.6327ZM4.38433 16.5169H4.08433V16.8169H4.38433V16.5169ZM12.4706 16.5169V16.8169H12.7706V16.5169H12.4706ZM4.38433 16.3153H4.68433L4.68433 16.3146L4.38433 16.3153ZM8.42744 12.126V11.826L8.42603 11.826L8.42744 12.126ZM1 19.0377H0.7L0.7 19.0381L1 19.0377ZM2.97389 4V3.7L2.97346 3.7L2.97389 4ZM23 5.96229H23.3V5.96185L23 5.96229ZM21.0261 21L21.0265 20.7H21.0261V21ZM21.7778 19.0377H21.4778L21.4778 19.039L21.7778 19.0377ZM21.0261 5.21429V5.51429L21.0274 5.51428L21.0261 5.21429ZM2.22222 5.96229H2.52223L2.52222 5.96098L2.22222 5.96229ZM14.6327 13.361H19.6157V12.761H14.6327V13.361ZM19.9157 13.061V11.8467H19.3157V13.061H19.9157ZM19.6157 11.5467H14.6327V12.1467H19.6157V11.5467ZM14.3327 11.8467V13.061H14.9327V11.8467H14.3327ZM14.6327 9.99743H19.6157V9.39743H14.6327V9.99743ZM19.9157 9.69743V8.48314H19.3157V9.69743H19.9157ZM19.6157 8.18314H14.6327V8.78314H19.6157V8.18314ZM14.3327 8.48314V9.69743H14.9327V8.48314H14.3327ZM4.38433 16.8169H12.4706V16.2169H4.38433V16.8169ZM12.7706 16.5169V16.3153H12.1706V16.5169H12.7706ZM12.7706 16.3153C12.7706 15.4781 12.334 14.8376 11.5379 14.4062L11.2521 14.9337C11.8901 15.2794 12.1706 15.7358 12.1706 16.3153H12.7706ZM11.5379 14.4062C10.7594 13.9843 9.71387 13.7871 8.42744 13.7871V14.3871C9.66369 14.3871 10.5965 14.5784 11.2521 14.9337L11.5379 14.4062ZM8.42744 13.7871C7.14099 13.7871 6.09512 13.9843 5.31586 14.4061L5.60148 14.9338C6.25791 14.5784 7.19123 14.3871 8.42744 14.3871V13.7871ZM5.31586 14.4061C4.51886 14.8375 4.08241 15.4783 4.08433 16.316L4.68433 16.3146C4.683 15.7356 4.96277 15.2795 5.60148 14.9338L5.31586 14.4061ZM4.08433 16.3153V16.5169H4.68433V16.3153H4.08433ZM8.42744 12.426C9.01917 12.426 9.53047 12.2217 9.94177 11.813L9.51889 11.3874C9.22456 11.6798 8.86727 11.826 8.42744 11.826V12.426ZM9.94177 11.813C10.3538 11.4036 10.5608 10.8944 10.5608 10.3046H9.96078C9.96078 10.7396 9.81409 11.0941 9.51889 11.3874L9.94177 11.813ZM10.5608 10.3046C10.5608 9.71473 10.3538 9.20575 9.94153 8.79708L9.51914 9.22321C9.81411 9.51558 9.96078 9.86955 9.96078 10.3046H10.5608ZM9.94153 8.79708C9.52973 8.38889 9.01881 8.18407 8.42792 8.18314L8.42697 8.78314C8.86601 8.78383 9.22368 8.93035 9.51914 9.22321L9.94153 8.79708ZM8.42792 8.18314C7.83628 8.18221 7.32482 8.38735 6.91287 8.79756L7.33624 9.22272C7.63155 8.92865 7.98869 8.78245 8.42697 8.78314L8.42792 8.18314ZM6.91287 8.79756C6.50123 9.20747 6.29411 9.71608 6.29411 10.3046H6.89411C6.89411 9.87144 7.04062 9.5171 7.33624 9.22272L6.91287 8.79756ZM6.29411 10.3046C6.29411 10.893 6.50121 11.4019 6.91263 11.8125L7.33648 11.3879C7.04064 11.0926 6.89411 10.7377 6.89411 10.3046H6.29411ZM6.91263 11.8125C7.32476 12.2239 7.83669 12.4288 8.42886 12.426L8.42603 11.826C7.98827 11.8281 7.63161 11.6824 7.33648 11.3879L6.91263 11.8125ZM2.97511 20.7C2.48594 20.7 2.09388 20.5407 1.77733 20.2262L1.35445 20.6518C1.79079 21.0853 2.33821 21.3 2.97511 21.3V20.7ZM1.77733 20.2262C1.46087 19.9118 1.30071 19.5227 1.3 19.0373L0.7 19.0381C0.700924 19.6732 0.918019 20.2182 1.35445 20.6518L1.77733 20.2262ZM1.3 19.0377V5.96229H0.7V19.0377H1.3ZM1.3 5.96229C1.3 5.4782 1.45993 5.08969 1.7771 4.77526L1.35468 4.34916C0.917327 4.78274 0.7 5.32761 0.7 5.96229H1.3ZM1.7771 4.77526C2.09484 4.46026 2.4869 4.3007 2.97432 4.3L2.97346 3.7C2.33806 3.70092 1.79145 3.91616 1.35468 4.34916L1.7771 4.77526ZM2.97389 4.3H21.0261V3.7H2.97389V4.3ZM21.0261 4.3C21.5141 4.3 21.9058 4.4595 22.2224 4.77481L22.6458 4.34962C22.2096 3.91531 21.6625 3.7 21.0261 3.7V4.3ZM22.2224 4.77481C22.5393 5.09029 22.6993 5.47923 22.7 5.96272L23.3 5.96185C23.2991 5.3282 23.0818 4.78376 22.6458 4.34962L22.2224 4.77481ZM22.7 5.96229V19.0389H23.3V5.96229H22.7ZM22.7 19.0389C22.7 19.5221 22.5401 19.9108 22.2227 20.2262L22.6456 20.6518C23.0826 20.2176 23.3 19.6729 23.3 19.0389H22.7ZM22.2227 20.2262C21.9051 20.5417 21.5135 20.7007 21.0265 20.7L21.0257 21.3C21.6616 21.3009 22.2086 21.0859 22.6456 20.6518L22.2227 20.2262ZM21.0261 20.7H2.97511V21.3H21.0261V20.7ZM2.97511 20.0857H21.0261V19.4857H2.97511V20.0857ZM21.0261 20.0857C21.3065 20.0857 21.5514 19.9662 21.754 19.7659L21.3322 19.3392C21.2203 19.4498 21.1205 19.4857 21.0261 19.4857V20.0857ZM21.754 19.7659C21.9576 19.5647 22.079 19.3191 22.0778 19.0364L21.4778 19.039C21.4782 19.132 21.4431 19.2296 21.3322 19.3392L21.754 19.7659ZM22.0778 19.0377V5.96229H21.4778V19.0377H22.0778ZM22.0778 5.96229C22.0778 5.68129 21.9568 5.43663 21.7551 5.23516L21.3311 5.6597C21.4423 5.7707 21.4778 5.86928 21.4778 5.96229H22.0778ZM21.7551 5.23516C21.5528 5.03307 21.3069 4.91308 21.0248 4.91429L21.0274 5.51428C21.1218 5.51388 21.2206 5.54931 21.3311 5.6597L21.7551 5.23516ZM21.0261 4.91429H2.97389V5.51429H21.0261V4.91429ZM2.97389 4.91429C2.69348 4.91429 2.44857 5.03385 2.246 5.23406L2.66778 5.6608C2.77972 5.55015 2.87948 5.51429 2.97389 5.51429V4.91429ZM2.246 5.23406C2.04238 5.43531 1.921 5.68092 1.92222 5.96359L2.52222 5.96098C2.52182 5.86803 2.55688 5.7704 2.66778 5.6608L2.246 5.23406ZM1.92222 5.96229V19.0389H2.52222V5.96229H1.92222ZM1.92222 19.0389C1.92222 19.3195 2.04345 19.5637 2.2449 19.7648L2.66888 19.3403C2.55744 19.229 2.52222 19.1308 2.52222 19.0389H1.92222ZM2.2449 19.7648C2.44725 19.9669 2.69311 20.0869 2.97518 20.0857L2.9726 19.4857C2.87822 19.4861 2.77942 19.4507 2.66888 19.3403L2.2449 19.7648Z" fill="#525F63" mask="url(#path-1-outside-1_1861_1831)"/>
</svg>
