<?xml version="1.0" encoding="UTF-8"?>
<svg version="1.1" xmlns="http://www.w3.org/2000/svg" width="128" height="128" viewBox="0 0 512 512" preserveAspectRatio="xMidYMid meet">
<path d="M0 0 C0.80537007 -0.00495952 1.61074014 -0.00991903 2.44051537 -0.01502883 C5.13828071 -0.02797868 7.8355506 -0.01960222 10.53332806 -0.01129913 C12.48740146 -0.01618832 14.44147197 -0.02237826 16.39553756 -0.02975702 C21.76480536 -0.04617611 27.13392652 -0.04383457 32.50321066 -0.03838205 C38.29408076 -0.03571429 44.08491155 -0.05023892 49.8757658 -0.06247711 C61.2207563 -0.08354414 72.56569571 -0.08807123 83.91070346 -0.08628923 C93.13147242 -0.08498222 102.35222542 -0.08878263 111.57299137 -0.09621429 C114.22782808 -0.09831346 116.8826648 -0.10041106 119.53750151 -0.10250711 C120.19751352 -0.10303111 120.85752553 -0.1035551 121.53753791 -0.10409497 C140.10053851 -0.11867793 158.66353341 -0.12696092 177.22653961 -0.12234497 C177.92630108 -0.12217302 178.62606255 -0.12200106 179.34702891 -0.1218239 C182.89365786 -0.12093501 186.44028681 -0.1199902 189.98691574 -0.11902589 C190.69128079 -0.11883485 191.39564584 -0.11864382 192.12135529 -0.118447 C193.5457527 -0.11805991 194.97015012 -0.11766958 196.39454753 -0.11727602 C218.55622207 -0.11130652 240.71779218 -0.12674215 262.87944317 -0.15888214 C287.78169202 -0.19496611 312.68387466 -0.2142908 337.5861513 -0.20934343 C350.7700601 -0.20709779 363.95386537 -0.21235592 377.13775349 -0.23723602 C388.361895 -0.25823723 399.58587623 -0.26185276 410.8100243 -0.24293643 C416.53684771 -0.23377137 422.26337217 -0.23265953 427.99017239 -0.25329208 C433.23408648 -0.27197595 438.47745623 -0.26752719 443.72134944 -0.24474627 C445.6169995 -0.24055402 447.51269109 -0.24478146 449.40829728 -0.25834221 C469.55162015 -0.39261379 469.55162015 -0.39261379 477.65204936 7.13849497 C485.31512251 15.14876109 485.20045185 23.5607677 485.15837383 34.12830353 C485.16326521 35.64514911 485.16945616 37.16199097 485.17683172 38.67882651 C485.19322326 42.83954025 485.19091492 47.00006442 485.18545675 51.16079915 C485.18278557 55.65104883 485.19732004 60.14124809 485.20955181 64.63147736 C485.23060457 73.42574354 485.23514674 82.21994379 485.23336393 91.0142322 C485.23205617 98.16311095 485.23586112 105.31196915 485.24328899 112.46084404 C485.2453882 114.52028058 485.2474858 116.57971712 485.24958181 118.63915366 C485.25114711 120.17673222 485.25114711 120.17673222 485.25274402 121.74537297 C485.27164591 141.13141834 485.2705964 160.51742586 485.26377469 179.90347662 C485.25819979 197.63401744 485.27902253 215.36441374 485.31213516 233.09492079 C485.34587778 251.30422297 485.36103974 269.51345592 485.35641813 287.72278994 C485.35417396 297.94446895 485.35940902 308.16601441 485.38431072 318.3876667 C485.40533125 327.0902345 485.40890839 335.79259551 485.39001113 344.49517182 C485.38085778 348.93395689 485.37969785 353.37235649 485.40036678 357.81111145 C485.41909538 361.87821058 485.41455266 365.94460903 485.39182097 370.01168164 C485.38763991 371.47934017 485.39181869 372.94705262 485.40541691 374.41465411 C485.48790026 383.97106342 484.71050433 391.99015474 478.02200747 399.2822755 C471.21935974 405.69040389 463.11261763 407.51198401 453.99324322 407.50336456 C452.86591274 407.50473923 451.73858227 407.50611389 450.57709026 407.50753021 C448.74397541 407.5021373 448.74397541 407.5021373 446.87382793 407.49663544 C444.92667637 407.49685448 444.92667637 407.49685448 442.94018841 407.49707794 C439.39312221 407.4973641 435.84609004 407.49149671 432.29903173 407.48450398 C428.58746451 407.47824023 424.87589645 407.47766426 421.16432476 407.47647858 C414.14153077 407.47337416 407.11875239 407.46517278 400.09596527 407.45512909 C392.09839883 407.4439403 384.10083164 407.43845053 376.10325933 407.43343365 C359.65681863 407.42298942 343.21039364 407.40540723 326.76396465 407.38311005 C326.64653134 412.07574925 326.59932458 416.76220346 326.61442852 421.4562912 C326.60999328 423.04914713 326.58706115 424.64207119 326.5446043 426.23436737 C326.13094059 435.78273896 326.13094059 435.78273896 329.94812298 444.21591949 C334.45208772 447.85588786 339.39896415 450.56377406 344.8381834 452.5588913 C351.97134415 455.38207661 358.44407144 458.9878907 365.07646465 462.82061005 C367.07170122 463.92502464 369.06776473 465.02794691 371.0647459 466.1292038 C372.46974346 466.94614716 372.46974346 466.94614716 373.90312481 467.77959442 C376.76628395 469.43885803 376.76628395 469.43885803 379.90214825 470.79912567 C383.10344687 472.40261255 385.34280137 473.73600517 387.76396465 476.38311005 C389.03447214 480.93567962 389.10442671 485.20938652 388.86845684 489.88115692 C388.7637393 492.01269711 388.74544166 494.13204349 388.74052715 496.26592255 C388.52993327 506.23564181 388.52993327 506.23564181 385.98385906 510.04981804 C381.05656529 513.62037462 376.44536979 513.07417157 370.50346661 513.01802826 C368.61574897 513.02972819 368.61574897 513.02972819 366.68989563 513.04166448 C363.19893392 513.06254684 359.70865518 513.05221706 356.21769094 513.03673339 C352.45209298 513.0254292 348.68661318 513.0428779 344.92103863 513.056633 C337.54518022 513.07888003 330.16957603 513.07405778 322.79370761 513.05956979 C316.79985481 513.04828327 310.80607332 513.04674409 304.81221294 513.05218887 C303.53317765 513.05333812 303.53317765 513.05333812 302.22830325 513.05451059 C300.49614356 513.05610919 298.76398388 513.05773026 297.03182423 513.05937354 C280.78480507 513.07363533 264.53792691 513.0572316 248.29093087 513.03037171 C234.34665015 513.00803252 220.40257755 513.01191253 206.45830059 513.03496552 C190.26990074 513.06171596 174.08162451 513.072262 157.89320564 513.0569042 C156.1673759 513.05531143 154.44154614 513.05373958 152.71571636 513.05218887 C151.8665489 513.0514175 151.01738144 513.05064612 150.14248163 513.04985137 C144.15500188 513.04553209 138.16760048 513.0528258 132.18013287 513.06458664 C124.88452524 513.07860181 117.58918662 513.07483259 110.29360986 513.04818292 C106.57036516 513.03503124 102.84756916 513.02991478 99.12432766 513.04642868 C95.09064775 513.06404906 91.05810326 513.04302846 87.0244627 513.01802826 C85.84402543 513.02918187 84.66358816 513.04033548 83.44738007 513.05182707 C75.55442783 512.95651482 75.55442783 512.95651482 71.54605389 510.04882622 C68.31878674 505.22135851 68.7180653 499.81786042 68.67265606 494.200737 C68.63911045 492.07982797 68.50995645 489.97833423 68.3772459 487.86162567 C68.24598872 483.80805979 68.51583786 480.28498624 69.76396465 476.38311005 C73.60996435 472.57608138 77.91105373 470.60302361 82.76396465 468.38311005 C84.76175455 467.2711176 86.75058196 466.14282568 88.7288084 464.9963913 C90.19060528 464.1905661 90.19060528 464.1905661 91.6819334 463.36846161 C93.76980829 462.21175731 95.84603281 461.03386307 97.91240215 459.83916473 C104.15548133 456.24809511 110.26794884 453.19639236 117.06108379 450.78130341 C124.23555915 447.12562377 124.23555915 447.12562377 129.76396465 441.38311005 C131.07273546 435.53496648 130.98380602 429.86353153 130.85771465 423.89873505 C130.85828174 422.29602589 130.86312526 420.69331222 130.87236309 419.09062958 C130.88562451 415.18632866 130.84073032 411.28663644 130.76396465 407.38311005 C129.74823926 407.38587543 129.74823926 407.38587543 128.71199417 407.38869667 C112.21038308 407.43292871 95.70879085 407.46599236 79.20713425 407.48673439 C71.22695119 407.49703253 63.2468078 407.51106482 55.2666502 407.53398895 C48.30848123 407.55396769 41.350341 407.56683711 34.39214414 407.57128704 C30.71025753 407.57388684 27.02845309 407.57996684 23.3465929 407.59457016 C19.22925122 407.61076719 15.11205101 407.61108686 10.99467754 407.61016083 C9.7833868 407.61735138 8.57209606 407.62454193 7.32409954 407.63195038 C-3.17979044 407.60642691 -12.12147891 406.59943228 -20.23603535 399.38311005 C-24.98278335 393.55167539 -27.35716285 388.8701617 -27.37304974 381.2947073 C-27.37812428 380.01301157 -27.38319882 378.73131584 -27.38842714 377.41078085 C-27.38902883 375.98016548 -27.38952791 374.54955007 -27.38993549 373.11893463 C-27.3939497 371.60554471 -27.39838786 370.09215586 -27.40321505 368.57876831 C-27.41519123 364.40907411 -27.42083143 360.23939147 -27.4253962 356.06968343 C-27.43134841 351.57665266 -27.44295927 347.08363575 -27.45368671 342.59061432 C-27.47822045 331.73373661 -27.4928398 320.8768543 -27.50574678 310.01995739 C-27.50945817 306.95383262 -27.51343145 303.8877083 -27.51749945 300.82158399 C-27.54273666 281.78476458 -27.56479163 262.74794447 -27.57722759 243.71111202 C-27.58015734 239.30058985 -27.58311899 234.89006771 -27.586133 230.47954559 C-27.58687905 229.38331897 -27.5876251 228.28709234 -27.58839376 227.15764672 C-27.60104629 209.40099593 -27.6342673 191.64444531 -27.67593484 173.88784134 C-27.71835636 155.66059738 -27.74192293 137.43340469 -27.74714816 119.20611149 C-27.75056215 108.97094412 -27.76231586 98.73593323 -27.79525089 88.50081444 C-27.8232556 79.78352762 -27.83424889 71.06642937 -27.82305543 62.34910106 C-27.81786976 57.90223051 -27.82074947 53.45575481 -27.84552097 49.00894165 C-27.86802946 44.9343016 -27.86726155 40.86033964 -27.8483171 36.78568757 C-27.84551929 35.31520942 -27.85110355 33.84468513 -27.86613004 32.3742811 C-27.95786143 22.80965855 -27.19871281 14.76492743 -20.48059785 7.47941107 C-14.48478869 1.80110092 -8.1270519 -0.07093247 0 0 Z " fill="#2080E8" transform="translate(27.236035346984863,-0.38311004638671875)"/>
<path d="M0 0 C168.96 0 337.92 0 512 0 C512 56.90740741 512 56.90740741 503.625 65.4375 C496.84293502 70.64541974 489.61921672 72.12818451 481.22927856 72.12025452 C480.10194809 72.12162918 478.97461761 72.12300385 477.81312561 72.12442017 C476.59104904 72.12082489 475.36897247 72.11722961 474.10986328 72.11352539 C472.16271172 72.11374443 472.16271172 72.11374443 470.17622375 72.1139679 C466.62915756 72.11425405 463.08212539 72.10838666 459.53506708 72.10139394 C455.82349986 72.09513018 452.1119318 72.09455421 448.40036011 72.09336853 C441.37756611 72.09026412 434.35478774 72.08206274 427.33200061 72.07201904 C419.33443418 72.06083025 411.33686699 72.05534049 403.33929467 72.05032361 C386.89285398 72.03987937 370.44642899 72.02229718 354 72 C353.88256668 76.69263921 353.83535993 81.37909341 353.85046387 86.07318115 C353.84602863 87.66603709 353.8230965 89.25896115 353.78063965 90.85125732 C353.36697594 100.39962892 353.36697594 100.39962892 357.18415833 108.83280945 C361.68812306 112.47277782 366.63499949 115.18066401 372.07421875 117.17578125 C379.2073795 119.99896656 385.68010679 123.60478065 392.3125 127.4375 C394.30773656 128.5419146 396.30380007 129.64483687 398.30078125 130.74609375 C399.70577881 131.56303711 399.70577881 131.56303711 401.13916016 132.39648438 C404.0023193 134.05574798 404.0023193 134.05574798 407.13818359 135.41601562 C410.33948221 137.01950251 412.57883672 138.35289512 415 141 C416.27050749 145.55256958 416.34046205 149.82627648 416.10449219 154.49804688 C415.99977465 156.62958706 415.98147701 158.74893344 415.9765625 160.8828125 C415.76596861 170.85253176 415.76596861 170.85253176 413.21989441 174.66670799 C408.29260064 178.23726458 403.68140513 177.69106153 397.73950195 177.63491821 C395.85178432 177.64661814 395.85178432 177.64661814 393.92593098 177.65855443 C390.43496927 177.67943679 386.94469053 177.66910701 383.45372629 177.65362334 C379.68812833 177.64231915 375.92264853 177.65976786 372.15707397 177.67352295 C364.78121556 177.69576998 357.40561138 177.69094773 350.02974296 177.67645974 C344.03589016 177.66517323 338.04210866 177.66363405 332.04824829 177.66907883 C330.76921299 177.67022807 330.76921299 177.67022807 329.4643386 177.67140054 C327.73217891 177.67299915 326.00001923 177.67462021 324.26785958 177.6762635 C308.02084042 177.69052529 291.77396225 177.67412156 275.52696621 177.64726166 C261.5826855 177.62492247 247.6386129 177.62880248 233.69433594 177.65185547 C217.50593609 177.67860591 201.31765985 177.68915195 185.12924099 177.67379415 C183.40341125 177.67220138 181.67758149 177.67062953 179.95175171 177.66907883 C179.10258425 177.66830745 178.25341678 177.66753607 177.37851697 177.66674132 C171.39103723 177.66242204 165.40363582 177.66971576 159.41616821 177.68147659 C152.12056058 177.69549176 144.82522197 177.69172255 137.5296452 177.66507287 C133.8064005 177.65192119 130.08360451 177.64680473 126.36036301 177.66331863 C122.3266831 177.68093902 118.29413861 177.65991841 114.26049805 177.63491821 C113.08006078 177.64607182 111.89962351 177.65722543 110.68341541 177.66871703 C102.79046317 177.57340478 102.79046317 177.57340478 98.78208923 174.66571617 C95.55482208 169.83824846 95.95410065 164.43475038 95.90869141 158.81762695 C95.8751458 156.69671792 95.7459918 154.59522419 95.61328125 152.47851562 C95.48202407 148.42494975 95.75187321 144.90187619 97 141 C100.8459997 137.19297133 105.14708908 135.21991357 110 133 C111.99778989 131.88800756 113.98661731 130.75971564 115.96484375 129.61328125 C116.939375 129.07606445 117.91390625 128.53884766 118.91796875 127.98535156 C121.00584364 126.82864727 123.08206816 125.65075302 125.1484375 124.45605469 C131.39151668 120.86498506 137.50398419 117.81328231 144.29711914 115.39819336 C151.4715945 111.74251372 151.4715945 111.74251372 157 106 C158.3087708 100.15185644 158.21984136 94.48042148 158.09375 88.515625 C158.09431709 86.91291584 158.0991606 85.31020217 158.10839844 83.70751953 C158.12165985 79.80321862 158.07676567 75.9035264 158 72 C156.98427461 72.00276538 156.98427461 72.00276538 155.94802952 72.00558662 C139.44641843 72.04981866 122.9448262 72.08288232 106.44316959 72.10362434 C98.46298654 72.11392248 90.48284314 72.12795477 82.50268555 72.15087891 C75.54451658 72.17085765 68.58637634 72.18372706 61.62817949 72.18817699 C57.94629288 72.19077679 54.26448844 72.19685679 50.58262825 72.21146011 C46.46528657 72.22765715 42.34808636 72.22797682 38.23071289 72.22705078 C37.01942215 72.23424133 35.80813141 72.24143188 34.56013489 72.24884033 C24.0562449 72.22331686 15.11455644 71.21632224 7 64 C-8.34918418 45.14335025 0 29.26773525 0 0 Z " fill="#CBD0DA" transform="translate(0,335)"/>
<path d="M0 0 C24.37875 -0.103125 48.7575 -0.20625 73.875 -0.3125 C81.56280762 -0.35802002 89.25061523 -0.40354004 97.17138672 -0.45043945 C106.58422852 -0.47302246 106.58422852 -0.47302246 110.99563599 -0.47721863 C114.06621492 -0.48186303 117.13635839 -0.50054362 120.20681763 -0.52787781 C124.13225407 -0.56235648 128.05706383 -0.57242267 131.98263764 -0.56536138 C133.41774901 -0.56683633 134.85288389 -0.57664386 136.28786445 -0.59607565 C145.75816525 -0.71828553 153.69505647 0.11118135 160.90502739 6.75559521 C168.46903405 14.74868334 168.42528537 22.96182822 168.34057617 33.47241211 C168.33965626 34.96509814 168.34005918 36.45778548 168.34167194 37.95047092 C168.342347 41.93437029 168.32500679 45.91799728 168.30384064 49.90183258 C168.28670847 53.6452161 168.28594872 57.38853462 168.28381348 61.13195801 C168.26809484 72.0671745 168.22621116 83.00234073 168.1875 93.9375 C168.125625 118.378125 168.06375 142.81875 168 168 C112.56 168 57.12 168 0 168 C0 112.56 0 57.12 0 0 Z " fill="#2080E8" transform="translate(344,0)"/>
<path d="M0 0 C55.44 0 110.88 0 168 0 C168 49.5 168 99 168 150 C112.56 150 57.12 150 0 150 C0 100.5 0 51 0 0 Z " fill="#2081E8" transform="translate(0,185)"/>
<path d="M0 0 C46.86 0 93.72 0 142 0 C142 55.44 142 110.88 142 168 C95.14 168 48.28 168 0 168 C0 112.56 0 57.12 0 0 Z " fill="#2080E8" transform="translate(185,0)"/>
<path d="M0 0 C46.86 0 93.72 0 142 0 C142 49.5 142 99 142 150 C95.14 150 48.28 150 0 150 C0 100.5 0 51 0 0 Z " fill="#1F80E8" transform="translate(185,185)"/>
<path d="M0 0 C5.61 0 11.22 0 17 0 C17 55.44 17 110.88 17 168 C63.86 168 110.72 168 159 168 C159 112.56 159 57.12 159 0 C164.61 0 170.22 0 176 0 C176 55.44 176 110.88 176 168 C231.44 168 286.88 168 344 168 C344 173.61 344 179.22 344 185 C288.56 185 233.12 185 176 185 C176 234.5 176 284 176 335 C170.39 335 164.78 335 159 335 C159 285.5 159 236 159 185 C112.14 185 65.28 185 17 185 C17 234.5 17 284 17 335 C11.39 335 5.78 335 0 335 C0 285.5 0 236 0 185 C-55.44 185 -110.88 185 -168 185 C-168 179.39 -168 173.78 -168 168 C-112.56 168 -57.12 168 0 168 C0 112.56 0 57.12 0 0 Z " fill="#006DD9" transform="translate(168,0)"/>
<path d="M0 0 C104.94 0 209.88 0 318 0 C318 9.9 318 19.8 318 30 C312.37496757 35.62503243 312.37496757 35.62503243 307.58857727 35.6292057 C306.50881968 35.64224444 305.4290621 35.65528318 304.31658459 35.66871703 C302.54592868 35.65198661 302.54592868 35.65198661 300.73950195 35.63491821 C298.85178432 35.64661814 298.85178432 35.64661814 296.92593098 35.65855443 C293.43496927 35.67943679 289.94469053 35.66910701 286.45372629 35.65362334 C282.68812833 35.64231915 278.92264853 35.65976786 275.15707397 35.67352295 C267.78121556 35.69576998 260.40561138 35.69094773 253.02974296 35.67645974 C247.03589016 35.66517323 241.04210866 35.66363405 235.04824829 35.66907883 C233.76921299 35.67022807 233.76921299 35.67022807 232.4643386 35.67140054 C230.73217891 35.67299915 229.00001923 35.67462021 227.26785958 35.6762635 C211.02084042 35.69052529 194.77396225 35.67412156 178.52696621 35.64726166 C164.5826855 35.62492247 150.6386129 35.62880248 136.69433594 35.65185547 C120.50593609 35.67860591 104.31765985 35.68915195 88.12924099 35.67379415 C86.40341125 35.67220138 84.67758149 35.67062953 82.95175171 35.66907883 C82.10258425 35.66830745 81.25341678 35.66753607 80.37851697 35.66674132 C74.39103723 35.66242204 68.40363582 35.66971576 62.41616821 35.68147659 C55.12056058 35.69549176 47.82522197 35.69172255 40.5296452 35.66507287 C36.8064005 35.65192119 33.08360451 35.64680473 29.36036301 35.66331863 C25.3266831 35.68093902 21.29413861 35.65991841 17.26049805 35.63491821 C16.08006078 35.64607182 14.89962351 35.65722543 13.68341541 35.66871703 C12.60365783 35.65567829 11.52390024 35.64263955 10.41142273 35.6292057 C9.4804008 35.62839394 8.54937887 35.62758218 7.59014416 35.62674582 C5 35 5 35 0 30 C0 20.1 0 10.2 0 0 Z " fill="#BAC0CC" transform="translate(97,477)"/>
<path d="M0 0 C12.88675908 9.65429443 21.71580089 21.55953318 24.3359375 37.75 C25.43867276 53.54880325 21.45227445 68.041874 10.9609375 80.125 C4.86990561 86.4915057 -1.57797528 91.25121226 -9.6640625 94.75 C-10.60765625 95.20052734 -10.60765625 95.20052734 -11.5703125 95.66015625 C-22.72888223 100.27379566 -38.04225788 98.81840256 -48.9921875 94.41015625 C-62.99233341 87.9706952 -72.75476874 78.62321788 -78.71875 64.19921875 C-83.36092228 51.04639729 -83.71579473 35.44431405 -77.6640625 22.75 C-70.40840307 8.9717659 -59.55263272 -0.99384758 -44.7265625 -6.125 C-29.76534072 -10.67966867 -13.12679642 -8.72212387 0 0 Z " fill="#FDC237" transform="translate(452.6640625,43.25)"/>
<path d="M0 0 C1.12687351 0.00334608 1.12687351 0.00334608 2.27651215 0.00675976 C3.06887016 0.00519977 3.86122818 0.00363978 4.67759705 0.00203252 C7.35316536 -0.0019807 10.02867771 0.0012134 12.70424652 0.00434887 C14.61407759 0.00299498 16.5239084 0.00121511 18.43373871 -0.00096118 C23.63606654 -0.00553688 28.83837463 -0.0037454 34.04070282 -0.0005821 C39.47217107 0.0019408 44.90363758 -0.00039584 50.3351059 -0.00196826 C59.45815587 -0.00379017 68.58119777 -0.00138311 77.70424652 0.00337231 C88.26804248 0.00881497 98.83181914 0.00705233 109.39561462 0.00154591 C118.44780646 -0.00298464 127.49999246 -0.00363606 136.55218506 -0.00101542 C141.96640082 0.00054767 147.3806075 0.00074023 152.79482269 -0.00255191 C157.88365843 -0.00542978 162.97246916 -0.00345649 168.06130219 0.00234234 C169.93467416 0.0036704 171.80804822 0.00327507 173.68141937 0.00107968 C176.22746879 -0.00163007 178.77343675 0.00174712 181.3194809 0.00675976 C182.0707299 0.00452904 182.82197891 0.00229832 183.59599304 0 C188.68384667 0.01959356 188.68384667 0.01959356 189.79799652 1.13374341 C189.79799652 12.35374341 189.79799652 23.57374341 189.79799652 35.13374341 C125.11799652 35.13374341 60.43799652 35.13374341 -6.20200348 35.13374341 C-6.20200348 0.0238842 -6.20200348 0.0238842 0 0 Z " fill="#BAC0CC" transform="translate(164.2020034790039,405.8662565946579)"/>
<path d="M0 0 C2.23046875 1.61328125 2.23046875 1.61328125 4 4 C4.390625 7.234375 4.390625 7.234375 4.25 10.75 C4.21390625 11.92046875 4.1778125 13.0909375 4.140625 14.296875 C4.07101563 15.63492188 4.07101563 15.63492188 4 17 C4.6882486 16.98889694 5.37649719 16.97779388 6.08560181 16.96635437 C13.2556662 16.85564704 20.42548739 16.78028467 27.59619141 16.7253418 C30.27180927 16.70303822 32.94608993 16.666114 35.62158203 16.62280273 C39.46924766 16.5620802 43.31600477 16.5337716 47.1640625 16.51171875 C48.35802643 16.48591232 49.55199036 16.4601059 50.78213501 16.43351746 C60.0536992 16.43039314 60.0536992 16.43039314 63.75244141 19.40161133 C66.82373433 22.9523142 66.82373433 22.9523142 66.75 26 C66.77320313 26.9590625 66.77320313 26.9590625 66.796875 27.9375 C65.45987428 31.39797246 63.21751145 33.34375351 60 35 C55.78916035 35.6926078 51.64025779 35.58201931 47.3828125 35.48828125 C45.56437332 35.47766914 45.56437332 35.47766914 43.709198 35.46684265 C39.84716413 35.43891282 35.98659378 35.37617113 32.125 35.3125 C29.50262514 35.28741557 26.8802275 35.26460266 24.2578125 35.24414062 C17.83798001 35.1890898 11.41923792 35.1028217 5 35 C5 40.61 5 46.22 5 52 C6.87703613 51.97905273 8.75407227 51.95810547 10.68798828 51.93652344 C16.90249313 51.87191972 23.11691827 51.82601451 29.33166695 51.79275131 C33.09825591 51.77191146 36.86448024 51.74366092 40.63085938 51.69824219 C44.26836587 51.65465402 47.90552253 51.63083581 51.54327011 51.62049103 C52.92832824 51.61312274 54.31336807 51.59873395 55.69827652 51.57707977 C67.91023649 51.39379838 67.91023649 51.39379838 71.83544922 53.89941406 C74.45307928 56.43969029 74.9504553 57.24031456 75.1875 60.875 C75.00235491 63.96075154 74.77840309 65.51023567 73 68 C69.57784938 70.22749518 66.69571761 70.24289653 62.67089844 70.22705078 C60.74935944 70.22682419 60.74935944 70.22682419 58.78900146 70.22659302 C57.39579106 70.21638051 56.00258224 70.20594853 54.609375 70.1953125 C53.18019814 70.19158064 51.75101872 70.18873448 50.32183838 70.18673706 C46.56694429 70.17911419 42.81220581 70.15947739 39.05737305 70.1373291 C35.22316594 70.11684159 31.38893361 70.10772914 27.5546875 70.09765625 C20.03638752 70.07623012 12.5182156 70.04211056 5 70 C5.00888245 70.56296783 5.01776489 71.12593567 5.0269165 71.70596313 C5.1155807 77.57844871 5.1758131 83.45074336 5.21972656 89.32373047 C5.23981107 91.51391324 5.26708417 93.70404259 5.30175781 95.89404297 C5.35041409 99.04668376 5.37300078 102.19861404 5.390625 105.3515625 C5.41127014 106.32678864 5.43191528 107.30201477 5.45318604 108.30679321 C5.45511497 114.18381745 4.93443628 117.53299814 1 122 C-1.18359375 123.015625 -1.18359375 123.015625 -3.4375 123.25 C-4.17871094 123.35828125 -4.91992188 123.4665625 -5.68359375 123.578125 C-8.64393811 122.83928695 -10.05305414 121.33708272 -11.92525864 118.98352242 C-14.09630332 114.97668324 -13.6912497 110.56975962 -13.64697266 106.11694336 C-13.66011505 104.48907646 -13.66011505 104.48907646 -13.67352295 102.82832336 C-13.69549291 99.24842104 -13.68097238 95.66975818 -13.6640625 92.08984375 C-13.66743104 89.59932722 -13.67228398 87.10881229 -13.67855835 84.61830139 C-13.68686926 78.73461094 -13.66939465 72.85136912 -13.6428045 66.96774441 C-13.62402245 62.27803832 -13.63068028 57.58885659 -13.65185547 52.89916992 C-13.6808238 46.42767186 -13.68539087 39.95668063 -13.66907883 33.48513985 C-13.66574257 31.01915938 -13.66983954 28.55315734 -13.68147659 26.08720207 C-13.69416775 22.64210576 -13.67483024 19.19863709 -13.64697266 15.75366211 C-13.65709381 14.73378204 -13.66721497 13.71390198 -13.67764282 12.66311646 C-13.60649122 7.9164153 -13.55812768 5.7257201 -10.59066772 1.86720276 C-6.59488784 -1.0127232 -4.8319398 -0.69027711 0 0 Z " fill="#285674" transform="translate(225,27)"/>
<path d="M0 0 C3.0928674 2.87454609 3.93983937 4.53070545 4.48101807 8.75227356 C4.49254284 10.23042053 4.48213642 11.70884155 4.45410156 13.18676758 C4.45468567 13.99704407 4.45526978 14.80732056 4.45587158 15.64215088 C4.45309345 18.31005268 4.4220152 20.97682557 4.390625 23.64453125 C4.38316162 25.49825938 4.37746915 27.35199541 4.37347412 29.20573425 C4.35822538 34.0770356 4.31895011 38.94785742 4.2746582 43.81896973 C4.23368911 48.79265863 4.2154596 53.76642526 4.1953125 58.74023438 C4.15245513 68.49369989 4.08421298 78.24681002 4 88 C4.5902446 87.98889694 5.1804892 87.97779388 5.78862 87.96635437 C11.93664403 87.8556634 18.08438467 87.78029255 24.2331543 87.7253418 C26.52721658 87.70021072 28.8211989 87.66610031 31.11499023 87.62280273 C34.41410049 87.56209168 37.71215146 87.53377563 41.01171875 87.51171875 C42.03585373 87.48591232 43.05998871 87.4601059 44.11515808 87.43351746 C51.23107677 87.43071992 51.23107677 87.43071992 55.15942383 90.33911133 C57.39672241 93.57353463 57.57459075 95.14203352 57 99 C55.79293121 102.34265205 55.07943151 102.94704566 52 105 C49.8800602 105.26006222 49.8800602 105.26006222 47.38296509 105.27415466 C46.43526749 105.28412979 45.48756989 105.29410492 44.51115417 105.30438232 C43.47316177 105.305047 42.43516937 105.30571167 41.36572266 105.30639648 C39.72388252 105.31888176 39.72388252 105.31888176 38.0488739 105.33161926 C34.42056755 105.35576936 30.79244077 105.36449741 27.1640625 105.37109375 C24.64683985 105.38005595 22.12961776 105.38917771 19.61239624 105.39845276 C14.33143372 105.41495872 9.05051519 105.42267901 3.76953125 105.42553711 C-2.3308027 105.4291721 -8.43063343 105.45906411 -14.53081357 105.50094169 C-20.40252396 105.53983534 -26.27403486 105.55113002 -32.14586258 105.55226326 C-34.64257156 105.55647514 -37.1392806 105.56894788 -39.63590622 105.58978081 C-43.12669623 105.61659112 -46.61609372 105.61189947 -50.10693359 105.59936523 C-51.14087753 105.61419952 -52.17482147 105.62903381 -53.24009705 105.64431763 C-60.25260016 105.5724988 -60.25260016 105.5724988 -64.14151001 102.59364319 C-67.00821946 98.59296443 -66.68994422 96.82960956 -66 92 C-64.38671875 89.76953125 -64.38671875 89.76953125 -62 88 C-58.765625 87.609375 -58.765625 87.609375 -55.25 87.75 C-54.07953125 87.78609375 -52.9090625 87.8221875 -51.703125 87.859375 C-50.81109375 87.90578125 -49.9190625 87.9521875 -49 88 C-49.02618408 86.8447583 -49.05236816 85.6895166 -49.0793457 84.49926758 C-49.17000348 80.20372974 -49.22730551 75.90827606 -49.2746582 71.61206055 C-49.29976702 69.75449391 -49.33386134 67.89702573 -49.37719727 66.03979492 C-49.43801124 63.36612642 -49.4662452 60.69376635 -49.48828125 58.01953125 C-49.51408768 57.19226028 -49.5398941 56.36498932 -49.56648254 55.51264954 C-49.56859613 51.14487452 -49.41288941 49.51958503 -46.59838867 45.9777832 C-44.08817434 44.06711457 -43.08482956 43.31280586 -40 43.375 C-39.360625 43.36210938 -38.72125 43.34921875 -38.0625 43.3359375 C-34.66816017 44.42881207 -33.20503989 46.22515108 -31 49 C-30.32355347 52.0183034 -30.41562852 54.93918769 -30.51171875 58.01953125 C-30.51879349 58.87810226 -30.52586823 59.73667328 -30.53315735 60.6212616 C-30.56105598 63.35257603 -30.62378309 66.08180958 -30.6875 68.8125 C-30.71258886 70.6685901 -30.73540101 72.52471246 -30.75585938 74.38085938 C-30.80660985 78.92201143 -30.90446049 83.45868846 -31 88 C-25.39 88 -19.78 88 -14 88 C-14.02618408 85.54739746 -14.05236816 83.09479492 -14.0793457 80.56787109 C-14.16225585 72.45750959 -14.21744806 64.3471292 -14.25906086 56.23645592 C-14.28513615 51.31968107 -14.32049643 46.40334102 -14.37719727 41.48681641 C-14.43159082 36.74056358 -14.4614361 31.99472852 -14.47438622 27.24818802 C-14.48361293 25.43887379 -14.50163093 23.62958201 -14.52865028 21.82044601 C-14.5650393 19.28262988 -14.5699414 16.74653184 -14.56762695 14.20849609 C-14.58560333 13.46330719 -14.60357971 12.71811829 -14.62210083 11.9503479 C-14.56547769 6.19843209 -12.94237356 3.88139357 -9 0 C-5.77839187 -1.61080407 -3.42436421 -0.82657067 0 0 Z " fill="#255372" transform="translate(93,36)"/>
<path d="M0 0 C0.74121094 0.09667969 1.48242188 0.19335938 2.24609375 0.29296875 C2.98988281 0.36128906 3.73367187 0.42960938 4.5 0.5 C7.89885631 2.02614121 8.91101243 4.25179968 10.68359375 7.48046875 C11.04395817 10.32476875 11.1930431 12.76518687 11.13769531 15.59716797 C11.13827942 16.38808334 11.13886353 17.17899872 11.13946533 17.99388123 C11.13669285 20.5914294 11.10564181 23.18781016 11.07421875 25.78515625 C11.06675335 27.59261447 11.06106183 29.40008082 11.05706787 31.20755005 C11.041835 35.95225585 11.00257359 40.69646765 10.95825195 45.440979 C10.91724847 50.28740762 10.89904603 55.13391647 10.87890625 59.98046875 C10.83607677 69.48072011 10.76574629 78.98047596 10.68359375 88.48046875 C16.29359375 88.48046875 21.90359375 88.48046875 27.68359375 88.48046875 C27.65740967 87.0828833 27.63122559 85.68529785 27.60424805 84.24536133 C27.51368043 79.05525755 27.45631982 73.86522347 27.40893555 68.67456055 C27.38380652 66.42899831 27.3496976 64.18351775 27.30639648 61.93823242 C27.24567599 58.70861657 27.21736744 55.48008291 27.1953125 52.25 C27.16950607 51.2477388 27.14369965 50.2454776 27.11711121 49.21284485 C27.11430466 42.22279579 27.11430466 42.22279579 30.08520508 38.34887695 C32.58495369 36.55139729 33.66365234 35.79458283 36.68359375 35.85546875 C37.32296875 35.84257812 37.96234375 35.8296875 38.62109375 35.81640625 C42.09233309 36.93404013 43.46488782 38.58737726 45.68359375 41.48046875 C46.37892937 45.0750749 46.26584249 48.60052256 46.171875 52.25 C46.16480026 53.28613937 46.15772552 54.32227875 46.1504364 55.38981628 C46.12249982 58.69160872 46.05976005 61.99169091 45.99609375 65.29296875 C45.97101005 67.53448068 45.94819701 69.77601925 45.92773438 72.01757812 C45.87267581 77.50578955 45.78905656 82.99300696 45.68359375 88.48046875 C46.7730127 88.45952148 47.86243164 88.43857422 48.98486328 88.41699219 C53.04381053 88.3443501 57.10270081 88.29858157 61.16210938 88.26074219 C62.91578854 88.24068165 64.66940128 88.21342624 66.42285156 88.17871094 C68.95003693 88.12994573 71.47633466 88.10744483 74.00390625 88.08984375 C74.78226837 88.06919861 75.56063049 88.04855347 76.36257935 88.02728271 C81.58990964 88.02514943 84.53363836 89.02123448 88.68359375 92.48046875 C90.11021594 95.33371312 89.99393243 97.31501424 89.68359375 100.48046875 C87.88365601 103.18037537 86.59982075 105.02235525 83.68359375 106.48046875 C80.75060018 106.59479942 77.84081993 106.64833933 74.90698242 106.6574707 C73.9978862 106.6640419 73.08878998 106.6706131 72.15214539 106.67738342 C69.13528364 106.69713926 66.11847172 106.70878383 63.1015625 106.71875 C62.07257654 106.72282553 61.04359058 106.72690105 59.98342323 106.73110008 C54.5376976 106.75197012 49.09199723 106.76626806 43.64624023 106.77563477 C38.01693554 106.78670388 32.38802563 106.82110708 26.75886059 106.86080647 C22.43430335 106.8869316 18.10984078 106.89532294 13.78521156 106.89891624 C11.70995733 106.90379246 9.6347076 106.91543576 7.55953026 106.93395424 C4.65549671 106.9582592 1.75249244 106.95739644 -1.15161133 106.95043945 C-2.00946228 106.96324951 -2.86731323 106.97605957 -3.75115967 106.98925781 C-7.80821256 106.95381819 -9.81734251 106.79618602 -13.32670593 104.57609558 C-15.7022948 102.07403649 -16.24782126 101.09773366 -16.62890625 97.66796875 C-16.23844574 93.68527157 -15.20274719 92.21079126 -12.31640625 89.48046875 C-9.671875 88.84375 -9.671875 88.84375 -7.31640625 88.48046875 C-7.32750931 87.45174149 -7.33861237 86.42301422 -7.35005188 85.3631134 C-7.45142423 75.66683002 -7.52636986 65.97065419 -7.57546711 56.27396107 C-7.60155731 51.28877992 -7.63694493 46.30402667 -7.69360352 41.3190918 C-7.74794373 36.50800562 -7.77783113 31.69733092 -7.79079247 26.88596153 C-7.80002874 25.050702 -7.81806533 23.21546491 -7.84505653 21.38038063 C-7.88137447 18.80883817 -7.88635059 16.23899413 -7.8840332 13.66723633 C-7.90200958 12.90910141 -7.91998596 12.15096649 -7.93850708 11.36985779 C-7.89955779 7.37340395 -7.4588572 5.65813125 -4.92570496 2.49882507 C-2.31640625 0.48046875 -2.31640625 0.48046875 0 0 Z " fill="#2C5774" transform="translate(219.31640625,202.51953125)"/>
<path d="M0 0 C2.51666379 1.42345237 3.95121164 2.85365029 6 5 C6 6.32 6 7.64 6 9 C6.80322189 8.99111755 7.60644379 8.98223511 8.43400574 8.9730835 C16.0112286 8.89286688 23.58824499 8.83200005 31.16578197 8.79275131 C35.0613081 8.77189453 38.95648277 8.7436127 42.85180664 8.69824219 C46.61250058 8.65471492 50.3728569 8.63084852 54.13378334 8.62049103 C55.56711452 8.61311188 57.00042765 8.5987018 58.43361473 8.57707977 C60.44408454 8.54796043 62.45489555 8.54636538 64.46557617 8.54589844 C65.60919113 8.53701599 66.75280609 8.52813354 67.93107605 8.51898193 C71.70002258 9.10972038 73.33601392 10.31057422 76 13 C77.125 16.375 77.125 16.375 77 20 C75.27622791 23.02843096 73.15952697 25.42023651 70 27 C67.96769104 27.09152672 65.93231422 27.11751434 63.89794922 27.11352539 C62.61677216 27.11344986 61.33559509 27.11337433 60.01559448 27.11329651 C58.61195843 27.10818948 57.20832277 27.10297348 55.8046875 27.09765625 C54.37265065 27.09579146 52.94061316 27.09436784 51.50857544 27.09336853 C47.73726646 27.08954819 43.96599593 27.07972202 40.19470215 27.06866455 C36.34725464 27.05844005 32.49980093 27.05386868 28.65234375 27.04882812 C21.10154294 27.03809932 13.55078175 27.02050643 6 27 C6 32.61 6 38.22 6 44 C8.02382813 43.94199219 10.04765625 43.88398438 12.1328125 43.82421875 C14.10869263 43.78943213 16.08458058 43.75483031 18.06054688 43.7253418 C19.42630503 43.7003072 20.79193067 43.66626782 22.15722656 43.62280273 C34.96551583 43.22546529 34.96551583 43.22546529 38.8828125 46.26953125 C41.82115287 50.0590145 41.82115287 50.0590145 41.75 53 C41.76546875 53.639375 41.7809375 54.27875 41.796875 54.9375 C40.40278285 58.54573851 38.45827841 60.46591613 35 62 C30.03561783 62.61375345 25.11330668 62.47130602 20.125 62.3125 C18.75524892 62.28739222 17.38545365 62.26458339 16.015625 62.24414062 C12.67595378 62.1853436 9.33854569 62.10319834 6 62 C6.02094727 63.12494873 6.04189453 64.24989746 6.06347656 65.40893555 C6.13601523 69.59272474 6.1818499 73.77645861 6.21972656 77.96069336 C6.23981053 79.7697078 6.26708341 81.57865757 6.30175781 83.38745117 C6.35041892 85.99153621 6.37300051 88.59476115 6.390625 91.19921875 C6.41127014 92.00461594 6.43191528 92.81001312 6.45318604 93.63981628 C6.45477127 97.6296673 6.29650486 99.53363368 4.10058594 102.98754883 C1.61041123 105.3732427 0.6029793 105.91960276 -2.8125 106.375 C-7.04029414 105.87761245 -8.32817564 104.20618923 -11 101 C-12.64662777 97.70674446 -12.16546122 94.0437887 -12.17700195 90.42285156 C-12.18357315 89.53486877 -12.19014435 88.64688599 -12.19691467 87.73199463 C-12.21667143 84.78487061 -12.22831607 81.83779763 -12.23828125 78.890625 C-12.24235678 77.88495232 -12.2464323 76.87927963 -12.25063133 75.84313202 C-12.27150305 70.51944686 -12.28579953 65.19578756 -12.29516602 59.87207031 C-12.30622769 54.37289597 -12.34062181 48.87412659 -12.38033772 43.37509537 C-12.40648501 39.14743294 -12.41485623 34.91986722 -12.41844749 30.69213104 C-12.42331898 28.66515114 -12.43494892 26.63817572 -12.45348549 24.61127472 C-12.47783467 21.77209936 -12.47691946 18.93397439 -12.4699707 16.09472656 C-12.48278076 15.25917236 -12.49559082 14.42361816 -12.50878906 13.56274414 C-12.46147399 8.2515154 -11.53755601 5.2101705 -8 1 C-5.09704195 -0.45147903 -3.22738221 -0.37239025 0 0 Z " fill="#295675" transform="translate(400,203)"/>
<path d="M0 0 C3.40513815 0.099239 4.217095 0.45784656 7.1875 2.5 C9.77175386 6.29562286 9.75626334 7.88739327 9.1875 12.4375 C7.59635647 15.65550507 5.55072031 18.4806005 3.4375 21.375 C2.84839844 22.20837891 2.25929688 23.04175781 1.65234375 23.90039062 C-2.54715703 29.80397149 -6.88829492 35.60288333 -11.28125 41.36352539 C-15.22372106 46.5607138 -18.91117481 51.90782091 -22.5625 57.3125 C-27.0370594 63.92855948 -31.5445457 70.4169808 -36.8125 76.4375 C-37.30105469 76.99953125 -37.78960937 77.5615625 -38.29296875 78.140625 C-40.54189688 80.06001867 -42.77306039 80.22700759 -45.65625 80.0703125 C-53.79467798 77.68186081 -59.75227913 65.11437016 -64.4206543 58.47119141 C-64.95988525 57.70726074 -65.49911621 56.94333008 -66.0546875 56.15625 C-66.77954346 55.11887695 -66.77954346 55.11887695 -67.51904297 54.06054688 C-68.73538102 52.3007433 -68.73538102 52.3007433 -70.8125 51.4375 C-71.0293042 52.088396 -71.2461084 52.73929199 -71.46948242 53.40991211 C-73.30519061 57.54818102 -75.77128628 61.13458851 -78.30078125 64.87890625 C-78.84099411 65.68359848 -79.38120697 66.48829071 -79.93778992 67.31736755 C-81.0793769 69.01424833 -82.22346134 70.70945124 -83.36987305 72.40307617 C-85.11722649 74.98849814 -86.8509342 77.58271005 -88.58398438 80.17773438 C-89.6970951 81.82867922 -90.81100126 83.4790881 -91.92578125 85.12890625 C-92.4405452 85.90190567 -92.95530914 86.67490509 -93.485672 87.47132874 C-96.20612697 91.4627334 -98.70169391 94.75104647 -102.8125 97.4375 C-105.8125 98 -105.8125 98 -108.8125 97.4375 C-111.6875 95.4375 -111.6875 95.4375 -113.8125 92.4375 C-114.91070988 84.79456699 -111.99322161 80.59324637 -107.75 74.41796875 C-106.81293213 73.00914177 -106.81293213 73.00914177 -105.85693359 71.57185364 C-103.85910961 68.57777402 -101.83615796 65.60166248 -99.8125 62.625 C-98.48143851 60.63585834 -97.15199447 58.64563333 -95.82421875 56.65429688 C-76.60945085 27.92588291 -76.60945085 27.92588291 -72.9296875 26.92578125 C-69.38382794 26.64779574 -66.8474152 26.69193864 -63.8984375 28.81640625 C-61.6672925 31.24218305 -59.75079972 33.76825897 -57.8125 36.4375 C-57.29010742 37.15583008 -56.76771484 37.87416016 -56.22949219 38.61425781 C-53.86988913 41.86517804 -51.51396983 45.11728899 -49.20410156 48.40380859 C-48.39537598 49.54970459 -48.39537598 49.54970459 -47.5703125 50.71875 C-47.0870752 51.41033203 -46.60383789 52.10191406 -46.10595703 52.81445312 C-44.88961898 54.5742567 -44.88961898 54.5742567 -42.8125 55.4375 C-42.53647949 54.85967773 -42.26045898 54.28185547 -41.97607422 53.68652344 C-39.96765976 49.804544 -37.40912084 46.28599964 -34.9375 42.6875 C-34.35959717 41.84421143 -33.78169434 41.00092285 -33.1862793 40.13208008 C-28.98058192 34.03642631 -24.626036 28.07388796 -20.14550781 22.17822266 C-16.30103425 17.11774494 -12.58540833 11.97668472 -8.93286133 6.77612305 C-4.51780361 0.51843648 -4.51780361 0.51843648 0 0 Z " fill="#FBC338" transform="translate(140.8125,211.5625)"/>
<path d="M0 0 C15.18694254 0 26.50191261 3.80355804 37.75 14.25 C47.58929962 24.82075834 53 37.6346248 53 52 C35.51 52 18.02 52 0 52 C0 34.84 0 17.68 0 0 Z " fill="#F23A4D" transform="translate(424,36)"/>
<path d="M0 0 C3.0928674 2.87454609 3.93983937 4.53070545 4.48101807 8.75227356 C4.49254284 10.23042053 4.48213642 11.70884155 4.45410156 13.18676758 C4.45468567 13.99704407 4.45526978 14.80732056 4.45587158 15.64215088 C4.45309345 18.31005268 4.4220152 20.97682557 4.390625 23.64453125 C4.38316162 25.49825938 4.37746915 27.35199541 4.37347412 29.20573425 C4.35822538 34.0770356 4.31895011 38.94785742 4.2746582 43.81896973 C4.23368911 48.79265863 4.2154596 53.76642526 4.1953125 58.74023438 C4.15245499 68.49373381 4.08211134 78.24675195 4 88 C-1.94 88 -7.88 88 -14 88 C-14.11303605 77.41217378 -14.20473633 66.82474938 -14.25906086 56.23645592 C-14.28513615 51.31968107 -14.32049643 46.40334102 -14.37719727 41.48681641 C-14.43159082 36.74056358 -14.4614361 31.99472852 -14.47438622 27.24818802 C-14.48361293 25.43887379 -14.50163093 23.62958201 -14.52865028 21.82044601 C-14.5650393 19.28262988 -14.5699414 16.74653184 -14.56762695 14.20849609 C-14.58560333 13.46330719 -14.60357971 12.71811829 -14.62210083 11.9503479 C-14.56547769 6.19843209 -12.94237356 3.88139357 -9 0 C-5.77839187 -1.61080407 -3.42436421 -0.82657067 0 0 Z " fill="#86CF59" transform="translate(93,36)"/>
<path d="M0 0 C0.75023437 0.11472656 1.50046875 0.22945312 2.2734375 0.34765625 C3.02882812 0.43917969 3.78421875 0.53070313 4.5625 0.625 C7.42889243 1.70392299 8.13317341 2.73512626 9.6484375 5.41015625 C9.92348546 8.17922597 10.02817582 10.71764007 9.98901367 13.48339844 C9.98967079 14.69859413 9.98967079 14.69859413 9.99034119 15.93833923 C9.98825404 18.6114832 9.96492674 21.28399708 9.94140625 23.95703125 C9.93581003 25.81219134 9.93154005 27.66735586 9.92854309 29.52252197 C9.91709639 34.40195995 9.88763067 39.28112943 9.85443115 44.16046143 C9.82372653 49.1407915 9.81003691 54.12116502 9.79492188 59.1015625 C9.76276078 68.87123061 9.70999423 78.64062908 9.6484375 88.41015625 C4.0384375 88.41015625 -1.5715625 88.41015625 -7.3515625 88.41015625 C-7.46453829 77.67467535 -7.55626409 66.93958946 -7.61062336 56.20364857 C-7.63671356 51.21846742 -7.67210118 46.23371417 -7.72875977 41.2487793 C-7.78309998 36.43769312 -7.81298738 31.62701842 -7.82594872 26.81564903 C-7.83518499 24.9803895 -7.85322158 23.14515241 -7.88021278 21.31006813 C-7.91653072 18.73852567 -7.92150684 16.16868163 -7.91918945 13.59692383 C-7.93716583 12.83878891 -7.95514221 12.08065399 -7.97366333 11.29954529 C-7.93471971 7.30367264 -7.49203165 5.58576669 -4.96305847 2.42411804 C-2.3515625 0.41015625 -2.3515625 0.41015625 0 0 Z " fill="#FEC336" transform="translate(219.3515625,202.58984375)"/>
<path d="M0 0 C8.38860179 -0.09044315 16.77682324 -0.1637971 25.16578197 -0.20724869 C29.0613081 -0.22810547 32.95648277 -0.2563873 36.85180664 -0.30175781 C40.61250058 -0.34528508 44.3728569 -0.36915148 48.13378334 -0.37950897 C49.56711452 -0.38688812 51.00042765 -0.4012982 52.43361473 -0.42292023 C54.44408454 -0.45203957 56.45489555 -0.45363462 58.46557617 -0.45410156 C59.60919113 -0.46298401 60.75280609 -0.47186646 61.93107605 -0.48101807 C65.70002258 0.10972038 67.33601392 1.31057422 70 4 C71.42248856 8.26746568 71.42267343 10.14390777 69.42504883 14.18994141 C67.3352898 16.52656695 66.12169188 16.97887881 62.99154663 17.52215576 C59.00519624 17.69735113 55.06151951 17.67477761 51.07421875 17.5859375 C49.60164623 17.57473913 48.12905128 17.56620196 46.65644836 17.56021118 C42.79085981 17.53736215 38.92663587 17.47847637 35.06158447 17.4119873 C31.11350972 17.35047785 27.16521323 17.32317791 23.21679688 17.29296875 C15.47717204 17.22872562 7.73895149 17.12323674 0 17 C0 11.39 0 5.78 0 0 Z " fill="#FEC336" transform="translate(406,212)"/>
<path d="M0 0 C8.38860616 -0.11305399 16.77661811 -0.20474504 25.16578197 -0.25906086 C29.06141191 -0.28513253 32.95649273 -0.32048427 36.85180664 -0.37719727 C40.61252026 -0.43160664 44.37270644 -0.46143883 48.13378334 -0.47438622 C49.56714492 -0.48361035 51.00047828 -0.50162371 52.43361473 -0.52865028 C54.44398106 -0.56504759 56.45488047 -0.56704327 58.46557617 -0.56762695 C59.60919113 -0.57873001 60.75280609 -0.58983307 61.93107605 -0.60127258 C65.97188754 0.19041506 67.46629659 1.82419954 70 5 C70.55348638 8.87440468 70.29968563 11.78044012 68 15 C64.57784938 17.22749518 61.69571761 17.24289653 57.67089844 17.22705078 C55.74935944 17.22682419 55.74935944 17.22682419 53.78900146 17.22659302 C52.39579106 17.21638051 51.00258224 17.20594853 49.609375 17.1953125 C48.18019814 17.19158064 46.75101872 17.18873448 45.32183838 17.18673706 C41.56694429 17.17911419 37.81220581 17.15947739 34.05737305 17.1373291 C30.22316594 17.11684159 26.38893361 17.10772914 22.5546875 17.09765625 C15.0363793 17.0762301 7.51823131 17.04105907 0 17 C0 11.39 0 5.78 0 0 Z " fill="#89D156" transform="translate(230,80)"/>
<path d="M0 0 C7.8653389 -0.12369279 15.73011033 -0.21438726 23.59619141 -0.2746582 C26.27180927 -0.29696178 28.94608993 -0.333886 31.62158203 -0.37719727 C35.46924766 -0.4379198 39.31600477 -0.4662284 43.1640625 -0.48828125 C44.35802643 -0.51408768 45.55199036 -0.5398941 46.78213501 -0.56648254 C56.0536992 -0.56960686 56.0536992 -0.56960686 59.75244141 2.40161133 C62.82373433 5.9523142 62.82373433 5.9523142 62.75 9 C62.76546875 9.639375 62.7809375 10.27875 62.796875 10.9375 C61.45694349 14.40555802 59.22910269 16.34841723 56 18 C51.71677873 18.69441068 47.49332217 18.5818542 43.1640625 18.48828125 C41.92957367 18.48120651 40.69508484 18.47413177 39.42318726 18.46684265 C35.48983546 18.43890935 31.5579198 18.37616669 27.625 18.3125 C24.95444789 18.28459581 22.28390929 18.26460333 19.61328125 18.24414062 C13.07496955 18.18908514 6.53772807 18.10281436 0 18 C0 12.06 0 6.12 0 0 Z " fill="#F8C139" transform="translate(229,44)"/>
<path d="M0 0 C7.74127099 -0.07416103 15.48233513 -0.12860822 23.22387695 -0.16479492 C25.85737714 -0.17988057 28.49085221 -0.20035166 31.12426758 -0.22631836 C34.90973104 -0.26271019 38.69486227 -0.2797289 42.48046875 -0.29296875 C43.65772018 -0.30845261 44.83497162 -0.32393646 46.04789734 -0.33988953 C47.69904289 -0.34022942 47.69904289 -0.34022942 49.38354492 -0.34057617 C50.34951096 -0.34723801 51.31547699 -0.35389984 52.31071472 -0.36076355 C55.54214304 0.07272767 57.38177238 1.08153824 60 3 C62.34168764 6.51253146 62.49623677 7.86469356 62 12 C60.20006226 14.69990662 58.916227 16.5418865 56 18 C54.21268076 18.0908238 52.42194511 18.11753799 50.63232422 18.11352539 C49.51131317 18.11344986 48.39030212 18.11337433 47.23532104 18.11329651 C46.02071198 18.10813522 44.80610291 18.10297394 43.5546875 18.09765625 C42.31453888 18.0962413 41.07439026 18.09482635 39.79666138 18.09336853 C36.49881867 18.08871096 33.20102454 18.07972439 29.90319824 18.06866455 C26.53833613 18.05843731 23.17346692 18.05386809 19.80859375 18.04882812 C13.20570761 18.03778268 6.60286325 18.02050971 0 18 C0 12.06 0 6.12 0 0 Z " fill="#EF85C8" transform="translate(406,282)"/>
<path d="M0 0 C0.639375 -0.01289063 1.27875 -0.02578125 1.9375 -0.0390625 C5.40873934 1.07857138 6.78129407 2.73190851 9 5.625 C9.69533562 9.21960615 9.58224874 12.74505381 9.48828125 16.39453125 C9.48120651 17.43067062 9.47413177 18.46681 9.46684265 19.53434753 C9.43890607 22.83613997 9.3761663 26.13622216 9.3125 29.4375 C9.2874163 31.67901193 9.26460326 33.9205505 9.24414062 36.16210938 C9.18908131 41.65039621 9.10281128 47.13740838 9 52.625 C3.06 52.625 -2.88 52.625 -9 52.625 C-9.1236881 46.02310002 -9.21438303 39.42187584 -9.2746582 32.8190918 C-9.29978723 30.57352956 -9.33389615 28.328049 -9.37719727 26.08276367 C-9.43791776 22.85314782 -9.46622631 19.62461416 -9.48828125 16.39453125 C-9.51408768 15.39227005 -9.5398941 14.39000885 -9.56648254 13.3573761 C-9.56928909 6.36732704 -9.56928909 6.36732704 -6.59838867 2.4934082 C-4.09864006 0.69592854 -3.01994141 -0.06088592 0 0 Z " fill="#87D059" transform="translate(256,238.375)"/>
<path d="M0 0 C0.89110474 -0.00004028 1.78220947 -0.00008057 2.70031738 -0.00012207 C4.57974317 0.00522679 6.45916887 0.0227825 8.33837891 0.05175781 C11.20935682 0.09361306 14.07798712 0.09282413 16.94921875 0.0859375 C18.77866208 0.09643083 20.60809335 0.1093697 22.4375 0.125 C23.29283325 0.12520142 24.1481665 0.12540283 25.02941895 0.12561035 C29.72293451 0.21846049 32.91641945 0.53315487 36.71875 3.59375 C38.30518982 6.76662965 38.68674489 10.21489991 37.71875 13.59375 C34.44514098 17.0337753 32.25297014 18.8634506 27.4609375 19.24072266 C25.83886191 19.27345615 24.21603381 19.2777109 22.59375 19.2578125 C21.72862793 19.26259613 20.86350586 19.26737976 19.97216797 19.27230835 C18.15004652 19.27569832 16.3278635 19.26655916 14.50585938 19.24560547 C11.72647713 19.21882446 8.95113256 19.2453813 6.171875 19.27734375 C4.39582447 19.27403949 2.61977645 19.26763291 0.84375 19.2578125 C-0.3939917 19.27299423 -0.3939917 19.27299423 -1.65673828 19.28848267 C-5.8287726 19.20429098 -8.49617782 18.84244802 -11.80395508 16.18115234 C-14.28125 13.59375 -14.28125 13.59375 -15.04296875 11.53125 C-15.01847656 10.891875 -14.99398437 10.2525 -14.96875 9.59375 C-14.97261719 8.954375 -14.97648438 8.315 -14.98046875 7.65625 C-12.44259989 0.17024576 -6.77688434 -0.12990119 0 0 Z " fill="#7B8290" transform="translate(244.28125,361.40625)"/>
<path d="M0 0 C0.639375 -0.01289062 1.27875 -0.02578125 1.9375 -0.0390625 C5.33183983 1.05381207 6.79496011 2.85015108 9 5.625 C9.67644653 8.6433034 9.58437148 11.56418769 9.48828125 14.64453125 C9.48120651 15.50310226 9.47413177 16.36167328 9.46684265 17.2462616 C9.43894402 19.97757603 9.37621691 22.70680958 9.3125 25.4375 C9.28741114 27.2935901 9.26459899 29.14971246 9.24414062 31.00585938 C9.19339015 35.54701143 9.09553951 40.08368846 9 44.625 C3.06 44.625 -2.88 44.625 -9 44.625 C-9.11495023 39.16103232 -9.21443187 33.70127522 -9.2746582 28.23706055 C-9.29976702 26.37949391 -9.33386134 24.52202573 -9.37719727 22.66479492 C-9.43801124 19.99112642 -9.4662452 17.31876635 -9.48828125 14.64453125 C-9.51408768 13.81726028 -9.5398941 12.98998932 -9.56648254 12.13764954 C-9.56859613 7.76987452 -9.41288941 6.14458503 -6.59838867 2.6027832 C-4.08817434 0.69211457 -3.08482956 -0.06219414 0 0 Z " fill="#F7C13A" transform="translate(53,79.375)"/>
<path d="M0 0 C5.59130799 3.47158331 5.59130799 3.47158331 6.52386475 6.95913696 C6.69458479 9.33460994 6.67502767 11.63957785 6.5859375 14.01953125 C6.57744781 14.87810226 6.56895813 15.73667328 6.56021118 16.6212616 C6.52672797 19.35297231 6.4514637 22.0816878 6.375 24.8125 C6.34489358 26.66857704 6.31751895 28.52470053 6.29296875 30.38085938 C6.23205971 34.9226437 6.11466514 39.45798656 6 44 C0.06 44 -5.88 44 -12 44 C-12.06897612 38.82168151 -12.12867654 33.64496506 -12.16479492 28.46655273 C-12.17985553 26.70608104 -12.20030826 24.9456467 -12.22631836 23.18530273 C-12.26282229 20.65078497 -12.27975354 18.11676448 -12.29296875 15.58203125 C-12.31619453 14.40674614 -12.31619453 14.40674614 -12.33988953 13.2077179 C-12.34129652 8.61036726 -11.89831377 5.62660147 -9 2 C-5.45870816 -0.36086122 -4.17249782 -0.57269578 0 0 Z " fill="#EF85C9" transform="translate(294,247)"/>
<path d="M0 0 C0.7528125 -0.00128906 1.505625 -0.00257812 2.28125 -0.00390625 C5.48809268 0.81474197 6.51528908 1.89352119 8.5 4.5625 C9.05767497 7.61251668 8.96533545 10.61157015 8.890625 13.703125 C8.88496521 14.58530701 8.87930542 15.46748901 8.87347412 16.37640381 C8.85111591 19.18899213 8.80092132 22.00029795 8.75 24.8125 C8.72993425 26.72133574 8.71168361 28.63019149 8.6953125 30.5390625 C8.651253 35.21403445 8.58222984 39.88804992 8.5 44.5625 C2.89 44.5625 -2.72 44.5625 -8.5 44.5625 C-8.59195219 39.09900765 -8.67155047 33.63821089 -8.71972656 28.17456055 C-8.73981305 26.31704602 -8.76708778 24.45959449 -8.80175781 22.60229492 C-8.85040737 19.92871537 -8.87299809 17.25597344 -8.890625 14.58203125 C-8.91127014 13.75476028 -8.93191528 12.92748932 -8.95318604 12.07514954 C-8.95474941 8.03673062 -8.80273305 6.04803302 -6.61425781 2.53808594 C-4.20030946 0.28246584 -3.25482037 -0.09474648 0 0 Z " fill="#F385C7" transform="translate(123.5,79.4375)"/>
<path d="M0 0 C4.02133991 -0.11526133 8.03843653 -0.21463387 12.06054688 -0.2746582 C13.42630503 -0.2996928 14.79193067 -0.33373218 16.15722656 -0.37719727 C28.96551583 -0.77453471 28.96551583 -0.77453471 32.8828125 2.26953125 C35.82115287 6.0590145 35.82115287 6.0590145 35.75 9 C35.76546875 9.639375 35.7809375 10.27875 35.796875 10.9375 C34.40278285 14.54573851 32.45827841 16.46591613 29 18 C24.03561783 18.61375345 19.11330668 18.47130602 14.125 18.3125 C12.75524892 18.28739222 11.38545365 18.26458339 10.015625 18.24414062 C6.67660906 18.18535513 3.33816245 18.09567982 0 18 C0 12.06 0 6.12 0 0 Z " fill="#87CF59" transform="translate(406,247)"/>
<path d="M0 0 C4.03922718 -0.09209131 8.07576353 -0.17164044 12.11547852 -0.21972656 C13.48800023 -0.2397799 14.86043717 -0.26703028 16.23266602 -0.30175781 C18.21072044 -0.35054552 20.18941119 -0.37088876 22.16796875 -0.390625 C23.35672607 -0.41157227 24.5454834 -0.43251953 25.77026367 -0.45410156 C29.66475604 0.09346483 31.28069288 1.20064913 34 4 C34.93605213 7.49459462 35.3742539 9.84605048 34.25 13.3125 C33 15 33 15 30 17 C26.90551758 17.22705078 26.90551758 17.22705078 23.14453125 17.1953125 C22.48289474 17.1924826 21.82125824 17.18965271 21.13957214 17.18673706 C19.03036263 17.17555918 16.92158075 17.15045981 14.8125 17.125 C13.38086552 17.11496707 11.94922436 17.10584176 10.51757812 17.09765625 C7.01142222 17.07733071 3.5061887 17.03817991 0 17 C0 11.39 0 5.78 0 0 Z " fill="#F485C8" transform="translate(230,115)"/>
</svg>
