<svg width="16" height="16" viewBox="0 0 16 16" fill="none" xmlns="http://www.w3.org/2000/svg">
<path d="M4.71966 2.31571C4.6183 2.41514 4.53788 2.53323 4.48301 2.66325C4.42815 2.79326 4.3999 2.93263 4.3999 3.07338C4.3999 3.21414 4.42815 3.35351 4.48301 3.48352C4.53788 3.61353 4.6183 3.73163 4.71966 3.83105L8.9621 8.00094L4.71966 12.1708C4.51522 12.3718 4.40037 12.6443 4.40037 12.9285C4.40037 13.2127 4.51522 13.4852 4.71966 13.6862C4.92411 13.8871 5.20139 14 5.49052 14C5.77965 14 6.05693 13.8871 6.26138 13.6862L11.2801 8.75323C11.3815 8.65381 11.4619 8.53571 11.5168 8.4057C11.5717 8.27569 11.5999 8.13632 11.5999 7.99556C11.5999 7.85481 11.5717 7.71544 11.5168 7.58543C11.4619 7.45541 11.3815 7.33732 11.2801 7.23789L6.26138 2.30496C5.84588 1.89657 5.1461 1.89657 4.71966 2.31571Z" fill="#525F63"/>
</svg>
