<svg width="24" height="24" viewBox="0 0 24 24" fill="none" xmlns="http://www.w3.org/2000/svg">
<path d="M7.07974 3.47356C6.9277 3.6227 6.80707 3.79985 6.72477 3.99487C6.64246 4.18989 6.6001 4.39894 6.6001 4.61007C6.6001 4.8212 6.64246 5.03026 6.72477 5.22528C6.80707 5.42029 6.9277 5.59744 7.07974 5.74658L13.4434 12.0014L7.07974 18.2562C6.77308 18.5576 6.60079 18.9665 6.60079 19.3927C6.60079 19.819 6.77308 20.2278 7.07974 20.5292C7.38641 20.8307 7.80233 21 8.23602 21C8.66972 21 9.08564 20.8307 9.39231 20.5292L16.9205 13.1299C17.0725 12.9807 17.1931 12.8036 17.2754 12.6085C17.3577 12.4135 17.4001 12.2045 17.4001 11.9933C17.4001 11.7822 17.3577 11.5732 17.2754 11.3781C17.1931 11.1831 17.0725 11.006 16.9205 10.8568L9.39231 3.45744C8.76906 2.84486 7.71939 2.84486 7.07974 3.47356Z" fill="white"/>
</svg>
