<svg width="32" height="32" viewBox="0 0 32 32" fill="none" xmlns="http://www.w3.org/2000/svg">
<g clip-path="url(#clip0_2163_4697)">
<path d="M27.1443 2.4908C25.4028 0.80794 22.2548 0.0864563 18.2275 0.0864563H6.53934C6.14086 0.0864042 5.75543 0.206903 5.4524 0.426276C5.14936 0.64565 4.94859 0.949501 4.88622 1.28317L0.0194652 27.4519C-0.0772699 27.9679 0.394033 28.4352 1.01094 28.4352H8.22683L10.039 18.6899L9.98281 18.9951C10.1119 18.3062 10.8068 17.7981 11.6297 17.7981H15.0587C21.7949 17.7981 27.0694 15.4785 28.6102 8.7681C28.6559 8.56963 28.6956 8.37647 28.7298 8.18775C28.5353 8.10044 28.5353 8.10044 28.7298 8.18775C29.1886 5.70754 28.7267 4.01928 27.1443 2.4908Z" fill="#27346A"/>
<path d="M12.8001 7.2943C12.9973 7.21453 13.2131 7.17326 13.4317 7.1735H22.595C23.6801 7.1735 24.6922 7.23337 25.617 7.35957C25.8758 7.39458 26.1333 7.43635 26.389 7.48481C26.7515 7.55264 27.1098 7.63564 27.4626 7.7335C27.9173 7.86224 28.3407 8.01218 28.7299 8.18775C29.1886 5.70659 28.7267 4.01928 27.1443 2.4908C25.4018 0.80794 22.2548 0.0864563 18.2275 0.0864563H6.53834C5.71534 0.0864563 5.0152 0.59443 4.88622 1.28317L0.0194659 27.4509C-0.0772692 27.9678 0.394033 28.4344 1.00994 28.4344H8.22683L11.9866 8.22039C12.0236 8.02171 12.117 7.83363 12.2587 7.67231C12.4004 7.51099 12.5862 7.38127 12.8001 7.2943Z" fill="#27346A"/>
<path d="M28.6105 8.76812C27.0698 15.4775 21.7953 17.7982 15.059 17.7982H11.629C10.8061 17.7982 10.1111 18.3062 9.98327 18.9951L7.72874 31.1122C7.6445 31.5638 8.05644 31.973 8.59535 31.973H14.6782C15.0266 31.9729 15.3636 31.8674 15.6285 31.6755C15.8934 31.4836 16.0689 31.2179 16.1233 30.9261L16.1826 30.6633L17.329 24.5032L17.4029 24.1628C17.4573 23.871 17.6328 23.6053 17.8976 23.4134C18.1625 23.2215 18.4995 23.116 18.8479 23.1159H19.7583C25.6507 23.1159 30.2646 21.0863 31.6129 15.2165C32.1757 12.7636 31.8845 10.7156 30.3958 9.27705C29.9442 8.84134 29.3834 8.4815 28.7301 8.18777C28.6948 8.37744 28.6564 8.56966 28.6105 8.76812Z" fill="#009CDE"/>
<path d="M27.1169 7.6427C26.8766 7.58323 26.6341 7.53057 26.3898 7.48482C26.1339 7.43713 25.8764 7.39564 25.6177 7.36042C24.6919 7.23338 23.6805 7.1734 22.5945 7.1734H13.4322C13.2136 7.17309 12.9977 7.21471 12.8007 7.29515C12.5865 7.38181 12.4005 7.51144 12.2587 7.67281C12.1169 7.83419 12.0237 8.02243 11.9871 8.22124L10.0396 18.6899L9.9834 18.9951C10.1115 18.3062 10.8064 17.7981 11.6294 17.7981H15.0594C21.7956 17.7981 27.07 15.4785 28.6108 8.7681C28.6567 8.56964 28.6951 8.37732 28.7305 8.18776C28.3404 8.01328 27.918 7.86214 27.4632 7.73436C27.3485 7.7021 27.233 7.67154 27.117 7.6427" fill="#1F264F"/>
</g>
<defs>
<clipPath id="clip0_2163_4697">
<rect width="32" height="32" fill="white"/>
</clipPath>
</defs>
</svg>
