<?xml version="1.0" encoding="UTF-8"?>
<svg version="1.1" xmlns="http://www.w3.org/2000/svg" width="130px" height="40px" viewBox="0 0 1000 240">
<path d="M0 0 C1.65 0 3.3 0 5 0 C16.54020028 24.69379222 28.02806365 49.40705612 39.04138184 74.34118652 C44.15756709 85.91992157 49.38604388 97.44246421 54.6875 108.9375 C65.04547676 131.41560875 65.04547676 131.41560875 69.69668579 141.7114563 C70.26838045 142.97496376 70.84205282 144.23757845 71.41781616 145.49923706 C72.20189581 147.21840064 72.9781211 148.94114007 73.75390625 150.6640625 C74.19033447 151.62779785 74.6267627 152.5915332 75.07641602 153.58447266 C76 156 76 156 76 159 C71.05 159 66.1 159 61 159 C55.54244854 148.25975336 50.32351141 137.42830991 45.2980957 126.47924805 C44.17609875 124.03768993 43.04621294 121.59988051 41.91601562 119.16210938 C41.18702186 117.578345 40.45848927 115.99436824 39.73046875 114.41015625 C39.39919479 113.69747086 39.06792084 112.98478546 38.72660828 112.25050354 C36.42126857 107.20094571 34.77855144 102.33565432 33 97 C9.9 97 -13.2 97 -37 97 C-37.66 98.98 -38.32 100.96 -39 103 C-40.09872389 105.5304677 -41.21920249 108.03715037 -42.37890625 110.5390625 C-42.70728485 111.25429077 -43.03566345 111.96951904 -43.37399292 112.7064209 C-44.43402503 115.01391515 -45.49821943 117.31946262 -46.5625 119.625 C-48.01424621 122.78068724 -49.46409638 125.93724454 -50.9140625 129.09375 C-51.26917404 129.86598907 -51.62428558 130.63822815 -51.99015808 131.43386841 C-55.2181636 138.45905556 -58.391986 145.50799583 -61.52368164 152.57666016 C-63.8945131 157.8945131 -63.8945131 157.8945131 -65 159 C-66.66617115 159.04063832 -68.33388095 159.042721 -70 159 C-71.37365732 154.87902803 -69.72278648 152.58970483 -67.94140625 148.87890625 C-67.43904198 147.80131294 -67.43904198 147.80131294 -66.92652893 146.70195007 C-66.19749667 145.14044299 -65.46408459 143.58097509 -64.72686768 142.02331543 C-62.73445608 137.81248299 -60.77388883 133.58681894 -58.80859375 129.36328125 C-58.40346558 128.49496674 -57.9983374 127.62665222 -57.58093262 126.73202515 C-53.98425954 119.00884244 -50.51862824 111.23164361 -47.08660889 103.4342041 C-40.25376959 87.91405259 -33.18394053 72.51191551 -26.02954102 57.13769531 C-20.82311427 45.94787241 -15.66322159 34.73841806 -10.5625 23.5 C-10.25303436 22.81853912 -9.94356873 22.13707825 -9.62472534 21.43496704 C-6.38706722 14.30296061 -3.16880772 7.16290689 0 0 Z M-3 21 C-16.15767115 50.00247244 -16.15767115 50.00247244 -29.1875 79.0625 C-29.68540039 80.17729736 -30.18330078 81.29209473 -30.69628906 82.44067383 C-31.14069336 83.44122803 -31.58509766 84.44178223 -32.04296875 85.47265625 C-32.42477295 86.33125244 -32.80657715 87.18984863 -33.19995117 88.07446289 C-34.06394873 89.80638833 -34.06394873 89.80638833 -34 91 C-12.88 91 8.24 91 30 91 C23.220232 75.0502327 23.220232 75.0502327 16.10546875 59.26171875 C15.5062133 57.96969292 15.5062133 57.96969292 14.89485168 56.65156555 C14.07237307 54.87975277 13.24847915 53.10859622 12.4230957 51.33813477 C11.16736076 48.64429673 9.9163574 45.94829808 8.66601562 43.25195312 C7.85443374 41.50508423 7.04259461 39.75833482 6.23046875 38.01171875 C5.86374557 37.22206223 5.4970224 36.4324057 5.1191864 35.61882019 C2.82606025 30.70347475 0.44506393 25.84163243 -2 21 C-2.33 21 -2.66 21 -3 21 Z " fill="#E5CBA0" transform="translate(171,7)"/>
<path d="M0 0 C14.74097835 -2.33520449 14.74097835 -2.33520449 19.67431641 1.19970703 C22.9565149 4.82344543 25.1833508 9.17673542 27.52294922 13.44140625 C30.26459993 18.19057971 33.51613103 22.59420124 36.6875 27.0625 C38.05263932 29.01953854 39.41589475 30.97789243 40.77734375 32.9375 C42.92305936 36.01842468 45.0690731 39.09914129 47.21533203 42.1796875 C48.68651213 44.2914231 50.15746353 46.40331805 51.62817383 48.51538086 C53.00898427 50.49833968 54.39030513 52.48094322 55.7722168 54.46313477 C58.89389759 58.94646375 61.99415231 63.43809479 65 68 C69.24956725 63.963701 72.80831538 59.58107237 76.375 54.9375 C76.98150391 54.15310547 77.58800781 53.36871094 78.21289062 52.56054688 C83.33078883 45.92040202 88.35725282 39.21275823 93.37011719 32.49316406 C98.27706925 25.92752398 103.28089739 19.44259538 108.34570312 12.99804688 C108.88388672 12.31162109 109.42207031 11.62519531 109.9765625 10.91796875 C110.48968994 10.26562256 111.00281738 9.61327637 111.53149414 8.94116211 C112.99030481 7.01281571 114.32153736 5.02850367 115.66015625 3.015625 C116.43230469 2.02046875 117.20445312 1.0253125 118 0 C121.8125 -0.4375 121.8125 -0.4375 125 0 C123.44173795 3.43781525 121.41058599 6.25278467 119.125 9.25 C118.30579306 10.32927795 117.48679312 11.40871303 116.66796875 12.48828125 C116.23274902 13.0601416 115.7975293 13.63200195 115.34912109 14.22119141 C113.51775009 16.6358438 111.70507477 19.06426308 109.89135742 21.4921875 C103.88817849 29.5246526 97.81643488 37.50399941 91.73242188 45.4753418 C87.4273522 51.11820667 83.1543266 56.78286286 78.90625 62.46875 C75.98414837 66.34891774 73.00009135 70.179948 70 74 C78.76695875 88.12288236 88.44083127 101.64126773 97.93945312 115.27587891 C102.83841708 122.31377798 107.70160154 129.37511194 112.52954102 136.46191406 C114.93323214 139.98880042 117.34694946 143.50659414 119.8046875 146.99609375 C120.23144775 147.60372559 120.65820801 148.21135742 121.09790039 148.83740234 C122.22428672 150.43721055 123.35605804 152.03322362 124.48828125 153.62890625 C126 156 126 156 126 158 C120.29265122 159.03462602 114.62099798 159.82679267 109 158 C104.25381049 154.42927492 101.53164453 148.73880952 98.61328125 143.6875 C95.65419756 138.75808214 92.25908191 134.12658673 88.9375 129.4375 C87.56796774 127.47168354 86.20074028 125.50425918 84.8359375 123.53515625 C84.18334961 122.59430176 83.53076172 121.65344727 82.85839844 120.68408203 C79.38729125 115.6707672 75.93379542 110.64543723 72.484375 105.6171875 C68.67479471 100.06531101 64.83704096 94.53291833 61 89 C57.77125465 90.07624845 57.33734218 90.52211051 55.43359375 93.140625 C54.95325684 93.79248779 54.47291992 94.44435059 53.97802734 95.1159668 C53.46965332 95.82019775 52.9612793 96.52442871 52.4375 97.25 C51.35616758 98.7205662 50.27412654 100.19061158 49.19140625 101.66015625 C48.65273926 102.39508301 48.11407227 103.13000977 47.55908203 103.88720703 C45.37123525 106.85207174 43.12994883 109.77352331 40.875 112.6875 C40.46644775 113.21698242 40.05789551 113.74646484 39.63696289 114.29199219 C38.42539575 115.86191017 37.21270677 117.43096218 36 119 C29.14126002 127.89052425 22.32561723 136.81295656 15.53271484 145.75390625 C14.24369498 147.44860589 12.95112488 149.14061358 11.65429688 150.8293457 C10.32905511 152.56823658 9.03763959 154.33288594 7.7578125 156.10546875 C6 158 6 158 2.25 158.3125 C0.64125 158.1578125 0.64125 158.1578125 -1 158 C3.19088401 151.5300678 7.67165335 145.35514895 12.375 139.25 C13.79432456 137.39717657 15.21359379 135.54431075 16.6328125 133.69140625 C17.7161084 132.28012451 17.7161084 132.28012451 18.82128906 130.84033203 C22.3067516 126.29641997 25.77899518 121.74246058 29.25 117.1875 C30.24338379 115.88437866 30.24338379 115.88437866 31.25683594 114.55493164 C39.5068173 103.72622991 39.5068173 103.72622991 47.62988281 92.80224609 C48.62806394 91.48924306 49.670458 90.20950779 50.73730469 88.95166016 C52.33334466 87.01787462 53.77914224 85.1905162 55 83 C54.7532761 80.2216064 54.7532761 80.2216064 53 78 C52.31550781 76.85917969 52.31550781 76.85917969 51.6171875 75.6953125 C51.04226563 74.84710938 50.46734375 73.99890625 49.875 73.125 C49.16730469 72.08085938 48.45960938 71.03671875 47.73046875 69.9609375 C42.84298049 62.85083714 37.90384006 55.77630884 32.96875 48.69921875 C28.38540251 42.12372712 23.84358619 35.52039533 19.31201172 28.90917969 C17.92220206 26.88679198 16.52615363 24.86881788 15.12890625 22.8515625 C9.92428071 15.3287999 4.82569671 7.77381859 0 0 Z " fill="#E8CFA1" transform="translate(419,7)"/>
<path d="M0 0 C5.61 0 11.22 0 17 0 C17.88558594 2.1346875 18.77117187 4.269375 19.68359375 6.46875 C27.15982577 24.47160148 34.71441881 42.43918006 42.35229492 60.37402344 C48.00820838 73.65618814 53.63561093 86.95023119 59.25 100.25 C59.65432251 101.2074411 60.05864502 102.1648822 60.47521973 103.15133667 C61.6348856 105.89761259 62.79408664 108.6440842 63.953125 111.390625 C64.31231018 112.24125015 64.67149536 113.09187531 65.04156494 113.96827698 C66.57942927 117.61396269 68.11230886 121.2612869 69.61914062 124.91992188 C70.06966797 126.01369141 70.52019531 127.10746094 70.984375 128.234375 C71.35788086 129.14928711 71.73138672 130.06419922 72.11621094 131.00683594 C72.83858868 132.95851716 72.83858868 132.95851716 74 134 C76.43854839 128.27127908 78.87589827 122.54204917 81.3125 116.8125 C81.88079529 115.47625076 81.88079529 115.47625076 82.46057129 114.11300659 C86.86128763 103.76346723 91.25371788 93.41053296 95.62109375 83.046875 C96.00128662 82.1447226 96.38147949 81.24257019 96.77319336 80.31307983 C97.54474939 78.48214152 98.31629478 76.65119872 99.08782959 74.82025146 C109.61754669 49.83394781 120.29316953 24.9108497 131 0 C133.31 0 135.62 0 138 0 C136.0648871 6.07548315 133.86158711 11.96120743 131.359375 17.82421875 C130.82762161 19.08160606 130.82762161 19.08160606 130.28512573 20.36439514 C129.1101305 23.14020955 127.93014128 25.91386995 126.75 28.6875 C125.90649464 30.67665451 125.06323897 32.66591492 124.22021484 34.65527344 C121.95380203 40.00034774 119.6825638 45.34335774 117.40979004 50.68572998 C116.00389089 53.99085291 114.59897902 57.29639386 113.19433594 60.60205078 C105.41787855 78.89987478 105.41787855 78.89987478 101.73193359 87.51708984 C97.28909198 97.9067973 92.86215285 108.3014086 88.52420044 118.73544312 C86.60975138 123.33547556 84.68107931 127.92947286 82.75067139 132.52282715 C81.83878741 134.70343509 80.93379036 136.88693669 80.03594971 139.07336426 C78.7990717 142.08382712 77.53911334 145.08358645 76.2734375 148.08203125 C75.91296326 148.97712906 75.55248901 149.87222687 75.18109131 150.79444885 C74.83435364 151.60324997 74.48761597 152.41205109 74.13037109 153.24536133 C73.83778412 153.95074539 73.54519714 154.65612946 73.2437439 155.38288879 C72 157 72 157 69.36685181 157.73466492 C68.58579071 157.82222549 67.80472961 157.90978607 67 158 C63.68817849 151.53448746 60.62580926 145.01746286 57.8046875 138.32421875 C57.41992752 137.41851135 57.03516754 136.51280396 56.63874817 135.57965088 C55.38107836 132.61689897 54.12800395 129.65222784 52.875 126.6875 C51.98177935 124.58070341 51.08830142 122.47401588 50.19458008 120.36743164 C43.57539461 104.75704002 36.98327855 89.13511104 30.40063477 73.50927734 C26.12955604 63.37632985 21.83341297 53.25440726 17.50880241 43.14420128 C16.70032026 41.2538961 15.89227341 39.36340544 15.08436584 37.47285461 C14.5501489 36.22286623 14.01592346 34.97288148 13.48168945 33.72290039 C13.21854981 33.10720342 12.95541018 32.49150644 12.68429661 31.85715199 C10.8638979 27.59901074 9.03813782 23.34318883 7.21166992 19.08764648 C6.26204314 16.86709482 5.31257224 14.64647649 4.36328125 12.42578125 C3.92053864 11.39786469 3.47779602 10.36994812 3.02163696 9.31088257 C2.62173553 8.37338165 2.22183411 7.43588074 1.80981445 6.4699707 C1.45852982 5.65083694 1.10724518 4.83170319 0.74531555 3.98774719 C0 2 0 2 0 0 Z " fill="#E2C99F" transform="translate(222,7)"/>
<path d="M0 0 C4.95 0 9.9 0 15 0 C15 50.16 15 100.32 15 152 C39.42 152 63.84 152 89 152 C90 153 90 153 90.125 155.5 C90 158 90 158 89 159 C86.2611158 159.09516211 83.54752059 159.12554594 80.80834961 159.11352539 C79.94988937 159.11367142 79.09142914 159.11381744 78.20695496 159.1139679 C75.35539262 159.11326847 72.50389475 159.1054747 69.65234375 159.09765625 C67.68079158 159.09579218 65.70923895 159.09436822 63.73768616 159.09336853 C58.53773733 159.08954251 53.33781625 159.07971152 48.13787842 159.06866455 C42.83606339 159.05845222 37.5342439 159.05387129 32.23242188 159.04882812 C21.82160237 159.03808933 11.41080349 159.02101191 1 159 C-0.39634559 156.20730883 -0.12274702 153.92475938 -0.12025452 150.79916382 C-0.12110894 150.15633725 -0.12196337 149.51351068 -0.12284368 148.85120451 C-0.12449658 146.68772167 -0.11898023 144.5243156 -0.11352539 142.36083984 C-0.11324345 140.8137665 -0.11340138 139.26669302 -0.1139679 137.71961975 C-0.11425561 133.51118307 -0.10836308 129.3027747 -0.10139394 125.09434462 C-0.09515607 120.69942333 -0.09455626 116.30450145 -0.09336853 111.90957642 C-0.0902565 103.58334283 -0.08204482 95.25712232 -0.07201904 86.93089449 C-0.06085394 77.45340024 -0.05534645 67.97590537 -0.05032361 58.49840617 C-0.03986211 38.99892982 -0.02206445 19.49946644 0 0 Z " fill="#E3C49A" transform="translate(3,7)"/>
<path d="M0 0 C4.95 0 9.9 0 15 0 C15 52.14 15 104.28 15 158 C10.05 158 5.1 158 0 158 C0 105.86 0 53.72 0 0 Z " fill="#E7CFA1" transform="translate(381,7)"/>
<path d="M0 0 C5 0 5 0 6.56152344 1.45288086 C7.20395996 2.44880249 7.20395996 2.44880249 7.859375 3.46484375 C8.33503906 4.18220703 8.81070312 4.89957031 9.30078125 5.63867188 C9.77902344 6.39728516 10.25726563 7.15589844 10.75 7.9375 C11.72367022 9.42596975 12.6976142 10.91426048 13.671875 12.40234375 C14.0956543 13.06741943 14.51943359 13.73249512 14.95605469 14.41772461 C15.90640161 15.97333743 15.90640161 15.97333743 17 17 C17.33 11.39 17.66 5.78 18 0 C19.65 0 21.3 0 23 0 C23 9.57 23 19.14 23 29 C21.68 29.33 20.36 29.66 19 30 C18.64172119 29.49025635 18.28344238 28.9805127 17.91430664 28.45532227 C16.29805514 26.15699741 14.68029803 23.85973648 13.0625 21.5625 C12.49853516 20.76005859 11.93457031 19.95761719 11.35351562 19.13085938 C10.81533203 18.36708984 10.27714844 17.60332031 9.72265625 16.81640625 C8.97640991 15.75595093 8.97640991 15.75595093 8.21508789 14.67407227 C7.10532955 13.05303063 7.10532955 13.05303063 6 12 C5.67 17.94 5.34 23.88 5 30 C3.35 29.67 1.7 29.34 0 29 C0 19.43 0 9.86 0 0 Z " fill="#EAD6E0" transform="translate(442,199)"/>
<path d="M0 0 C7.26 0 14.52 0 22 0 C22 1.65 22 3.3 22 5 C16.39 5 10.78 5 5 5 C5 7.31 5 9.62 5 12 C8.96 12 12.92 12 17 12 C17.33 13.65 17.66 15.3 18 17 C13.71 17 9.42 17 5 17 C5 19.64 5 22.28 5 25 C10.61 25 16.22 25 22 25 C22 26.65 22 28.3 22 30 C18.52085059 30.02887814 15.04173169 30.04675687 11.5625 30.0625 C10.07266602 30.07506836 10.07266602 30.07506836 8.55273438 30.08789062 C7.60849609 30.09111328 6.66425781 30.09433594 5.69140625 30.09765625 C4.37958374 30.10551147 4.37958374 30.10551147 3.04125977 30.11352539 C1 30 1 30 0 29 C-0.08775605 26.85441173 -0.10695219 24.70595579 -0.09765625 22.55859375 C-0.09443359 21.25341797 -0.09121094 19.94824219 -0.08789062 18.60351562 C-0.07953401 17.2148431 -0.07106905 15.82617123 -0.0625 14.4375 C-0.05748666 13.04492344 -0.05292347 11.65234519 -0.04882812 10.25976562 C-0.03699442 6.83982549 -0.01905831 3.4199075 0 0 Z " fill="#D5ADC1" transform="translate(398,199)"/>
<path d="M0 0 C2.12327857 1.80156969 3.0820412 3.16515408 4.0625 5.75 C2.4125 6.41 0.7625 7.07 -0.9375 7.75 C-1.2675 6.76 -1.5975 5.77 -1.9375 4.75 C-3.5401782 4.64175157 -5.14495748 4.56429355 -6.75 4.5 C-8.08998047 4.43039063 -8.08998047 4.43039063 -9.45703125 4.359375 C-12.04816909 4.5234364 -12.04816909 4.5234364 -13.73046875 6.48828125 C-15.72363186 10.2230432 -15.7052406 13.63344801 -14.9375 17.75 C-13.08108251 21.0239971 -13.08108251 21.0239971 -9.9375 22.75 C-6.29342863 23.08660145 -6.29342863 23.08660145 -2.9375 21.75 C-0.94666823 19.3248212 -0.94666823 19.3248212 0.0625 16.75 C-2.9075 16.42 -5.8775 16.09 -8.9375 15.75 C-8.6075 14.1 -8.2775 12.45 -7.9375 10.75 C-3.6475 10.75 0.6425 10.75 5.0625 10.75 C5.50615036 19.47512369 5.50615036 19.47512369 2.0625 23.75 C-1.68770496 27.50020496 -4.62509523 28.65679992 -9.9375 28.75 C-15.29158724 26.86032215 -18.40782461 23.80935077 -20.9375 18.75 C-21.70000806 11.91242772 -21.10744994 7.27236613 -16.9375 1.75 C-12.12234292 -2.51485341 -5.71651751 -2.43256064 0 0 Z " fill="#EBD9E1" transform="translate(368.9375,200.25)"/>
<path d="M0 0 C2.12327857 1.80156969 3.0820412 3.16515408 4.0625 5.75 C2.4125 6.41 0.7625 7.07 -0.9375 7.75 C-1.2675 6.76 -1.5975 5.77 -1.9375 4.75 C-7.94869344 4.24215469 -7.94869344 4.24215469 -13.5 6.1875 C-15.65787085 10.03413934 -15.80819668 13.44998042 -14.9375 17.75 C-13.08108251 21.0239971 -13.08108251 21.0239971 -9.9375 22.75 C-5.91715076 22.68185849 -3.8198175 22.6323175 -0.9375 19.75 C1.6875 20.125 1.6875 20.125 4.0625 20.75 C2.53062051 23.8988634 1.2702501 25.60505807 -1.625 27.625 C-5.67799949 29.00149039 -8.90710264 29.06670352 -12.9375 27.75 C-16.13539612 25.91860575 -18.3776333 23.66614551 -20.3125 20.5 C-21.66959608 14.52877726 -21.87719671 9.71044828 -18.6875 4.3125 C-14.375946 -2.27459639 -6.93077341 -2.94926528 0 0 Z " fill="#EBD9E2" transform="translate(507.9375,200.25)"/>
<path d="M0 0 C1.88769531 0.09838867 1.88769531 0.09838867 4 1 C5.46386719 3.3449707 5.46386719 3.3449707 6.796875 6.42578125 C7.28027344 7.53244141 7.76367188 8.63910156 8.26171875 9.77929688 C8.75285156 10.94525391 9.24398438 12.11121094 9.75 13.3125 C10.25660156 14.46685547 10.76320313 15.62121094 11.28515625 16.81054688 C15 25.43679456 15 25.43679456 15 30 C12.765625 30.0625 12.765625 30.0625 10 29 C8.1591619 26.18386267 6.9863598 23.11943087 5.75 20 C5.05870058 18.33274845 4.3660629 16.66605095 3.671875 15 C3.3737793 14.2575 3.07568359 13.515 2.76855469 12.75 C2.13047516 11.00944474 2.13047516 11.00944474 1 10 C0.78384033 10.57032959 0.56768066 11.14065918 0.3449707 11.72827148 C-0.64541048 14.30641915 -1.66589787 16.87157293 -2.6875 19.4375 C-3.02716797 20.33533203 -3.36683594 21.23316406 -3.71679688 22.15820312 C-4.2340332 23.43920898 -4.2340332 23.43920898 -4.76171875 24.74609375 C-5.07069092 25.53685303 -5.37966309 26.3276123 -5.69799805 27.14233398 C-7 29 -7 29 -9.63989258 29.76586914 C-10.41872803 29.84313232 -11.19756348 29.92039551 -12 30 C-12.33 29.34 -12.66 28.68 -13 28 C-12.02783203 25.31030273 -12.02783203 25.31030273 -10.5078125 21.93359375 C-10.24241669 21.33950211 -9.97702087 20.74541046 -9.70358276 20.13331604 C-9.14052463 18.87669884 -8.57369491 17.62176588 -8.00341797 16.3684082 C-7.12843408 14.44504868 -6.26440695 12.5170709 -5.40234375 10.58789062 C-1.16986022 1.16986022 -1.16986022 1.16986022 0 0 Z " fill="#EDDDE5" transform="translate(314,199)"/>
<path d="M0 0 C2.29296875 -0.28125 2.29296875 -0.28125 5 0 C6.80078125 1.96875 6.80078125 1.96875 8.3125 4.5 C8.82425781 5.3353125 9.33601562 6.170625 9.86328125 7.03125 C10.23839844 7.6809375 10.61351562 8.330625 11 9 C11.36351562 8.3503125 11.72703125 7.700625 12.1015625 7.03125 C13.61257396 4.52064635 15.08106255 2.21715071 17 0 C20.375 -0.5625 20.375 -0.5625 23 0 C21.74170325 3.51350494 20.28674852 6.00048953 17.9375 8.875 C13.68046611 14.9757128 14.01893758 21.81318882 14 29 C12.0625 29.5625 12.0625 29.5625 10 30 C8.20286403 28.20286403 8.95616022 25.17049679 8.9375 22.75 C8.5020322 15.16041832 5.99645523 10.71721141 1.71484375 4.546875 C0 2 0 2 0 0 Z " fill="#EDDCE4" transform="translate(531,199)"/>
<path d="M0 0 C6.27 0 12.54 0 19 0 C19 0.99 19 1.98 19 3 C13.39 3 7.78 3 2 3 C2 6.3 2 9.6 2 13 C5.96 13 9.92 13 14 13 C14 13.66 14 14.32 14 15 C10.04 15 6.08 15 2 15 C2 18.3 2 21.6 2 25 C7.61 25 13.22 25 19 25 C19 25.99 19 26.98 19 28 C12.4 28 5.8 28 -1 28 C-0.67 18.76 -0.34 9.52 0 0 Z " fill="#FEFEFE" transform="translate(400,200)"/>
<path d="M0 0 C5.94 0 11.88 0 18 0 C18 0.33 18 0.66 18 1 C12.39 1 6.78 1 1 1 C1 3.31 1 5.62 1 8 C4.96 8 8.92 8 13 8 C13.33 9.65 13.66 11.3 14 13 C13.34 13 12.68 13 12 13 C12 12.01 12 11.02 12 10 C8.04 10 4.08 10 0 10 C0 6.7 0 3.4 0 0 Z " fill="#CA91AD" transform="translate(402,203)"/>
</svg>
