<?xml version="1.0" encoding="UTF-8"?>
<svg version="1.1" xmlns="http://www.w3.org/2000/svg" viewBox="0 0 1082 478" width="100%" height="100%">
<path d="M0 0 C281.49 0 562.98 0 853 0 C853 149.16 853 298.32 853 452 C571.51 452 290.02 452 0 452 C0 302.84 0 153.68 0 0 Z " fill="#ffffff00" transform="translate(0,0)"/>
<path d="M0 0 C1.19036865 0.00563965 2.3807373 0.0112793 3.60717773 0.01708984 C36.67374929 0.47156677 65.37892939 14.66383917 88.41015625 37.9375 C98.29949469 48.43839632 104.72566964 60.36736498 110.8125 73.3125 C111.33070313 74.41335937 111.84890625 75.51421875 112.3828125 76.6484375 C114.17887878 81.25147074 115.32503714 85.88056171 116.4375 90.6875 C116.6540625 91.58210938 116.870625 92.47671875 117.09375 93.3984375 C119.1239042 102.02032692 119.9637835 110.40985338 119.94621277 119.25953674 C119.94847833 120.11348351 119.95074388 120.96743028 119.95307809 121.84725422 C119.95936444 124.68407224 119.95859219 127.52084183 119.95776367 130.35766602 C119.96075859 132.40197307 119.96416188 134.44627957 119.96794128 136.49058533 C119.97675342 142.02814319 119.97911828 147.56568559 119.97975707 153.10324979 C119.98046936 156.56936824 119.98260711 160.03548279 119.98525429 163.50160027 C119.99449976 175.61247887 119.99859033 187.7233465 119.99780273 199.83422852 C119.99720274 211.0920479 120.00774134 222.34981926 120.0235464 233.6076265 C120.03666094 243.29715211 120.04198496 252.9866621 120.04134732 262.67619652 C120.04109341 268.45240242 120.04388523 274.22856565 120.05452538 280.00476265 C120.06427197 285.44423984 120.06424094 290.88363413 120.05700874 296.3231144 C120.05597089 298.30791089 120.05827769 300.29271273 120.0643692 302.27750015 C120.14371618 329.94625651 115.38585125 357.37051266 98.8125 380.3125 C98.26980469 381.0653125 97.72710937 381.818125 97.16796875 382.59375 C95.44217054 384.88942537 93.65184718 387.10677879 91.8125 389.3125 C91.09578125 390.17617188 90.3790625 391.03984375 89.640625 391.9296875 C70.59930357 413.89565634 43.41416117 427.1502842 14.8125 431.3125 C-18.85554996 433.24039458 -49.20086681 425.11003112 -75.1875 403.3125 C-76.00734375 402.64476562 -76.8271875 401.97703125 -77.671875 401.2890625 C-83.63296585 396.2529685 -88.45194801 390.49575296 -93.1875 384.3125 C-93.79464844 383.53261719 -94.40179688 382.75273437 -95.02734375 381.94921875 C-103.23961376 370.86917191 -109.92290476 357.09879101 -113.25 343.75 C-113.57097656 342.49058594 -113.89195313 341.23117187 -114.22265625 339.93359375 C-117.10567827 326.82120839 -117.47639777 314.11774749 -117.44628906 300.75976562 C-117.44900448 298.72132747 -117.45256849 296.6828903 -117.45690918 294.64445496 C-117.46596994 289.14656064 -117.46251514 283.648742 -117.45615101 278.15084648 C-117.45105815 272.37452884 -117.45579155 266.59821733 -117.45892334 260.82189941 C-117.46255345 251.12490689 -117.457789 241.42794491 -117.44824219 231.73095703 C-117.4373595 220.54853762 -117.44088576 209.36619116 -117.451895 198.18377352 C-117.46099514 188.55192332 -117.46223984 178.92009498 -117.45701766 169.28824186 C-117.45391293 163.54906743 -117.45344722 157.80992719 -117.46009064 152.070755 C-117.46590326 146.67306954 -117.46179606 141.27547737 -117.45030212 135.8778019 C-117.44767638 133.90667691 -117.44838457 131.93554395 -117.45282745 129.96442223 C-117.47482582 119.2059419 -117.11697512 108.92729616 -115.1875 98.3125 C-115.03874043 97.45435951 -114.88998085 96.59621902 -114.73671341 95.71207428 C-110.47473497 71.66940112 -99.55667157 51.38990283 -82.1875 34.3125 C-81.37667969 33.50296875 -80.56585938 32.6934375 -79.73046875 31.859375 C-64.54469844 17.45429935 -44.64053401 6.75781032 -24.1875 2.3125 C-23.39947998 2.13807373 -22.61145996 1.96364746 -21.79956055 1.78393555 C-14.5033259 0.29559625 -7.43436562 -0.0370053 0 0 Z " fill="#ffffff00" transform="translate(127.1875,7.6875)"/>
<path d="M0 0 C1.94671631 0.24235535 1.94671631 0.24235535 4 1 C5.45694082 3.45556354 6.62373711 5.76398077 7.765625 8.36328125 C8.29073921 9.51184349 8.29073921 9.51184349 8.82646179 10.68360901 C9.98181942 13.22040597 11.11584894 15.76615975 12.25 18.3125 C13.05683483 20.09510256 13.86487503 21.87716 14.67407227 23.65869141 C17.13753403 29.09626899 19.57275575 34.54617466 22 40 C22.35463318 40.79641907 22.70926636 41.59283813 23.074646 42.41339111 C26.02179788 49.03548425 28.96042051 55.66133285 31.88769531 62.29223633 C36.95762723 73.75814865 42.20480306 85.13662066 47.5 96.5 C53.81495179 110.05746281 60.04074554 123.64980877 66.125 137.3125 C66.47119385 138.08706543 66.8173877 138.86163086 67.17407227 139.65966797 C68.14322533 141.83006749 69.1076762 144.00248484 70.0703125 146.17578125 C70.35476227 146.81232132 70.63921204 147.44886139 70.93228149 148.10469055 C72.24484977 151.08549355 73.20512957 153.82051828 74 157 C69.05 157 64.1 157 59 157 C54.98719391 148.33921366 50.98761896 139.67240599 47 131 C46.66760315 130.27721863 46.3352063 129.55443726 45.99273682 128.80975342 C43.91234962 124.28412171 41.83712014 119.75617099 39.76760864 115.22555542 C39.08881477 113.741003 38.40869798 112.25705476 37.7272644 110.77371216 C36.76769615 108.6841008 35.81294643 106.59235334 34.859375 104.5 C34.42429375 103.5563987 34.42429375 103.5563987 33.98042297 102.59373474 C32 98.22830835 32 98.22830835 32 96 C-2.65 96.495 -2.65 96.495 -38 97 C-50.46374764 123.82001861 -50.46374764 123.82001861 -62.62475586 150.77832031 C-64.89919172 155.89919172 -64.89919172 155.89919172 -66 157 C-67.66617115 157.04063832 -69.33388095 157.042721 -71 157 C-69.4273778 151.85323642 -67.63580996 147.06807616 -65.13647461 142.30273438 C-63.92117523 139.84028459 -62.88543218 137.34633621 -61.85546875 134.80078125 C-58.85861414 127.55490895 -55.57196559 120.45493565 -52.27368164 113.34298706 C-46.0552116 99.92921325 -39.96177079 86.46714417 -34 72.9375 C-27.86988428 59.03258004 -21.48856703 45.26019148 -14.93359375 31.55053711 C-14.2679053 30.15624182 -13.60253605 28.76179408 -12.9375 27.3671875 C-12.61644287 26.69412064 -12.29538574 26.02105377 -11.96459961 25.32759094 C-9.03437925 19.14653092 -6.25947224 12.89903695 -3.52514648 6.62911987 C-1.1027287 1.1027287 -1.1027287 1.1027287 0 0 Z " fill="#F2DCAB" transform="translate(461,112)"/>
<path d="M0 0 C1.19036865 0.00563965 2.3807373 0.0112793 3.60717773 0.01708984 C36.67374929 0.47156677 65.37892939 14.66383917 88.41015625 37.9375 C98.29949469 48.43839632 104.72566964 60.36736498 110.8125 73.3125 C111.33070313 74.41335937 111.84890625 75.51421875 112.3828125 76.6484375 C114.17887878 81.25147074 115.32503714 85.88056171 116.4375 90.6875 C116.6540625 91.58210938 116.870625 92.47671875 117.09375 93.3984375 C119.1239042 102.02032692 119.9637835 110.40985338 119.94621277 119.25953674 C119.94847833 120.11348351 119.95074388 120.96743028 119.95307809 121.84725422 C119.95936444 124.68407224 119.95859219 127.52084183 119.95776367 130.35766602 C119.96075859 132.40197307 119.96416188 134.44627957 119.96794128 136.49058533 C119.97675342 142.02814319 119.97911828 147.56568559 119.97975707 153.10324979 C119.98046936 156.56936824 119.98260711 160.03548279 119.98525429 163.50160027 C119.99449976 175.61247887 119.99859033 187.7233465 119.99780273 199.83422852 C119.99720274 211.0920479 120.00774134 222.34981926 120.0235464 233.6076265 C120.03666094 243.29715211 120.04198496 252.9866621 120.04134732 262.67619652 C120.04109341 268.45240242 120.04388523 274.22856565 120.05452538 280.00476265 C120.06427197 285.44423984 120.06424094 290.88363413 120.05700874 296.3231144 C120.05597089 298.30791089 120.05827769 300.29271273 120.0643692 302.27750015 C120.14371618 329.94625651 115.38585125 357.37051266 98.8125 380.3125 C98.26980469 381.0653125 97.72710937 381.818125 97.16796875 382.59375 C95.44217054 384.88942537 93.65184718 387.10677879 91.8125 389.3125 C91.09578125 390.17617188 90.3790625 391.03984375 89.640625 391.9296875 C70.59930357 413.89565634 43.41416117 427.1502842 14.8125 431.3125 C-18.85554996 433.24039458 -49.20086681 425.11003112 -75.1875 403.3125 C-76.00734375 402.64476562 -76.8271875 401.97703125 -77.671875 401.2890625 C-83.63296585 396.2529685 -88.45194801 390.49575296 -93.1875 384.3125 C-93.79464844 383.53261719 -94.40179688 382.75273437 -95.02734375 381.94921875 C-103.23961376 370.86917191 -109.92290476 357.09879101 -113.25 343.75 C-113.57097656 342.49058594 -113.89195313 341.23117187 -114.22265625 339.93359375 C-117.10567827 326.82120839 -117.47639777 314.11774749 -117.44628906 300.75976562 C-117.44900448 298.72132747 -117.45256849 296.6828903 -117.45690918 294.64445496 C-117.46596994 289.14656064 -117.46251514 283.648742 -117.45615101 278.15084648 C-117.45105815 272.37452884 -117.45579155 266.59821733 -117.45892334 260.82189941 C-117.46255345 251.12490689 -117.457789 241.42794491 -117.44824219 231.73095703 C-117.4373595 220.54853762 -117.44088576 209.36619116 -117.451895 198.18377352 C-117.46099514 188.55192332 -117.46223984 178.92009498 -117.45701766 169.28824186 C-117.45391293 163.54906743 -117.45344722 157.80992719 -117.46009064 152.070755 C-117.46590326 146.67306954 -117.46179606 141.27547737 -117.45030212 135.8778019 C-117.44767638 133.90667691 -117.44838457 131.93554395 -117.45282745 129.96442223 C-117.47482582 119.2059419 -117.11697512 108.92729616 -115.1875 98.3125 C-115.03874043 97.45435951 -114.88998085 96.59621902 -114.73671341 95.71207428 C-110.47473497 71.66940112 -99.55667157 51.38990283 -82.1875 34.3125 C-81.37667969 33.50296875 -80.56585938 32.6934375 -79.73046875 31.859375 C-64.54469844 17.45429935 -44.64053401 6.75781032 -24.1875 2.3125 C-23.39947998 2.13807373 -22.61145996 1.96364746 -21.79956055 1.78393555 C-14.5033259 0.29559625 -7.43436562 -0.0370053 0 0 Z M-32.1875 8.3125 C-32.81962402 8.52680664 -33.45174805 8.74111328 -34.10302734 8.96191406 C-62.93548074 18.93316777 -88.81660621 39.93702656 -102.26464844 67.52197266 C-111.91962965 88.73395703 -113.49463769 109.59717795 -113.4621582 132.62304688 C-113.46651749 134.69499391 -113.47170463 136.76693934 -113.47764587 138.83888245 C-113.49091358 144.41117997 -113.49162853 149.98340917 -113.48908257 155.55571938 C-113.4880049 160.22983378 -113.4929162 164.90393481 -113.497688 169.57804632 C-113.50874 180.61372748 -113.50924438 191.64937459 -113.50317383 202.68505859 C-113.49713179 214.02428363 -113.50946091 225.36338466 -113.5307439 236.70258856 C-113.54841984 246.48405157 -113.554352 256.26547531 -113.55110615 266.04695368 C-113.54930335 271.86893757 -113.55182887 277.69083288 -113.56582069 283.51280212 C-113.57849319 288.98937803 -113.57636679 294.46576181 -113.56340981 299.94233513 C-113.56106519 301.93758652 -113.56370155 303.93285186 -113.57203293 305.92808723 C-113.63240127 321.52461211 -112.87096862 337.25412842 -107.0625 351.9375 C-106.7639209 352.71544922 -106.4653418 353.49339844 -106.15771484 354.29492188 C-101.08353313 367.05434761 -94.27231868 378.01174 -85.1875 388.3125 C-84.68863281 388.94285156 -84.18976563 389.57320313 -83.67578125 390.22265625 C-67.2984469 410.82337195 -37.75707325 424.13757237 -12.1875 427.3125 C3.43635892 428.33463206 18.87853891 428.28532314 33.8125 423.3125 C34.79766602 422.99901611 34.79766602 422.99901611 35.80273438 422.67919922 C50.60838182 417.91412223 64.11040946 410.59433681 75.8125 400.3125 C76.61816406 399.64992188 77.42382812 398.98734375 78.25390625 398.3046875 C92.76920535 385.99280626 102.64815977 369.76895951 109.6875 352.25 C109.96174805 351.57936523 110.23599609 350.90873047 110.51855469 350.21777344 C115.9663044 335.90474158 116.24497789 321.65635814 116.18481445 306.56054688 C116.18724733 304.40535812 116.19097144 302.2501705 116.19587708 300.09498596 C116.20522177 294.28300774 116.19591491 288.47119984 116.18254495 282.659235 C116.17115991 276.55240506 116.17534338 270.44558264 116.17729187 264.33874512 C116.17817262 254.08696743 116.16714025 243.83525614 116.14868164 233.58349609 C116.12751745 221.76203138 116.12400552 209.94066385 116.1302436 198.11918402 C116.13595526 186.70737785 116.13027039 175.2956056 116.11907005 163.88380432 C116.11444791 159.04528673 116.11353983 154.20679006 116.1156559 149.36827087 C116.1175515 143.66195176 116.10933787 137.95573035 116.0935955 132.24943352 C116.08938429 130.16585126 116.08848055 128.08225902 116.09128571 125.99867439 C116.1076165 111.68890739 116.10805543 97.23543251 111.3125 83.5625 C111.05750732 82.82354492 110.80251465 82.08458984 110.53979492 81.32324219 C105.16011214 66.45450524 97.30148103 53.11789626 86.8125 41.3125 C86.01199219 40.41144531 85.21148437 39.51039062 84.38671875 38.58203125 C64.99245519 18.10854517 36.3520879 4.84056006 8.1640625 3.87890625 C5.58864684 3.85559486 3.0129409 3.85466757 0.4375 3.875 C-0.23659912 3.87804138 -0.91069824 3.88108276 -1.60522461 3.88421631 C-12.29764125 3.95533472 -22.06168896 4.81033979 -32.1875 8.3125 Z " fill="#DDBA8F" transform="translate(127.1875,7.6875)"/>
<path d="M0 0 C11.55 0 23.1 0 35 0 C33.02 2.97 31.04 5.94 29 9 C25.35991566 18.70689158 25.85048808 29.26176549 25.85473633 39.47729492 C25.851739 40.92386969 25.84833515 42.37044366 25.84455872 43.8170166 C25.83577172 47.72432817 25.83338281 51.63161779 25.83274293 55.53893828 C25.83202927 57.98725277 25.82988897 60.43556178 25.82724571 62.88387489 C25.81800896 71.44578019 25.81390862 80.00766997 25.81469727 88.56958008 C25.81529721 96.51692664 25.80475744 104.46420514 25.7889536 112.41153449 C25.77582248 119.26198746 25.77051571 126.11241833 25.77115268 132.96288377 C25.77140608 137.0421716 25.76864284 141.1213989 25.75797462 145.20067406 C25.74819961 149.04292623 25.74827791 152.88506119 25.75549126 156.72731781 C25.75652562 158.12598405 25.75424384 159.52465797 25.7481308 160.92331123 C25.70032378 172.63344617 25.72862131 184.71396546 31.1953125 195.328125 C32 197 32 197 32 199 C39.50772256 198.9581691 47.01471351 198.88568463 54.52197266 198.79248047 C57.07268664 198.76435829 59.62348635 198.74310051 62.17431641 198.72900391 C65.85363377 198.70745382 69.53192981 198.66073865 73.2109375 198.609375 C74.34050873 198.60814636 75.47007996 198.60691772 76.63388062 198.60565186 C87.41570224 198.40886404 95.28039927 195.55515926 103.08984375 188.0625 C108.67075453 182.0364859 109.89390809 176.04827407 111 168 C111.99 168 112.98 168 114 168 C114 178.89 114 189.78 114 201 C76.71 201 39.42 201 1 201 C2.98 196.71 4.96 192.42 7 188 C9.01455592 178.56235099 9.29368595 169.39784029 9.2746582 159.77734375 C9.2790177 158.29899847 9.28420491 156.82065544 9.29014587 155.34231567 C9.3034114 151.36710682 9.3041288 147.39199375 9.30158257 143.41676712 C9.30050475 140.08202206 9.30541658 136.74729574 9.310188 133.41255474 C9.32123923 125.53901931 9.32174483 117.6655316 9.31567383 109.79199219 C9.30963179 101.70249356 9.32196098 93.61316876 9.3432439 85.52369976 C9.36092114 78.54493709 9.36685181 71.56622946 9.36360615 64.58744526 C9.36180355 60.43388948 9.36432669 56.28045785 9.37832069 52.12692261 C9.39099546 48.21972588 9.38886497 44.31279842 9.37590981 40.40560532 C9.37356564 38.98232808 9.37619991 37.55903129 9.38453293 36.13577652 C9.45205615 23.69396993 8.49334397 12.26965486 1 2 C0.67 1.34 0.34 0.68 0 0 Z " fill="#EDD5A2" transform="translate(34,118)"/>
<path d="M0 0 C5.35499413 -0.90705672 10.72507841 -1.65282557 16 0 C20.38795452 3.20965967 22.99912563 8.22977954 25.70556641 12.84033203 C27.38378546 15.64031803 29.23681452 18.29366292 31.11303711 20.96337891 C32.51557545 22.95966918 33.89350402 24.97098437 35.265625 26.98828125 C37.47524354 30.23297288 39.69699488 33.46902677 41.92456055 36.70141602 C49.32377073 47.43974296 56.6597257 58.22134747 64 69 C67.42694294 65.68708843 70.43752119 62.29926152 73.3125 58.5 C73.72781982 57.95375977 74.14313965 57.40751953 74.57104492 56.84472656 C75.51503185 55.60271839 76.4573944 54.35947452 77.3984375 53.11523438 C79.84306653 49.8865353 82.30049538 46.66761774 84.75610352 43.44726562 C86.82676429 40.73129029 88.89593713 38.01418674 90.96484375 35.296875 C93.49669669 31.97242631 96.03004053 28.6491321 98.56640625 25.328125 C99.12086426 24.60197998 99.67532227 23.87583496 100.24658203 23.12768555 C101.31923569 21.72615982 102.39437252 20.32653056 103.47216797 18.92895508 C105.97778746 15.6763699 108.43949947 12.40669175 110.81640625 9.05859375 C111.26064941 8.44564453 111.70489258 7.83269531 112.16259766 7.20117188 C113.34962907 5.55905872 114.51741536 3.90308113 115.68359375 2.24609375 C118 0 118 0 121.28515625 -0.33984375 C122.62900391 -0.17162109 122.62900391 -0.17162109 124 0 C121.07145033 4.48177578 117.97556807 8.79061037 114.75 13.0625 C113.97825439 14.08863403 113.97825439 14.08863403 113.19091797 15.13549805 C109.53162731 19.99273857 105.84390736 24.82798402 102.15161133 29.66015625 C95.63094469 38.19413076 89.15661428 46.75612833 82.83251953 55.43725586 C80.30347757 58.90518158 77.75890172 62.33880783 75.05859375 65.67578125 C74.40298462 66.49840454 74.40298462 66.49840454 73.73413086 67.33764648 C72.59681929 68.75439247 71.43989671 70.15533601 70.28125 71.5546875 C68.69932856 73.93233607 68.69932856 73.93233607 69.56640625 76.51953125 C71.05518615 79.09548558 72.6405573 81.44023677 74.4375 83.8125 C77.71910898 88.2329858 80.89531802 92.70365372 84 97.25 C87.18711049 101.91318671 90.38860822 106.56495714 93.62890625 111.19140625 C101.203056 122.00916847 108.66614261 132.89331584 116 143.875 C116.40316437 144.47720367 116.80632874 145.07940735 117.22171021 145.69985962 C118.35880588 147.39968869 119.49200051 149.10212543 120.625 150.8046875 C121.60339844 152.27397705 121.60339844 152.27397705 122.6015625 153.77294922 C124 156 124 156 124 157 C118.6194421 158.04470223 113.2891855 158.82647238 108 157 C103.29913945 153.29917974 100.50321023 147.63448144 97.53466797 142.54541016 C94.90301475 138.18053321 91.89898665 134.08221897 88.9375 129.9375 C87.75027664 128.24511998 86.56535242 126.5511246 85.3828125 124.85546875 C84.81208008 124.03739746 84.24134766 123.21932617 83.65332031 122.37646484 C79.86889146 116.93676749 76.11993073 111.4727895 72.375 106.00585938 C69.85826251 102.33442557 67.33486892 98.667566 64.8125 95 C63.88148402 93.64585148 62.95049185 92.29168659 62.01953125 90.9375 C61.35308594 89.968125 60.68664062 88.99875 60 88 C56.26512952 89.24495683 55.65443945 90.54723988 53.4375 93.75 C50.45758068 97.96748144 47.41419306 102.10614953 44.25 106.1875 C40.46988329 111.06703366 36.75301826 115.98990267 33.0625 120.9375 C28.79419636 126.65224638 24.45064961 132.29854286 20.02612305 137.89306641 C16.33389279 142.56239426 12.69772122 147.27276484 9.08349609 152.00268555 C6.10052749 155.89947251 6.10052749 155.89947251 5 157 C3.33382885 157.04063832 1.66611905 157.042721 0 157 C1.33441371 154.17250036 2.83769351 151.70389432 4.6953125 149.19140625 C5.50911377 148.08756592 5.50911377 148.08756592 6.33935547 146.96142578 C6.92861816 146.16978027 7.51788086 145.37813477 8.125 144.5625 C9.0533667 143.30928955 9.0533667 143.30928955 10.00048828 142.03076172 C16.56337822 133.19654403 23.23970275 124.44919871 29.92822266 115.70996094 C32.06400681 112.91627674 34.19486074 110.11889731 36.32421875 107.3203125 C37.03400879 106.38751465 37.74379883 105.4547168 38.47509766 104.49365234 C39.82002369 102.72590044 41.16476462 100.95800768 42.50927734 99.18994141 C43.43474365 97.97443604 43.43474365 97.97443604 44.37890625 96.734375 C44.97074707 95.94869141 45.56258789 95.16300781 46.17236328 94.35351562 C47.43663817 92.72546194 48.74599408 91.13179469 50.08935547 89.56835938 C50.7495166 88.78783203 51.40967773 88.00730469 52.08984375 87.203125 C52.69562256 86.51379883 53.30140137 85.82447266 53.92553711 85.11425781 C55.29928699 82.99166022 55.29928699 82.99166022 54.32958984 80.45849609 C53.18763848 78.34695546 52.04340945 76.40202122 50.63671875 74.4609375 C50.16911133 73.80851074 49.70150391 73.15608398 49.21972656 72.48388672 C48.7140918 71.7879541 48.20845703 71.09202148 47.6875 70.375 C46.5912093 68.84463654 45.49620118 67.31335364 44.40234375 65.78125 C43.83757324 64.99105469 43.27280273 64.20085937 42.69091797 63.38671875 C39.99563277 59.58234276 37.37228923 55.72989539 34.75 51.875 C29.86016321 44.69537169 24.91117377 37.55927208 19.9375 30.4375 C14.89561348 23.20812832 9.89888354 15.95217425 5 8.625 C4.48945068 7.86372803 3.97890137 7.10245605 3.45288086 6.31811523 C0 1.12393959 0 1.12393959 0 0 Z " fill="#F0DBA8" transform="translate(709,112)"/>
<path d="M0 0 C4.95 0 9.9 0 15 0 C19.87302603 9.33679401 23.91140442 18.99052067 28 28.6875 C28.76360787 30.49203933 29.52744562 32.29648141 30.29150391 34.10083008 C35.18089266 45.65547232 40.04303003 57.22159669 44.88452148 68.79638672 C48.20251591 76.72785112 51.53911523 84.65129602 54.88671875 92.5703125 C55.31329773 93.57957291 55.73987671 94.58883331 56.17938232 95.62867737 C58.30298725 100.65234995 60.42783928 105.67549099 62.55419922 110.69799805 C63.33954874 112.55516288 64.12486905 114.41234006 64.91015625 116.26953125 C65.44064827 117.52088364 65.44064827 117.52088364 65.9818573 118.79751587 C68.39323703 124.50360768 70.71806924 130.24095933 73 136 C81.02292982 117.76013624 88.96577641 99.49290747 96.68652344 81.12255859 C98.8872032 75.89083106 101.10023523 70.66433673 103.3125 65.4375 C103.75658203 64.38763916 104.20066406 63.33777832 104.65820312 62.25610352 C108.79536016 52.47716921 112.94434968 42.70326641 117.09298706 32.92919922 C121.74810867 21.96095877 126.38773981 10.98634649 131 0 C132.98 0 134.96 0 137 0 C135.02339884 6.22304411 132.74341876 12.24135946 130.18359375 18.24609375 C129.81510315 19.11788773 129.44661255 19.9896817 129.06695557 20.88789368 C127.86056842 23.73922995 126.64914981 26.58839652 125.4375 29.4375 C124.58614152 31.44620309 123.73498917 33.45499355 122.8840332 35.46386719 C116.44196462 50.65888168 109.94718597 65.83134315 103.43481445 80.99633789 C98.80508834 91.77811718 94.20032857 102.57002588 89.625 113.375 C83.45951741 127.93514848 77.24214356 142.47254596 71 157 C69.68 157 68.36 157 67 157 C64.70701867 153.23295924 62.75645926 149.56695105 61.16088867 145.45361328 C58.93242225 139.79752771 56.56477108 134.20705032 54.17578125 128.6171875 C53.7169606 127.54107712 53.25813995 126.46496674 52.78541565 125.35624695 C51.80410126 123.05501093 50.822292 120.75398588 49.84002686 118.45315552 C48.29154355 114.82591055 46.74444834 111.19807645 45.19775391 107.57006836 C43.62782387 103.88758483 42.05784701 100.2051214 40.48736572 96.52287292 C30.88665132 74.01242416 21.29076188 51.49984627 11.8125 28.9375 C11.3076709 27.73746338 10.8028418 26.53742676 10.28271484 25.30102539 C6.76269474 16.90261996 3.36555121 8.46124503 0 0 Z " fill="#F1DBAA" transform="translate(511,112)"/>
<path d="M0 0 C4.62 0 9.24 0 14 0 C14 50.49 14 100.98 14 153 C38.42 153 62.84 153 88 153 C88 154.32 88 155.64 88 157 C58.96 157 29.92 157 0 157 C0 105.19 0 53.38 0 0 Z " fill="#EFD8A4" transform="translate(293,112)"/>
<path d="M0 0 C3.2031598 2.65883988 4.61325623 6.07207374 6.265625 9.7890625 C6.57622864 10.47299072 6.88683228 11.15691895 7.20684814 11.86157227 C8.22763931 14.11321159 9.23885048 16.3690165 10.25 18.625 C10.95574758 20.1869722 11.66213576 21.74865509 12.36914062 23.31005859 C13.83840191 26.55687254 15.30412005 29.805254 16.76757812 33.0546875 C18.96017209 37.91838161 21.17291494 42.77271661 23.390625 47.625 C24.42681233 49.89422331 25.46286021 52.16351025 26.49890137 54.43280029 C27.16629514 55.89425513 27.83401978 57.35555892 28.5020752 58.81671143 C29.43032344 60.8483217 30.35612127 62.88103021 31.28125 64.9140625 C31.80783203 66.0685791 32.33441406 67.2230957 32.87695312 68.41259766 C34 71 34 71 34 72 C12.22 72 -9.56 72 -32 72 C-29.74978112 65.24934335 -29.74978112 65.24934335 -28.31103516 62.05957031 C-27.98915222 61.34226746 -27.66726929 60.6249646 -27.33563232 59.88592529 C-26.99026428 59.1243512 -26.64489624 58.3627771 -26.2890625 57.578125 C-25.92435852 56.76804993 -25.55965454 55.95797485 -25.18389893 55.12335205 C-24.0006051 52.4975333 -22.81295546 49.87371265 -21.625 47.25 C-20.8112338 45.44732289 -19.99759508 43.64458824 -19.18408203 41.84179688 C-12.86762265 27.85828365 -6.47791616 13.90949322 0 0 Z " fill="#9B255D" transform="translate(457,132)"/>
<path d="M0 0 C4.29 0 8.58 0 13 0 C13 51.81 13 103.62 13 157 C8.71 157 4.42 157 0 157 C0 105.19 0 53.38 0 0 Z " fill="#F2DDAA" transform="translate(671,112)"/>
<path d="M0 0 C2.99223408 1.64826454 5.8660708 3.48201075 7.96875 6.203125 C7.96875 6.863125 7.96875 7.523125 7.96875 8.203125 C8.67 7.460625 9.37125 6.718125 10.09375 5.953125 C14.57696383 1.66483351 17.70370506 -1.02783792 24.03125 -1.234375 C28.13514045 -1.0374867 30.842369 -0.64739886 33.96875 2.203125 C37.38073095 6.99834148 38.81255906 10.19098546 37.96875 16.203125 C34.26634469 27.92332195 22.60483243 37.20485285 12.96875 44.203125 C10.109375 45.484375 10.109375 45.484375 7.96875 46.203125 C-18.9023033 25.23469858 -18.9023033 25.23469858 -20.46875 12.703125 C-19.80539044 7.39624851 -17.92688774 3.88211842 -13.84375 0.265625 C-9.23682062 -1.47477054 -4.65143808 -1.82479494 0 0 Z " fill="#ffffff00" transform="translate(148.03125,123.796875)"/>
<path d="M0 0 C3.46512591 3.10931479 5.38122135 6.25331944 7.46875 10.3984375 C7.78559753 11.02111008 8.10244507 11.64378265 8.42889404 12.2853241 C9.10693812 13.61923835 9.78162969 14.95486113 10.45324707 16.29202271 C12.22827634 19.82422745 14.02953055 23.3430342 15.828125 26.86328125 C16.3650296 27.91632698 16.3650296 27.91632698 16.91278076 28.99064636 C21.28007236 37.53895497 25.90402121 45.94146214 30.546875 54.34228516 C32.09728904 57.17793825 33.61366796 60.03005804 35.125 62.88671875 C42.13143849 76.07909057 49.29509771 86.64180366 60.09375 97.06640625 C62 99 62 99 62 100 C51.44 100 40.88 100 30 100 C29.67 95.38 29.34 90.76 29 86 C27.96291448 82.76462416 26.99172058 80.16484421 25.5 77.1875 C25.12198242 76.38908691 24.74396484 75.59067383 24.35449219 74.76806641 C22.9398612 71.82569889 21.47593223 68.91212782 20 66 C19.6795874 65.3676947 19.3591748 64.7353894 19.02905273 64.08392334 C15.02714924 56.19697569 10.97699954 48.33566601 6.890625 40.4921875 C-5.63206564 16.44177035 -5.63206564 16.44177035 -2.328125 4.58984375 C-1.5 2.6875 -1.5 2.6875 0 0 Z " fill="#F0D9A8" transform="translate(159,255)"/>
<path d="M0 0 C11.55 0 23.1 0 35 0 C35 3.3 35 6.6 35 10 C35.86287659 16.9928957 38.39712242 23.13309622 41.60546875 29.35546875 C42.3262587 30.77461285 43.04679095 32.19388785 43.76708984 33.61328125 C44.13670837 34.33797607 44.5063269 35.0626709 44.887146 35.80932617 C46.67255166 39.32393046 48.42273904 42.85589476 50.17578125 46.38671875 C50.86499122 47.77030344 51.55444409 49.15376716 52.24414062 50.53710938 C53.28956688 52.6341537 54.33436603 54.7314978 55.37719727 56.82983398 C56.41233518 58.91224312 57.45005806 60.99334648 58.48828125 63.07421875 C58.79768143 63.69818039 59.1070816 64.32214203 59.42585754 64.9650116 C61.1464238 68.4065857 63.0116026 71.70798218 65 75 C67.33877162 80.53919593 68.14051208 85.81152492 66.1015625 91.51171875 C65.12772314 93.71149063 64.1072181 95.86465081 63 98 C59.40014102 94.79906866 57.27304244 91.20946682 55.09375 86.98046875 C54.73228378 86.29348907 54.37081757 85.6065094 53.99839783 84.89871216 C52.82533257 82.66519692 51.6627331 80.42640853 50.5 78.1875 C49.68958466 76.64115249 48.87846338 75.09517476 48.06665039 73.54956055 C44.50863694 66.76685982 40.98046179 59.9688166 37.46484375 53.1640625 C28.06982345 34.98661256 18.89823172 18.33485321 4 4 C2.68 2.68 1.36 1.36 0 0 Z " fill="#F1D9A8" transform="translate(80,152)"/>
<path d="M0 0 C2.59902035 1.12282239 5.06357798 2.44772744 7.53125 3.83203125 C10.19477389 4.73909847 10.19477389 4.73909847 13.09375 2.58203125 C14.0425 1.86015625 14.99125 1.13828125 15.96875 0.39453125 C21.62709379 -1.49158335 27.70529939 -1.51693944 33.21875 0.89453125 C38.45599692 3.85840932 42.0826354 8.73618746 43.96875 14.39453125 C44.65731667 22.24419127 42.85165969 28.55463908 38.0859375 34.90234375 C19.16192888 56.53947188 19.16192888 56.53947188 8.69140625 58.91015625 C4.3420708 58.08646575 1.59286508 55.3431312 -1.71875 52.51953125 C-2.42628418 51.92599854 -3.13381836 51.33246582 -3.86279297 50.72094727 C-5.93581308 48.96396227 -7.98719309 47.1850777 -10.03125 45.39453125 C-10.5660498 44.93127441 -11.10084961 44.46801758 -11.65185547 43.99072266 C-18.80141816 37.7054195 -24.60811324 30.45462378 -26.53125 20.9140625 C-26.8341582 15.41438555 -25.20790915 10.85744503 -22.03125 6.39453125 C-15.8984977 -0.06617571 -8.70657492 -2.59522906 0 0 Z M-16.03125 8.39453125 C-19.44323095 13.18974773 -20.87505906 16.38239171 -20.03125 22.39453125 C-15.84701507 35.63999017 -2.54064887 44.33594081 7.96875 52.39453125 C12.80941333 50.87213807 16.03403449 48.11472011 19.78125 44.83203125 C20.39782471 44.29553955 21.01439941 43.75904785 21.6496582 43.20629883 C33.2095882 33.01274595 33.2095882 33.01274595 38.46875 18.95703125 C37.81866066 14.32514469 36.04534584 10.91642385 32.96875 7.39453125 C28.60260924 4.60202039 23.97886587 4.51569533 18.96875 5.39453125 C14.67045465 7.68454743 11.35655754 10.94456211 7.96875 14.39453125 C7.6284375 13.52828125 7.6284375 13.52828125 7.28125 12.64453125 C5.05826132 8.83369351 2.11086008 6.77523461 -2.03125 5.39453125 C-7.33877597 4.87769351 -11.86197724 4.7017468 -16.03125 8.39453125 Z " fill="#EED5A6" transform="translate(148.03125,117.60546875)"/>
<path d="M0 0 C4.95 0 9.9 0 15 0 C13.35 1.65 11.7 3.3 10 5 C3.32909697 12.37036349 -0.98098994 21.05261754 -5.5 29.8125 C-6.29520459 31.33712065 -7.09144494 32.86120149 -7.88867188 34.38476562 C-9.50034222 37.46543425 -11.10861563 40.54783854 -12.71484375 43.63134766 C-15.9250035 49.78197211 -19.21102342 55.89119917 -22.5 62 C-27.65001712 71.58837284 -32.76025911 81.19691897 -37.84698486 90.81896973 C-69.28302559 150.28302559 -69.28302559 150.28302559 -73 154 C-73.99 153.67 -74.98 153.34 -76 153 C-69.07263066 139.62706309 -62.04789497 126.31000102 -54.92163086 113.04199219 C-49.7250102 103.3650826 -44.56704727 93.6680344 -39.42037964 83.96447754 C-35.66830344 76.89103221 -31.9110311 69.82068274 -28.1171875 62.76953125 C-21.557199 50.57601994 -15.06048419 38.3546376 -8.6875 26.0625 C-8.36231384 25.43695221 -8.03712769 24.81140442 -7.7020874 24.16690063 C-6.78183187 22.39518413 -5.8654452 20.62145971 -4.94921875 18.84765625 C-4.42674561 17.83711182 -3.90427246 16.82656738 -3.3659668 15.78540039 C-1.35122949 11.67706475 0.2816842 8.30968383 0.125 3.6875 C0.08375 2.470625 0.0425 1.25375 0 0 Z " fill="#EACDA2" transform="translate(197,152)"/>
<path d="M0 0 C4.50098287 1.12524572 4.50098287 1.12524572 6.76171875 4.30859375 C7.24060547 4.97310547 7.71949219 5.63761719 8.21289062 6.32226562 C8.69951172 7.02029297 9.18613281 7.71832031 9.6875 8.4375 C10.18572266 9.13166016 10.68394531 9.82582031 11.19726562 10.54101562 C14.78447421 15.56894841 14.78447421 15.56894841 16 18 C16.33 12.06 16.66 6.12 17 0 C18.65 0 20.3 0 22 0 C22 9.57 22 19.14 22 29 C16.375 27.875 16.375 27.875 13.88671875 24.18359375 C13.36142578 23.41982422 12.83613281 22.65605469 12.29492188 21.86914062 C11.76447266 21.06669922 11.23402344 20.26425781 10.6875 19.4375 C9.86282227 18.22803711 9.86282227 18.22803711 9.02148438 16.99414062 C7.66788973 15.00494502 6.33218855 13.00359459 5 11 C4.67 16.94 4.34 22.88 4 29 C2.68 29 1.36 29 0 29 C0 19.43 0 9.86 0 0 Z " fill="#F1E7EC" transform="translate(732,304)"/>
<path d="M0 0 C3.42634728 1.29296124 5.41076615 2.06258251 7.375 5.1875 C7.58125 5.785625 7.7875 6.38375 8 7 C6.25 7.6875 6.25 7.6875 4 8 C3.1028125 7.2575 3.1028125 7.2575 2.1875 6.5 C-0.03902735 4.67010846 -0.03902735 4.67010846 -3.5 5 C-7.06092298 5.74939444 -7.06092298 5.74939444 -9.4375 8.125 C-11.40999778 11.75439592 -11.5102632 13.91789442 -11 18 C-9.25271222 21.72803465 -9.25271222 21.72803465 -6 24 C-3.12693772 24.50095023 -3.12693772 24.50095023 0 24 C2.57285724 21.827365 4.48996919 20.02006162 6 17 C3.03 17 0.06 17 -3 17 C-3 15.68 -3 14.36 -3 13 C1.29 13 5.58 13 10 13 C9.68615437 19.9046038 8.97343296 23.14787029 4 28 C0.29278333 29.85360833 -3.95354138 29.45315231 -8 29 C-12.35511465 26.59078764 -14.33241537 23.65168344 -16 19 C-16.69587628 14.27313305 -16.49965701 10.9808082 -14.3125 6.6875 C-9.79695947 1.43970965 -7.16721022 -0.88018371 0 0 Z " fill="#F4EFF2" transform="translate(653,304)"/>
<path d="M0 0 C6.93 0 13.86 0 21 0 C21 1.32 21 2.64 21 4 C15.39 4 9.78 4 4 4 C4 6.97 4 9.94 4 13 C7.96 13 11.92 13 16 13 C16 14.32 16 15.64 16 17 C12.04 17 8.08 17 4 17 C4 19.64 4 22.28 4 25 C9.61 25 15.22 25 21 25 C21 26.32 21 27.64 21 29 C14.07 29 7.14 29 0 29 C0 19.43 0 9.86 0 0 Z " fill="#F5F1F3" transform="translate(688,304)"/>
<path d="M0 0 C3.42634728 1.29296124 5.41076615 2.06258251 7.375 5.1875 C7.58125 5.785625 7.7875 6.38375 8 7 C6.25 7.6875 6.25 7.6875 4 8 C3.1028125 7.2575 3.1028125 7.2575 2.1875 6.5 C-0.04776164 4.65641154 -0.04776164 4.65641154 -3.5625 5.0625 C-7.4249435 6.11589368 -8.0571193 6.64358634 -10 10 C-10.43438809 12.44934407 -10.43438809 12.44934407 -10.3125 15 C-10.30863281 15.845625 -10.30476562 16.69125 -10.30078125 17.5625 C-9.98576274 20.11537729 -9.28396996 21.79013935 -8 24 C-1.42419295 24.37025004 -1.42419295 24.37025004 4 21 C6.25 21.3125 6.25 21.3125 8 22 C7.70488433 24.85278483 7.18767059 25.83578823 5 27.75 C0.00347585 29.83188506 -4.74806487 29.85073105 -9.8125 27.9375 C-13.28798957 24.85920924 -15.5569028 21.55027055 -16.3515625 16.9765625 C-16.55109364 12.24223267 -15.60381902 8.90572854 -13 5 C-8.7624596 0.56984413 -6.13229567 -0.87604224 0 0 Z " fill="#F4ECF0" transform="translate(792,304)"/>
<path d="M0 0 C1.88769531 0.08032227 1.88769531 0.08032227 4 1 C5.46386719 3.46850586 5.46386719 3.46850586 6.796875 6.71484375 C7.28027344 7.87564453 7.76367188 9.03644531 8.26171875 10.23242188 C8.75285156 11.45509766 9.24398437 12.67777344 9.75 13.9375 C10.25660156 15.15630859 10.76320313 16.37511719 11.28515625 17.63085938 C15 26.6576293 15 26.6576293 15 29 C12.76953125 29.06640625 12.76953125 29.06640625 10 28 C8.13711508 25.16381444 6.94317078 22.08025097 5.6875 18.9375 C5.32849609 18.08349609 4.96949219 17.22949219 4.59960938 16.34960938 C3.7155402 14.23963095 2.85010567 12.12383836 2 10 C-1.30809473 13.88554322 -2.87086345 18.39667356 -4.57421875 23.13085938 C-5.3046875 24.98046875 -5.3046875 24.98046875 -7 28 C-9.6953125 28.92578125 -9.6953125 28.92578125 -12 29 C-9.95022906 22.51591085 -7.53890107 16.25480069 -4.875 10 C-4.51535156 9.14277344 -4.15570312 8.28554688 -3.78515625 7.40234375 C-1.13188959 1.13188959 -1.13188959 1.13188959 0 0 Z " fill="#F5EEF1" transform="translate(603,304)"/>
<path d="M0 0 C2.29296875 -0.28125 2.29296875 -0.28125 5 0 C6.80078125 1.96875 6.80078125 1.96875 8.3125 4.5 C8.82425781 5.3353125 9.33601562 6.170625 9.86328125 7.03125 C10.23839844 7.6809375 10.61351562 8.330625 11 9 C13.8705657 5.45330157 13.8705657 5.45330157 16.4375 1.6875 C18 0 18 0 20.59765625 -0.10546875 C21.39042969 -0.07066406 22.18320312 -0.03585937 23 0 C22.2302804 1.3964478 21.45916631 2.79212699 20.6875 4.1875 C20.25824219 4.96480469 19.82898438 5.74210937 19.38671875 6.54296875 C18 9 18 9 16.375 11.3125 C14.60368481 14.77461606 14.44011951 18.00214621 14.3125 21.8125 C14.27833984 22.50537109 14.24417969 23.19824219 14.20898438 23.91210938 C14.12713656 25.60752849 14.06187635 27.30373458 14 29 C12.35 29 10.7 29 9 29 C9.020625 28.05640625 9.04125 27.1128125 9.0625 26.140625 C8.91254148 16.80570696 7.50048614 11.82752237 1.71484375 4.29296875 C0 2 0 2 0 0 Z " fill="#F1E7EC" transform="translate(820,304)"/>
<path d="M0 0 C1.32 0 2.64 0 4 0 C2.88455855 3.85334319 1.38274762 7.22887319 -0.5 10.75 C-3.09150183 15.78011269 -4.12396841 20.42525349 -5 26 C-9.29 26 -13.58 26 -18 26 C-17.154375 25.05125 -16.30875 24.1025 -15.4375 23.125 C-9.34809152 16.00154102 -4.34550492 8.29050247 0 0 Z " fill="#F4DDAF" transform="translate(108,329)"/>
<path d="M0 0 C0.66 -0.33 1.32 -0.66 2 -1 C4.69565202 -0.83219837 7.32405554 -0.38844355 10 0 C6.71607478 3.52717894 3.57390966 6.71821577 -1.390625 7.26171875 C-4.53956966 6.94588149 -5.86156014 6.02417503 -8.3125 4.0625 C-9.00988281 3.51722656 -9.70726562 2.97195312 -10.42578125 2.41015625 C-10.94527344 1.94480469 -11.46476563 1.47945312 -12 1 C-12 0.67 -12 0.34 -12 0 C-3.93277311 -1.21008403 -3.93277311 -1.21008403 0 0 Z " fill="#E3C694" transform="translate(158,169)"/>
<path d="M0 0 C0.33 0.66 0.66 1.32 1 2 C3.64 2 6.28 2 9 2 C9 2.99 9 3.98 9 5 C4.71 5 0.42 5 -4 5 C-2.68 3.35 -1.36 1.7 0 0 Z " fill="#DFC18E" transform="translate(94,350)"/>
<path d="M0 0 C4.62 0 9.24 0 14 0 C9 4 9 4 6.4375 4.5 C4 4 4 4 0 0 Z " fill="#D8B684" transform="translate(150,172)"/>
<path d="M0 0 C1.32 0 2.64 0 4 0 C3.34 1.98 2.68 3.96 2 6 C1.67 5.34 1.34 4.68 1 4 C0.01 3.67 -0.98 3.34 -2 3 C-1.34 2.01 -0.68 1.02 0 0 Z " fill="#DAB18D" transform="translate(108,329)"/>
</svg>
