<svg width="22" height="24" viewBox="0 0 22 24" fill="none" xmlns="http://www.w3.org/2000/svg">
<g clip-path="url(#clip0_1634_1495)">
<path d="M16.1078 8.64175C17.6535 9.74616 19.5472 10.396 21.5924 10.396V6.46247C21.2053 6.46262 20.8193 6.42223 20.4406 6.34197V9.43822C18.3956 9.43822 16.5021 8.78848 14.956 7.68415V15.7114C14.956 19.7271 11.699 22.9822 7.68155 22.9822C6.18254 22.9822 4.78922 22.5292 3.63184 21.7524C4.95283 23.1024 6.79504 23.9398 8.83305 23.9398C12.8508 23.9398 16.1079 20.6848 16.1079 16.6689V8.64175H16.1078ZM17.5287 4.67331C16.7387 3.81071 16.22 2.69596 16.1078 1.46351V0.957611H15.0163C15.291 2.52398 16.2283 3.86219 17.5287 4.67331ZM6.17286 18.6709C5.73145 18.0926 5.49287 17.385 5.49399 16.6574C5.49399 14.8208 6.98373 13.3317 8.82171 13.3317C9.16419 13.3315 9.50465 13.3841 9.83112 13.4875V9.46602C9.4496 9.4138 9.06461 9.39154 8.67978 9.39974V12.5298C8.35314 12.4263 8.01251 12.3738 7.66988 12.3741C5.83197 12.3741 4.34232 13.8631 4.34232 15.6999C4.34232 16.9987 5.0869 18.1232 6.17286 18.6709Z" fill="#FF004F"/>
<path d="M14.9561 7.68407C16.5022 8.7884 18.3955 9.43814 20.4406 9.43814V6.34189C19.2991 6.09882 18.2885 5.50263 17.5287 4.67331C16.2281 3.86211 15.2911 2.5239 15.0163 0.957611H12.1493V16.6688C12.1428 18.5004 10.6556 19.9834 8.82157 19.9834C7.74091 19.9834 6.78075 19.4686 6.17272 18.6709C5.08692 18.1232 4.34226 16.9986 4.34226 15.7C4.34226 13.8633 5.83192 12.3742 7.66982 12.3742C8.02196 12.3742 8.36135 12.429 8.67972 12.5299V9.39982C4.7328 9.48134 1.55859 12.7046 1.55859 16.6688C1.55859 18.6478 2.34902 20.4417 3.63195 21.7525C4.78932 22.5292 6.18257 22.9823 7.68166 22.9823C11.6992 22.9823 14.9561 19.727 14.9561 15.7114L14.9561 7.68407Z" fill="black"/>
<path d="M20.441 6.34179V5.50477C19.4116 5.50627 18.4025 5.21813 17.5291 4.6733C18.3022 5.51927 19.3202 6.10265 20.441 6.34196M15.0166 0.957517C14.9904 0.807854 14.9703 0.657193 14.9564 0.505903V0H10.9977V15.7113C10.9914 17.5428 9.50422 19.0258 7.67012 19.0258C7.15017 19.0266 6.63733 18.905 6.17302 18.671C6.78105 19.4686 7.74121 19.9833 8.82187 19.9833C10.6558 19.9833 12.1431 18.5004 12.1496 16.6688V0.9576L15.0166 0.957517ZM8.68027 9.39972V8.5085C8.34948 8.46333 8.01599 8.44072 7.68212 8.4408C3.66419 8.4408 0.407227 11.696 0.407227 15.7113C0.407227 18.2287 1.68725 20.4473 3.63241 21.7524C2.34949 20.4416 1.55906 18.6476 1.55906 16.6687C1.55906 12.7046 4.73319 9.48124 8.68027 9.39972Z" fill="#00F2EA"/>
</g>
<defs>
<clipPath id="clip0_1634_1495">
<rect width="21.1875" height="24" fill="white" transform="translate(0.40625)"/>
</clipPath>
</defs>
</svg>
