<?xml version="1.0" ?>
<!-- Uploaded to: SVG Repo, www.svgrepo.com, Generator: SVG Repo Mixer Tools -->
<svg fill="#000000" width="800px" height="800px" viewBox="0 0 64 64" xmlns="http://www.w3.org/2000/svg">
<g data-name="05 discount tag" id="_05_discount_tag">
<path d="M54.76,24.53l-3.3-5.19a10.005,10.005,0,0,0,1.68-5.35,1.274,1.274,0,0,0,.02-.28,10.21,10.21,0,0,0-20.41-.46l-6.99,3.09a3.986,3.986,0,0,0-1.7,1.4L8.72,39.81a.978.978,0,0,0-.06,1.04,25.789,25.789,0,0,0,7.13,8.47,24.756,24.756,0,0,0,9.9,4.54,1.492,1.492,0,0,0,.21.02.986.986,0,0,0,.85-.49l3.67-6.12v9.68a1,1,0,0,0,.58.91,28.321,28.321,0,0,0,23.88,0,.989.989,0,0,0,.58-.91V26.93A4.448,4.448,0,0,0,54.76,24.53ZM42.94,5.5a8.237,8.237,0,0,1,8.22,8.24.757.757,0,0,0-.01.15,8.223,8.223,0,0,1-.9,3.55l-1.72-2.71a5.6,5.6,0,0,0-4.73-2.59H41.99a5.469,5.469,0,0,0-1.97.37,4.926,4.926,0,0,0-4.66-.41l-.51.23A8.236,8.236,0,0,1,42.94,5.5ZM30.42,27.3V43.39l-5.01,8.35A22.691,22.691,0,0,1,17,47.73a23.7,23.7,0,0,1-6.29-7.29l15-21.56a2.01,2.01,0,0,1,.85-.71l9.61-4.24a2.875,2.875,0,0,1,1.85-.13,4.99,4.99,0,0,0-.83,1.05L31.06,25A4.528,4.528,0,0,0,30.42,27.3ZM53.46,56.31a26.784,26.784,0,0,1-21.04,0V27.3a2.489,2.489,0,0,1,.36-1.27L38.9,15.88a3.634,3.634,0,0,1,3.09-1.74H43.8a3.581,3.581,0,0,1,3.04,1.67l2.18,3.42a8.118,8.118,0,0,1-6.08,2.7,8.38,8.38,0,0,1-1.57-.17,2.463,2.463,0,0,1,2.15-1.29,1,1,0,0,0,0-2,4.455,4.455,0,1,0,0,8.91,1,1,0,0,0,0-2,2.457,2.457,0,0,1-2.3-1.6,10.144,10.144,0,0,0,8.9-2.81l2.96,4.64a2.446,2.446,0,0,1,.38,1.32Z"/>
<path d="M38.33,32.3a3.3,3.3,0,1,0,3.31,3.3A3.3,3.3,0,0,0,38.33,32.3Zm0,4.6a1.3,1.3,0,1,1,1.31-1.3A1.3,1.3,0,0,1,38.33,36.9Z"/>
<path d="M47.55,43.81a3.305,3.305,0,1,0,3.3,3.31A3.312,3.312,0,0,0,47.55,43.81Zm0,4.61a1.305,1.305,0,1,1,1.3-1.3A1.3,1.3,0,0,1,47.55,48.42Z"/>
<path d="M48.693,33.67a1,1,0,0,0-1.406.149L37.043,46.489A1,1,0,0,0,38.6,47.747l10.244-12.67A1,1,0,0,0,48.693,33.67Z"/>
<path d="M23.479,41.225a1,1,0,1,0-1.268,1.546l2.934,2.407a.99.99,0,0,0,.632.227,1,1,0,0,0,.635-1.773Z"/>
<path d="M17.586,36.415a1,1,0,0,0-1.313,1.508l2.741,2.386A1,1,0,1,0,20.326,38.8Z"/>
</g>
</svg>