<svg width="24" height="24" viewBox="0 0 24 24" fill="none" xmlns="http://www.w3.org/2000/svg">
<g clip-path="url(#clip0_2013_5067)">
<mask id="path-1-inside-1_2013_5067" fill="white">
<path d="M21.6345 6.18396L13.4638 1.4029C13.0169 1.13961 12.5004 1 11.9733 1C11.4462 1 10.9298 1.13961 10.4828 1.4029L2.31341 6.21131C1.84867 6.48713 1.47982 6.88516 1.2524 7.35627C1.02497 7.82738 0.948934 8.35094 1.03367 8.86231L3.14133 20.7876C3.25225 21.4121 3.59681 21.9785 4.11261 22.3843C4.62842 22.7901 5.28137 23.0084 5.95323 22.9997H18.0464C18.7184 23.0085 19.3715 22.7902 19.8875 22.3844C20.4036 21.9787 20.7484 21.4122 20.8596 20.7876L22.9672 8.86231C23.0523 8.34153 22.9708 7.80867 22.7329 7.3318C22.4951 6.85493 22.1118 6.45571 21.632 6.18515M7.75547 17.3029H16.1924H7.75547Z"/>
</mask>
<path d="M20.8769 7.4786C21.5919 7.89699 22.5107 7.65653 22.9291 6.94152C23.3475 6.22651 23.1071 5.30771 22.392 4.88932L20.8769 7.4786ZM13.4638 1.4029L12.7025 2.69532L12.7063 2.69754L13.4638 1.4029ZM11.9733 1V2.5V1ZM10.4828 1.4029L11.2437 2.6956L11.2442 2.69532L10.4828 1.4029ZM2.31341 6.21131L1.55253 4.9186L1.54785 4.92138L2.31341 6.21131ZM1.03367 8.86231L-0.446155 9.10751C-0.445279 9.1128 -0.444374 9.11809 -0.443441 9.12337L1.03367 8.86231ZM3.14133 20.7876L1.66422 21.0487L1.66444 21.0499L3.14133 20.7876ZM5.95323 22.9997V21.4997C5.94676 21.4997 5.9403 21.4998 5.93383 21.4999L5.95323 22.9997ZM18.0464 22.9997L18.0659 21.4999C18.0594 21.4998 18.0529 21.4997 18.0464 21.4997V22.9997ZM20.8596 20.7876L22.3363 21.0505L22.3367 21.0487L20.8596 20.7876ZM22.9672 8.86231L24.4443 9.12337C24.4455 9.11701 24.4465 9.11063 24.4476 9.10426L22.9672 8.86231ZM22.3687 4.87857C21.6471 4.47166 20.7323 4.72677 20.3254 5.44837C19.9185 6.16998 20.1736 7.08482 20.8952 7.49173L22.3687 4.87857ZM7.75547 15.8029C6.92704 15.8029 6.25547 16.4745 6.25547 17.3029C6.25547 18.1313 6.92704 18.8029 7.75547 18.8029V15.8029ZM16.1924 18.8029C17.0209 18.8029 17.6924 18.1313 17.6924 17.3029C17.6924 16.4745 17.0209 15.8029 16.1924 15.8029V18.8029ZM22.392 4.88932L14.2214 0.108252L12.7063 2.69754L20.8769 7.4786L22.392 4.88932ZM14.2252 0.110473C13.5436 -0.291003 12.7636 -0.5 11.9733 -0.5V2.5C12.2372 2.5 12.4901 2.57022 12.7025 2.69532L14.2252 0.110473ZM11.9733 -0.5C11.183 -0.5 10.403 -0.291003 9.72146 0.110473L11.2442 2.69532C11.4565 2.57022 11.7095 2.5 11.9733 2.5V-0.5ZM9.72194 0.110194L1.55254 4.91861L3.07428 7.50402L11.2437 2.6956L9.72194 0.110194ZM1.54785 4.92138C0.83845 5.3424 0.261567 5.95841 -0.0984408 6.70417L2.60323 8.00838C2.69807 7.81192 2.85889 7.63186 3.07896 7.50125L1.54785 4.92138ZM-0.0984408 6.70417C-0.459043 7.45116 -0.581967 8.28789 -0.446155 9.10751L2.51349 8.6171C2.47983 8.41399 2.50899 8.2036 2.60323 8.00838L-0.0984408 6.70417ZM-0.443441 9.12337L1.66422 21.0487L4.61844 20.5266L2.51077 8.60125L-0.443441 9.12337ZM1.66444 21.0499C1.84218 22.0506 2.39092 22.9384 3.18516 23.5632L5.04007 21.2054C4.80269 21.0187 4.66231 20.7736 4.61821 20.5253L1.66444 21.0499ZM3.18516 23.5632C3.97748 24.1866 4.9666 24.5126 5.97262 24.4996L5.93383 21.4999C5.59614 21.5042 5.27935 21.3937 5.04007 21.2054L3.18516 23.5632ZM5.95323 24.4997H18.0464V21.4997H5.95323V24.4997ZM18.0269 24.4996C19.033 24.5127 20.0222 24.1867 20.8147 23.5635L18.9604 21.2053C18.7208 21.3937 18.4038 21.5043 18.0659 21.4999L18.0269 24.4996ZM20.8147 23.5635C21.6092 22.9389 22.1582 22.0512 22.3363 21.0505L19.3828 20.5247C19.3385 20.7732 19.198 21.0185 18.9604 21.2053L20.8147 23.5635ZM22.3367 21.0487L24.4443 9.12337L21.4901 8.60125L19.3825 20.5266L22.3367 21.0487ZM24.4476 9.10426C24.584 8.26943 24.4521 7.41798 24.0752 6.66231L21.3906 8.00129C21.4894 8.19936 21.5207 8.41364 21.4869 8.62036L24.4476 9.10426ZM24.0752 6.66231C23.699 5.90796 23.1002 5.29101 22.3687 4.87857L20.8952 7.49173C21.1234 7.62041 21.2912 7.8019 21.3906 8.00129L24.0752 6.66231ZM7.75547 18.8029H16.1924V15.8029H7.75547V18.8029Z" fill="white" mask="url(#path-1-inside-1_2013_5067)"/>
</g>
<defs>
<clipPath id="clip0_2013_5067">
<rect width="24" height="24" fill="white"/>
</clipPath>
</defs>
</svg>
