<svg width="24" height="24" viewBox="0 0 24 24" fill="none" xmlns="http://www.w3.org/2000/svg">
<g clip-path="url(#clip0_2013_4807)">
<path d="M22.5877 5.84934H22.5799H22.5703L16.534 8.86746L16.5297 8.85882V8.87445V11.9184L15.0328 12.6668V8.87445H15.0424L15.0285 8.86746L8.97824 5.84235L8.97475 5.84934L8.97125 5.85632L8.96693 5.86496V8.51912L7.47 7.77065V4.16436L15.7812 0.00873484L24.0925 4.16436V13.4231L22.5956 12.6746V5.84934H22.5877ZM15.7778 7.56977L15.7754 7.57445L15.7848 7.56976L17.8763 6.51806L17.8728 6.51108L17.8693 6.5041L17.8665 6.49844L12.4055 3.37284L12.4087 3.36734L12.3981 3.37263L9.90477 4.62522L9.90828 4.6322L9.91178 4.63918L9.91413 4.64385L15.7778 7.56977ZM19.4997 5.71432L19.4966 5.71976L19.507 5.71452L21.6577 4.63919L21.6542 4.6322L21.6507 4.62521L21.6484 4.62054L15.7847 1.68282L15.7871 1.67811L15.7777 1.68283L14.017 2.56909L14.0205 2.57607L14.024 2.58305L14.0269 2.5887L19.4997 5.71432ZM13.5046 13.4309L12.006 14.1802H11.9999H11.992H11.9824L7.4587 16.4421L7.45438 16.4334V16.449V21.8257H7.46219H7.47H7.47959L11.992 19.5577V21.2418L6.70592 23.8849L-0.0927734 20.4738V12.4952L6.70591 9.09588L13.5046 12.4952V13.4309ZM5.94964 21.8257L5.95314 21.8187L5.95745 21.8102V16.449H5.9671L5.95313 16.4421L1.41546 14.1732L1.41197 14.1802L1.40848 14.1872L1.40416 14.1958V19.5451H1.39457L1.40846 19.552L5.94613 21.8327L5.94964 21.8257ZM6.70243 15.1444L6.70012 15.149L6.7094 15.1444L11.0698 12.9701L11.0663 12.9631L11.0628 12.9561L11.0605 12.9514L6.70941 10.77L6.71177 10.7653L6.70241 10.77L2.342 12.9561L2.3455 12.9631L2.349 12.9701L2.35134 12.9747L6.70243 15.1444ZM18.0501 21.9321L18.0536 21.9251L18.0579 21.9164V18.3279H18.0675L18.0536 18.3209L15.0285 16.8084L15.025 16.8154L15.0215 16.8223L15.0172 16.831V20.4195H15.0075L15.0215 20.4265L18.0466 21.939L18.0501 21.9321ZM22.5912 20.4265L22.5956 20.4351V20.4195V16.8154H22.5877H22.5799H22.5703L19.5591 18.3209L19.5548 18.3123V18.3279V21.9321H19.5626H19.5704H19.5801L22.5912 20.4265ZM18.8029 17.0232L18.8005 17.0279L18.8099 17.0232L21.6577 15.5934L21.6542 15.5864L21.6507 15.5794L21.6484 15.5748L18.8098 14.1614L18.8121 14.1568L18.8029 14.1614L15.955 15.5794L15.9585 15.5864L15.962 15.5934L15.9643 15.5981L18.8029 17.0232ZM13.5202 21.3482V15.1304L18.8064 12.4873L24.0925 15.1304V21.3482L18.8064 23.9913L13.5202 21.3482Z" fill="#071116" stroke="#071116" stroke-width="0.015625"/>
</g>
<defs>
<clipPath id="clip0_2013_4807">
<rect width="24" height="24" fill="white"/>
</clipPath>
</defs>
</svg>
